<?xml version="1.0" encoding="UTF-8" standalone="no"?>
<!-- Created with Inkscape (http://www.inkscape.org/) -->

<svg
   xmlns:dc="http://purl.org/dc/elements/1.1/"
   xmlns:cc="http://creativecommons.org/ns#"
   xmlns:rdf="http://www.w3.org/1999/02/22-rdf-syntax-ns#"
   xmlns:svg="http://www.w3.org/2000/svg"
   xmlns="http://www.w3.org/2000/svg"
   xmlns:sodipodi="http://sodipodi.sourceforge.net/DTD/sodipodi-0.dtd"
   xmlns:inkscape="http://www.inkscape.org/namespaces/inkscape"
   version="1.1"
   id="svg2"
   xml:space="preserve"
   width="660"
   height="525"
   viewBox="0 0 660 525"
   sodipodi:docname="combined.svg"
   inkscape:version="0.92.4 5da689c313, 2019-01-14"><metadata
     id="metadata8"><rdf:RDF><cc:Work
         rdf:about=""><dc:format>image/svg+xml</dc:format><dc:type
           rdf:resource="http://purl.org/dc/dcmitype/StillImage" /><dc:title></dc:title></cc:Work></rdf:RDF></metadata><defs
     id="defs6"><clipPath
       clipPathUnits="userSpaceOnUse"
       id="clipPath24"><path
         d="M 180,1800 H 5940 V 6120 H 180 Z"
         id="path22"
         inkscape:connector-curvature="0" /></clipPath></defs><sodipodi:namedview
     pagecolor="#ffffff"
     bordercolor="#666666"
     borderopacity="1"
     objecttolerance="10"
     gridtolerance="10"
     guidetolerance="10"
     inkscape:pageopacity="0"
     inkscape:pageshadow="2"
     inkscape:window-width="1920"
     inkscape:window-height="1051"
     id="namedview4"
     showgrid="false"
     inkscape:pagecheckerboard="true"
     inkscape:zoom="0.77172112"
     inkscape:cx="513.43091"
     inkscape:cy="449.38611"
     inkscape:window-x="0"
     inkscape:window-y="29"
     inkscape:window-maximized="1"
     inkscape:current-layer="g10" /><g
     id="g10"
     inkscape:groupmode="layer"
     inkscape:label="combined"
     transform="matrix(1.3333333,0,0,-1.3333333,0,525)"><path
       inkscape:connector-curvature="0"
       id="path30"
       style="fill:none;stroke:#d9d9d9;stroke-width:0.5;stroke-linecap:butt;stroke-linejoin:miter;stroke-miterlimit:10;stroke-dasharray:16, 0;stroke-dashoffset:0;stroke-opacity:1"
       d="M 68.853215,26.346283 V 378.42628" /><path
       inkscape:connector-curvature="0"
       id="path32"
       style="fill:none;stroke:#d9d9d9;stroke-width:0.5;stroke-linecap:butt;stroke-linejoin:miter;stroke-miterlimit:10;stroke-dasharray:16, 0;stroke-dashoffset:0;stroke-opacity:1"
       d="M 161.85321,26.346283 V 378.42628" /><path
       inkscape:connector-curvature="0"
       id="path34"
       style="fill:none;stroke:#d9d9d9;stroke-width:0.5;stroke-linecap:butt;stroke-linejoin:miter;stroke-miterlimit:10;stroke-dasharray:16, 0;stroke-dashoffset:0;stroke-opacity:1"
       d="M 254.85321,26.346283 V 378.42628" /><path
       inkscape:connector-curvature="0"
       id="path36"
       style="fill:none;stroke:#d9d9d9;stroke-width:0.5;stroke-linecap:butt;stroke-linejoin:miter;stroke-miterlimit:10;stroke-dasharray:16, 0;stroke-dashoffset:0;stroke-opacity:1"
       d="M 347.85321,26.346283 V 378.42628" /><path
       inkscape:connector-curvature="0"
       id="path38"
       style="fill:none;stroke:#d9d9d9;stroke-width:0.5;stroke-linecap:butt;stroke-linejoin:miter;stroke-miterlimit:10;stroke-dasharray:16, 0;stroke-dashoffset:0;stroke-opacity:1"
       d="M 440.85321,26.346283 V 378.42628" /><path
       inkscape:connector-curvature="0"
       id="path58"
       style="fill:none;stroke:#d9d9d9;stroke-width:0.5;stroke-linecap:butt;stroke-linejoin:miter;stroke-miterlimit:10;stroke-dasharray:16, 0;stroke-dashoffset:0;stroke-opacity:1"
       d="M 31.653317,72.520283 H 478.05321" /><path
       inkscape:connector-curvature="0"
       id="path60"
       style="fill:none;stroke:#d9d9d9;stroke-width:0.5;stroke-linecap:butt;stroke-linejoin:miter;stroke-miterlimit:10;stroke-dasharray:16, 0;stroke-dashoffset:0;stroke-opacity:1"
       d="M 31.653317,118.69528 H 478.05321" /><path
       inkscape:connector-curvature="0"
       id="path62"
       style="fill:none;stroke:#d9d9d9;stroke-width:0.5;stroke-linecap:butt;stroke-linejoin:miter;stroke-miterlimit:10;stroke-dasharray:16, 0;stroke-dashoffset:0;stroke-opacity:1"
       d="M 31.653317,164.86928 H 478.05321" /><path
       inkscape:connector-curvature="0"
       id="path64"
       style="fill:none;stroke:#d9d9d9;stroke-width:0.5;stroke-linecap:butt;stroke-linejoin:miter;stroke-miterlimit:10;stroke-dasharray:16, 0;stroke-dashoffset:0;stroke-opacity:1"
       d="M 31.653317,211.04428 H 478.05321" /><path
       inkscape:connector-curvature="0"
       id="path66"
       style="fill:none;stroke:#d9d9d9;stroke-width:0.5;stroke-linecap:butt;stroke-linejoin:miter;stroke-miterlimit:10;stroke-dasharray:16, 0;stroke-dashoffset:0;stroke-opacity:1"
       d="M 31.653317,257.21828 H 478.05321" /><path
       inkscape:connector-curvature="0"
       id="path68"
       style="fill:none;stroke:#d9d9d9;stroke-width:0.5;stroke-linecap:butt;stroke-linejoin:miter;stroke-miterlimit:10;stroke-dasharray:16, 0;stroke-dashoffset:0;stroke-opacity:1"
       d="M 31.653317,303.39228 H 478.05321" /><path
       inkscape:connector-curvature="0"
       id="path70"
       style="fill:none;stroke:#d9d9d9;stroke-width:0.5;stroke-linecap:butt;stroke-linejoin:miter;stroke-miterlimit:10;stroke-dasharray:16, 0;stroke-dashoffset:0;stroke-opacity:1"
       d="M 31.653317,349.56728 H 478.05321" /><g
       id="g1134"
       transform="translate(-61.226783,-201.17371)"><path
         d="m 130.08,227.52 v 4.465"
         style="fill:none;stroke:#262626;stroke-width:0.5;stroke-linecap:butt;stroke-linejoin:miter;stroke-miterlimit:10;stroke-dasharray:none;stroke-opacity:1"
         id="path40"
         inkscape:connector-curvature="0" /><path
         d="m 223.08,227.52 v 4.465"
         style="fill:none;stroke:#262626;stroke-width:0.5;stroke-linecap:butt;stroke-linejoin:miter;stroke-miterlimit:10;stroke-dasharray:none;stroke-opacity:1"
         id="path42"
         inkscape:connector-curvature="0" /><path
         d="m 316.08,227.52 v 4.465"
         style="fill:none;stroke:#262626;stroke-width:0.5;stroke-linecap:butt;stroke-linejoin:miter;stroke-miterlimit:10;stroke-dasharray:none;stroke-opacity:1"
         id="path44"
         inkscape:connector-curvature="0" /><path
         d="m 409.08,227.52 v 4.465"
         style="fill:none;stroke:#262626;stroke-width:0.5;stroke-linecap:butt;stroke-linejoin:miter;stroke-miterlimit:10;stroke-dasharray:none;stroke-opacity:1"
         id="path46"
         inkscape:connector-curvature="0" /><path
         d="m 502.08,227.52 v 4.465"
         style="fill:none;stroke:#262626;stroke-width:0.5;stroke-linecap:butt;stroke-linejoin:miter;stroke-miterlimit:10;stroke-dasharray:none;stroke-opacity:1"
         id="path48"
         inkscape:connector-curvature="0" /><path
         d="M 92.8801,227.52 H 539.28"
         style="fill:none;stroke:#d9d9d9;stroke-width:0.5;stroke-linecap:butt;stroke-linejoin:miter;stroke-miterlimit:10;stroke-dasharray:16, 0;stroke-dashoffset:0;stroke-opacity:1"
         id="path56"
         inkscape:connector-curvature="0" /><path
         d="M 92.8801,227.52 H 539.28"
         style="fill:none;stroke:#262626;stroke-width:0.5;stroke-linecap:square;stroke-linejoin:miter;stroke-miterlimit:10;stroke-dasharray:16, 0;stroke-dashoffset:0;stroke-opacity:1"
         id="path108"
         inkscape:connector-curvature="0" /></g><g
       id="g1105"
       transform="translate(-61.226783,-201.17371)"><path
         d="M 92.8801,227.52 H 97.348"
         style="fill:none;stroke:#262626;stroke-width:0.5;stroke-linecap:butt;stroke-linejoin:miter;stroke-miterlimit:10;stroke-dasharray:none;stroke-opacity:1"
         id="path72"
         inkscape:connector-curvature="0" /><path
         d="M 92.8801,273.694 H 97.348"
         style="fill:none;stroke:#262626;stroke-width:0.5;stroke-linecap:butt;stroke-linejoin:miter;stroke-miterlimit:10;stroke-dasharray:none;stroke-opacity:1"
         id="path74"
         inkscape:connector-curvature="0" /><path
         d="M 92.8801,319.869 H 97.348"
         style="fill:none;stroke:#262626;stroke-width:0.5;stroke-linecap:butt;stroke-linejoin:miter;stroke-miterlimit:10;stroke-dasharray:none;stroke-opacity:1"
         id="path76"
         inkscape:connector-curvature="0" /><path
         d="M 92.8801,366.043 H 97.348"
         style="fill:none;stroke:#262626;stroke-width:0.5;stroke-linecap:butt;stroke-linejoin:miter;stroke-miterlimit:10;stroke-dasharray:none;stroke-opacity:1"
         id="path78"
         inkscape:connector-curvature="0" /><path
         d="M 92.8801,412.218 H 97.348"
         style="fill:none;stroke:#262626;stroke-width:0.5;stroke-linecap:butt;stroke-linejoin:miter;stroke-miterlimit:10;stroke-dasharray:none;stroke-opacity:1"
         id="path80"
         inkscape:connector-curvature="0" /><path
         d="M 92.8801,458.392 H 97.348"
         style="fill:none;stroke:#262626;stroke-width:0.5;stroke-linecap:butt;stroke-linejoin:miter;stroke-miterlimit:10;stroke-dasharray:none;stroke-opacity:1"
         id="path82"
         inkscape:connector-curvature="0" /><path
         d="M 92.8801,504.566 H 97.348"
         style="fill:none;stroke:#262626;stroke-width:0.5;stroke-linecap:butt;stroke-linejoin:miter;stroke-miterlimit:10;stroke-dasharray:none;stroke-opacity:1"
         id="path84"
         inkscape:connector-curvature="0" /><path
         d="M 92.8801,550.741 H 97.348"
         style="fill:none;stroke:#262626;stroke-width:0.5;stroke-linecap:butt;stroke-linejoin:miter;stroke-miterlimit:10;stroke-dasharray:none;stroke-opacity:1"
         id="path86"
         inkscape:connector-curvature="0" /><path
         d="M 92.8801,227.52 V 579.6"
         style="fill:none;stroke:#262626;stroke-width:0.5;stroke-linecap:square;stroke-linejoin:miter;stroke-miterlimit:10;stroke-dasharray:16, 0;stroke-dashoffset:0;stroke-opacity:1"
         id="path110"
         inkscape:connector-curvature="0" /></g><text
       transform="scale(1,-1)"
       style="font-variant:normal;font-weight:normal;font-size:11px;font-family:Helvetica;-inkscape-font-specification:Helvetica;writing-mode:lr-tb;fill:#262626;fill-opacity:1;fill-rule:nonzero;stroke:none"
       id="text116"
       x="233.71248"
       y="-9.4783888"><tspan
         x="233.71248 240.71251 244.71251 250.71251 256.71255 262.71255 268.71255 274.71255 280.71255"
         y="-9.4783888"
         sodipodi:role="line"
         id="tspan114">Frequency</tspan></text>
<text
       transform="matrix(0,1,1,0,0,0)"
       style="font-variant:normal;font-weight:normal;font-size:11px;font-family:Helvetica;-inkscape-font-specification:Helvetica;writing-mode:lr-tb;fill:#262626;fill-opacity:1;fill-rule:nonzero;stroke:none"
       id="text120"
       x="139.07132"
       y="16.55991"><tspan
         sodipodi:role="line"
         id="tspan118"
         x="139.07132"
         y="16.55991">Power Spectral Density</tspan></text>
<path
       inkscape:connector-curvature="0"
       id="path128"
       style="fill:none;stroke:#0000ff;stroke-width:4;stroke-linecap:butt;stroke-linejoin:round;stroke-miterlimit:10;stroke-dasharray:none;stroke-opacity:1"
       d="m 31.653317,118.69528 0.8941,-0.966 0.8946,-0.952 0.8953,-0.917 0.8945,-0.86 0.8945,-0.783 0.8946,-0.687 0.8945,-0.576 0.8948,-0.449 0.894,-0.312 0.895,-0.166 0.895,-0.014 0.894,0.138 0.895,0.289 0.894,0.435 0.895,0.573 0.894,0.698 0.895,0.808 0.894,0.902 0.895,0.976 0.895,1.028 0.894,1.056 0.895,1.062 0.894,1.043 0.895,1 0.895,0.933 0.894,0.845 0.895,0.737 0.895,0.61 0.894,0.469 0.895,0.315 0.893998,0.153 0.895,-0.015 0.894,-0.184 0.895,-0.351 0.894,-0.511 0.895,-0.661 0.895,-0.798 0.895,-0.918 0.894,-1.018 0.895,-1.096 0.894,-1.151 0.895,-1.178 0.894,-1.18 0.895,-1.154 0.895,-1.103 0.894,-1.024 0.895,-0.923 0.894,-0.798 0.895,-0.654 0.894,-0.494 0.895,-0.32 0.894,-0.138 0.895,0.051 0.895,0.24 0.895,0.426 0.894,0.604 0.895,0.771 0.894,0.922 0.895,1.054 0.894,1.163 0.895,1.248 0.895,1.304 0.894,1.332 0.895,1.329 0.894,1.296 0.895,1.234 0.894,1.141 0.895,1.023 0.894,0.878 0.895,0.712 0.895,0.529 0.895,0.329 0.894,0.12 0.895,-0.094 0.894,-0.31 0.895,-0.521 0.893995,-0.723 0.895,-0.911 0.895,-1.081 0.894,-1.23 0.895,-1.351 0.894,-1.444 0.895,-1.505 0.894,-1.534 0.895,-1.526 0.894,-1.484 0.895,-1.408 0.895,-1.298 0.895,-1.158 0.894,-0.987 0.895,-0.794 0.894,-0.577 0.895,-0.346 0.894,-0.101 0.895,0.149 0.895,0.398 0.894,0.645 0.895,0.879 0.894,1.099 0.895,1.295 0.894,1.466 0.895,1.607 0.894,1.713 0.895,1.782 0.895,1.811 0.895,1.801 0.894,1.748 0.895,1.654 0.894,1.522 0.895,1.353 0.894,1.148 0.895,0.915 0.895,0.655 0.894,0.377 0.895,0.083 0.894,-0.217 0.895,-0.518 0.894,-0.814 0.895,-1.098 0.894,-1.362 0.895,-1.601 0.895,-1.807 0.895,-1.979 0.894,-2.108 0.895,-2.192 0.894,-2.228 0.895,-2.214 0.894,-2.15 0.895,-2.036 0.895,-1.872 0.894,-1.662 0.895,-1.41 0.894,-1.118 0.895,-0.796 0.894,-0.446 0.895,-0.077 0.894,0.303 0.895,0.685 0.895,1.063 0.895,1.428 0.894,1.768 0.895,2.08 0.894,2.352 0.895,2.581 0.894,2.756 0.895,2.876 0.895,2.933 0.894,2.928 0.895,2.854 0.894,2.715 0.895,2.512 0.894,2.242 0.895,1.915 0.894,1.534 0.896,1.104 0.894,0.633 0.895,0.132 0.894,-0.393 0.895,-0.927 0.894,-1.464 0.895,-1.989 0.894,-2.492 0.895,-2.961 0.895,-3.386 0.894,-3.755 0.895,-4.057 0.894,-4.286 0.895,-4.43 0.894,-4.487 0.895,-4.448 0.895,-4.309997 0.895,-4.071 0.894,-3.73 0.895,-3.291 0.894,-2.753 0.895,-2.124 0.894,-1.408 0.895,-0.615 0.894,0.246 0.895,1.166 0.895,2.131 0.894,3.129 0.895,4.146 0.894,5.168 0.895,6.181997 0.894,7.173 0.895,8.125 0.895,9.027 0.895,9.865 0.894,10.628 0.895,11.303 0.894,11.884 0.895,12.358 0.894,12.725 0.895,12.975 0.894,13.108 0.895,13.121 0.895,13.018 0.894,12.798 0.895,12.467 0.894,12.034 0.895,11.501 0.894,10.88 0.895,10.184 0.895,9.418 0.895,8.602 0.894,7.74 0.895,6.853 0.894,5.949 0.895,5.043 0.894,4.147 0.895,3.275 0.894,2.438 0.895,1.644 0.895,0.905 0.894,0.228 0.895,-0.38 0.894,-0.914 0.895,-1.37 0.894,-1.746 0.895,-2.042 0.895,-2.258 0.895,-2.397 0.894,-2.462 0.895,-2.459 0.894,-2.394 0.895,-2.273 0.894,-2.104 0.895,-1.897 0.895,-1.659 0.894,-1.399 0.895,-1.126 0.894,-0.849 0.895,-0.577 0.894,-0.316 0.895,-0.074 0.894,0.145 0.895,0.332 0.895,0.488 0.895,0.607 0.894,0.687 0.895,0.73 0.894,0.736 0.895,0.705 0.894,0.642 0.895,0.55 0.895,0.435 0.894,0.3 0.895,0.154 h 0.894 l 0.895,-0.154 0.894,-0.3 0.895,-0.435 0.894,-0.55 0.895,-0.642 0.895,-0.705 0.895,-0.736 0.894,-0.73 0.895,-0.687 0.894,-0.607 0.895,-0.488 0.894,-0.332 0.895,-0.145 0.895,0.074 0.894,0.316 0.895,0.577 0.894,0.849 0.895,1.126 0.894,1.399 0.895,1.659 0.894,1.897 0.895,2.104 0.895,2.273 0.895,2.394 0.894,2.459 0.895,2.462 0.894,2.397 0.895,2.258 0.894,2.042 0.895,1.746 0.895,1.37 0.894,0.914 0.895,0.38 0.894,-0.228 0.895,-0.905 0.894,-1.644 0.895,-2.438 0.894,-3.275 0.895,-4.147 0.895,-5.043 0.895,-5.949 0.894,-6.853 0.895,-7.74 0.894,-8.602 0.895,-9.418 0.894,-10.184 0.895,-10.88 0.895,-11.501 0.894,-12.034 0.895,-12.467 0.894,-12.798 0.895,-13.018 0.894,-13.121 0.895,-13.108 0.894,-12.975 0.896,-12.725 0.894,-12.358 0.895,-11.884 0.894,-11.303 0.895,-10.628 0.894,-9.865 0.895,-9.027 0.894,-8.125 0.895,-7.173 0.895,-6.181997 0.894,-5.168 0.895,-4.146 0.894,-3.129 0.895,-2.131 0.894,-1.166 0.895,-0.246 0.895,0.615 0.895,1.408 0.894,2.124 0.895,2.753 0.894,3.291 0.895,3.73 0.894,4.071 0.895,4.309997 0.894,4.448 0.895,4.487 0.895,4.43 0.894,4.286 0.895,4.057 0.894,3.755 0.895,3.386 0.894,2.961 0.895,2.492 0.895,1.989 0.895,1.464 0.894,0.927 0.895,0.393 0.894,-0.132 0.895,-0.633 0.894,-1.104 0.895,-1.534 0.894,-1.915 0.895,-2.242 0.895,-2.512 0.894,-2.715 0.895,-2.854 0.894,-2.928 0.895,-2.933 0.894,-2.876 0.895,-2.756 0.895,-2.581 0.895,-2.352 0.894,-2.08 0.895,-1.768 0.894,-1.428 0.895,-1.063 0.894,-0.685 0.895,-0.303 0.894,0.077 0.895,0.446 0.895,0.796 0.894,1.118 0.895,1.41 0.894,1.662 0.895,1.872 0.894,2.036 0.895,2.15 0.895,2.214 0.895,2.228 0.894,2.192 0.895,2.108 0.894,1.979 0.895,1.807 0.894,1.601 0.895,1.362 0.894,1.098 0.895,0.814 0.895,0.518 0.894,0.217 0.895,-0.083 0.894,-0.377 0.895,-0.655 0.894,-0.915 0.895,-1.148 0.895,-1.353 0.895,-1.522 0.894,-1.654 0.895,-1.748 0.894,-1.801 0.895,-1.811 0.894,-1.782 0.895,-1.713 0.894,-1.607 0.895,-1.466 0.895,-1.295 0.894,-1.099 0.895,-0.879 0.894,-0.645 0.895,-0.398 0.894,-0.149 0.895,0.101 0.895,0.346 0.895,0.577 0.894,0.794 0.895,0.987 0.894,1.158 0.895,1.298 0.894,1.408 0.895,1.484 0.894,1.526 0.895,1.534 0.895,1.505 0.894,1.444 0.895,1.351 0.894,1.23 0.895,1.081 0.894,0.911 0.895,0.723 0.895,0.521 0.895,0.31 0.894,0.094 0.895,-0.12 0.894,-0.329 0.895,-0.529 0.894,-0.712 0.895,-0.878 0.895,-1.023 0.894,-1.141 0.895,-1.234 0.894,-1.296 0.895,-1.329 0.894,-1.332 0.895,-1.304 0.894,-1.248 0.895,-1.163 0.895,-1.054 0.895,-0.922 0.894,-0.771 0.895,-0.604 0.894,-0.426 0.895,-0.24 0.894,-0.051 0.895,0.138 0.894,0.32 0.895,0.494 0.895,0.654 0.894,0.798 0.895,0.923 0.894,1.024 0.895,1.103 0.894,1.154 0.895,1.18 0.895,1.178 0.895,1.151 0.894,1.096 0.895,1.018 0.894,0.918 0.895,0.798 0.894,0.661 0.895,0.511 0.894,0.351 0.895,0.184 0.895,0.015 0.894,-0.153 0.895,-0.315 0.894,-0.469 0.895,-0.61 0.895,-0.737 0.894,-0.845 0.895,-0.933 0.895,-1 0.894,-1.043 0.895,-1.062 0.894,-1.056 0.895,-1.028 0.894,-0.976 0.895,-0.902 0.895,-0.808 0.894,-0.698 0.895,-0.573 0.894,-0.435 0.895,-0.289 0.894,-0.138 0.895,0.014 0.895,0.166 0.894,0.312 0.895,0.449 0.895,0.576 0.894,0.687 0.895,0.783 0.894,0.86 0.895,0.917 0.894,0.952 0.895,0.966" /><g
       id="g1125"
       transform="matrix(-1,0,0,1,570.93331,-201.17371)"><path
         inkscape:connector-curvature="0"
         id="path1107"
         style="fill:none;stroke:#262626;stroke-width:0.5;stroke-linecap:butt;stroke-linejoin:miter;stroke-miterlimit:10;stroke-dasharray:none;stroke-opacity:1"
         d="M 92.8801,227.52 H 97.348" /><path
         inkscape:connector-curvature="0"
         id="path1109"
         style="fill:none;stroke:#262626;stroke-width:0.5;stroke-linecap:butt;stroke-linejoin:miter;stroke-miterlimit:10;stroke-dasharray:none;stroke-opacity:1"
         d="M 92.8801,273.694 H 97.348" /><path
         inkscape:connector-curvature="0"
         id="path1111"
         style="fill:none;stroke:#262626;stroke-width:0.5;stroke-linecap:butt;stroke-linejoin:miter;stroke-miterlimit:10;stroke-dasharray:none;stroke-opacity:1"
         d="M 92.8801,319.869 H 97.348" /><path
         inkscape:connector-curvature="0"
         id="path1113"
         style="fill:none;stroke:#262626;stroke-width:0.5;stroke-linecap:butt;stroke-linejoin:miter;stroke-miterlimit:10;stroke-dasharray:none;stroke-opacity:1"
         d="M 92.8801,366.043 H 97.348" /><path
         inkscape:connector-curvature="0"
         id="path1115"
         style="fill:none;stroke:#262626;stroke-width:0.5;stroke-linecap:butt;stroke-linejoin:miter;stroke-miterlimit:10;stroke-dasharray:none;stroke-opacity:1"
         d="M 92.8801,412.218 H 97.348" /><path
         inkscape:connector-curvature="0"
         id="path1117"
         style="fill:none;stroke:#262626;stroke-width:0.5;stroke-linecap:butt;stroke-linejoin:miter;stroke-miterlimit:10;stroke-dasharray:none;stroke-opacity:1"
         d="M 92.8801,458.392 H 97.348" /><path
         inkscape:connector-curvature="0"
         id="path1119"
         style="fill:none;stroke:#262626;stroke-width:0.5;stroke-linecap:butt;stroke-linejoin:miter;stroke-miterlimit:10;stroke-dasharray:none;stroke-opacity:1"
         d="M 92.8801,504.566 H 97.348" /><path
         inkscape:connector-curvature="0"
         id="path1121"
         style="fill:none;stroke:#262626;stroke-width:0.5;stroke-linecap:butt;stroke-linejoin:miter;stroke-miterlimit:10;stroke-dasharray:none;stroke-opacity:1"
         d="M 92.8801,550.741 H 97.348" /><path
         inkscape:connector-curvature="0"
         id="path1123"
         style="fill:none;stroke:#262626;stroke-width:0.5;stroke-linecap:square;stroke-linejoin:miter;stroke-miterlimit:10;stroke-dasharray:16, 0;stroke-dashoffset:0;stroke-opacity:1"
         d="M 92.8801,227.52 V 579.6" /></g><g
       id="g1150"
       transform="matrix(1,0,0,-1,-61.226783,605.94628)"><path
         inkscape:connector-curvature="0"
         id="path1136"
         style="fill:none;stroke:#262626;stroke-width:0.5;stroke-linecap:butt;stroke-linejoin:miter;stroke-miterlimit:10;stroke-dasharray:none;stroke-opacity:1"
         d="m 130.08,227.52 v 4.465" /><path
         inkscape:connector-curvature="0"
         id="path1138"
         style="fill:none;stroke:#262626;stroke-width:0.5;stroke-linecap:butt;stroke-linejoin:miter;stroke-miterlimit:10;stroke-dasharray:none;stroke-opacity:1"
         d="m 223.08,227.52 v 4.465" /><path
         inkscape:connector-curvature="0"
         id="path1140"
         style="fill:none;stroke:#262626;stroke-width:0.5;stroke-linecap:butt;stroke-linejoin:miter;stroke-miterlimit:10;stroke-dasharray:none;stroke-opacity:1"
         d="m 316.08,227.52 v 4.465" /><path
         inkscape:connector-curvature="0"
         id="path1142"
         style="fill:none;stroke:#262626;stroke-width:0.5;stroke-linecap:butt;stroke-linejoin:miter;stroke-miterlimit:10;stroke-dasharray:none;stroke-opacity:1"
         d="m 409.08,227.52 v 4.465" /><path
         inkscape:connector-curvature="0"
         id="path1144"
         style="fill:none;stroke:#262626;stroke-width:0.5;stroke-linecap:butt;stroke-linejoin:miter;stroke-miterlimit:10;stroke-dasharray:none;stroke-opacity:1"
         d="m 502.08,227.52 v 4.465" /><path
         inkscape:connector-curvature="0"
         id="path1146"
         style="fill:none;stroke:#d9d9d9;stroke-width:0.5;stroke-linecap:butt;stroke-linejoin:miter;stroke-miterlimit:10;stroke-dasharray:16, 0;stroke-dashoffset:0;stroke-opacity:1"
         d="M 92.8801,227.52 H 539.28" /><path
         inkscape:connector-curvature="0"
         id="path1148"
         style="fill:none;stroke:#262626;stroke-width:0.5;stroke-linecap:square;stroke-linejoin:miter;stroke-miterlimit:10;stroke-dasharray:16, 0;stroke-dashoffset:0;stroke-opacity:1"
         d="M 92.8801,227.52 H 539.28" /></g></g></svg>