<?xml version="1.0" encoding="UTF-8" standalone="no"?>
<!-- Created with Inkscape (http://www.inkscape.org/) -->

<svg
   xmlns:dc="http://purl.org/dc/elements/1.1/"
   xmlns:cc="http://creativecommons.org/ns#"
   xmlns:rdf="http://www.w3.org/1999/02/22-rdf-syntax-ns#"
   xmlns:svg="http://www.w3.org/2000/svg"
   xmlns="http://www.w3.org/2000/svg"
   xmlns:sodipodi="http://sodipodi.sourceforge.net/DTD/sodipodi-0.dtd"
   xmlns:inkscape="http://www.inkscape.org/namespaces/inkscape"
   version="1.1"
   id="svg2"
   xml:space="preserve"
   width="660"
   height="525"
   viewBox="0 0 660 525"
   sodipodi:docname="fdm_combined.svg"
   inkscape:version="0.92.4 5da689c313, 2019-01-14"><metadata
     id="metadata8"><rdf:RDF><cc:Work
         rdf:about=""><dc:format>image/svg+xml</dc:format><dc:type
           rdf:resource="http://purl.org/dc/dcmitype/StillImage" /><dc:title /></cc:Work></rdf:RDF></metadata><defs
     id="defs6"><clipPath
       clipPathUnits="userSpaceOnUse"
       id="clipPath24"><path
         d="M 180,1800 H 5940 V 6120 H 180 Z"
         id="path22"
         inkscape:connector-curvature="0" /></clipPath></defs><sodipodi:namedview
     pagecolor="#ffffff"
     bordercolor="#666666"
     borderopacity="1"
     objecttolerance="10"
     gridtolerance="10"
     guidetolerance="10"
     inkscape:pageopacity="0"
     inkscape:pageshadow="2"
     inkscape:window-width="1920"
     inkscape:window-height="1051"
     id="namedview4"
     showgrid="false"
     inkscape:pagecheckerboard="true"
     inkscape:zoom="3.2581949"
     inkscape:cx="88.090504"
     inkscape:cy="393.32984"
     inkscape:window-x="0"
     inkscape:window-y="29"
     inkscape:window-maximized="1"
     inkscape:current-layer="g10"
     showguides="true"
     inkscape:guide-bbox="true"><sodipodi:guide
       position="210.37579,328.99157"
       orientation="1,0"
       id="guide1220"
       inkscape:locked="false" /><sodipodi:guide
       position="235.31515,478.49912"
       orientation="1,0"
       id="guide1222"
       inkscape:locked="false" /></sodipodi:namedview><g
     id="g10"
     inkscape:groupmode="layer"
     inkscape:label="fdm_combined"
     transform="matrix(1.3333333,0,0,-1.3333333,0,525)"><path
   inkscape:connector-curvature="0"
   id="path30"
   style="fill:none;stroke:#d9d9d9;stroke-width:0.5;stroke-linecap:butt;stroke-linejoin:miter;stroke-miterlimit:10;stroke-dasharray:16, 0;stroke-dashoffset:0;stroke-opacity:1"
   d="M 64.900598,24.033087 V 376.11309" /><path
   inkscape:connector-curvature="0"
   id="path32"
   style="fill:none;stroke:#d9d9d9;stroke-width:0.5;stroke-linecap:butt;stroke-linejoin:miter;stroke-miterlimit:10;stroke-dasharray:16, 0;stroke-dashoffset:0;stroke-opacity:1"
   d="M 157.90059,24.033087 V 376.11309" /><path
   inkscape:connector-curvature="0"
   id="path34"
   style="fill:none;stroke:#d9d9d9;stroke-width:0.5;stroke-linecap:butt;stroke-linejoin:miter;stroke-miterlimit:10;stroke-dasharray:16, 0;stroke-dashoffset:0;stroke-opacity:1"
   d="M 250.90059,24.033087 V 376.11309" /><path
   inkscape:connector-curvature="0"
   id="path36"
   style="fill:none;stroke:#d9d9d9;stroke-width:0.5;stroke-linecap:butt;stroke-linejoin:miter;stroke-miterlimit:10;stroke-dasharray:16, 0;stroke-dashoffset:0;stroke-opacity:1"
   d="M 343.90059,24.033087 V 376.11309" /><path
   inkscape:connector-curvature="0"
   id="path38"
   style="fill:none;stroke:#d9d9d9;stroke-width:0.5;stroke-linecap:butt;stroke-linejoin:miter;stroke-miterlimit:10;stroke-dasharray:16, 0;stroke-dashoffset:0;stroke-opacity:1"
   d="M 436.90059,24.033087 V 376.11309" /><path
   inkscape:connector-curvature="0"
   id="path58"
   style="fill:none;stroke:#d9d9d9;stroke-width:0.5;stroke-linecap:butt;stroke-linejoin:miter;stroke-miterlimit:10;stroke-dasharray:16, 0;stroke-dashoffset:0;stroke-opacity:1"
   d="M 27.700698,70.207087 H 474.10059" /><path
   inkscape:connector-curvature="0"
   id="path60"
   style="fill:#333333;stroke:#000000;stroke-width:0.75000002;stroke-linecap:butt;stroke-linejoin:miter;stroke-miterlimit:10;stroke-dasharray:24.0000006, 0;stroke-dashoffset:0;stroke-opacity:1"
   d="M 27.700698,116.38209 H 474.10059" /><path
   inkscape:connector-curvature="0"
   id="path62"
   style="fill:none;stroke:#d9d9d9;stroke-width:0.5;stroke-linecap:butt;stroke-linejoin:miter;stroke-miterlimit:10;stroke-dasharray:16, 0;stroke-dashoffset:0;stroke-opacity:1"
   d="M 27.700698,162.55609 H 474.10059" /><path
   inkscape:connector-curvature="0"
   id="path64"
   style="fill:none;stroke:#d9d9d9;stroke-width:0.5;stroke-linecap:butt;stroke-linejoin:miter;stroke-miterlimit:10;stroke-dasharray:16, 0;stroke-dashoffset:0;stroke-opacity:1"
   d="M 27.700698,208.73109 H 474.10059" /><path
   inkscape:connector-curvature="0"
   id="path66"
   style="fill:none;stroke:#d9d9d9;stroke-width:0.5;stroke-linecap:butt;stroke-linejoin:miter;stroke-miterlimit:10;stroke-dasharray:16, 0;stroke-dashoffset:0;stroke-opacity:1"
   d="M 27.700698,254.90509 H 474.10059" /><path
   inkscape:connector-curvature="0"
   id="path68"
   style="fill:none;stroke:#d9d9d9;stroke-width:0.5;stroke-linecap:butt;stroke-linejoin:miter;stroke-miterlimit:10;stroke-dasharray:16, 0;stroke-dashoffset:0;stroke-opacity:1"
   d="M 27.700698,301.07909 H 474.10059" /><path
   inkscape:connector-curvature="0"
   id="path70"
   style="fill:none;stroke:#d9d9d9;stroke-width:0.5;stroke-linecap:butt;stroke-linejoin:miter;stroke-miterlimit:10;stroke-dasharray:16, 0;stroke-dashoffset:0;stroke-opacity:1"
   d="M 27.700698,347.25409 H 474.10059" /><g
   id="g299"><path
     d="m 64.900598,24.033087 v 4.465"
     style="fill:none;stroke:#262626;stroke-width:0.5;stroke-linecap:butt;stroke-linejoin:miter;stroke-miterlimit:10;stroke-dasharray:none;stroke-opacity:1"
     id="path40"
     inkscape:connector-curvature="0" /><path
     d="m 157.90059,24.033087 v 4.465"
     style="fill:none;stroke:#262626;stroke-width:0.5;stroke-linecap:butt;stroke-linejoin:miter;stroke-miterlimit:10;stroke-dasharray:none;stroke-opacity:1"
     id="path42"
     inkscape:connector-curvature="0" /><path
     d="m 250.90059,24.033087 v 4.465"
     style="fill:none;stroke:#262626;stroke-width:0.5;stroke-linecap:butt;stroke-linejoin:miter;stroke-miterlimit:10;stroke-dasharray:none;stroke-opacity:1"
     id="path44"
     inkscape:connector-curvature="0" /><path
     d="m 343.90059,24.033087 v 4.465"
     style="fill:none;stroke:#262626;stroke-width:0.5;stroke-linecap:butt;stroke-linejoin:miter;stroke-miterlimit:10;stroke-dasharray:none;stroke-opacity:1"
     id="path46"
     inkscape:connector-curvature="0" /><path
     d="m 436.90059,24.033087 v 4.465"
     style="fill:none;stroke:#262626;stroke-width:0.5;stroke-linecap:butt;stroke-linejoin:miter;stroke-miterlimit:10;stroke-dasharray:none;stroke-opacity:1"
     id="path48"
     inkscape:connector-curvature="0" /><path
     d="M 27.700698,24.033087 H 474.10059"
     style="fill:none;stroke:#d9d9d9;stroke-width:0.5;stroke-linecap:butt;stroke-linejoin:miter;stroke-miterlimit:10;stroke-dasharray:16, 0;stroke-dashoffset:0;stroke-opacity:1"
     id="path56"
     inkscape:connector-curvature="0" /><path
     d="m 27.700698,24.033087 h 4.4679"
     style="fill:none;stroke:#262626;stroke-width:0.5;stroke-linecap:butt;stroke-linejoin:miter;stroke-miterlimit:10;stroke-dasharray:none;stroke-opacity:1"
     id="path72"
     inkscape:connector-curvature="0" /><path
     d="M 27.700698,24.033087 H 474.10059"
     style="fill:none;stroke:#262626;stroke-width:0.5;stroke-linecap:square;stroke-linejoin:miter;stroke-miterlimit:10;stroke-dasharray:16, 0;stroke-dashoffset:0;stroke-opacity:1"
     id="path108"
     inkscape:connector-curvature="0" /></g><g
   id="g309"><path
     d="m 27.700698,70.207087 h 4.4679"
     style="fill:none;stroke:#262626;stroke-width:0.5;stroke-linecap:butt;stroke-linejoin:miter;stroke-miterlimit:10;stroke-dasharray:none;stroke-opacity:1"
     id="path74"
     inkscape:connector-curvature="0" /><path
     d="m 27.700698,116.38209 h 4.4679"
     style="fill:none;stroke:#262626;stroke-width:0.5;stroke-linecap:butt;stroke-linejoin:miter;stroke-miterlimit:10;stroke-dasharray:none;stroke-opacity:1"
     id="path76"
     inkscape:connector-curvature="0" /><path
     d="m 27.700698,162.55609 h 4.4679"
     style="fill:none;stroke:#262626;stroke-width:0.5;stroke-linecap:butt;stroke-linejoin:miter;stroke-miterlimit:10;stroke-dasharray:none;stroke-opacity:1"
     id="path78"
     inkscape:connector-curvature="0" /><path
     d="m 27.700698,208.73109 h 4.4679"
     style="fill:none;stroke:#262626;stroke-width:0.5;stroke-linecap:butt;stroke-linejoin:miter;stroke-miterlimit:10;stroke-dasharray:none;stroke-opacity:1"
     id="path80"
     inkscape:connector-curvature="0" /><path
     d="m 27.700698,254.90509 h 4.4679"
     style="fill:none;stroke:#262626;stroke-width:0.5;stroke-linecap:butt;stroke-linejoin:miter;stroke-miterlimit:10;stroke-dasharray:none;stroke-opacity:1"
     id="path82"
     inkscape:connector-curvature="0" /><path
     d="m 27.700698,301.07909 h 4.4679"
     style="fill:none;stroke:#262626;stroke-width:0.5;stroke-linecap:butt;stroke-linejoin:miter;stroke-miterlimit:10;stroke-dasharray:none;stroke-opacity:1"
     id="path84"
     inkscape:connector-curvature="0" /><path
     d="m 27.700698,347.25409 h 4.4679"
     style="fill:none;stroke:#262626;stroke-width:0.5;stroke-linecap:butt;stroke-linejoin:miter;stroke-miterlimit:10;stroke-dasharray:none;stroke-opacity:1"
     id="path86"
     inkscape:connector-curvature="0" /><path
     d="M 27.700698,24.033087 V 376.11309"
     style="fill:none;stroke:#262626;stroke-width:0.5;stroke-linecap:square;stroke-linejoin:miter;stroke-miterlimit:10;stroke-dasharray:16, 0;stroke-dashoffset:0;stroke-opacity:1"
     id="path110"
     inkscape:connector-curvature="0" /></g><g
   id="g327"
   transform="matrix(-1,0,0,1,501.80129,0)"><path
     inkscape:connector-curvature="0"
     id="path311"
     style="fill:none;stroke:#262626;stroke-width:0.5;stroke-linecap:butt;stroke-linejoin:miter;stroke-miterlimit:10;stroke-dasharray:none;stroke-opacity:1"
     d="m 27.700698,70.207087 h 4.4679" /><path
     inkscape:connector-curvature="0"
     id="path313"
     style="fill:none;stroke:#262626;stroke-width:0.5;stroke-linecap:butt;stroke-linejoin:miter;stroke-miterlimit:10;stroke-dasharray:none;stroke-opacity:1"
     d="m 27.700698,116.38209 h 4.4679" /><path
     inkscape:connector-curvature="0"
     id="path315"
     style="fill:none;stroke:#262626;stroke-width:0.5;stroke-linecap:butt;stroke-linejoin:miter;stroke-miterlimit:10;stroke-dasharray:none;stroke-opacity:1"
     d="m 27.700698,162.55609 h 4.4679" /><path
     inkscape:connector-curvature="0"
     id="path317"
     style="fill:none;stroke:#262626;stroke-width:0.5;stroke-linecap:butt;stroke-linejoin:miter;stroke-miterlimit:10;stroke-dasharray:none;stroke-opacity:1"
     d="m 27.700698,208.73109 h 4.4679" /><path
     inkscape:connector-curvature="0"
     id="path319"
     style="fill:none;stroke:#262626;stroke-width:0.5;stroke-linecap:butt;stroke-linejoin:miter;stroke-miterlimit:10;stroke-dasharray:none;stroke-opacity:1"
     d="m 27.700698,254.90509 h 4.4679" /><path
     inkscape:connector-curvature="0"
     id="path321"
     style="fill:none;stroke:#262626;stroke-width:0.5;stroke-linecap:butt;stroke-linejoin:miter;stroke-miterlimit:10;stroke-dasharray:none;stroke-opacity:1"
     d="m 27.700698,301.07909 h 4.4679" /><path
     inkscape:connector-curvature="0"
     id="path323"
     style="fill:none;stroke:#262626;stroke-width:0.5;stroke-linecap:butt;stroke-linejoin:miter;stroke-miterlimit:10;stroke-dasharray:none;stroke-opacity:1"
     d="m 27.700698,347.25409 h 4.4679" /><path
     inkscape:connector-curvature="0"
     id="path325"
     style="fill:none;stroke:#262626;stroke-width:0.5;stroke-linecap:square;stroke-linejoin:miter;stroke-miterlimit:10;stroke-dasharray:16, 0;stroke-dashoffset:0;stroke-opacity:1"
     d="M 27.700698,24.033087 V 376.11309" /></g><g
   id="g345"
   transform="matrix(1,0,0,-1,0,400.14618)"><path
     inkscape:connector-curvature="0"
     id="path329"
     style="fill:none;stroke:#262626;stroke-width:0.5;stroke-linecap:butt;stroke-linejoin:miter;stroke-miterlimit:10;stroke-dasharray:none;stroke-opacity:1"
     d="m 64.900598,24.033087 v 4.465" /><path
     inkscape:connector-curvature="0"
     id="path331"
     style="fill:none;stroke:#262626;stroke-width:0.5;stroke-linecap:butt;stroke-linejoin:miter;stroke-miterlimit:10;stroke-dasharray:none;stroke-opacity:1"
     d="m 157.90059,24.033087 v 4.465" /><path
     inkscape:connector-curvature="0"
     id="path333"
     style="fill:none;stroke:#262626;stroke-width:0.5;stroke-linecap:butt;stroke-linejoin:miter;stroke-miterlimit:10;stroke-dasharray:none;stroke-opacity:1"
     d="m 250.90059,24.033087 v 4.465" /><path
     inkscape:connector-curvature="0"
     id="path335"
     style="fill:none;stroke:#262626;stroke-width:0.5;stroke-linecap:butt;stroke-linejoin:miter;stroke-miterlimit:10;stroke-dasharray:none;stroke-opacity:1"
     d="m 343.90059,24.033087 v 4.465" /><path
     inkscape:connector-curvature="0"
     id="path337"
     style="fill:none;stroke:#262626;stroke-width:0.5;stroke-linecap:butt;stroke-linejoin:miter;stroke-miterlimit:10;stroke-dasharray:none;stroke-opacity:1"
     d="m 436.90059,24.033087 v 4.465" /><path
     inkscape:connector-curvature="0"
     id="path339"
     style="fill:none;stroke:#d9d9d9;stroke-width:0.5;stroke-linecap:butt;stroke-linejoin:miter;stroke-miterlimit:10;stroke-dasharray:16, 0;stroke-dashoffset:0;stroke-opacity:1"
     d="M 27.700698,24.033087 H 474.10059" /><path
     inkscape:connector-curvature="0"
     id="path341"
     style="fill:none;stroke:#262626;stroke-width:0.5;stroke-linecap:butt;stroke-linejoin:miter;stroke-miterlimit:10;stroke-dasharray:none;stroke-opacity:1"
     d="m 27.700698,24.033087 h 4.4679" /><path
     inkscape:connector-curvature="0"
     id="path343"
     style="fill:none;stroke:#262626;stroke-width:0.5;stroke-linecap:square;stroke-linejoin:miter;stroke-miterlimit:10;stroke-dasharray:16, 0;stroke-dashoffset:0;stroke-opacity:1"
     d="M 27.700698,24.033087 H 474.10059" /></g><path
   style="fill:none;stroke:#000000;stroke-width:0.75px;stroke-linecap:butt;stroke-linejoin:miter;stroke-opacity:1"
   d="m 157.78185,116.44857 0,219.66241"
   id="path1224"
   inkscape:connector-curvature="0"
   sodipodi:nodetypes="cc" /><path
   inkscape:connector-curvature="0"
   id="path1226"
   d="m 176.46131,116.44857 0,219.66241"
   style="fill:none;stroke:#000000;stroke-width:0.75px;stroke-linecap:butt;stroke-linejoin:miter;stroke-opacity:1"
   sodipodi:nodetypes="cc" /><text
   xml:space="preserve"
   style="font-style:normal;font-variant:normal;font-weight:normal;font-stretch:normal;font-size:21.13568115px;line-height:1.25;font-family:sans-serif;-inkscape-font-specification:'sans-serif, Normal';font-variant-ligatures:normal;font-variant-caps:normal;font-variant-numeric:normal;font-feature-settings:normal;text-align:start;letter-spacing:0px;word-spacing:0px;writing-mode:lr-tb;text-anchor:start;fill:#000000;fill-opacity:1;stroke:none;stroke-width:1.32098007"
   x="335.77777"
   y="173.401"
   id="text1230"
   transform="matrix(0,1,1,0,0,0)"><tspan
     sodipodi:role="line"
     id="tspan1228"
     x="335.77777"
     y="173.401"
     style="stroke-width:1.32098007">\}</tspan></text>

<flowRoot
   xml:space="preserve"
   id="flowRoot1232"
   style="font-style:normal;font-variant:normal;font-weight:normal;font-stretch:normal;font-size:16px;line-height:1.25;font-family:sans-serif;-inkscape-font-specification:'sans-serif, Normal';font-variant-ligatures:normal;font-variant-caps:normal;font-variant-numeric:normal;font-feature-settings:normal;text-align:start;letter-spacing:0px;word-spacing:0px;writing-mode:lr-tb;text-anchor:start;fill:#000000;fill-opacity:1;stroke:none"
   transform="matrix(0.75000002,0,0,-0.75000002,14.613521,400.21368)"><flowRegion
     id="flowRegion1234"><rect
       id="rect1236"
       width="50.21056"
       height="39.7188"
       x="179.85872"
       y="31.887356" /></flowRegion><flowPara
     id="flowPara1238"
     style="font-style:normal;font-variant:normal;font-weight:normal;font-stretch:normal;font-size:16px;font-family:sans-serif;-inkscape-font-specification:'sans-serif, Normal';font-variant-ligatures:normal;font-variant-caps:normal;font-variant-numeric:normal;font-feature-settings:normal;text-align:center;writing-mode:lr-tb;text-anchor:middle">Guard</flowPara><flowPara
     id="flowPara1240"
     style="font-style:normal;font-variant:normal;font-weight:normal;font-stretch:normal;font-size:16px;font-family:sans-serif;-inkscape-font-specification:'sans-serif, Normal';font-variant-ligatures:normal;font-variant-caps:normal;font-variant-numeric:normal;font-feature-settings:normal;text-align:center;writing-mode:lr-tb;text-anchor:middle">band</flowPara></flowRoot></g><g
     inkscape:groupmode="layer"
     id="layer1"
     inkscape:label="text"><text
   transform="matrix(1.3333333,0,0,1.3333333,0,525)"
   style="font-variant:normal;font-weight:normal;font-size:11px;font-family:Helvetica;-inkscape-font-specification:Helvetica;writing-mode:lr-tb;fill:#262626;fill-opacity:1;fill-rule:nonzero;stroke:none"
   id="text116"
   x="225.69547"
   y="-5.6592798"><tspan
     x="225.69547 232.69547 236.69548 242.69548 248.69551 254.69551 260.69553 266.69553 272.69553"
     y="-5.6592798"
     sodipodi:role="line"
     id="tspan114">Frequency</tspan></text>

<text
   transform="matrix(0,-1.3333333,1.3333333,0,0,525)"
   style="font-variant:normal;font-weight:normal;font-size:11px;font-family:Helvetica;-inkscape-font-specification:Helvetica;writing-mode:lr-tb;fill:#262626;fill-opacity:1;fill-rule:nonzero;stroke:none"
   id="text120"
   x="133.73981"
   y="14.388284"><tspan
     sodipodi:role="line"
     id="tspan118"
     x="133.73981"
     y="14.388284">Power Spectral Density</tspan></text>

</g><g
     inkscape:groupmode="layer"
     id="layer2"
     inkscape:label="vector"><path
       transform="matrix(1.3333333,0,0,-1.3333333,0,525)"
       inkscape:connector-curvature="0"
       id="path128"
       style="fill:none;stroke:#0000ff;stroke-width:4;stroke-linecap:butt;stroke-linejoin:round;stroke-miterlimit:10;stroke-dasharray:none;stroke-opacity:1"
       d="m 27.700698,116.38209 0.8941,-1.425 0.8946,-1.415 0.8953,-1.373 0.8945,-1.298 0.8945,-1.193 0.8946,-1.06 0.8945,-0.899 0.8948,-0.715 0.894,-0.512 0.895,-0.294 0.895,-0.065 0.894,0.17 0.895,0.403 0.894,0.634 0.895,0.854 0.894,1.057 0.895,1.241 0.894,1.399 0.895,1.53 0.895,1.627 0.894,1.689 0.895,1.714 0.894,1.702 0.895,1.649 0.895,1.557 0.894,1.429 0.895,1.265 0.895,1.069 0.894,0.845 0.895,0.597 0.894,0.329 0.895,0.048 0.894,-0.24 0.895,-0.529 0.894,-0.813 0.895,-1.085 0.895,-1.338 0.895,-1.568 0.894,-1.766 0.895,-1.929 0.894,-2.054 0.895,-2.133 0.894,-2.167 0.895,-2.152 0.895,-2.089 0.894,-1.975 0.895,-1.814 0.894,-1.608 0.895,-1.358 0.894,-1.073 0.895,-0.754 0.894,-0.408 0.895,-0.043 0.895,0.333 0.895,0.713 0.894,1.088 0.895,1.452 0.894,1.792 0.895,2.105 0.894,2.379 0.895,2.608 0.895,2.787 0.893996,2.909 0.895,2.969 0.894,2.965 0.895,2.892 0.894,2.754 0.895,2.547 0.894,2.275 0.895,1.942 0.895,1.55 0.895,1.109 0.894,0.624 0.895,0.104 0.894,-0.44 0.895,-0.998 0.894,-1.56 0.895,-2.113 0.895,-2.645 0.894,-3.143 0.894996,-3.597 0.894,-3.994 0.895,-4.323 0.894,-4.574 0.895,-4.737 0.894,-4.805 0.895,-4.772001 0.895,-4.632 0.895,-4.381 0.894,-4.019002 0.895,-3.546 0.894,-2.964 0.895,-2.279 0.894,-1.495 0.895,-0.621 0.895,0.332 0.894,1.354 0.895,2.432 0.894,3.549 0.895,4.693 0.894,5.845002 0.895,6.988 0.894,8.106001 0.895,9.182 0.895,10.196 0.895,11.134 0.894,11.977 0.895,12.711 0.894,13.324 0.895,13.8 0.894,14.131 0.895,14.308 0.895,14.323 0.894,14.172 0.895,13.853 0.894,13.365 0.895,12.712 0.894,11.899 0.895,10.931 0.894,9.821 0.895,8.576 0.895,7.213 0.895,5.746 0.894,4.194 0.895,2.571 0.894,0.9 0.895,-0.799 0.894,-2.508 0.895,-4.202 0.895,-5.864 0.894,-7.469 0.895,-9.002 0.894,-10.439 0.895,-11.765 0.894,-12.963 0.895,-14.017 0.894,-14.914 0.895,-15.645 0.895,-16.197 0.895,-16.567 0.894,-16.748 0.895,-16.739 0.894,-16.54 0.895,-16.154 0.894,-15.586 0.895,-14.842 0.895,-13.931001 0.894,-12.867002 0.895,-11.66 0.894,-10.326 0.895,-8.881 0.894,-7.341 0.895,-5.726 0.894,-4.053 0.896,-2.343 0.894,-0.614 0.895,1.114 0.894,2.822 0.895,4.488 0.894,6.099 0.895,7.636 0.894,9.079 0.895,10.419 0.895,11.639 0.894,12.728002 0.895,13.675001 0.894,14.471 0.895,15.111 0.894,15.588 0.895,15.899 0.895,16.043 0.895,16.019 0.894,15.832 0.895,15.482 0.894,14.976 0.895,14.321 0.894,13.524 0.895,12.597 0.894,11.547 0.895,10.389 0.895,9.133 0.894,7.794 0.895,6.385 0.894,4.921 0.895,3.416 0.894,1.886 0.895,0.346 0.895,-1.191 0.895,-2.709 0.894,-4.192 0.895,-5.629 0.894,-7.005 0.895,-8.308 0.894,-9.525 0.895,-10.645 0.894,-11.66 0.895,-12.557 0.895,-13.332 0.894,-13.975 0.895,-14.482 0.894,-14.848 0.895,-15.069 0.894,-15.143 0.895,-15.073 0.895,-14.853 0.895,-14.491 0.894,-13.987 0.895,-13.348 0.894,-12.577 0.895,-11.683001 0.894,-10.674002 0.895,-9.56 0.894,-8.35 0.895,-7.055 0.895,-5.689 0.894,-4.265 0.895,-2.796 0.894,-1.294 0.895,0.222 0.894,1.741 0.895,3.245 0.895,4.722 0.895,6.156 0.894,7.53 0.895,8.834 0.894,10.051 0.895,11.171002 0.894,12.182001 0.895,13.071 0.895,13.83 0.894,14.45 0.895,14.926 0.894,15.251 0.895,15.419 0.894,15.431 0.895,15.285 0.894,14.982 0.895,14.525 0.895,13.916 0.895,13.164 0.894,12.275 0.895,11.259 0.894,10.123 0.895,8.884 0.894,7.55 0.895,6.137 0.895,4.66 0.894,3.135 0.895,1.575 h 0.894 l 0.895,-1.575 0.894,-3.135 0.895,-4.66 0.894,-6.137 0.895,-7.55 0.895,-8.884 0.895,-10.123 0.894,-11.259 0.895,-12.275 0.894,-13.164 0.895,-13.916 0.894,-14.525 0.895,-14.982 0.895,-15.285 0.894,-15.431 0.895,-15.419 0.894,-15.251 0.895,-14.926 0.894,-14.45 0.895,-13.83 0.894,-13.071 0.895,-12.182001 0.895,-11.171002 0.895,-10.051 0.894,-8.834 0.895,-7.53 0.894,-6.156 0.895,-4.722 0.894,-3.245 0.895,-1.741 0.895,-0.222 0.894,1.294 0.895,2.796 0.894,4.265 0.895,5.689 0.894,7.055 0.895,8.35 0.894,9.56 0.895,10.674002 0.895,11.683001 0.895,12.577 0.894,13.348 0.895,13.987 0.894,14.491 0.895,14.853 0.894,15.073 0.895,15.143 0.895,15.069 0.894,14.848 0.895,14.482 0.894,13.975 0.895,13.332 0.894,12.557 0.895,11.66 0.894,10.645 0.896,9.525 0.894,8.308 0.895,7.005 0.894,5.629 0.895,4.192 0.894,2.709 0.895,1.191 0.894,-0.346 0.895,-1.886 0.895,-3.416 0.894,-4.921 0.895,-6.385 0.894,-7.794 0.895,-9.133 0.894,-10.389 0.895,-11.547 0.895,-12.597 0.895,-13.524 0.894,-14.321 0.895,-14.976 0.894,-15.482 0.895,-15.832 0.894,-16.019 0.895,-16.043 0.894,-15.899 0.895,-15.588 0.895,-15.111 0.894,-14.471 0.895,-13.675001 0.894,-12.728002 0.895,-11.639 0.894,-10.419 0.895,-9.079 0.895,-7.636 0.895,-6.099 0.894,-4.488 0.895,-2.822 0.894,-1.114 0.895,0.614 0.894,2.343 0.895,4.053 0.894,5.726 0.895,7.341 0.895,8.881 0.894,10.326 0.895,11.66 0.894,12.867002 0.895,13.931001 0.894,14.842 0.895,15.586 0.895,16.154 0.895,16.54 0.894,16.739 0.895,16.748 0.894,16.567 0.895,16.197 0.894,15.645 0.895,14.914 0.894,14.017 0.895,12.963 0.895,11.765 0.894,10.439 0.895,9.002 0.894,7.469 0.895,5.864 0.894,4.202 0.895,2.508 0.895,0.799 0.895,-0.9 0.894,-2.571 0.895,-4.194 0.894,-5.746 0.895,-7.213 0.894,-8.576 0.895,-9.821 0.894,-10.931 0.895,-11.899 0.895,-12.712 0.894,-13.365 0.895,-13.853 0.894,-14.172 0.895,-14.323 0.894,-14.308 0.895,-14.131 0.895,-13.8 0.895,-13.324 0.894,-12.711 0.895,-11.977 0.894,-11.134 0.895,-10.196 0.894,-9.182 0.895,-8.106001 0.894,-6.988 0.895,-5.845002 0.895,-4.693 0.894,-3.549 0.895,-2.432 0.894,-1.354 0.895,-0.332 0.894,0.621 0.895,1.495 0.895,2.279 0.895,2.964 0.894,3.546 0.895,4.019002 0.894,4.381 0.895,4.632 0.894,4.772001 0.895,4.805 0.894,4.737 0.895,4.574 0.895,4.323 0.894,3.994 0.895,3.597 0.894,3.143 0.895,2.645 0.894,2.113 0.895,1.56 0.895,0.998 0.895,0.44 0.894,-0.104 0.895,-0.624 0.894,-1.109 0.895,-1.55 0.894,-1.942 0.895,-2.275 0.895,-2.547 0.894,-2.754 0.895,-2.892 0.894,-2.965 0.895,-2.969 0.894,-2.909 0.895,-2.787 0.894,-2.608 0.895,-2.379 0.895,-2.105 0.895,-1.792 0.894,-1.452 0.895,-1.088 0.894,-0.713 0.895,-0.333 0.894,0.043 0.895,0.408 0.894,0.754 0.895,1.073 0.895,1.358 0.894,1.608 0.895,1.814 0.894,1.975 0.895,2.089 0.894,2.152 0.895,2.167 0.895,2.133 0.895,2.054 0.894,1.929 0.895,1.766 0.894,1.568 0.895,1.338 0.894,1.085 0.895,0.813 0.894,0.529 0.895,0.24 0.895,-0.048 0.894,-0.329 0.895,-0.597 0.894,-0.845 0.895,-1.069 0.895,-1.265 0.894,-1.429 0.895,-1.557 0.895,-1.649 0.894,-1.702 0.895,-1.714 0.894,-1.689 0.895,-1.627 0.894,-1.53 0.895,-1.399 0.895,-1.241 0.894,-1.057 0.895,-0.854 0.894,-0.634 0.895,-0.403 0.894,-0.17 0.895,0.065 0.895,0.294 0.894,0.512 0.895,0.715 0.895,0.899 0.894,1.06 0.895,1.193 0.894,1.298 0.895,1.373 0.894,1.415 0.895,1.425" /></g></svg>