<?xml version="1.0" encoding="UTF-8" standalone="no"?>
<!-- Created with Inkscape (http://www.inkscape.org/) -->

<svg
   xmlns:dc="http://purl.org/dc/elements/1.1/"
   xmlns:cc="http://creativecommons.org/ns#"
   xmlns:rdf="http://www.w3.org/1999/02/22-rdf-syntax-ns#"
   xmlns:svg="http://www.w3.org/2000/svg"
   xmlns="http://www.w3.org/2000/svg"
   xmlns:sodipodi="http://sodipodi.sourceforge.net/DTD/sodipodi-0.dtd"
   xmlns:inkscape="http://www.inkscape.org/namespaces/inkscape"
   version="1.1"
   id="svg2"
   xml:space="preserve"
   width="660"
   height="520"
   viewBox="0 0 660 520"
   sodipodi:docname="fdm_spectrm.svg"
   inkscape:version="0.92.4 5da689c313, 2019-01-14"><metadata
     id="metadata8"><rdf:RDF><cc:Work
         rdf:about=""><dc:format>image/svg+xml</dc:format><dc:type
           rdf:resource="http://purl.org/dc/dcmitype/StillImage" /><dc:title></dc:title></cc:Work></rdf:RDF></metadata><defs
     id="defs6"><clipPath
       clipPathUnits="userSpaceOnUse"
       id="clipPath24"><path
         d="M 180,1800 H 5940 V 6120 H 180 Z"
         id="path22"
         inkscape:connector-curvature="0" /></clipPath></defs><sodipodi:namedview
     pagecolor="#ffffff"
     bordercolor="#666666"
     borderopacity="1"
     objecttolerance="10"
     gridtolerance="10"
     guidetolerance="10"
     inkscape:pageopacity="0"
     inkscape:pageshadow="2"
     inkscape:window-width="1920"
     inkscape:window-height="1051"
     id="namedview4"
     showgrid="false"
     inkscape:pagecheckerboard="true"
     inkscape:zoom="1.5434422"
     inkscape:cx="264.24386"
     inkscape:cy="268.8056"
     inkscape:window-x="0"
     inkscape:window-y="29"
     inkscape:window-maximized="1"
     inkscape:current-layer="layer1" /><g
     id="g10"
     inkscape:groupmode="layer"
     inkscape:label="fdm_spctrm"
     transform="matrix(1.3333333,0,0,-1.3333333,0,520)"><path
       inkscape:connector-curvature="0"
       id="path30"
       style="fill:none;stroke:#d9d9d9;stroke-width:0.5;stroke-linecap:butt;stroke-linejoin:miter;stroke-miterlimit:10;stroke-dasharray:16, 0;stroke-dashoffset:0;stroke-opacity:1"
       d="M 63.993949,23.430724 V 375.51072" /><path
       inkscape:connector-curvature="0"
       id="path32"
       style="fill:none;stroke:#d9d9d9;stroke-width:0.5;stroke-linecap:butt;stroke-linejoin:miter;stroke-miterlimit:10;stroke-dasharray:16, 0;stroke-dashoffset:0;stroke-opacity:1"
       d="M 156.99395,23.430724 V 375.51072" /><path
       inkscape:connector-curvature="0"
       id="path34"
       style="fill:none;stroke:#d9d9d9;stroke-width:0.5;stroke-linecap:butt;stroke-linejoin:miter;stroke-miterlimit:10;stroke-dasharray:16, 0;stroke-dashoffset:0;stroke-opacity:1"
       d="M 249.99395,23.430724 V 375.51072" /><path
       inkscape:connector-curvature="0"
       id="path36"
       style="fill:none;stroke:#d9d9d9;stroke-width:0.5;stroke-linecap:butt;stroke-linejoin:miter;stroke-miterlimit:10;stroke-dasharray:16, 0;stroke-dashoffset:0;stroke-opacity:1"
       d="M 342.99395,23.430724 V 375.51072" /><path
       inkscape:connector-curvature="0"
       id="path38"
       style="fill:none;stroke:#d9d9d9;stroke-width:0.5;stroke-linecap:butt;stroke-linejoin:miter;stroke-miterlimit:10;stroke-dasharray:16, 0;stroke-dashoffset:0;stroke-opacity:1"
       d="M 435.99395,23.430724 V 375.51072" /><path
       inkscape:connector-curvature="0"
       id="path58"
       style="fill:none;stroke:#d9d9d9;stroke-width:0.5;stroke-linecap:butt;stroke-linejoin:miter;stroke-miterlimit:10;stroke-dasharray:16, 0;stroke-dashoffset:0;stroke-opacity:1"
       d="M 26.794049,69.604724 H 473.19395" /><path
       inkscape:connector-curvature="0"
       id="path60"
       style="fill:none;stroke:#d9d9d9;stroke-width:0.5;stroke-linecap:butt;stroke-linejoin:miter;stroke-miterlimit:10;stroke-dasharray:16, 0;stroke-dashoffset:0;stroke-opacity:1"
       d="M 26.794049,115.77972 H 473.19395" /><path
       inkscape:connector-curvature="0"
       id="path62"
       style="fill:none;stroke:#d9d9d9;stroke-width:0.5;stroke-linecap:butt;stroke-linejoin:miter;stroke-miterlimit:10;stroke-dasharray:16, 0;stroke-dashoffset:0;stroke-opacity:1"
       d="M 26.794049,161.95372 H 473.19395" /><path
       inkscape:connector-curvature="0"
       id="path64"
       style="fill:none;stroke:#d9d9d9;stroke-width:0.5;stroke-linecap:butt;stroke-linejoin:miter;stroke-miterlimit:10;stroke-dasharray:16, 0;stroke-dashoffset:0;stroke-opacity:1"
       d="M 26.794049,208.12872 H 473.19395" /><path
       inkscape:connector-curvature="0"
       id="path66"
       style="fill:none;stroke:#d9d9d9;stroke-width:0.5;stroke-linecap:butt;stroke-linejoin:miter;stroke-miterlimit:10;stroke-dasharray:16, 0;stroke-dashoffset:0;stroke-opacity:1"
       d="M 26.794049,254.30272 H 473.19395" /><path
       inkscape:connector-curvature="0"
       id="path68"
       style="fill:none;stroke:#d9d9d9;stroke-width:0.5;stroke-linecap:butt;stroke-linejoin:miter;stroke-miterlimit:10;stroke-dasharray:16, 0;stroke-dashoffset:0;stroke-opacity:1"
       d="M 26.794049,300.47672 H 473.19395" /><path
       inkscape:connector-curvature="0"
       id="path70"
       style="fill:none;stroke:#d9d9d9;stroke-width:0.5;stroke-linecap:butt;stroke-linejoin:miter;stroke-miterlimit:10;stroke-dasharray:16, 0;stroke-dashoffset:0;stroke-opacity:1"
       d="M 26.794049,346.65172 H 473.19395" /><g
       id="g323"
       transform="translate(4.8592685)"><path
         d="m 59.134681,23.430724 v 4.465"
         style="fill:none;stroke:#262626;stroke-width:0.5;stroke-linecap:butt;stroke-linejoin:miter;stroke-miterlimit:10;stroke-dasharray:none;stroke-opacity:1"
         id="path40"
         inkscape:connector-curvature="0" /><path
         d="m 152.13468,23.430724 v 4.465"
         style="fill:none;stroke:#262626;stroke-width:0.5;stroke-linecap:butt;stroke-linejoin:miter;stroke-miterlimit:10;stroke-dasharray:none;stroke-opacity:1"
         id="path42"
         inkscape:connector-curvature="0" /><path
         d="m 245.13468,23.430724 v 4.465"
         style="fill:none;stroke:#262626;stroke-width:0.5;stroke-linecap:butt;stroke-linejoin:miter;stroke-miterlimit:10;stroke-dasharray:none;stroke-opacity:1"
         id="path44"
         inkscape:connector-curvature="0" /><path
         d="m 338.13468,23.430724 v 4.465"
         style="fill:none;stroke:#262626;stroke-width:0.5;stroke-linecap:butt;stroke-linejoin:miter;stroke-miterlimit:10;stroke-dasharray:none;stroke-opacity:1"
         id="path46"
         inkscape:connector-curvature="0" /><path
         d="m 431.13468,23.430724 v 4.465"
         style="fill:none;stroke:#262626;stroke-width:0.5;stroke-linecap:butt;stroke-linejoin:miter;stroke-miterlimit:10;stroke-dasharray:none;stroke-opacity:1"
         id="path48"
         inkscape:connector-curvature="0" /><path
         d="M 21.934781,23.430724 H 468.33468"
         style="fill:none;stroke:#d9d9d9;stroke-width:0.5;stroke-linecap:butt;stroke-linejoin:miter;stroke-miterlimit:10;stroke-dasharray:16, 0;stroke-dashoffset:0;stroke-opacity:1"
         id="path56"
         inkscape:connector-curvature="0" /><path
         d="m 21.934781,23.430724 h 4.4679"
         style="fill:none;stroke:#262626;stroke-width:0.5;stroke-linecap:butt;stroke-linejoin:miter;stroke-miterlimit:10;stroke-dasharray:none;stroke-opacity:1"
         id="path72"
         inkscape:connector-curvature="0" /><path
         d="M 21.934781,23.430724 H 468.33468"
         style="fill:none;stroke:#262626;stroke-width:0.5;stroke-linecap:square;stroke-linejoin:miter;stroke-miterlimit:10;stroke-dasharray:16, 0;stroke-dashoffset:0;stroke-opacity:1"
         id="path108"
         inkscape:connector-curvature="0" /></g><g
       id="g351"
       transform="translate(4.8592685)"><path
         d="m 21.934781,69.604724 h 4.4679"
         style="fill:none;stroke:#262626;stroke-width:0.5;stroke-linecap:butt;stroke-linejoin:miter;stroke-miterlimit:10;stroke-dasharray:none;stroke-opacity:1"
         id="path74"
         inkscape:connector-curvature="0" /><path
         d="m 21.934781,115.77972 h 4.4679"
         style="fill:none;stroke:#262626;stroke-width:0.5;stroke-linecap:butt;stroke-linejoin:miter;stroke-miterlimit:10;stroke-dasharray:none;stroke-opacity:1"
         id="path76"
         inkscape:connector-curvature="0" /><path
         d="m 21.934781,161.95372 h 4.4679"
         style="fill:none;stroke:#262626;stroke-width:0.5;stroke-linecap:butt;stroke-linejoin:miter;stroke-miterlimit:10;stroke-dasharray:none;stroke-opacity:1"
         id="path78"
         inkscape:connector-curvature="0" /><path
         d="m 21.934781,208.12872 h 4.4679"
         style="fill:none;stroke:#262626;stroke-width:0.5;stroke-linecap:butt;stroke-linejoin:miter;stroke-miterlimit:10;stroke-dasharray:none;stroke-opacity:1"
         id="path80"
         inkscape:connector-curvature="0" /><path
         d="m 21.934781,254.30272 h 4.4679"
         style="fill:none;stroke:#262626;stroke-width:0.5;stroke-linecap:butt;stroke-linejoin:miter;stroke-miterlimit:10;stroke-dasharray:none;stroke-opacity:1"
         id="path82"
         inkscape:connector-curvature="0" /><path
         d="m 21.934781,300.47672 h 4.4679"
         style="fill:none;stroke:#262626;stroke-width:0.5;stroke-linecap:butt;stroke-linejoin:miter;stroke-miterlimit:10;stroke-dasharray:none;stroke-opacity:1"
         id="path84"
         inkscape:connector-curvature="0" /><path
         d="m 21.934781,346.65172 h 4.4679"
         style="fill:none;stroke:#262626;stroke-width:0.5;stroke-linecap:butt;stroke-linejoin:miter;stroke-miterlimit:10;stroke-dasharray:none;stroke-opacity:1"
         id="path86"
         inkscape:connector-curvature="0" /><path
         d="M 21.934781,23.430724 V 375.51072"
         style="fill:none;stroke:#262626;stroke-width:0.5;stroke-linecap:square;stroke-linejoin:miter;stroke-miterlimit:10;stroke-dasharray:16, 0;stroke-dashoffset:0;stroke-opacity:1"
         id="path110"
         inkscape:connector-curvature="0" /></g><g
       id="g341"
       transform="matrix(1,0,0,-1,4.8592685,398.94144)"><path
         inkscape:connector-curvature="0"
         id="path325"
         style="fill:none;stroke:#262626;stroke-width:0.5;stroke-linecap:butt;stroke-linejoin:miter;stroke-miterlimit:10;stroke-dasharray:none;stroke-opacity:1"
         d="m 59.134681,23.430724 v 4.465" /><path
         inkscape:connector-curvature="0"
         id="path327"
         style="fill:none;stroke:#262626;stroke-width:0.5;stroke-linecap:butt;stroke-linejoin:miter;stroke-miterlimit:10;stroke-dasharray:none;stroke-opacity:1"
         d="m 152.13468,23.430724 v 4.465" /><path
         inkscape:connector-curvature="0"
         id="path329"
         style="fill:none;stroke:#262626;stroke-width:0.5;stroke-linecap:butt;stroke-linejoin:miter;stroke-miterlimit:10;stroke-dasharray:none;stroke-opacity:1"
         d="m 245.13468,23.430724 v 4.465" /><path
         inkscape:connector-curvature="0"
         id="path331"
         style="fill:none;stroke:#262626;stroke-width:0.5;stroke-linecap:butt;stroke-linejoin:miter;stroke-miterlimit:10;stroke-dasharray:none;stroke-opacity:1"
         d="m 338.13468,23.430724 v 4.465" /><path
         inkscape:connector-curvature="0"
         id="path333"
         style="fill:none;stroke:#262626;stroke-width:0.5;stroke-linecap:butt;stroke-linejoin:miter;stroke-miterlimit:10;stroke-dasharray:none;stroke-opacity:1"
         d="m 431.13468,23.430724 v 4.465" /><path
         inkscape:connector-curvature="0"
         id="path335"
         style="fill:none;stroke:#d9d9d9;stroke-width:0.5;stroke-linecap:butt;stroke-linejoin:miter;stroke-miterlimit:10;stroke-dasharray:16, 0;stroke-dashoffset:0;stroke-opacity:1"
         d="M 21.934781,23.430724 H 468.33468" /><path
         inkscape:connector-curvature="0"
         id="path337"
         style="fill:none;stroke:#262626;stroke-width:0.5;stroke-linecap:butt;stroke-linejoin:miter;stroke-miterlimit:10;stroke-dasharray:none;stroke-opacity:1"
         d="m 21.934781,23.430724 h 4.4679" /><path
         inkscape:connector-curvature="0"
         id="path339"
         style="fill:none;stroke:#262626;stroke-width:0.5;stroke-linecap:square;stroke-linejoin:miter;stroke-miterlimit:10;stroke-dasharray:16, 0;stroke-dashoffset:0;stroke-opacity:1"
         d="M 21.934781,23.430724 H 468.33468" /></g><g
       id="g369"
       transform="matrix(-1,0,0,1,495.12873,0)"><path
         inkscape:connector-curvature="0"
         id="path353"
         style="fill:none;stroke:#262626;stroke-width:0.5;stroke-linecap:butt;stroke-linejoin:miter;stroke-miterlimit:10;stroke-dasharray:none;stroke-opacity:1"
         d="m 21.934781,69.604724 h 4.4679" /><path
         inkscape:connector-curvature="0"
         id="path355"
         style="fill:none;stroke:#262626;stroke-width:0.5;stroke-linecap:butt;stroke-linejoin:miter;stroke-miterlimit:10;stroke-dasharray:none;stroke-opacity:1"
         d="m 21.934781,115.77972 h 4.4679" /><path
         inkscape:connector-curvature="0"
         id="path357"
         style="fill:none;stroke:#262626;stroke-width:0.5;stroke-linecap:butt;stroke-linejoin:miter;stroke-miterlimit:10;stroke-dasharray:none;stroke-opacity:1"
         d="m 21.934781,161.95372 h 4.4679" /><path
         inkscape:connector-curvature="0"
         id="path359"
         style="fill:none;stroke:#262626;stroke-width:0.5;stroke-linecap:butt;stroke-linejoin:miter;stroke-miterlimit:10;stroke-dasharray:none;stroke-opacity:1"
         d="m 21.934781,208.12872 h 4.4679" /><path
         inkscape:connector-curvature="0"
         id="path361"
         style="fill:none;stroke:#262626;stroke-width:0.5;stroke-linecap:butt;stroke-linejoin:miter;stroke-miterlimit:10;stroke-dasharray:none;stroke-opacity:1"
         d="m 21.934781,254.30272 h 4.4679" /><path
         inkscape:connector-curvature="0"
         id="path363"
         style="fill:none;stroke:#262626;stroke-width:0.5;stroke-linecap:butt;stroke-linejoin:miter;stroke-miterlimit:10;stroke-dasharray:none;stroke-opacity:1"
         d="m 21.934781,300.47672 h 4.4679" /><path
         inkscape:connector-curvature="0"
         id="path365"
         style="fill:none;stroke:#262626;stroke-width:0.5;stroke-linecap:butt;stroke-linejoin:miter;stroke-miterlimit:10;stroke-dasharray:none;stroke-opacity:1"
         d="m 21.934781,346.65172 h 4.4679" /><path
         inkscape:connector-curvature="0"
         id="path367"
         style="fill:none;stroke:#262626;stroke-width:0.5;stroke-linecap:square;stroke-linejoin:miter;stroke-miterlimit:10;stroke-dasharray:16, 0;stroke-dashoffset:0;stroke-opacity:1"
         d="M 21.934781,23.430724 V 375.51072" /></g></g><g
     inkscape:groupmode="layer"
     id="layer1"
     inkscape:label="text"><text
       transform="matrix(1.3333333,0,0,1.3333333,0,520)"
       style="font-variant:normal;font-weight:normal;font-size:11px;font-family:Helvetica;-inkscape-font-specification:Helvetica;writing-mode:lr-tb;fill:#262626;fill-opacity:1;fill-rule:nonzero;stroke:none"
       id="text116"
       x="224.76366"
       y="-4.6191101"><tspan
         x="224.76366 231.76366 235.76367 241.76369 247.7637 253.7637 259.7637 265.7637 271.7637"
         y="-4.6191101"
         sodipodi:role="line"
         id="tspan114">Frequency</tspan></text>
<text
       transform="rotate(-90)"
       style="font-variant:normal;font-weight:normal;font-size:14.66666603px;font-family:Helvetica;-inkscape-font-specification:Helvetica;writing-mode:lr-tb;fill:#262626;fill-opacity:1;fill-rule:nonzero;stroke:none;stroke-width:1.33333325"
       id="text120"
       x="-326.24652"
       y="20.339424"><tspan
         sodipodi:role="line"
         id="tspan118"
         x="-326.24652"
         y="20.339424"
         style="stroke-width:1.33333325">Power Spectral Density</tspan></text>
</g><g
     inkscape:groupmode="layer"
     id="layer2"
     inkscape:label="vector"><g
       transform="matrix(1.3333333,0,0,-1.3333333,0,520)"
       style=""
       id="g382"><path
         d="m 26.794049,115.77972 0.8941,-0.617 0.8946,-0.605 0.8953,-0.581 0.8945,-0.542 0.8945,-0.492 0.8946,-0.43 0.8945,-0.358 0.8948,-0.277 0.894,-0.189 0.895,-0.096 0.895,-0.002 0.894,0.094 0.895,0.188 0.894,0.279 0.895,0.363 0.894,0.439 0.895,0.507 0.894,0.563 0.895,0.606 0.895,0.635 0.894,0.651 0.895,0.651 0.894,0.637 0.895,0.609 0.895,0.565 0.894,0.509 0.895,0.441 0.895,0.363 0.894,0.275 0.895,0.181 0.894,0.082 0.895,-0.018 0.894,-0.12 0.895,-0.22 0.894,-0.314 0.895,-0.402 0.895,-0.482 0.895,-0.551 0.894,-0.608 0.895,-0.651 0.894,-0.68 0.895,-0.692 0.894,-0.691 0.895,-0.672 0.895,-0.639 0.894,-0.59 0.895,-0.528 0.894,-0.453 0.895,-0.368 0.894,-0.273 0.895,-0.172 0.894,-0.067 0.895,0.042 0.895,0.149 0.895,0.255 0.894,0.354 0.895,0.447 0.894,0.528 0.895,0.601 0.894,0.658 0.895,0.702 0.895,0.729 0.894,0.74 0.895,0.734 0.894,0.711 0.895,0.673 0.893999,0.618 0.895,0.549 0.894,0.466 0.895,0.374 0.895,0.271 0.895,0.162 0.894,0.048 0.895,-0.068 0.894,-0.182 0.895,-0.294 0.894,-0.399 0.895,-0.496 0.895,-0.583 0.894,-0.656 0.895,-0.716 0.894002,-0.758 0.895,-0.785 0.894,-0.793 0.895,-0.784 0.894,-0.756 0.895,-0.711 0.895,-0.649 0.895,-0.573 0.894,-0.482 0.895,-0.379 0.894,-0.269 0.895,-0.149 0.894,-0.027 0.895,0.097 0.895,0.22 0.894,0.338 0.895,0.451 0.894,0.553 0.895,0.644 0.894,0.72 0.895,0.78 0.894,0.824 0.895,0.848 0.895,0.854 0.895,0.84 0.894,0.807 0.895,0.755 0.894,0.685 0.895,0.599 0.894,0.499 0.895,0.388 0.895,0.265 0.894,0.135 0.895,0.003 0.894,-0.13 0.895,-0.264 0.894,-0.39 0.895,-0.511 0.894,-0.618 0.895,-0.714 0.895,-0.793 0.895,-0.856 0.894,-0.899 0.895,-0.922 0.894,-0.924 0.895,-0.905 0.894,-0.865 0.895,-0.806 0.895,-0.726 0.894,-0.631 0.895,-0.519 0.894,-0.396 0.895,-0.261 0.894,-0.12 0.895,0.025 0.894,0.171 0.895,0.314 0.895,0.45 0.895,0.579 0.894,0.695 0.895,0.796 0.894,0.879 0.895,0.944 0.894,0.987 0.895,1.008 0.895,1.006 0.894,0.982 0.895,0.934 0.894,0.866 0.895,0.775 0.894,0.667 0.895,0.543 0.894,0.406 0.896,0.257 0.894,0.102 0.895,-0.058 0.894,-0.218 0.895,-0.373 0.894,-0.522 0.895,-0.661 0.894,-0.785 0.895,-0.893 0.895,-0.982 0.894,-1.048 0.895,-1.092 0.894,-1.111 0.895,-1.104 0.894,-1.073 0.895,-1.017 0.895,-0.936 0.895,-0.835 0.894,-0.712 0.895,-0.572 0.894,-0.418 0.895,-0.252 0.894,-0.079 0.895,0.097 0.894,0.274 0.895,0.444 0.895,0.608 0.894,0.759 0.895,0.895 0.894,1.01 0.895,1.105 0.894,1.175 0.895,1.219 0.895,1.235 0.895,1.224 0.894,1.185 0.895,1.118 0.894,1.024 0.895,0.906 0.894,0.767 0.895,0.608 0.894,0.433 0.895,0.247 0.895,0.054 0.894,-0.145 0.895,-0.342 0.894,-0.531 0.895,-0.714 0.894,-0.88 0.895,-1.029 0.895,-1.155 0.895,-1.258 0.894,-1.332 0.895,-1.377 0.894,-1.391 0.895,-1.373 0.894,-1.324 0.895,-1.245 0.894,-1.134 0.895,-0.998 0.895,-0.837 0.894,-0.654 0.895,-0.454 0.894,-0.242 0.895,-0.021 0.894,0.203 0.895,0.426 0.895,0.642 0.895,0.845 0.894,1.033 0.895,1.199 0.894,1.34 0.895,1.452 0.894,1.533 0.895,1.58 0.895,1.59 0.894,1.566 0.895,1.505 0.894,1.408 0.895,1.279 0.894,1.117 0.895,0.93 0.894,0.715 0.895,0.485 0.895,0.237 0.895,-0.019 0.894,-0.277 0.895,-0.535 0.894,-0.783 0.895,-1.017 0.894,-1.232 0.895,-1.422 0.895,-1.583 0.894,-1.709 0.895,-1.798 0.894,-1.85 0.895,-1.857 0.894,-1.824 0.895,-1.748 0.894,-1.631 0.895,-1.475 0.895,-1.283 0.895,-1.057 0.894,-0.804 0.895,-0.529 0.894,-0.235 0.895,0.067 0.894,0.375 0.895,0.679 0.895,0.972 0.894,1.25 0.895,1.504 0.894,1.728 0.895,1.916 0.894,2.065 0.895,2.17 0.894,2.227 0.895,2.234 0.895,2.19 0.895,2.095 0.894,1.951 0.895,1.76 0.894,1.524 0.895,1.249 0.894,0.939 0.895,0.601 0.895,0.243 0.894,-0.129 0.895,-0.505 0.894,-0.88 0.895,-1.241 0.894,-1.583 0.895,-1.897 0.894,-2.174 0.895,-2.409 0.895,-2.594 0.895,-2.724 0.894,-2.796 0.895,-2.805 0.894,-2.752 0.895,-2.634 0.894,-2.452 0.895,-2.212 0.895,-1.913001 0.894,-1.564 0.895,-1.17 0.894,-0.738 0.895,-0.278 0.894,0.202 0.895,0.689 0.894,1.177 0.896,1.65 0.894,2.101001 0.895,2.519 0.894,2.889 0.895,3.208 0.894,3.463 0.895,3.649 0.894,3.756 0.895,3.784 0.895,3.725 0.894,3.582 0.895,3.352 0.894,3.038 0.895,2.645 0.894,2.177 0.895,1.644 0.895,1.051 0.895,0.415 0.894,-0.258 0.895,-0.952 0.894,-1.651 0.895,-2.345 0.894,-3.015 0.895,-3.647 0.894,-4.225 0.895,-4.737 0.895,-5.166 0.894,-5.502 0.895,-5.732 0.894,-5.845 0.895,-5.838001 0.894,-5.699 0.895,-5.429995 0.895,-5.024 0.895,-4.487 0.894,-3.82 0.895,-3.029 0.894,-2.123 0.895,-1.113 0.894,-0.01 0.895,1.169 0.894,2.409 0.895,3.691 0.895,4.995 0.894,6.304 0.895,7.592995 0.894,8.844001 0.895,10.034 0.894,11.145 0.895,12.154 0.895,13.046 0.895,13.802 0.894,14.408 0.895,14.851 0.894,15.12 0.895,15.209 0.894,15.109 0.895,14.821 0.894,14.343 0.895,13.683 0.895,12.842 0.894,11.832 0.895,10.665 0.894,9.355 0.895,7.919 0.894,6.376 0.895,4.746 0.895,3.052 0.895,1.315 0.894,-0.439 0.895,-2.187 0.894,-3.906 0.895,-5.57 0.894,-7.16 0.895,-8.652 0.894,-10.027 0.895,-11.267 0.895,-12.357 0.894,-13.284 0.895,-14.036 0.894,-14.606 0.895,-14.988 0.894,-15.183 0.895,-15.187 0.895,-15.008 0.895,-14.651 0.894,-14.125 0.895,-13.442 0.894,-12.615 0.895,-11.663 0.894,-10.601 0.895,-9.448001 0.894,-8.224995 0.895,-6.952 0.895,-5.65 0.894,-4.342 0.895,-3.046 0.894,-1.782 0.895,-0.571 0.894,0.572 0.895,1.63 0.895,2.59 0.895,3.439 0.894,4.17 0.895,4.772 0.894,5.244 0.895,5.580995 0.894,5.785 0.895,5.857001 0.894,5.804 0.895,5.631 0.895,5.346 0.894,4.963 0.895,4.49 0.894,3.944 0.895,3.336 0.894,2.684 0.895,2 0.895,1.302 0.895,0.602 0.894,-0.081 0.895,-0.738 0.894,-1.355 0.895,-1.918 0.894,-2.42 0.895,-2.851 0.895,-3.205 0.894,-3.477 0.895,-3.665 0.894,-3.766 0.895,-3.78 0.894,-3.712 0.895,-3.565 0.894,-3.344 0.895,-3.056 0.895,-2.71 0.895,-2.315001 0.894,-1.879 0.895,-1.416 0.894,-0.934 0.895,-0.445 0.894,0.04 0.895,0.511 0.894,0.958 0.895,1.372 0.895,1.745 0.894,2.069001 0.895,2.339 0.894,2.551 0.895,2.701 0.894,2.786 0.895,2.809 0.895,2.768 0.895,2.666 0.894,2.508 0.895,2.297 0.894,2.041 0.895,1.743 0.894,1.416 0.895,1.062 0.894,0.694 0.895,0.317 0.895,-0.058 0.894,-0.425 0.895,-0.773 0.894,-1.098 0.895,-1.391 0.895,-1.647 0.894,-1.861 0.895,-2.03 0.895,-2.149 0.894,-2.218 0.895,-2.236 0.894,-2.205 0.895,-2.123 0.894,-1.996 0.895,-1.827 0.895,-1.62 0.894,-1.38 0.895,-1.114 0.894,-0.827 0.895,-0.528 0.894,-0.221 0.895,0.085 0.895,0.384 0.894,0.669 0.895,0.933 0.895,1.174 0.894,1.383 0.895,1.558 0.894,1.695 0.895,1.791 0.894,1.846 0.895,1.859"
         style="fill:none;stroke:#0072bd;stroke-width:1.48000002;stroke-linecap:butt;stroke-linejoin:round;stroke-miterlimit:10;stroke-dasharray:none;stroke-opacity:1"
         id="path128"
         inkscape:connector-curvature="0" /><path
         d="m 26.794049,115.77972 0.8941,0.74 0.8946,0.727 0.8953,0.699 0.8945,0.654 0.8945,0.594 0.8946,0.519 0.8945,0.433 0.8948,0.336 0.894,0.231 0.895,0.119 0.895,0.005 0.894,-0.111 0.895,-0.225 0.894,-0.334 0.895,-0.436 0.894,-0.53 0.895,-0.612 0.894,-0.68 0.895,-0.734 0.895,-0.77 0.894,-0.79 0.895,-0.792 0.894,-0.775 0.895,-0.741 0.895,-0.69 0.894,-0.623 0.895,-0.54 0.895,-0.444 0.894,-0.339 0.895,-0.225 0.894,-0.104 0.895,0.02 0.894,0.143 0.895,0.265 0.894,0.382 0.895,0.49 0.895,0.589 0.895,0.674 0.894,0.744 0.895,0.799 0.894,0.835 0.895,0.853 0.894,0.851 0.895,0.83 0.895,0.789 0.894,0.731 0.895,0.655 0.894,0.563 0.895,0.459 0.894,0.341 0.895,0.218 0.894,0.087 0.895,-0.048 0.895,-0.181 0.895,-0.312 0.894,-0.436 0.895,-0.552 0.894,-0.656 0.895,-0.746 0.894,-0.818 0.895,-0.875 0.895,-0.91 0.894,-0.925 0.895,-0.919 0.894,-0.893 0.895,-0.845 0.893999,-0.779 0.895,-0.692 0.894,-0.59 0.895,-0.475 0.895,-0.346 0.895,-0.209 0.894,-0.066 0.895,0.08 0.894,0.225 0.895,0.366 0.894,0.5 0.895,0.624 0.895,0.734 0.894,0.83 0.895,0.906 0.894002,0.962 0.895,0.998 0.894,1.01 0.895,1 0.894,0.966 0.895,0.911 0.895,0.834 0.895,0.737 0.894,0.623 0.895,0.492 0.894,0.351 0.895,0.2 0.894,0.042 0.895,-0.118 0.895,-0.277 0.894,-0.43 0.895,-0.576 0.894,-0.709 0.895,-0.827 0.894,-0.929 0.895,-1.009 0.894,-1.068 0.895,-1.101 0.895,-1.112 0.895,-1.096 0.894,-1.054 0.895,-0.99 0.894,-0.901 0.895,-0.79 0.894,-0.661 0.895,-0.516 0.895,-0.357 0.894,-0.188 0.895,-0.013 0.894,0.163 0.895,0.338 0.894,0.508 0.895,0.666 0.894,0.812 0.895,0.94 0.895,1.049 0.895,1.133 0.894,1.195 0.895,1.229 0.894,1.234 0.895,1.213 0.894,1.163 0.895,1.085 0.895,0.983 0.894,0.856 0.895,0.71 0.894,0.544 0.895,0.365 0.894,0.174 0.895,-0.021 0.894,-0.218 0.895,-0.414 0.895,-0.602 0.895,-0.777 0.894,-0.938 0.895,-1.079 0.894,-1.197 0.895,-1.289 0.894,-1.353 0.895,-1.386 0.895,-1.388 0.894,-1.359 0.895,-1.297 0.894,-1.207 0.895,-1.086 0.894,-0.94 0.895,-0.77 0.894,-0.581 0.896,-0.376 0.894,-0.16 0.895,0.063 0.894,0.287 0.895,0.508 0.894,0.72 0.895,0.917 0.894,1.099 0.895,1.255 0.895,1.385 0.894,1.486 0.895,1.554 0.894,1.589 0.895,1.585 0.894,1.547 0.895,1.473 0.895,1.363 0.895,1.222 0.894,1.05 0.895,0.852 0.894,0.631 0.895,0.393 0.894,0.142 0.895,-0.116 0.894,-0.374 0.895,-0.629 0.895,-0.873 0.894,-1.1 0.895,-1.307 0.894,-1.485 0.895,-1.635 0.894,-1.747 0.895,-1.822 0.895,-1.857 0.895,-1.85 0.894,-1.801 0.895,-1.709 0.894,-1.577 0.895,-1.407 0.894,-1.201 0.895,-0.966 0.894,-0.703 0.895,-0.42 0.895,-0.123 0.894,0.183 0.895,0.489 0.894,0.791 0.895,1.079 0.894,1.348 0.895,1.591 0.895,1.803 0.895,1.978 0.894,2.109 0.895,2.197 0.894,2.235 0.895,2.224 0.894,2.16 0.895,2.047 0.894,1.885 0.895,1.677 0.895,1.425 0.894,1.136 0.895,0.815 0.894,0.469 0.895,0.105 0.894,-0.27 0.895,-0.647 0.895,-1.017 0.895,-1.372 0.894,-1.704 0.895,-2.006 0.894,-2.267 0.895,-2.485 0.894,-2.649 0.895,-2.758 0.895,-2.807 0.894,-2.793 0.895,-2.715 0.894,-2.573 0.895,-2.369 0.894,-2.106001 0.895,-1.788 0.894,-1.421 0.895,-1.012 0.895,-0.568 0.895,-0.1 0.894,0.384 0.895,0.873 0.894,1.356 0.895,1.823 0.894,2.262001 0.895,2.663 0.895,3.016 0.894,3.312 0.895,3.541 0.894,3.698 0.895,3.776 0.894,3.772 0.895,3.682 0.894,3.505 0.895,3.244 0.895,2.9 0.895,2.478 0.894,1.984 0.895,1.428 0.894,0.818 0.895,0.165 0.894,-0.516 0.895,-1.214 0.895,-1.913 0.894,-2.6 0.895,-3.257 0.894,-3.871 0.895,-4.426 0.894,-4.908 0.895,-5.303 0.894,-5.602 0.895,-5.788 0.895,-5.858 0.895,-5.800001 0.894,-5.613995 0.895,-5.294 0.894,-4.838 0.895,-4.252 0.894,-3.537 0.895,-2.703 0.895,-1.755 0.894,-0.709 0.895,0.423 0.894,1.628 0.895,2.886 0.894,4.178 0.895,5.488 0.894,6.79 0.895,8.067995 0.895,9.298001 0.895,10.461 0.894,11.536 0.895,12.503 0.894,13.347 0.895,14.047 0.894,14.595 0.895,14.972 0.895,15.176 0.894,15.192 0.895,15.023 0.894,14.664 0.895,14.118 0.894,13.387 0.895,12.483 0.894,11.412 0.896,10.19 0.894,8.83 0.895,7.352 0.894,5.774 0.895,4.117 0.894,2.404 0.895,0.658 0.894,-1.096 0.895,-2.837 0.895,-4.537 0.894,-6.176 0.895,-7.732 0.894,-9.182 0.895,-10.509 0.894,-11.695 0.895,-12.725 0.895,-13.586 0.895,-14.272 0.894,-14.771 0.895,-15.083 0.894,-15.206 0.895,-15.142 0.894,-14.894 0.895,-14.473 0.894,-13.887 0.895,-13.148 0.895,-12.272 0.894,-11.276 0.895,-10.178 0.894,-8.997001 0.895,-7.751995 0.894,-6.466 0.895,-5.16 0.895,-3.853 0.895,-2.567 0.894,-1.321 0.895,-0.133 0.894,0.979 0.895,2.002 0.894,2.923 0.895,3.727 0.894,4.411 0.895,4.965 0.895,5.384995 0.894,5.674 0.895,5.827001 0.894,5.851 0.895,5.753 0.894,5.536 0.895,5.214 0.895,4.795 0.895,4.293 0.894,3.723 0.895,3.096 0.894,2.43 0.895,1.74 0.894,1.038 0.895,0.344 0.894,-0.332 0.895,-0.975 0.895,-1.572 0.894,-2.114 0.895,-2.59 0.894,-2.993 0.895,-3.318 0.894,-3.557 0.895,-3.713 0.895,-3.781 0.895,-3.764 0.894,-3.666 0.895,-3.49 0.894,-3.244 0.895,-2.933 0.894,-2.567 0.895,-2.155001 0.894,-1.708 0.895,-1.237 0.895,-0.751 0.894,-0.262 0.895,0.218 0.894,0.683 0.895,1.117 0.894,1.517 0.895,1.872001 0.895,2.178 0.895,2.425 0.894,2.615 0.895,2.74 0.894,2.803 0.895,2.8 0.894,2.737 0.895,2.613 0.894,2.435 0.895,2.206 0.895,1.933 0.894,1.624 0.895,1.286 0.894,0.925 0.895,0.553 0.894,0.176 0.895,-0.198 0.895,-0.557 0.895,-0.898 0.894,-1.212 0.895,-1.492 0.894,-1.732 0.895,-1.93 0.894,-2.08 0.895,-2.182 0.894,-2.231 0.895,-2.229 0.895,-2.18 0.894,-2.081 0.895,-1.937 0.894,-1.754 0.895,-1.533 0.894,-1.283 0.895,-1.008 0.895,-0.717 0.895,-0.413 0.894,-0.106 0.895,0.199 0.894,0.492 0.895,0.771 0.894,1.027 0.895,1.256 0.895,1.453 0.894,1.614 0.895,1.736 0.894,1.817 0.895,1.855 0.894,1.853 0.895,1.807 0.894,1.722 0.895,1.6 0.895,1.444 0.895,1.257 0.894,1.046 0.895,0.813 0.894,0.565 0.895,0.31 0.894,0.052 0.895,-0.206 0.894,-0.454 0.895,-0.688 0.895,-0.904 0.894,-1.095 0.895,-1.26 0.894,-1.394 0.895,-1.495 0.894,-1.56 0.895,-1.59 0.895,-1.583 0.895,-1.54 0.894,-1.464 0.895,-1.356 0.894,-1.218 0.895,-1.055 0.894,-0.869 0.895,-0.668 0.894,-0.453 0.895,-0.232 0.895,-0.007 0.894,0.214 0.895,0.429 0.894,0.63 0.895,0.815 0.895,0.979 0.894,1.119 0.895,1.232 0.895,1.316 0.894,1.369 0.895,1.391 0.894,1.38 0.895,1.339 0.894,1.269 0.895,1.169 0.895,1.046 0.894,0.9 0.895,0.735 0.894,0.555 0.895,0.366 0.894,0.169 0.895,-0.028 0.895,-0.223 0.894,-0.411 0.895,-0.587 0.895,-0.748 0.894,-0.89 0.895,-1.011 0.894,-1.107 0.895,-1.178 0.894,-1.221 0.895,-1.235"
         style="fill:none;stroke:#d95319;stroke-width:1.48000002;stroke-linecap:butt;stroke-linejoin:round;stroke-miterlimit:10;stroke-dasharray:none;stroke-opacity:1"
         id="path130"
         inkscape:connector-curvature="0" /><path
         d="m 26.794049,115.77972 0.8941,-0.926 0.8946,-0.912 0.8953,-0.877 0.8945,-0.822 0.8945,-0.748 0.8946,-0.656 0.8945,-0.549 0.8948,-0.427 0.894,-0.296 0.895,-0.156 0.895,-0.011 0.894,0.135 0.895,0.278 0.894,0.417 0.895,0.548 0.894,0.667 0.895,0.772 0.894,0.861 0.895,0.929 0.895,0.978 0.894,1.005 0.895,1.009 0.894,0.99 0.895,0.948 0.895,0.885 0.894,0.799 0.895,0.697 0.895,0.575 0.894,0.441 0.895,0.295 0.894,0.141 0.895,-0.018 0.894,-0.177 0.895,-0.335 0.894,-0.486 0.895,-0.628 0.895,-0.755 0.895,-0.868 0.894,-0.961 0.895,-1.034 0.894,-1.083 0.895,-1.108 0.894,-1.109 0.895,-1.083 0.895,-1.033 0.894,-0.959 0.895,-0.862 0.894,-0.744 0.895,-0.609 0.894,-0.457 0.895,-0.295 0.894,-0.123 0.895,0.054 0.895,0.229 0.895,0.402 0.894,0.568 0.895,0.723 0.894,0.862 0.895,0.984 0.894,1.083 0.895,1.16 0.895,1.21 0.894,1.235 0.895,1.229 0.894,1.197 0.895,1.137 0.893999,1.05 0.895,0.938 0.894,0.804 0.895,0.649 0.895,0.478 0.895,0.295 0.894,0.102 0.895,-0.096 0.894,-0.292 0.895,-0.485 0.894,-0.669 0.895,-0.84 0.895,-0.993 0.894,-1.126 0.895,-1.235 0.894002,-1.316 0.895,-1.369 0.894,-1.391 0.895,-1.38 0.894,-1.34 0.895,-1.267 0.895,-1.164 0.895,-1.035 0.894,-0.879 0.895,-0.702 0.894,-0.505 0.895,-0.296 0.894,-0.077 0.895,0.147 0.895,0.371 0.894,0.589 0.895,0.796 0.894,0.988 0.895,1.159 0.894,1.307 0.895,1.427 0.894,1.516 0.895,1.571 0.895,1.591 0.895,1.576 0.894,1.523 0.895,1.436 0.894,1.314 0.895,1.161 0.894,0.978 0.895,0.772 0.895,0.543 0.894,0.3 0.895,0.046 0.894,-0.213 0.895,-0.471 0.894,-0.721 0.895,-0.961 0.894,-1.181 0.895,-1.377 0.895,-1.544 0.895,-1.681 0.894,-1.78 0.895,-1.841 0.894,-1.859 0.895,-1.837 0.894,-1.771 0.895,-1.664 0.895,-1.517 0.894,-1.334 0.895,-1.116 0.894,-0.87 0.895,-0.6 0.894,-0.31 0.895,-0.008 0.894,0.297 0.895,0.604 0.895,0.9 0.895,1.183 0.894,1.443 0.895,1.675 0.894,1.873 0.895,2.031 0.894,2.148 0.895,2.218 0.895,2.236 0.894,2.206 0.895,2.124 0.894,1.992 0.895,1.812 0.894,1.587 0.895,1.32 0.894,1.02 0.896,0.688 0.894,0.334 0.895,-0.035 0.894,-0.411 0.895,-0.787 0.894,-1.153 0.895,-1.5 0.894,-1.821 0.895,-2.109 0.895,-2.354 0.894,-2.553 0.895,-2.697 0.894,-2.784 0.895,-2.809 0.894,-2.771 0.895,-2.669 0.895,-2.504 0.895,-2.277 0.894,-1.993001 0.895,-1.655 0.894,-1.272 0.895,-0.849 0.894,-0.396 0.895,0.081 0.894,0.567 0.895,1.056 0.895,1.533 0.894,1.992 0.895,2.417001 0.894,2.802 0.895,3.134 0.894,3.405 0.895,3.609 0.895,3.737 0.895,3.785 0.894,3.748 0.895,3.626 0.894,3.417 0.895,3.124 0.894,2.751 0.895,2.301 0.894,1.782 0.895,1.205 0.895,0.577 0.894,-0.087 0.895,-0.777 0.894,-1.477 0.895,-2.173 0.894,-2.85 0.895,-3.493 0.895,-4.087 0.895,-4.616 0.894,-5.067 0.895,-5.428 0.894,-5.684 0.895,-5.829 0.894,-5.851001 0.895,-5.747 0.894,-5.508995 0.895,-5.139 0.895,-4.633 0.894,-3.999 0.895,-3.237 0.894,-2.361 0.895,-1.374 0.894,-0.294 0.895,0.868 0.895,2.095 0.895,3.367 0.894,4.669 0.895,5.977 0.894,7.273995 0.895,8.536 0.894,9.743001 0.895,10.875 0.895,11.913 0.894,12.835 0.895,13.626 0.894,14.272 0.895,14.756 0.894,15.07 0.895,15.204 0.894,15.151 0.895,14.911 0.895,14.481 0.895,13.864 0.894,13.068 0.895,12.1 0.894,10.971 0.895,9.695 0.894,8.289 0.895,6.771 0.895,5.161 0.894,3.48 0.895,1.751 h 0.894 l 0.895,-1.751 0.894,-3.48 0.895,-5.161 0.894,-6.771 0.895,-8.289 0.895,-9.695 0.895,-10.971 0.894,-12.1 0.895,-13.068 0.894,-13.864 0.895,-14.481 0.894,-14.911 0.895,-15.151 0.895,-15.204 0.894,-15.07 0.895,-14.756 0.894,-14.272 0.895,-13.626 0.894,-12.835 0.895,-11.913 0.894,-10.875 0.895,-9.743001 0.895,-8.536 0.895,-7.273995 0.894,-5.977 0.895,-4.669 0.894,-3.367 0.895,-2.095 0.894,-0.868 0.895,0.294 0.895,1.374 0.894,2.361 0.895,3.237 0.894,3.999 0.895,4.633 0.894,5.139 0.895,5.508995 0.894,5.747 0.895,5.851001 0.895,5.829 0.895,5.684 0.894,5.428 0.895,5.067 0.894,4.616 0.895,4.087 0.894,3.493 0.895,2.85 0.895,2.173 0.894,1.477 0.895,0.777 0.894,0.087 0.895,-0.577 0.894,-1.205 0.895,-1.782 0.894,-2.301 0.896,-2.751 0.894,-3.124 0.895,-3.417 0.894,-3.626 0.895,-3.748 0.894,-3.785 0.895,-3.737 0.894,-3.609 0.895,-3.405 0.895,-3.134 0.894,-2.802 0.895,-2.417001 0.894,-1.992 0.895,-1.533 0.894,-1.056 0.895,-0.567 0.895,-0.081 0.895,0.396 0.894,0.849 0.895,1.272 0.894,1.655 0.895,1.993001 0.894,2.277 0.895,2.504 0.894,2.669 0.895,2.771 0.895,2.809 0.894,2.784 0.895,2.697 0.894,2.553 0.895,2.354 0.894,2.109 0.895,1.821 0.895,1.5 0.895,1.153 0.894,0.787 0.895,0.411 0.894,0.035 0.895,-0.334 0.894,-0.688 0.895,-1.02 0.894,-1.32 0.895,-1.587 0.895,-1.812 0.894,-1.992 0.895,-2.124 0.894,-2.206 0.895,-2.236 0.894,-2.218 0.895,-2.148 0.895,-2.031 0.895,-1.873 0.894,-1.675 0.895,-1.443 0.894,-1.183 0.895,-0.9 0.894,-0.604 0.895,-0.297 0.894,0.008 0.895,0.31 0.895,0.6 0.894,0.87 0.895,1.116 0.894,1.334 0.895,1.517 0.894,1.664 0.895,1.771 0.895,1.837 0.895,1.859 0.894,1.841 0.895,1.78 0.894,1.681 0.895,1.544 0.894,1.377 0.895,1.181 0.894,0.961 0.895,0.721 0.895,0.471 0.894,0.213 0.895,-0.046 0.894,-0.3 0.895,-0.543 0.894,-0.772 0.895,-0.978 0.895,-1.161 0.895,-1.314 0.894,-1.436 0.895,-1.523 0.894,-1.576 0.895,-1.591 0.894,-1.571 0.895,-1.516 0.894,-1.427 0.895,-1.307 0.895,-1.159 0.894,-0.988 0.895,-0.796 0.894,-0.589 0.895,-0.371 0.894,-0.147 0.895,0.077 0.895,0.296 0.895,0.505 0.894,0.702 0.895,0.879 0.894,1.035 0.895,1.164 0.894,1.267 0.895,1.34 0.894,1.38 0.895,1.391 0.895,1.369 0.894,1.316 0.895,1.235 0.894,1.126 0.895,0.993 0.894,0.84 0.895,0.669 0.895,0.485 0.895,0.292 0.894,0.096 0.895,-0.102 0.894,-0.295 0.895,-0.478 0.894,-0.649 0.895,-0.804 0.895,-0.938 0.894,-1.05 0.895,-1.137 0.894,-1.197 0.895,-1.229 0.894,-1.235 0.895,-1.21 0.894,-1.16 0.895,-1.083 0.895,-0.984 0.895,-0.862 0.894,-0.723 0.895,-0.568 0.894,-0.402 0.895,-0.229 0.894,-0.054 0.895,0.123 0.894,0.295 0.895,0.457 0.895,0.609 0.894,0.744 0.895,0.862 0.894,0.959 0.895,1.033 0.894,1.083 0.895,1.109 0.895,1.108 0.895,1.083 0.894,1.034 0.895,0.961 0.894,0.868 0.895,0.755 0.894,0.628 0.895,0.486 0.894,0.335 0.895,0.177 0.895,0.018 0.894,-0.141 0.895,-0.295 0.894,-0.441 0.895,-0.575 0.895,-0.697 0.894,-0.799 0.895,-0.885 0.895,-0.948 0.894,-0.99 0.895,-1.009 0.894,-1.005 0.895,-0.978 0.894,-0.929 0.895,-0.861 0.895,-0.772 0.894,-0.667 0.895,-0.548 0.894,-0.417 0.895,-0.278 0.894,-0.135 0.895,0.011 0.895,0.156 0.894,0.296 0.895,0.427 0.895,0.549 0.894,0.656 0.895,0.748 0.894,0.822 0.895,0.877 0.894,0.912 0.895,0.926"
         style="fill:none;stroke:#edb120;stroke-width:1.48000002;stroke-linecap:butt;stroke-linejoin:round;stroke-miterlimit:10;stroke-dasharray:none;stroke-opacity:1"
         id="path132"
         inkscape:connector-curvature="0" /><path
         d="m 26.794049,115.77972 0.8941,1.235 0.8946,1.221 0.8953,1.178 0.8945,1.107 0.8945,1.011 0.8946,0.89 0.8945,0.748 0.8948,0.587 0.894,0.411 0.895,0.223 0.895,0.028 0.894,-0.169 0.895,-0.366 0.894,-0.555 0.895,-0.735 0.894,-0.9 0.895,-1.046 0.894,-1.169 0.895,-1.269 0.895,-1.339 0.894,-1.38 0.895,-1.391 0.894,-1.369 0.895,-1.316 0.895,-1.232 0.894,-1.119 0.895,-0.979 0.895,-0.815 0.894,-0.63 0.895,-0.429 0.894,-0.214 0.895,0.007 0.894,0.232 0.895,0.453 0.894,0.668 0.895,0.869 0.895,1.055 0.895,1.218 0.894,1.356 0.895,1.464 0.894,1.54 0.895,1.583 0.894,1.59 0.895,1.56 0.895,1.495 0.894,1.394 0.895,1.26 0.894,1.095 0.895,0.904 0.894,0.688 0.895,0.454 0.894,0.206 0.895,-0.052 0.895,-0.31 0.895,-0.565 0.894,-0.813 0.895,-1.046 0.894,-1.257 0.895,-1.444 0.894,-1.6 0.895,-1.722 0.895,-1.807 0.894,-1.853 0.895,-1.855 0.894,-1.817 0.895,-1.736 0.893999,-1.614 0.895,-1.453 0.894,-1.256 0.895,-1.027 0.895,-0.771 0.895,-0.492 0.894,-0.199 0.895,0.106 0.894,0.413 0.895,0.717 0.894,1.008 0.895,1.283 0.895,1.533 0.894,1.754 0.895,1.937 0.894002,2.081 0.895,2.18 0.894,2.229 0.895,2.231 0.894,2.182 0.895,2.08 0.895,1.93 0.895,1.732 0.894,1.492 0.895,1.212 0.894,0.898 0.895,0.557 0.894,0.198 0.895,-0.176 0.895,-0.553 0.894,-0.925 0.895,-1.286 0.894,-1.624 0.895,-1.933 0.894,-2.206 0.895,-2.435 0.894,-2.613 0.895,-2.737 0.895,-2.8 0.895,-2.803 0.894,-2.74 0.895,-2.615 0.894,-2.425 0.895,-2.178 0.894,-1.872001 0.895,-1.517 0.895,-1.117 0.894,-0.683 0.895,-0.218 0.894,0.262 0.895,0.751 0.894,1.237 0.895,1.708 0.894,2.155001 0.895,2.567 0.895,2.933 0.895,3.244 0.894,3.49 0.895,3.666 0.894,3.764 0.895,3.781 0.894,3.713 0.895,3.557 0.895,3.318 0.894,2.993 0.895,2.59 0.894,2.114 0.895,1.572 0.894,0.975 0.895,0.332 0.894,-0.344 0.895,-1.038 0.895,-1.74 0.895,-2.43 0.894,-3.096 0.895,-3.723 0.894,-4.293 0.895,-4.795 0.894,-5.214 0.895,-5.536 0.895,-5.753 0.894,-5.851 0.895,-5.827001 0.894,-5.674 0.895,-5.384995 0.894,-4.965 0.895,-4.411 0.894,-3.727 0.896,-2.923 0.894,-2.002 0.895,-0.979 0.894,0.133 0.895,1.321 0.894,2.567 0.895,3.853 0.894,5.16 0.895,6.466 0.895,7.751995 0.894,8.997001 0.895,10.178 0.894,11.276 0.895,12.272 0.894,13.148 0.895,13.887 0.895,14.473 0.895,14.894 0.894,15.142 0.895,15.206 0.894,15.083 0.895,14.771 0.894,14.272 0.895,13.586 0.894,12.725 0.895,11.695 0.895,10.509 0.894,9.182 0.895,7.732 0.894,6.176 0.895,4.537 0.894,2.837 0.895,1.096 0.895,-0.658 0.895,-2.404 0.894,-4.117 0.895,-5.774 0.894,-7.352 0.895,-8.83 0.894,-10.19 0.895,-11.412 0.894,-12.483 0.895,-13.387 0.895,-14.118 0.894,-14.664 0.895,-15.023 0.894,-15.192 0.895,-15.176 0.894,-14.972 0.895,-14.595 0.895,-14.047 0.895,-13.347 0.894,-12.503 0.895,-11.536 0.894,-10.461 0.895,-9.298001 0.894,-8.067995 0.895,-6.79 0.894,-5.488 0.895,-4.178 0.895,-2.886 0.894,-1.628 0.895,-0.423 0.894,0.709 0.895,1.755 0.894,2.703 0.895,3.537 0.895,4.252 0.895,4.838 0.894,5.294 0.895,5.613995 0.894,5.800001 0.895,5.858 0.894,5.788 0.895,5.602 0.895,5.303 0.894,4.908 0.895,4.426 0.894,3.871 0.895,3.257 0.894,2.6 0.895,1.913 0.894,1.214 0.895,0.516 0.895,-0.165 0.895,-0.818 0.894,-1.428 0.895,-1.984 0.894,-2.478 0.895,-2.9 0.894,-3.244 0.895,-3.505 0.895,-3.682 0.894,-3.772 0.895,-3.776 0.894,-3.698 0.895,-3.541 0.894,-3.312 0.895,-3.016 0.894,-2.663 0.895,-2.262001 0.895,-1.823 0.895,-1.356 0.894,-0.873 0.895,-0.384 0.894,0.1 0.895,0.568 0.894,1.012 0.895,1.421 0.895,1.788 0.894,2.106001 0.895,2.369 0.894,2.573 0.895,2.715 0.894,2.793 0.895,2.807 0.894,2.758 0.895,2.649 0.895,2.485 0.895,2.267 0.894,2.006 0.895,1.704 0.894,1.372 0.895,1.017 0.894,0.647 0.895,0.27 0.895,-0.105 0.894,-0.469 0.895,-0.815 0.894,-1.136 0.895,-1.425 0.894,-1.677 0.895,-1.885 0.894,-2.047 0.895,-2.16 0.895,-2.224 0.895,-2.235 0.894,-2.197 0.895,-2.109 0.894,-1.978 0.895,-1.803 0.894,-1.591 0.895,-1.348 0.895,-1.079 0.894,-0.791 0.895,-0.489 0.894,-0.183 0.895,0.123 0.894,0.42 0.895,0.703 0.894,0.966 0.896,1.201 0.894,1.407 0.895,1.577 0.894,1.709 0.895,1.801 0.894,1.85 0.895,1.857 0.894,1.822 0.895,1.747 0.895,1.635 0.894,1.485 0.895,1.307 0.894,1.1 0.895,0.873 0.894,0.629 0.895,0.374 0.895,0.116 0.895,-0.142 0.894,-0.393 0.895,-0.631 0.894,-0.852 0.895,-1.05 0.894,-1.222 0.895,-1.363 0.894,-1.473 0.895,-1.547 0.895,-1.585 0.894,-1.589 0.895,-1.554 0.894,-1.486 0.895,-1.385 0.894,-1.255 0.895,-1.099 0.895,-0.917 0.895,-0.72 0.894,-0.508 0.895,-0.287 0.894,-0.063 0.895,0.16 0.894,0.376 0.895,0.581 0.894,0.77 0.895,0.94 0.895,1.086 0.894,1.207 0.895,1.297 0.894,1.359 0.895,1.388 0.894,1.386 0.895,1.353 0.895,1.289 0.895,1.197 0.894,1.079 0.895,0.938 0.894,0.777 0.895,0.602 0.894,0.414 0.895,0.218 0.894,0.021 0.895,-0.174 0.895,-0.365 0.894,-0.544 0.895,-0.71 0.894,-0.856 0.895,-0.983 0.894,-1.085 0.895,-1.163 0.895,-1.213 0.895,-1.234 0.894,-1.229 0.895,-1.195 0.894,-1.133 0.895,-1.049 0.894,-0.94 0.895,-0.812 0.894,-0.666 0.895,-0.508 0.895,-0.338 0.894,-0.163 0.895,0.013 0.894,0.188 0.895,0.357 0.894,0.516 0.895,0.661 0.895,0.79 0.895,0.901 0.894,0.99 0.895,1.054 0.894,1.096 0.895,1.112 0.894,1.101 0.895,1.068 0.894,1.009 0.895,0.929 0.895,0.827 0.894,0.709 0.895,0.576 0.894,0.43 0.895,0.277 0.894,0.118 0.895,-0.042 0.895,-0.2 0.895,-0.351 0.894,-0.492 0.895,-0.623 0.894,-0.737 0.895,-0.834 0.894,-0.911 0.895,-0.966 0.894,-1 0.895,-1.01 0.895,-0.998 0.894,-0.962 0.895,-0.906 0.894,-0.83 0.895,-0.734 0.894,-0.624 0.895,-0.5 0.895,-0.366 0.895,-0.225 0.894,-0.08 0.895,0.066 0.894,0.209 0.895,0.346 0.894,0.475 0.895,0.59 0.895,0.692 0.894,0.779 0.895,0.845 0.894,0.893 0.895,0.919 0.894,0.925 0.895,0.91 0.894,0.875 0.895,0.818 0.895,0.746 0.895,0.656 0.894,0.552 0.895,0.436 0.894,0.312 0.895,0.181 0.894,0.048 0.895,-0.087 0.894,-0.218 0.895,-0.341 0.895,-0.459 0.894,-0.563 0.895,-0.655 0.894,-0.731 0.895,-0.789 0.894,-0.83 0.895,-0.851 0.895,-0.853 0.895,-0.835 0.894,-0.799 0.895,-0.744 0.894,-0.674 0.895,-0.589 0.894,-0.49 0.895,-0.382 0.894,-0.265 0.895,-0.143 0.895,-0.02 0.894,0.104 0.895,0.225 0.894,0.339 0.895,0.444 0.895,0.54 0.894,0.623 0.895,0.69 0.895,0.741 0.894,0.775 0.895,0.792 0.894,0.79 0.895,0.77 0.894,0.734 0.895,0.68 0.895,0.612 0.894,0.53 0.895,0.436 0.894,0.334 0.895,0.225 0.894,0.111 0.895,-0.005 0.895,-0.119 0.894,-0.231 0.895,-0.336 0.895,-0.433 0.894,-0.519 0.895,-0.594 0.894,-0.654 0.895,-0.699 0.894,-0.727 0.895,-0.74"
         style="fill:none;stroke:#7e2f8e;stroke-width:1.48000002;stroke-linecap:butt;stroke-linejoin:round;stroke-miterlimit:10;stroke-dasharray:none;stroke-opacity:1"
         id="path134"
         inkscape:connector-curvature="0" /><path
         d="m 26.794049,115.77972 0.8941,-1.859 0.8946,-1.846 0.8953,-1.791 0.8945,-1.695 0.8945,-1.558 0.8946,-1.383 0.8945,-1.174 0.8948,-0.933 0.894,-0.669 0.895,-0.384 0.895,-0.085 0.894,0.221 0.895,0.528 0.894,0.827 0.895,1.114 0.894,1.38 0.895,1.62 0.894,1.827 0.895,1.996 0.895,2.123 0.894,2.205 0.895,2.236 0.894,2.218 0.895,2.149 0.895,2.03 0.894,1.861 0.895,1.647 0.895,1.391 0.894,1.098 0.895,0.773 0.894,0.425 0.895,0.058 0.894,-0.317 0.895,-0.694 0.894,-1.062 0.895,-1.416 0.895,-1.743 0.895,-2.041 0.894,-2.297 0.895,-2.508 0.894,-2.666 0.895,-2.768 0.894,-2.809 0.895,-2.786 0.895,-2.701 0.894,-2.551 0.895,-2.339 0.894,-2.069001 0.895,-1.745 0.894,-1.372 0.895,-0.958 0.894,-0.511 0.895,-0.04 0.895,0.445 0.895,0.934 0.894,1.416 0.895,1.879 0.894,2.315001 0.895,2.71 0.894,3.056 0.895,3.344 0.895,3.565 0.894,3.712 0.895,3.78 0.894,3.766 0.895,3.665 0.893999,3.477 0.895,3.205 0.894,2.851 0.895,2.42 0.895,1.918 0.895,1.355 0.894,0.738 0.895,0.081 0.894,-0.602 0.895,-1.302 0.894,-2 0.895,-2.684 0.895,-3.336 0.894,-3.944 0.895,-4.49 0.894002,-4.963 0.895,-5.346 0.894,-5.631 0.895,-5.804 0.894,-5.857001 0.895,-5.785 0.895,-5.580995 0.895,-5.244 0.894,-4.772 0.895,-4.17 0.894,-3.439 0.895,-2.59 0.894,-1.63 0.895,-0.572 0.895,0.571 0.894,1.782 0.895,3.046 0.894,4.342 0.895,5.65 0.894,6.952 0.895,8.224995 0.894,9.448001 0.895,10.601 0.895,11.663 0.895,12.615 0.894,13.442 0.895,14.125 0.894,14.651 0.895,15.008 0.894,15.187 0.895,15.183 0.895,14.988 0.894,14.606 0.895,14.036 0.894,13.284 0.895,12.357 0.894,11.267 0.895,10.027 0.894,8.652 0.895,7.16 0.895,5.57 0.895,3.906 0.894,2.187 0.895,0.439 0.894,-1.315 0.895,-3.052 0.894,-4.746 0.895,-6.376 0.895,-7.919 0.894,-9.355 0.895,-10.665 0.894,-11.832 0.895,-12.842 0.894,-13.683 0.895,-14.343 0.894,-14.821 0.895,-15.109 0.895,-15.209 0.895,-15.12 0.894,-14.851 0.895,-14.408 0.894,-13.802 0.895,-13.046 0.894,-12.154 0.895,-11.145 0.895,-10.034 0.894,-8.844001 0.895,-7.592995 0.894,-6.304 0.895,-4.995 0.894,-3.691 0.895,-2.409 0.894,-1.169 0.896,0.01 0.894,1.113 0.895,2.123 0.894,3.029 0.895,3.82 0.894,4.487 0.895,5.024 0.894,5.429995 0.895,5.699 0.895,5.838001 0.894,5.845 0.895,5.732 0.894,5.502 0.895,5.166 0.894,4.737 0.895,4.225 0.895,3.647 0.895,3.015 0.894,2.345 0.895,1.651 0.894,0.952 0.895,0.258 0.894,-0.415 0.895,-1.051 0.894,-1.644 0.895,-2.177 0.895,-2.645 0.894,-3.038 0.895,-3.352 0.894,-3.582 0.895,-3.725 0.894,-3.784 0.895,-3.756 0.895,-3.649 0.895,-3.463 0.894,-3.208 0.895,-2.889 0.894,-2.519 0.895,-2.101001 0.894,-1.65 0.895,-1.177 0.894,-0.689 0.895,-0.202 0.895,0.278 0.894,0.738 0.895,1.17 0.894,1.564 0.895,1.913001 0.894,2.212 0.895,2.452 0.895,2.634 0.895,2.752 0.894,2.805 0.895,2.796 0.894,2.724 0.895,2.594 0.894,2.409 0.895,2.174 0.894,1.897 0.895,1.583 0.895,1.241 0.894,0.88 0.895,0.505 0.894,0.129 0.895,-0.243 0.894,-0.601 0.895,-0.939 0.895,-1.249 0.895,-1.524 0.894,-1.76 0.895,-1.951 0.894,-2.095 0.895,-2.19 0.894,-2.234 0.895,-2.227 0.895,-2.17 0.894,-2.065 0.895,-1.916 0.894,-1.728 0.895,-1.504 0.894,-1.25 0.895,-0.972 0.894,-0.679 0.895,-0.375 0.895,-0.067 0.895,0.235 0.894,0.529 0.895,0.804 0.894,1.057 0.895,1.283 0.894,1.475 0.895,1.631 0.895,1.748 0.894,1.824 0.895,1.857 0.894,1.85 0.895,1.798 0.894,1.709 0.895,1.583 0.894,1.422 0.895,1.232 0.895,1.017 0.895,0.783 0.894,0.535 0.895,0.277 0.894,0.019 0.895,-0.237 0.894,-0.485 0.895,-0.715 0.895,-0.93 0.894,-1.117 0.895,-1.279 0.894,-1.408 0.895,-1.505 0.894,-1.566 0.895,-1.59 0.894,-1.58 0.895,-1.533 0.895,-1.452 0.895,-1.34 0.894,-1.199 0.895,-1.033 0.894,-0.845 0.895,-0.642 0.894,-0.426 0.895,-0.203 0.895,0.021 0.894,0.242 0.895,0.454 0.894,0.654 0.895,0.837 0.894,0.998 0.895,1.134 0.894,1.245 0.895,1.324 0.895,1.373 0.895,1.391 0.894,1.377 0.895,1.332 0.894,1.258 0.895,1.155 0.894,1.029 0.895,0.88 0.895,0.714 0.894,0.531 0.895,0.342 0.894,0.145 0.895,-0.054 0.894,-0.247 0.895,-0.433 0.894,-0.608 0.896,-0.767 0.894,-0.906 0.895,-1.024 0.894,-1.118 0.895,-1.185 0.894,-1.224 0.895,-1.235 0.894,-1.219 0.895,-1.175 0.895,-1.105 0.894,-1.01 0.895,-0.895 0.894,-0.759 0.895,-0.608 0.894,-0.444 0.895,-0.274 0.895,-0.097 0.895,0.079 0.894,0.252 0.895,0.418 0.894,0.572 0.895,0.712 0.894,0.835 0.895,0.936 0.894,1.017 0.895,1.073 0.895,1.104 0.894,1.111 0.895,1.092 0.894,1.048 0.895,0.982 0.894,0.893 0.895,0.785 0.895,0.661 0.895,0.522 0.894,0.373 0.895,0.218 0.894,0.058 0.895,-0.102 0.894,-0.257 0.895,-0.406 0.894,-0.543 0.895,-0.667 0.895,-0.775 0.894,-0.866 0.895,-0.934 0.894,-0.982 0.895,-1.006 0.894,-1.008 0.895,-0.987 0.895,-0.944 0.895,-0.879 0.894,-0.796 0.895,-0.695 0.894,-0.579 0.895,-0.45 0.894,-0.314 0.895,-0.171 0.894,-0.025 0.895,0.12 0.895,0.261 0.894,0.396 0.895,0.519 0.894,0.631 0.895,0.726 0.894,0.806 0.895,0.865 0.895,0.905 0.895,0.924 0.894,0.922 0.895,0.899 0.894,0.856 0.895,0.793 0.894,0.714 0.895,0.618 0.894,0.511 0.895,0.39 0.895,0.264 0.894,0.13 0.895,-0.003 0.894,-0.135 0.895,-0.265 0.894,-0.388 0.895,-0.499 0.895,-0.599 0.895,-0.685 0.894,-0.755 0.895,-0.807 0.894,-0.84 0.895,-0.854 0.894,-0.848 0.895,-0.824 0.894,-0.78 0.895,-0.72 0.895,-0.644 0.894,-0.553 0.895,-0.451 0.894,-0.338 0.895,-0.22 0.894,-0.097 0.895,0.027 0.895,0.149 0.895,0.269 0.894,0.379 0.895,0.482 0.894,0.573 0.895,0.649 0.894,0.711 0.895,0.756 0.894,0.784 0.895,0.793 0.895,0.785 0.894,0.758 0.895,0.716 0.894,0.656 0.895,0.583 0.894,0.496 0.895,0.399 0.895,0.294 0.895,0.182 0.894,0.068 0.895,-0.048 0.894,-0.162 0.895,-0.271 0.894,-0.374 0.895,-0.466 0.895,-0.549 0.894,-0.618 0.895,-0.673 0.894,-0.711 0.895,-0.734 0.894,-0.74 0.895,-0.729 0.894,-0.702 0.895,-0.658 0.895,-0.601 0.895,-0.528 0.894,-0.447 0.895,-0.354 0.894,-0.255 0.895,-0.149 0.894,-0.042 0.895,0.067 0.894,0.172 0.895,0.273 0.895,0.368 0.894,0.453 0.895,0.528 0.894,0.59 0.895,0.639 0.894,0.672 0.895,0.691 0.895,0.692 0.895,0.68 0.894,0.651 0.895,0.608 0.894,0.551 0.895,0.482 0.894,0.402 0.895,0.314 0.894,0.22 0.895,0.12 0.895,0.018 0.894,-0.082 0.895,-0.181 0.894,-0.275 0.895,-0.363 0.895,-0.441 0.894,-0.509 0.895,-0.565 0.895,-0.609 0.894,-0.637 0.895,-0.651 0.894,-0.651 0.895,-0.635 0.894,-0.606 0.895,-0.563 0.895,-0.507 0.894,-0.439 0.895,-0.363 0.894,-0.279 0.895,-0.188 0.894,-0.094 0.895,0.002 0.895,0.096 0.894,0.189 0.895,0.277 0.895,0.358 0.894,0.43 0.895,0.492 0.894,0.542 0.895,0.581 0.894,0.605 0.895,0.617"
         style="fill:none;stroke:#77ac30;stroke-width:1.48000002;stroke-linecap:butt;stroke-linejoin:round;stroke-miterlimit:10;stroke-dasharray:none;stroke-opacity:1"
         id="path136"
         inkscape:connector-curvature="0" /></g></g></svg>