<?xml version="1.0" encoding="UTF-8" standalone="no"?>
<!-- Created with Inkscape (http://www.inkscape.org/) -->

<svg
   xmlns:dc="http://purl.org/dc/elements/1.1/"
   xmlns:cc="http://creativecommons.org/ns#"
   xmlns:rdf="http://www.w3.org/1999/02/22-rdf-syntax-ns#"
   xmlns:svg="http://www.w3.org/2000/svg"
   xmlns="http://www.w3.org/2000/svg"
   xmlns:sodipodi="http://sodipodi.sourceforge.net/DTD/sodipodi-0.dtd"
   xmlns:inkscape="http://www.inkscape.org/namespaces/inkscape"
   version="1.1"
   id="svg2"
   xml:space="preserve"
   width="640"
   height="510"
   viewBox="0 0 640 510"
   sodipodi:docname="fdm_psd.svg"
   inkscape:version="0.92.4 5da689c313, 2019-01-14"><metadata
     id="metadata8"><rdf:RDF><cc:Work
         rdf:about=""><dc:format>image/svg+xml</dc:format><dc:type
           rdf:resource="http://purl.org/dc/dcmitype/StillImage" /><dc:title></dc:title></cc:Work></rdf:RDF></metadata><defs
     id="defs6"><clipPath
       clipPathUnits="userSpaceOnUse"
       id="clipPath24"><path
         d="M 180,1800 H 5940 V 6120 H 180 Z"
         id="path22"
         inkscape:connector-curvature="0" /></clipPath></defs><sodipodi:namedview
     pagecolor="#ffffff"
     bordercolor="#666666"
     borderopacity="1"
     objecttolerance="10"
     gridtolerance="10"
     guidetolerance="10"
     inkscape:pageopacity="0"
     inkscape:pageshadow="2"
     inkscape:window-width="1920"
     inkscape:window-height="1051"
     id="namedview4"
     showgrid="false"
     inkscape:pagecheckerboard="true"
     inkscape:zoom="1.5434422"
     inkscape:cx="313.13771"
     inkscape:cy="337.82469"
     inkscape:window-x="0"
     inkscape:window-y="29"
     inkscape:window-maximized="1"
     inkscape:current-layer="layer2" /><g
     id="g10"
     inkscape:groupmode="layer"
     inkscape:label="fdm_psd"
     transform="matrix(1.3333333,0,0,-1.3333333,0,510)"><path
       inkscape:connector-curvature="0"
       id="path30"
       style="fill:none;stroke:#d9d9d9;stroke-width:0.5;stroke-linecap:butt;stroke-linejoin:miter;stroke-miterlimit:10;stroke-dasharray:16, 0;stroke-dashoffset:0;stroke-opacity:1"
       d="M 118.70505,18.609881 V 370.68988" /><path
       inkscape:connector-curvature="0"
       id="path32"
       style="fill:none;stroke:#d9d9d9;stroke-width:0.5;stroke-linecap:butt;stroke-linejoin:miter;stroke-miterlimit:10;stroke-dasharray:16, 0;stroke-dashoffset:0;stroke-opacity:1"
       d="M 242.70505,18.609881 V 370.68988" /><path
       inkscape:connector-curvature="0"
       id="path34"
       style="fill:none;stroke:#d9d9d9;stroke-width:0.5;stroke-linecap:butt;stroke-linejoin:miter;stroke-miterlimit:10;stroke-dasharray:16, 0;stroke-dashoffset:0;stroke-opacity:1"
       d="M 366.70505,18.609881 V 370.68988" /><path
       inkscape:connector-curvature="0"
       id="path48"
       style="fill:none;stroke:#d9d9d9;stroke-width:0.5;stroke-linecap:butt;stroke-linejoin:miter;stroke-miterlimit:10;stroke-dasharray:16, 0;stroke-dashoffset:0;stroke-opacity:1"
       d="M 19.505146,107.32288 H 465.90505" /><path
       inkscape:connector-curvature="0"
       id="path50"
       style="fill:none;stroke:#d9d9d9;stroke-width:0.5;stroke-linecap:butt;stroke-linejoin:miter;stroke-miterlimit:10;stroke-dasharray:16, 0;stroke-dashoffset:0;stroke-opacity:1"
       d="M 19.505146,218.21488 H 465.90505" /><path
       inkscape:connector-curvature="0"
       id="path52"
       style="fill:none;stroke:#d9d9d9;stroke-width:0.5;stroke-linecap:butt;stroke-linejoin:miter;stroke-miterlimit:10;stroke-dasharray:16, 0;stroke-dashoffset:0;stroke-opacity:1"
       d="M 19.505146,329.10588 H 465.90505" /><g
       id="g1039"
       transform="translate(-73.374954,-208.91012)"><path
         d="m 192.08,227.52 v 4.465"
         style="fill:none;stroke:#262626;stroke-width:0.5;stroke-linecap:butt;stroke-linejoin:miter;stroke-miterlimit:10;stroke-dasharray:none;stroke-opacity:1"
         id="path36"
         inkscape:connector-curvature="0" /><path
         d="m 316.08,227.52 v 4.465"
         style="fill:none;stroke:#262626;stroke-width:0.5;stroke-linecap:butt;stroke-linejoin:miter;stroke-miterlimit:10;stroke-dasharray:none;stroke-opacity:1"
         id="path38"
         inkscape:connector-curvature="0" /><path
         d="m 440.08,227.52 v 4.465"
         style="fill:none;stroke:#262626;stroke-width:0.5;stroke-linecap:butt;stroke-linejoin:miter;stroke-miterlimit:10;stroke-dasharray:none;stroke-opacity:1"
         id="path40"
         inkscape:connector-curvature="0" /><path
         d="M 92.8801,227.52 H 539.28"
         style="fill:none;stroke:#262626;stroke-width:0.5;stroke-linecap:square;stroke-linejoin:miter;stroke-miterlimit:10;stroke-dasharray:16, 0;stroke-dashoffset:0;stroke-opacity:1"
         id="path70"
         inkscape:connector-curvature="0" /></g><g
       id="g1045"
       transform="translate(-73.374954,-208.91012)"><path
         d="M 92.8801,316.233 H 97.348"
         style="fill:none;stroke:#262626;stroke-width:0.5;stroke-linecap:butt;stroke-linejoin:miter;stroke-miterlimit:10;stroke-dasharray:none;stroke-opacity:1"
         id="path54"
         inkscape:connector-curvature="0" /><path
         d="M 92.8801,427.125 H 97.348"
         style="fill:none;stroke:#262626;stroke-width:0.5;stroke-linecap:butt;stroke-linejoin:miter;stroke-miterlimit:10;stroke-dasharray:none;stroke-opacity:1"
         id="path56"
         inkscape:connector-curvature="0" /><path
         d="M 92.8801,538.016 H 97.348"
         style="fill:none;stroke:#262626;stroke-width:0.5;stroke-linecap:butt;stroke-linejoin:miter;stroke-miterlimit:10;stroke-dasharray:none;stroke-opacity:1"
         id="path58"
         inkscape:connector-curvature="0" /><path
         d="M 92.8801,227.52 V 579.6"
         style="fill:none;stroke:#262626;stroke-width:0.5;stroke-linecap:square;stroke-linejoin:miter;stroke-miterlimit:10;stroke-dasharray:16, 0;stroke-dashoffset:0;stroke-opacity:1"
         id="path72"
         inkscape:connector-curvature="0" /></g><g
       id="g1055"
       transform="matrix(1,0,0,-1,-73.374954,598.20988)"><path
         inkscape:connector-curvature="0"
         id="path1047"
         style="fill:none;stroke:#262626;stroke-width:0.5;stroke-linecap:butt;stroke-linejoin:miter;stroke-miterlimit:10;stroke-dasharray:none;stroke-opacity:1"
         d="m 192.08,227.52 v 4.465" /><path
         inkscape:connector-curvature="0"
         id="path1049"
         style="fill:none;stroke:#262626;stroke-width:0.5;stroke-linecap:butt;stroke-linejoin:miter;stroke-miterlimit:10;stroke-dasharray:none;stroke-opacity:1"
         d="m 316.08,227.52 v 4.465" /><path
         inkscape:connector-curvature="0"
         id="path1051"
         style="fill:none;stroke:#262626;stroke-width:0.5;stroke-linecap:butt;stroke-linejoin:miter;stroke-miterlimit:10;stroke-dasharray:none;stroke-opacity:1"
         d="m 440.08,227.52 v 4.465" /><path
         inkscape:connector-curvature="0"
         id="path1053"
         style="fill:none;stroke:#262626;stroke-width:0.5;stroke-linecap:square;stroke-linejoin:miter;stroke-miterlimit:10;stroke-dasharray:16, 0;stroke-dashoffset:0;stroke-opacity:1"
         d="M 92.8801,227.52 H 539.28" /></g><g
       id="g1065"
       transform="matrix(-1,0,0,1,558.78515,-208.91012)"><path
         inkscape:connector-curvature="0"
         id="path1057"
         style="fill:none;stroke:#262626;stroke-width:0.5;stroke-linecap:butt;stroke-linejoin:miter;stroke-miterlimit:10;stroke-dasharray:none;stroke-opacity:1"
         d="M 92.8801,316.233 H 97.348" /><path
         inkscape:connector-curvature="0"
         id="path1059"
         style="fill:none;stroke:#262626;stroke-width:0.5;stroke-linecap:butt;stroke-linejoin:miter;stroke-miterlimit:10;stroke-dasharray:none;stroke-opacity:1"
         d="M 92.8801,427.125 H 97.348" /><path
         inkscape:connector-curvature="0"
         id="path1061"
         style="fill:none;stroke:#262626;stroke-width:0.5;stroke-linecap:butt;stroke-linejoin:miter;stroke-miterlimit:10;stroke-dasharray:none;stroke-opacity:1"
         d="M 92.8801,538.016 H 97.348" /><path
         inkscape:connector-curvature="0"
         id="path1063"
         style="fill:none;stroke:#262626;stroke-width:0.5;stroke-linecap:square;stroke-linejoin:miter;stroke-miterlimit:10;stroke-dasharray:16, 0;stroke-dashoffset:0;stroke-opacity:1"
         d="M 92.8801,227.52 V 579.6" /></g></g><g
     inkscape:groupmode="layer"
     id="layer1"
     inkscape:label="Text"><text
       transform="matrix(1.3333333,0,0,1.3333333,0,510)"
       style="font-variant:normal;font-weight:normal;font-size:11px;font-family:Helvetica;-inkscape-font-specification:Helvetica;writing-mode:lr-tb;fill:#262626;fill-opacity:1;fill-rule:nonzero;stroke:none"
       id="text78"
       x="216.70503"
       y="-5.6007915"><tspan
         x="216.70503 223.70506 227.70506 233.70506 239.70509 245.70509 251.70509 257.70511 263.70511"
         y="-5.6007915"
         sodipodi:role="line"
         id="tspan76">Frequency</tspan></text>
<text
       transform="matrix(0,-1.3333333,1.3333333,0,0,510)"
       style="font-variant:normal;font-weight:normal;font-size:11px;font-family:Helvetica;-inkscape-font-specification:Helvetica;writing-mode:lr-tb;fill:#262626;fill-opacity:1;fill-rule:nonzero;stroke:none"
       id="text82"
       x="141.47449"
       y="12.429367"><tspan
         sodipodi:role="line"
         id="tspan80"
         x="141.47449"
         y="12.429367">Power Spectral Density</tspan></text>
</g><g
     inkscape:groupmode="layer"
     id="layer2"
     inkscape:label="Vector"><path
       transform="matrix(1.3333333,0,0,-1.3333333,0,510)"
       inkscape:connector-curvature="0"
       id="path90"
       style="fill:none;stroke:#0072bd;stroke-width:1.97000003;stroke-linecap:butt;stroke-linejoin:round;stroke-miterlimit:10;stroke-dasharray:none;stroke-opacity:1"
       d="m 19.505146,107.32288 0.8941,0.002 0.8946,0.004 0.8953,0.007 0.8945,0.006 0.8945,0.007 0.8946,0.005 0.8945,10e-4 0.8948,-0.002 0.894,-0.004 0.895,-0.007 0.895,-0.007 0.894,-0.006 0.895,-0.005 0.894,-0.001 0.895,0.002 0.894,0.005 0.895,0.008 0.894,0.007 0.895,0.007 0.895,0.005 0.894,10e-4 0.895,-0.003 0.894,-0.005 0.895,-0.007 0.895,-0.008 0.894,-0.007 0.895,-0.004 0.895,-0.001 0.894,0.003 0.895,0.006 0.894,0.008 0.895,0.008 0.894,0.007 0.895,0.005 0.894,10e-4 0.895,-0.003 0.895,-0.007 0.895,-0.008 0.894,-0.008 0.895,-0.007 0.894,-0.004 0.895,-0.001 0.894,0.004 0.895,0.007 0.895,0.008 0.894,0.01 0.895,0.007 0.894,0.004 h 0.895 l 0.894,-0.003 0.895,-0.007 0.894,-0.01 0.895,-0.008 0.895,-0.008 0.895,-0.004 0.894,0.001 0.895,0.004 0.894,0.008 0.895,0.01 0.894,0.009 0.895,0.008 0.895,0.004 h 0.894 l 0.895,-0.005 0.894,-0.008 0.895,-0.01 0.894,-0.009 0.895,-0.008 0.894,-0.004 0.895,0.001 0.895,0.006 0.895,0.009 0.894,0.01 0.895,0.011 0.894,0.008 0.895,0.003 0.894,-0.001 0.895,-0.005 0.895,-0.009 0.894,-0.012 0.895,-0.01 0.894,-0.008 0.895,-0.003 0.894,0.002 0.895,0.007 0.894,0.01 0.895,0.012 0.895,0.011 0.895,0.008 0.894004,0.004 0.895,-0.002 0.894,-0.007 0.895,-0.011 0.894,-0.012 0.895,-0.011 0.895,-0.008 0.894,-0.003 0.895,0.003 0.894,0.008 0.895,0.011 0.894,0.014 0.895,0.012 0.894,0.008 0.895,0.003 0.895,-0.002 0.895,-0.009 0.894,-0.012 0.895,-0.013 0.894,-0.012 0.895,-0.009 0.894,-0.002 0.895,0.004 0.895,0.01 0.894,0.013 0.895,0.014 0.894,0.014 0.895,0.008 0.894,0.003 0.895,-0.004 0.894,-0.01 0.895,-0.014 0.895,-0.015 0.895,-0.013 0.894,-0.008 0.895,-0.002 0.894,0.006 0.895,0.011 0.894,0.015 0.895,0.016 0.895,0.014 0.894,0.009 0.895,0.002 0.894,-0.005 0.895,-0.012 0.894,-0.016 0.895,-0.016 0.894,-0.014 0.895,-0.009 h 0.895 l 0.895,0.007 0.894,0.013 0.895,0.017 0.894,0.019 0.895,0.015 0.894,0.009 0.895,0.001 0.895,-0.007 0.894,-0.014 0.895,-0.018 0.894,-0.019 0.895,-0.015 0.894,-0.008 h 0.895 l 0.894,0.009 0.896,0.016 0.894,0.021 0.895,0.02 0.894,0.016 0.895,0.01 0.894,-0.001 0.895,-0.009 0.894,-0.017 0.895,-0.021 0.895,-0.02 0.894,-0.016 0.895,-0.009 0.894,0.002 0.895,0.012 0.894,0.019 0.895,0.024 0.895,0.022 0.895,0.018 0.894,0.009 0.895,-0.001 0.894,-0.012 0.895,-0.02 0.894,-0.024 0.895,-0.023 0.894,-0.018 0.895,-0.008 0.895,0.004 0.894,0.014 0.895,0.024 0.894,0.027 0.895,0.026 0.894,0.019 0.895,0.009 0.895,-0.003 0.895,-0.016 0.894,-0.024 0.895,-0.027 0.894,-0.027 0.895,-0.019 0.894,-0.007 0.895,0.006 0.894,0.019 0.895,0.028 0.895,0.031 0.894,0.03 0.895,0.021 0.894,0.009 0.895,-0.006 0.894,-0.019 0.895,-0.029 0.895,-0.033 0.895,-0.03 0.894,-0.02 0.895,-0.007 0.894,0.009 0.895,0.024 0.894,0.034 0.895,0.038 0.894,0.034 0.895,0.023 0.895,0.008 0.894,-0.009 0.895,-0.025 0.894,-0.035 0.895,-0.039 0.894,-0.034 0.895,-0.022 0.895,-0.006 0.895,0.014 0.894,0.031 0.895,0.041 0.894,0.045 0.895,0.04 0.894,0.026 0.895,0.007 0.895,-0.014 0.894,-0.031 0.895,-0.044 0.894,-0.046 0.895,-0.04 0.894,-0.024 0.895,-0.004 0.894,0.02 0.895,0.039 0.895,0.053 0.895,0.054 0.894,0.047 0.895,0.029 0.894,0.005 0.895,-0.019 0.894,-0.041 0.895,-0.055 0.895,-0.056 0.894,-0.047 0.895,-0.026 h 0.894 l 0.895,0.028 0.894,0.051 0.895,0.066 0.894,0.068 0.895,0.056 0.895,0.033 0.895,0.003 0.894,-0.028 0.895,-0.054 0.894,-0.069 0.895,-0.07 0.894,-0.056 0.895,-0.03 0.895,0.005 0.894,0.041 0.895,0.069 0.894,0.086 0.895,0.085 0.894,0.069 0.895,0.038 h 0.894 l 0.895,-0.041 0.895,-0.072 0.895,-0.091 0.894,-0.089 0.895,-0.068 0.894,-0.033 0.895,0.014 0.894,0.058 0.895,0.095 0.895,0.116 0.894,0.112 0.895,0.088 0.894,0.046 0.895,-0.008 0.894,-0.059 0.895,-0.101 0.894,-0.122 0.895,-0.117 0.895,-0.087 0.895,-0.036 0.894,0.027 0.895,0.089 0.894,0.137 0.895,0.16 0.894,0.155 0.895,0.118 0.895,0.057 0.894,-0.018 0.895,-0.09 0.894,-0.146 0.895,-0.172 0.894,-0.162 0.895,-0.116 0.894,-0.039 0.896,0.052 0.894,0.141 0.895,0.208 0.894,0.24 0.895,0.227 0.894,0.17 0.895,0.075 0.894,-0.035 0.895,-0.144 0.895,-0.225 0.894,-0.26 0.895,-0.241 0.894,-0.163 0.895,-0.042 0.894,0.102 0.895,0.242 0.895,0.347 0.895,0.395 0.894,0.369 0.895,0.273 0.894,0.117 0.895,-0.068 0.894,-0.248 0.895,-0.382 0.894,-0.438 0.895,-0.398 0.895,-0.259 0.894,-0.04 0.895,0.221 0.894,0.477 0.895,0.674 0.894,0.765 0.895,0.721 0.895,0.539 0.895,0.238 0.894,-0.126 0.895,-0.487 0.894,-0.764 0.895,-0.886 0.894,-0.806 0.895,-0.504 0.894,-0.011 0.895,0.606 0.895,1.241 0.894,1.77 0.895,2.071 0.894,2.049 0.895,1.655 0.894,0.913 0.895,-0.085 0.895,-1.169 0.895,-2.114 0.894,-2.66 0.895,-2.563 0.894,-1.615 0.895,0.304 0.894,3.2 0.895,6.947 0.894,11.288 0.895,15.849 0.895,20.175 0.894,23.781 0.895,26.208 0.894,27.077 0.895,26.141 0.894,23.328 0.895,18.749 0.895,12.7 0.895,5.633 0.894,-1.89 0.895,-9.261 0.894,-15.884 0.895,-21.244 0.894,-24.967 0.895,-26.844 0.894,-26.855 0.895,-25.169 0.895,-22.098 0.894,-18.071 0.895,-13.568 0.894,-9.065 0.895,-4.98 0.894,-1.634 0.895,0.78 0.895,2.205 0.895,2.707 0.894,2.453 0.895,1.673 0.894,0.63 0.895,-0.436 0.894,-1.324 0.895,-1.899 0.894,-2.105 0.895,-1.956 0.895,-1.526 0.894,-0.929 0.895,-0.288 0.894,0.278 0.895,0.682 0.894,0.873 0.895,0.849 0.895,0.64 0.895,0.312 0.894,-0.06 0.895,-0.4 0.894,-0.647 0.895,-0.76 0.894,-0.735 0.895,-0.587 0.894,-0.353 0.895,-0.088 0.895,0.158 0.894,0.34 0.895,0.431 0.894,0.421 0.895,0.322 0.894,0.161 0.895,-0.026 0.895,-0.2 0.895,-0.329 0.894,-0.392 0.895,-0.38 0.894,-0.3 0.895,-0.174 0.894,-0.029 0.895,0.107 0.894,0.209 0.895,0.257 0.895,0.249 0.894,0.189 0.895,0.092 0.894,-0.021 0.895,-0.127 0.894,-0.203 0.895,-0.239 0.895,-0.23 0.895,-0.178 0.894,-0.097 0.895,-0.006 0.894,0.08 0.895,0.143 0.894,0.172 0.895,0.163 0.894,0.121 0.895,0.056 0.895,-0.021 0.894,-0.09 0.895,-0.139 0.894,-0.162 0.895,-0.152 0.894,-0.116 0.895,-0.058 0.895,0.005 0.895,0.063 0.894,0.106 0.895,0.122 0.894,0.114 0.895,0.082 0.894,0.035 0.895,-0.02 0.894,-0.069 0.895,-0.103 0.895,-0.116 0.894,-0.108 0.895,-0.079 0.894,-0.036 0.895,0.01 0.895,0.052 0.894,0.081 0.895,0.092 0.895,0.084 0.894,0.058 0.895,0.021 0.894,-0.019 0.895,-0.055 0.894,-0.08 0.895,-0.087 0.895,-0.08 0.894,-0.056 0.895,-0.023 0.894,0.013 0.895,0.044 0.894,0.065 0.895,0.071 0.895,0.063 0.894,0.043 0.895,0.012 0.895,-0.018 0.894,-0.046 0.895,-0.063 0.894,-0.069 0.895,-0.06 0.894,-0.041 0.895,-0.014" /><path
       transform="matrix(1.3333333,0,0,-1.3333333,0,510)"
       inkscape:connector-curvature="0"
       id="path92"
       style="fill:none;stroke:#d95319;stroke-width:1.97000003;stroke-linecap:butt;stroke-linejoin:round;stroke-miterlimit:10;stroke-dasharray:none;stroke-opacity:1"
       d="m 19.505146,107.32288 0.8941,0.002 0.8946,0.006 0.8953,0.008 0.8945,0.009 0.8945,0.008 0.8946,0.006 0.8945,0.002 0.8948,-0.003 0.894,-0.005 0.895,-0.009 0.895,-0.009 0.894,-0.008 0.895,-0.005 0.894,-0.002 0.895,0.003 0.894,0.006 0.895,0.009 0.894,0.01 0.895,0.009 0.895,0.006 0.894,10e-4 0.895,-0.003 0.894,-0.006 0.895,-0.01 0.895,-0.009 0.894,-0.009 0.895,-0.006 0.895,-0.001 0.894,0.004 0.895,0.008 0.894,0.01 0.895,0.011 0.894,0.009 0.895,0.005 0.894,0.001 0.895,-0.003 0.895,-0.008 0.895,-0.011 0.894,-0.01 0.895,-0.01 0.894,-0.005 0.895,-0.001 0.894,0.005 0.895,0.009 0.895,0.012 0.894,0.012 0.895,0.009 0.894,0.006 h 0.895 l 0.894,-0.005 0.895,-0.009 0.894,-0.012 0.895,-0.011 0.895,-0.01 0.895,-0.006 0.894,0.001 0.895,0.006 0.894,0.01 0.895,0.013 0.894,0.013 0.895,0.01 0.895,0.006 0.894,-10e-4 0.895,-0.006 0.894,-0.011 0.895,-0.013 0.894,-0.012 0.895,-0.011 0.894,-0.005 0.895,0.001 0.895,0.008 0.895,0.012 0.894,0.015 0.895,0.013 0.894,0.011 0.895,0.005 0.894,-10e-4 0.895,-0.007 0.895,-0.013 0.894,-0.015 0.895,-0.014 0.894,-0.01 0.895,-0.005 0.894,0.002 0.895,0.01 0.894,0.013 0.895,0.017 0.895,0.015 0.895,0.011 0.894004,0.005 0.895,-0.002 0.894,-0.01 0.895,-0.014 0.894,-0.016 0.895,-0.016 0.895,-0.011 0.894,-0.004 0.895,0.004 0.894,0.011 0.895,0.016 0.894,0.018 0.895,0.017 0.894,0.012 0.895,0.004 0.895,-0.003 0.895,-0.012 0.894,-0.016 0.895,-0.019 0.894,-0.017 0.895,-0.012 0.894,-0.003 0.895,0.006 0.895,0.013 0.894,0.019 0.895,0.021 0.894,0.018 0.895,0.013 0.894,0.004 0.895,-0.006 0.894,-0.014 0.895,-0.019 0.895,-0.022 0.895,-0.018 0.894,-0.012 0.895,-0.003 0.894,0.008 0.895,0.016 0.894,0.023 0.895,0.023 0.895,0.021 0.894,0.013 0.895,0.003 0.894,-0.008 0.895,-0.017 0.894,-0.023 0.895,-0.024 0.894,-0.02 0.895,-0.013 0.895,-10e-4 0.895,0.01 0.894,0.02 0.895,0.027 0.894,0.026 0.895,0.023 0.894,0.014 0.895,0.001 0.895,-0.01 0.894,-0.021 0.895,-0.027 0.894,-0.027 0.895,-0.023 0.894,-0.013 0.895,10e-4 0.894,0.014 0.896,0.024 0.894,0.031 0.895,0.031 0.894,0.026 0.895,0.014 h 0.894 l 0.895,-0.014 0.894,-0.026 0.895,-0.031 0.895,-0.033 0.894,-0.024 0.895,-0.013 0.894,0.003 0.895,0.018 0.894,0.03 0.895,0.037 0.895,0.036 0.895,0.029 0.894,0.015 0.895,-0.002 0.894,-0.019 0.895,-0.031 0.894,-0.039 0.895,-0.037 0.894,-0.028 0.895,-0.013 0.895,0.006 0.894,0.024 0.895,0.038 0.894,0.045 0.895,0.043 0.894,0.032 0.895,0.016 0.895,-0.006 0.895,-0.024 0.894,-0.04 0.895,-0.046 0.894,-0.044 0.895,-0.031 0.894,-0.013 0.895,0.01 0.894,0.032 0.895,0.048 0.895,0.055 0.894,0.051 0.895,0.037 0.894,0.016 0.895,-0.009 0.894,-0.033 0.895,-0.05 0.895,-0.057 0.895,-0.052 0.894,-0.036 0.895,-0.012 0.894,0.017 0.895,0.042 0.894,0.062 0.895,0.068 0.894,0.063 0.895,0.043 0.895,0.016 0.894,-0.015 0.895,-0.044 0.894,-0.065 0.895,-0.071 0.894,-0.064 0.895,-0.041 0.895,-0.01 0.895,0.026 0.894,0.058 0.895,0.081 0.894,0.088 0.895,0.077 0.894,0.053 0.895,0.016 0.895,-0.025 0.894,-0.06 0.895,-0.085 0.894,-0.092 0.895,-0.079 0.894,-0.049 0.895,-0.007 0.894,0.04 0.895,0.082 0.895,0.109 0.895,0.117 0.894,0.101 0.895,0.065 0.894,0.015 0.895,-0.038 0.894,-0.086 0.895,-0.116 0.895,-0.123 0.894,-0.102 0.895,-0.059 h 0.894 l 0.895,0.064 0.894,0.119 0.895,0.155 0.894,0.161 0.895,0.136 0.895,0.084 0.895,0.015 0.894,-0.061 0.895,-0.126 0.894,-0.165 0.895,-0.171 0.894,-0.139 0.895,-0.074 0.895,0.013 0.894,0.105 0.895,0.184 0.894,0.232 0.895,0.238 0.894,0.198 0.895,0.119 0.894,0.011 0.895,-0.1 0.895,-0.196 0.895,-0.251 0.894,-0.256 0.895,-0.203 0.894,-0.096 0.895,0.04 0.894,0.186 0.895,0.309 0.895,0.384 0.894,0.389 0.895,0.322 0.894,0.187 0.895,0.01 0.894,-0.176 0.895,-0.334 0.894,-0.425 0.895,-0.427 0.895,-0.329 0.895,-0.139 0.894,0.11 0.895,0.375 0.894,0.603 0.895,0.742 0.894,0.756 0.895,0.631 0.895,0.375 0.894,0.029 0.895,-0.342 0.894,-0.663 0.895,-0.858 0.894,-0.867 0.895,-0.655 0.894,-0.236 0.896,0.34 0.894,0.982 0.895,1.57 0.894,1.98 0.895,2.102 0.894,1.865 0.895,1.26 0.894,0.353 0.895,-0.721 0.895,-1.753 0.894,-2.497 0.895,-2.697 0.894,-2.123 0.895,-0.617 0.894,1.88 0.895,5.296 0.895,9.429 0.895,13.949 0.894,18.432 0.895,22.397 0.894,25.367 0.895,26.923 0.894,26.759 0.895,24.726 0.894,20.856 0.895,15.374 0.895,8.667 0.894,1.261 0.895,-6.248 0.894,-13.25 0.895,-19.192 0.894,-23.633 0.895,-26.291 0.895,-27.071 0.895,-26.06 0.894,-23.521 0.895,-19.835 0.894,-15.471 0.895,-10.912 0.894,-6.608 0.895,-2.923 0.894,-0.106 0.895,1.73 0.895,2.601 0.894,2.637 0.895,2.045 0.894,1.081 0.895,-0.004 0.894,-0.986 0.895,-1.702 0.895,-2.065 0.895,-2.058 0.894,-1.732 0.895,-1.19 0.894,-0.552 0.895,0.057 0.894,0.538 0.895,0.82 0.894,0.884 0.895,0.746 0.895,0.458 0.894,0.095 0.895,-0.266 0.894,-0.558 0.895,-0.731 0.894,-0.762 0.895,-0.661 0.895,-0.458 0.895,-0.199 0.894,0.061 0.895,0.274 0.894,0.405 0.895,0.437 0.894,0.374 0.895,0.233 0.894,0.053 0.895,-0.132 0.895,-0.282 0.894,-0.375 0.895,-0.393 0.894,-0.341 0.895,-0.231 0.894,-0.09 0.895,0.054 0.895,0.171 0.895,0.245 0.894,0.259 0.895,0.22 0.894,0.135 0.895,0.026 0.894,-0.085 0.895,-0.175 0.894,-0.23 0.895,-0.239 0.895,-0.204 0.894,-0.134 0.895,-0.044 0.894,0.047 0.895,0.12 0.894,0.164 0.895,0.172 0.895,0.142 0.895,0.084 0.894,0.012 0.895,-0.063 0.894,-0.121 0.895,-0.157 0.894,-0.16 0.895,-0.134 0.894,-0.084 0.895,-0.021 0.895,0.04 0.894,0.091 0.895,0.118 0.894,0.121 0.895,0.099 0.894,0.055 0.895,0.003 0.895,-0.05 0.895,-0.091 0.894,-0.114 0.895,-0.113 0.894,-0.093 0.895,-0.055 0.894,-0.01 0.895,0.036 0.894,0.071 0.895,0.09 0.895,0.089 0.894,0.071 0.895,0.037 0.894,-0.002 0.895,-0.042 0.894,-0.07 0.895,-0.087 0.895,-0.085 0.895,-0.067 0.894,-0.037 0.895,-0.002 0.894,0.032 0.895,0.057 0.894,0.07 0.895,0.069 0.894,0.052 0.895,0.026 0.895,-0.006 0.894,-0.035 0.895,-0.058 0.894,-0.068 0.895,-0.064 0.894,-0.051 0.895,-0.026 0.895,0.003 0.895,0.029 0.894,0.047 0.895,0.057 0.894,0.054 0.895,0.039 0.894,0.018 0.895,-0.008 0.894,-0.031 0.895,-0.047 0.895,-0.055 0.894,-0.051 0.895,-0.038 0.894,-0.018 0.895,0.005 0.895,0.026 0.894,0.041 0.895,0.046 0.895,0.043 0.894,0.03 0.895,0.012 0.894,-0.009 0.895,-0.027 0.894,-0.04 0.895,-0.046 0.895,-0.041 0.894,-0.029 0.895,-0.012 0.894,0.007 0.895,0.024 0.894,0.034 0.895,0.039 0.895,0.035 0.894,0.024 0.895,0.007 0.895,-0.009 0.894,-0.025 0.895,-0.035 0.894,-0.037 0.895,-0.033 0.894,-0.023 0.895,-0.008" /><path
       transform="matrix(1.3333333,0,0,-1.3333333,0,510)"
       inkscape:connector-curvature="0"
       id="path94"
       style="fill:none;stroke:#edb120;stroke-width:1.97000003;stroke-linecap:butt;stroke-linejoin:round;stroke-miterlimit:10;stroke-dasharray:none;stroke-opacity:1"
       d="m 19.505146,107.32288 0.8941,0.003 0.8946,0.007 0.8953,0.01 0.8945,0.013 0.8945,0.01 0.8946,0.008 0.8945,0.003 0.8948,-0.003 0.894,-0.008 0.895,-0.011 0.895,-0.012 0.894,-0.011 0.895,-0.007 0.894,-0.002 0.895,0.004 0.894,0.009 0.895,0.012 0.894,0.013 0.895,0.011 0.895,0.008 0.894,0.002 0.895,-0.004 0.894,-0.009 0.895,-0.012 0.895,-0.014 0.894,-0.011 0.895,-0.007 0.895,-0.002 0.894,0.005 0.895,0.011 0.894,0.013 0.895,0.015 0.894,0.012 0.895,0.008 0.894,10e-4 0.895,-0.005 0.895,-0.01 0.895,-0.014 0.894,-0.015 0.895,-0.012 0.894,-0.008 h 0.895 l 0.894,0.006 0.895,0.012 0.895,0.016 0.894,0.016 0.895,0.013 0.894,0.008 0.895,0.001 0.894,-0.007 0.895,-0.012 0.894,-0.016 0.895,-0.017 0.895,-0.013 0.895,-0.007 h 0.894 l 0.895,0.009 0.894,0.014 0.895,0.018 0.894,0.017 0.895,0.015 0.895,0.008 0.894,-0.001 0.895,-0.008 0.894,-0.015 0.895,-0.019 0.894,-0.018 0.895,-0.014 0.894,-0.007 0.895,0.002 0.895,0.011 0.895,0.017 0.894,0.02 0.895,0.02 0.894,0.015 0.895,0.008 0.894,-0.001 0.895,-0.011 0.895,-0.018 0.894,-0.021 0.895,-0.02 0.894,-0.015 0.895,-0.007 0.894,0.004 0.895,0.013 0.894,0.02 0.895,0.023 0.895,0.023 0.895,0.017 0.894004,0.007 0.895,-0.004 0.894,-0.013 0.895,-0.021 0.894,-0.024 0.895,-0.023 0.895,-0.016 0.894,-0.006 0.895,0.006 0.894,0.016 0.895,0.024 0.894,0.028 0.895,0.025 0.894,0.018 0.895,0.006 0.895,-0.005 0.895,-0.017 0.894,-0.025 0.895,-0.028 0.894,-0.026 0.895,-0.017 0.894,-0.005 0.895,0.008 0.895,0.021 0.894,0.029 0.895,0.032 0.894,0.028 0.895,0.02 0.894,0.006 0.895,-0.008 0.894,-0.022 0.895,-0.03 0.895,-0.032 0.895,-0.029 0.894,-0.019 0.895,-0.004 0.894,0.013 0.895,0.025 0.894,0.035 0.895,0.038 0.895,0.032 0.894,0.021 0.895,0.006 0.894,-0.012 0.895,-0.027 0.894,-0.036 0.895,-0.039 0.894,-0.033 0.895,-0.019 0.895,-0.003 0.895,0.017 0.894,0.033 0.895,0.043 0.894,0.045 0.895,0.037 0.894,0.023 0.895,0.004 0.895,-0.017 0.894,-0.034 0.895,-0.045 0.894,-0.046 0.895,-0.037 0.894,-0.021 h 0.895 l 0.894,0.024 0.896,0.042 0.894,0.052 0.895,0.055 0.894,0.044 0.895,0.026 0.894,0.001 0.895,-0.024 0.894,-0.044 0.895,-0.055 0.895,-0.056 0.894,-0.044 0.895,-0.022 0.894,0.004 0.895,0.033 0.894,0.055 0.895,0.067 0.895,0.066 0.895,0.053 0.894,0.029 0.895,-0.002 0.894,-0.034 0.895,-0.057 0.894,-0.071 0.895,-0.068 0.894,-0.052 0.895,-0.024 0.895,0.011 0.894,0.046 0.895,0.072 0.894,0.087 0.895,0.084 0.894,0.065 0.895,0.032 0.895,-0.007 0.895,-0.047 0.894,-0.077 0.895,-0.091 0.894,-0.087 0.895,-0.064 0.894,-0.025 0.895,0.021 0.894,0.066 0.895,0.1 0.895,0.116 0.894,0.11 0.895,0.082 0.894,0.037 0.895,-0.016 0.894,-0.067 0.895,-0.106 0.895,-0.123 0.895,-0.114 0.894,-0.08 0.895,-0.026 0.894,0.038 0.895,0.098 0.894,0.143 0.895,0.162 0.894,0.15 0.895,0.109 0.895,0.045 0.894,-0.03 0.895,-0.101 0.894,-0.153 0.895,-0.173 0.894,-0.157 0.895,-0.104 0.895,-0.025 0.895,0.068 0.894,0.154 0.895,0.216 0.894,0.241 0.895,0.22 0.894,0.156 0.895,0.058 0.895,-0.054 0.894,-0.16 0.895,-0.234 0.894,-0.261 0.895,-0.231 0.894,-0.146 0.895,-0.019 0.894,0.126 0.895,0.262 0.895,0.36 0.895,0.396 0.894,0.359 0.895,0.25 0.894,0.087 0.895,-0.1 0.894,-0.274 0.895,-0.397 0.895,-0.439 0.894,-0.381 0.895,-0.228 0.894,0.002 0.895,0.266 0.894,0.515 0.895,0.698 0.894,0.767 0.895,0.7 0.895,0.496 0.895,0.18 0.894,-0.189 0.895,-0.54 0.894,-0.797 0.895,-0.888 0.894,-0.77 0.895,-0.434 0.895,0.085 0.894,0.714 0.895,1.34 0.894,1.839 0.895,2.091 0.894,2.01 0.895,1.554 0.894,0.761 0.895,-0.266 0.895,-1.343 0.895,-2.239 0.894,-2.695 0.895,-2.469 0.894,-1.364 0.895,0.721 0.894,3.771 0.895,7.638 0.895,12.044 0.894,16.599 0.895,20.839 0.894,24.28 0.895,26.469 0.894,27.05 0.895,25.802 0.894,22.682 0.895,17.832 0.895,11.58 0.895,4.394 0.894,-3.146 0.895,-10.432 0.894,-16.877 0.895,-21.986 0.894,-25.411 0.895,-26.972 0.895,-26.686 0.894,-24.743 0.895,-21.481 0.894,-17.34 0.895,-12.805 0.894,-8.344 0.895,-4.365 0.894,-1.164 0.896,1.086 0.894,2.349 0.895,2.711 0.894,2.353 0.895,1.512 0.894,0.447 0.895,-0.602 0.894,-1.444 0.895,-1.959 0.895,-2.103 0.894,-1.901 0.895,-1.435 0.894,-0.821 0.895,-0.186 0.894,0.359 0.895,0.728 0.895,0.884 0.895,0.825 0.894,0.592 0.895,0.251 0.894,-0.121 0.895,-0.45 0.894,-0.674 0.895,-0.766 0.894,-0.718 0.895,-0.552 0.895,-0.31 0.894,-0.045 0.895,0.194 0.894,0.362 0.895,0.436 0.894,0.41 0.895,0.299 0.895,0.131 0.895,-0.057 0.894,-0.226 0.895,-0.344 0.894,-0.395 0.895,-0.371 0.894,-0.282 0.895,-0.151 0.894,-0.004 0.895,0.127 0.895,0.221 0.894,0.26 0.895,0.243 0.894,0.174 0.895,0.073 0.894,-0.039 0.895,-0.142 0.895,-0.212 0.895,-0.241 0.894,-0.224 0.895,-0.166 0.894,-0.083 0.895,0.01 0.894,0.093 0.895,0.15 0.894,0.173 0.895,0.158 0.895,0.112 0.894,0.042 0.895,-0.032 0.894,-0.1 0.895,-0.146 0.894,-0.162 0.895,-0.148 0.895,-0.107 0.895,-0.048 0.894,0.015 0.895,0.072 0.894,0.11 0.895,0.124 0.894,0.11 0.895,0.075 0.894,0.025 0.895,-0.028 0.895,-0.076 0.894,-0.107 0.895,-0.117 0.894,-0.104 0.895,-0.072 0.894,-0.029 0.895,0.018 0.895,0.058 0.895,0.085 0.894,0.091 0.895,0.081 0.894,0.052 0.895,0.015 0.894,-0.026 0.895,-0.06 0.894,-0.082 0.895,-0.088 0.895,-0.076 0.894,-0.051 0.895,-0.017 0.894,0.018 0.895,0.049 0.894,0.067 0.895,0.071 0.895,0.06 0.895,0.038 0.894,0.007 0.895,-0.023 0.894,-0.05 0.895,-0.065 0.894,-0.068 0.895,-0.057 0.894,-0.037 0.895,-0.01 0.895,0.018 0.894,0.041 0.895,0.055 0.894,0.056 0.895,0.047 0.894,0.028 0.895,0.002 0.895,-0.021 0.895,-0.042 0.894,-0.053 0.895,-0.054 0.894,-0.044 0.895,-0.027 0.894,-0.005 0.895,0.018 0.894,0.035 0.895,0.046 0.895,0.045 0.894,0.037 0.895,0.02 h 0.894 l 0.895,-0.021 0.894,-0.036 0.895,-0.044 0.895,-0.043 0.895,-0.035 0.894,-0.02 0.895,-0.001 0.894,0.017 0.895,0.031 0.894,0.038 0.895,0.037 0.894,0.029 0.895,0.015 0.895,-0.003 0.894,-0.018 0.895,-0.031 0.894,-0.038 0.895,-0.035 0.894,-0.028 0.895,-0.015 0.895,0.002 0.895,0.016 0.894,0.027 0.895,0.033 0.894,0.031 0.895,0.023 0.894,0.01 0.895,-0.003 0.894,-0.018 0.895,-0.027 0.895,-0.032 0.894,-0.03 0.895,-0.022 0.894,-0.011 0.895,0.003 0.895,0.016 0.894,0.024 0.895,0.028 0.895,0.026 0.894,0.019 0.895,0.007 0.894,-0.004 0.895,-0.017 0.894,-0.024 0.895,-0.027 0.895,-0.026 0.894,-0.017 0.895,-0.008 0.894,0.004 0.895,0.015 0.894,0.021 0.895,0.025 0.895,0.022 0.894,0.015 0.895,0.005 0.895,-0.006 0.894,-0.015 0.895,-0.022 0.894,-0.023 0.895,-0.022 0.894,-0.014 0.895,-0.005" /><path
       transform="matrix(1.3333333,0,0,-1.3333333,0,510)"
       inkscape:connector-curvature="0"
       id="path96"
       style="fill:none;stroke:#7e2f8e;stroke-width:1.97000003;stroke-linecap:butt;stroke-linejoin:round;stroke-miterlimit:10;stroke-dasharray:none;stroke-opacity:1"
       d="m 19.505146,107.32288 0.8941,0.004 0.8946,0.01 0.8953,0.014 0.8945,0.016 0.8945,0.015 0.8946,0.011 0.8945,0.004 0.8948,-0.004 0.894,-0.011 0.895,-0.015 0.895,-0.016 0.894,-0.015 0.895,-0.01 0.894,-0.003 0.895,0.005 0.894,0.012 0.895,0.017 0.894,0.019 0.895,0.016 0.895,0.01 0.894,0.003 0.895,-0.004 0.894,-0.013 0.895,-0.018 0.895,-0.018 0.894,-0.016 0.895,-0.011 0.895,-0.002 0.894,0.007 0.895,0.015 0.894,0.019 0.895,0.021 0.894,0.018 0.895,0.011 0.894,0.002 0.895,-0.007 0.895,-0.015 0.895,-0.02 0.894,-0.021 0.895,-0.018 0.894,-0.01 0.895,-10e-4 0.894,0.009 0.895,0.018 0.895,0.023 0.894,0.023 0.895,0.02 0.894,0.011 0.895,0.001 0.894,-0.009 0.895,-0.018 0.894,-0.024 0.895,-0.024 0.895,-0.019 0.895,-0.011 0.894,10e-4 0.895,0.012 0.894,0.022 0.895,0.026 0.894,0.027 0.895,0.021 0.895,0.012 0.894,-0.001 0.895,-0.012 0.894,-0.022 0.895,-0.028 0.894,-0.027 0.895,-0.021 0.894,-0.01 0.895,0.002 0.895,0.016 0.895,0.026 0.894,0.032 0.895,0.03 0.894,0.024 0.895,0.012 0.894,-0.002 0.895,-0.017 0.895,-0.026 0.894,-0.033 0.895,-0.031 0.894,-0.023 0.895,-0.011 0.894,0.006 0.895,0.02 0.894,0.032 0.895,0.038 0.895,0.035 0.895,0.027 0.894004,0.012 0.895,-0.005 0.894,-0.022 0.895,-0.033 0.894,-0.038 0.895,-0.036 0.895,-0.026 0.894,-0.01 0.895,0.009 0.894,0.027 0.895,0.039 0.894,0.045 0.895,0.042 0.894,0.03 0.895,0.012 0.895,-0.008 0.895,-0.028 0.894,-0.041 0.895,-0.047 0.894,-0.042 0.895,-0.029 0.894,-0.009 0.895,0.014 0.895,0.035 0.894,0.05 0.895,0.055 0.894,0.05 0.895,0.034 0.894,0.011 0.895,-0.013 0.894,-0.036 0.895,-0.052 0.895,-0.057 0.895,-0.051 0.894,-0.032 0.895,-0.007 0.894,0.021 0.895,0.047 0.894,0.063 0.895,0.069 0.895,0.06 0.894,0.039 0.895,0.011 0.894,-0.021 0.895,-0.048 0.894,-0.066 0.895,-0.072 0.894,-0.061 0.895,-0.036 0.895,-0.004 0.895,0.032 0.894,0.063 0.895,0.083 0.894,0.087 0.895,0.075 0.894,0.047 0.895,0.009 0.895,-0.031 0.894,-0.066 0.895,-0.088 0.894,-0.091 0.895,-0.075 0.894,-0.043 0.895,0.002 0.894,0.048 0.896,0.087 0.894,0.112 0.895,0.115 0.894,0.096 0.895,0.058 0.894,0.006 0.895,-0.047 0.894,-0.092 0.895,-0.119 0.895,-0.121 0.894,-0.096 0.895,-0.05 0.894,0.011 0.895,0.073 0.894,0.127 0.895,0.158 0.895,0.159 0.895,0.13 0.894,0.073 0.895,0.002 0.894,-0.074 0.895,-0.134 0.894,-0.169 0.895,-0.168 0.894,-0.13 0.895,-0.06 0.895,0.028 0.894,0.12 0.895,0.194 0.894,0.236 0.895,0.235 0.894,0.188 0.895,0.101 0.895,-0.007 0.895,-0.118 0.894,-0.208 0.895,-0.256 0.894,-0.251 0.895,-0.188 0.894,-0.076 0.895,0.066 0.894,0.208 0.895,0.326 0.895,0.389 0.894,0.383 0.895,0.304 0.894,0.159 0.895,-0.021 0.894,-0.205 0.895,-0.354 0.895,-0.433 0.895,-0.418 0.894,-0.302 0.895,-0.101 0.894,0.155 0.895,0.417 0.894,0.632 0.895,0.754 0.894,0.746 0.895,0.596 0.895,0.322 0.894,-0.033 0.895,-0.401 0.894,-0.706 0.895,-0.874 0.894,-0.846 0.895,-0.6 0.895,-0.148 0.895,0.445 0.894,1.087 0.895,1.654 0.894,2.023 0.895,2.088 0.894,1.789 0.895,1.128 0.895,0.18 0.894,-0.902 0.895,-1.904 0.894,-2.575 0.895,-2.66 0.894,-1.94 0.895,-0.269 0.894,2.388 0.895,5.943 0.895,10.166 0.895,14.712 0.894,19.141 0.895,22.974 0.894,25.734 0.895,27.022 0.894,26.551 0.895,24.205 0.895,20.046 0.894,14.328 0.895,7.466 h 0.894 l 0.895,-7.466 0.894,-14.328 0.895,-20.046 0.894,-24.205 0.895,-26.551 0.895,-27.022 0.895,-25.734 0.894,-22.974 0.895,-19.141 0.894,-14.712 0.895,-10.166 0.894,-5.943 0.895,-2.388 0.895,0.269 0.894,1.94 0.895,2.66 0.894,2.575 0.895,1.904 0.894,0.902 0.895,-0.18 0.894,-1.128 0.895,-1.789 0.895,-2.088 0.895,-2.023 0.894,-1.654 0.895,-1.087 0.894,-0.445 0.895,0.148 0.894,0.6 0.895,0.846 0.895,0.874 0.894,0.706 0.895,0.401 0.894,0.033 0.895,-0.322 0.894,-0.596 0.895,-0.746 0.894,-0.754 0.895,-0.632 0.895,-0.417 0.895,-0.155 0.894,0.101 0.895,0.302 0.894,0.418 0.895,0.433 0.894,0.354 0.895,0.205 0.895,0.021 0.894,-0.159 0.895,-0.304 0.894,-0.383 0.895,-0.389 0.894,-0.326 0.895,-0.208 0.894,-0.066 0.896,0.076 0.894,0.188 0.895,0.251 0.894,0.256 0.895,0.208 0.894,0.118 0.895,0.007 0.894,-0.101 0.895,-0.188 0.895,-0.235 0.894,-0.236 0.895,-0.194 0.894,-0.12 0.895,-0.028 0.894,0.06 0.895,0.13 0.895,0.168 0.895,0.169 0.894,0.134 0.895,0.074 0.894,-0.002 0.895,-0.073 0.894,-0.13 0.895,-0.159 0.894,-0.158 0.895,-0.127 0.895,-0.073 0.894,-0.011 0.895,0.05 0.894,0.096 0.895,0.121 0.894,0.119 0.895,0.092 0.895,0.047 0.895,-0.006 0.894,-0.058 0.895,-0.096 0.894,-0.115 0.895,-0.112 0.894,-0.087 0.895,-0.048 0.894,-0.002 0.895,0.043 0.895,0.075 0.894,0.091 0.895,0.088 0.894,0.066 0.895,0.031 0.894,-0.009 0.895,-0.047 0.895,-0.075 0.895,-0.087 0.894,-0.083 0.895,-0.063 0.894,-0.032 0.895,0.004 0.894,0.036 0.895,0.061 0.894,0.072 0.895,0.066 0.895,0.048 0.894,0.021 0.895,-0.011 0.894,-0.039 0.895,-0.06 0.894,-0.069 0.895,-0.063 0.895,-0.047 0.895,-0.021 0.894,0.007 0.895,0.032 0.894,0.051 0.895,0.057 0.894,0.052 0.895,0.036 0.894,0.013 0.895,-0.011 0.895,-0.034 0.894,-0.05 0.895,-0.055 0.894,-0.05 0.895,-0.035 0.894,-0.014 0.895,0.009 0.895,0.029 0.895,0.042 0.894,0.047 0.895,0.041 0.894,0.028 0.895,0.008 0.894,-0.012 0.895,-0.03 0.894,-0.042 0.895,-0.045 0.895,-0.039 0.894,-0.027 0.895,-0.009 0.894,0.01 0.895,0.026 0.894,0.036 0.895,0.038 0.895,0.033 0.895,0.022 0.894,0.005 0.895,-0.012 0.894,-0.027 0.895,-0.035 0.894,-0.038 0.895,-0.032 0.894,-0.02 0.895,-0.006 0.895,0.011 0.894,0.023 0.895,0.031 0.894,0.033 0.895,0.026 0.894,0.017 0.895,0.002 0.895,-0.012 0.895,-0.024 0.894,-0.03 0.895,-0.032 0.894,-0.026 0.895,-0.016 0.894,-0.002 0.895,0.01 0.894,0.021 0.895,0.027 0.895,0.028 0.894,0.022 0.895,0.012 0.894,0.001 0.895,-0.012 0.894,-0.021 0.895,-0.027 0.895,-0.026 0.895,-0.022 0.894,-0.012 0.895,-10e-4 0.894,0.011 0.895,0.019 0.894,0.024 0.895,0.024 0.894,0.018 0.895,0.009 0.895,-0.001 0.894,-0.011 0.895,-0.02 0.894,-0.023 0.895,-0.023 0.894,-0.018 0.895,-0.009 0.895,10e-4 0.895,0.01 0.894,0.018 0.895,0.021 0.894,0.02 0.895,0.015 0.894,0.007 0.895,-0.002 0.894,-0.011 0.895,-0.018 0.895,-0.021 0.894,-0.019 0.895,-0.015 0.894,-0.007 0.895,0.002 0.895,0.011 0.894,0.016 0.895,0.018 0.895,0.018 0.894,0.013 0.895,0.004 0.894,-0.003 0.895,-0.01 0.894,-0.016 0.895,-0.019 0.895,-0.017 0.894,-0.012 0.895,-0.005 0.894,0.003 0.895,0.01 0.894,0.015 0.895,0.016 0.895,0.015 0.894,0.011 0.895,0.004 0.895,-0.004 0.894,-0.011 0.895,-0.015 0.894,-0.016 0.895,-0.014 0.894,-0.01 0.895,-0.004" /><path
       transform="matrix(1.3333333,0,0,-1.3333333,0,510)"
       inkscape:connector-curvature="0"
       id="path98"
       style="fill:none;stroke:#77ac30;stroke-width:1.97000003;stroke-linecap:butt;stroke-linejoin:round;stroke-miterlimit:10;stroke-dasharray:none;stroke-opacity:1"
       d="m 19.505146,107.32288 0.8941,0.005 0.8946,0.014 0.8953,0.022 0.8945,0.023 0.8945,0.022 0.8946,0.015 0.8945,0.006 0.8948,-0.005 0.894,-0.015 0.895,-0.022 0.895,-0.025 0.894,-0.021 0.895,-0.015 0.894,-0.004 0.895,0.008 0.894,0.017 0.895,0.026 0.894,0.027 0.895,0.024 0.895,0.017 0.894,0.004 0.895,-0.007 0.894,-0.019 0.895,-0.026 0.895,-0.028 0.894,-0.024 0.895,-0.016 0.895,-0.003 0.894,0.011 0.895,0.022 0.894,0.03 0.895,0.032 0.894,0.027 0.895,0.018 0.894,0.003 0.895,-0.01 0.895,-0.023 0.895,-0.031 0.894,-0.033 0.895,-0.027 0.894,-0.016 0.895,-0.002 0.894,0.015 0.895,0.028 0.895,0.035 0.894,0.038 0.895,0.031 0.894,0.018 0.895,0.003 0.894,-0.015 0.895,-0.029 0.894,-0.037 0.895,-0.038 0.895,-0.031 0.895,-0.017 0.894,0.001 0.895,0.02 0.894,0.035 0.895,0.043 0.894,0.044 0.895,0.036 0.895,0.021 h 0.894 l 0.895,-0.02 0.894,-0.037 0.895,-0.045 0.894,-0.046 0.895,-0.035 0.894,-0.018 0.895,0.005 0.895,0.027 0.895,0.044 0.894,0.054 0.895,0.053 0.894,0.042 0.895,0.021 0.894,-0.002 0.895,-0.028 0.895,-0.047 0.894,-0.056 0.895,-0.055 0.894,-0.041 0.895,-0.018 0.894,0.01 0.895,0.037 0.894,0.057 0.895,0.068 0.895,0.065 0.895,0.05 0.894004,0.023 0.895,-0.007 0.894,-0.038 0.895,-0.06 0.894,-0.071 0.895,-0.067 0.895,-0.049 0.894,-0.018 0.895,0.017 0.894,0.051 0.895,0.076 0.894,0.088 0.895,0.082 0.894,0.06 0.895,0.026 0.895,-0.015 0.895,-0.052 0.894,-0.081 0.895,-0.091 0.894,-0.085 0.895,-0.058 0.894,-0.018 0.895,0.029 0.895,0.072 0.894,0.104 0.895,0.117 0.894,0.107 0.895,0.076 0.894,0.028 0.895,-0.025 0.894,-0.075 0.895,-0.11 0.895,-0.124 0.895,-0.11 0.894,-0.072 0.895,-0.015 0.894,0.048 0.895,0.107 0.894,0.148 0.895,0.162 0.895,0.146 0.894,0.1 0.895,0.032 0.894,-0.042 0.895,-0.112 0.894,-0.158 0.895,-0.173 0.894,-0.15 0.895,-0.093 0.895,-0.01 0.895,0.083 0.894,0.166 0.895,0.224 0.894,0.241 0.895,0.212 0.894,0.142 0.895,0.039 0.895,-0.073 0.894,-0.174 0.895,-0.243 0.894,-0.26 0.895,-0.221 0.894,-0.127 0.895,0.004 0.894,0.151 0.896,0.282 0.894,0.371 0.895,0.395 0.894,0.344 0.895,0.226 0.894,0.057 0.895,-0.131 0.894,-0.299 0.895,-0.41 0.895,-0.436 0.894,-0.362 0.895,-0.194 0.894,0.045 0.895,0.31 0.894,0.552 0.895,0.718 0.895,0.766 0.895,0.674 0.894,0.45 0.895,0.121 0.894,-0.251 0.895,-0.592 0.894,-0.825 0.895,-0.884 0.894,-0.728 0.895,-0.359 0.895,0.186 0.894,0.821 0.895,1.435 0.894,1.901 0.895,2.103 0.894,1.959 0.895,1.444 0.895,0.602 0.895,-0.447 0.894,-1.512 0.895,-2.353 0.894,-2.711 0.895,-2.349 0.894,-1.086 0.895,1.164 0.894,4.365 0.895,8.344 0.895,12.805 0.894,17.34 0.895,21.481 0.894,24.743 0.895,26.686 0.894,26.972 0.895,25.411 0.895,21.986 0.895,16.877 0.894,10.432 0.895,3.146 0.894,-4.394 0.895,-11.58 0.894,-17.832 0.895,-22.682 0.894,-25.802 0.895,-27.05 0.895,-26.469 0.894,-24.28 0.895,-20.839 0.894,-16.599 0.895,-12.044 0.894,-7.638 0.895,-3.771 0.895,-0.721 0.895,1.364 0.894,2.469 0.895,2.695 0.894,2.239 0.895,1.343 0.894,0.266 0.895,-0.761 0.895,-1.554 0.894,-2.01 0.895,-2.091 0.894,-1.839 0.895,-1.34 0.894,-0.714 0.895,-0.085 0.894,0.434 0.895,0.77 0.895,0.888 0.895,0.797 0.894,0.54 0.895,0.189 0.894,-0.18 0.895,-0.496 0.894,-0.7 0.895,-0.767 0.895,-0.698 0.894,-0.515 0.895,-0.266 0.894,-0.002 0.895,0.228 0.894,0.381 0.895,0.439 0.894,0.397 0.895,0.274 0.895,0.1 0.895,-0.087 0.894,-0.25 0.895,-0.359 0.894,-0.396 0.895,-0.36 0.894,-0.262 0.895,-0.126 0.895,0.019 0.894,0.146 0.895,0.231 0.894,0.261 0.895,0.234 0.894,0.16 0.895,0.054 0.894,-0.058 0.895,-0.156 0.895,-0.22 0.895,-0.241 0.894,-0.216 0.895,-0.154 0.894,-0.068 0.895,0.025 0.894,0.104 0.895,0.157 0.895,0.173 0.894,0.153 0.895,0.101 0.894,0.03 0.895,-0.045 0.894,-0.109 0.895,-0.15 0.894,-0.162 0.895,-0.143 0.895,-0.098 0.895,-0.038 0.894,0.026 0.895,0.08 0.894,0.114 0.895,0.123 0.894,0.106 0.895,0.067 0.895,0.016 0.894,-0.037 0.895,-0.082 0.894,-0.11 0.895,-0.116 0.894,-0.1 0.895,-0.066 0.894,-0.021 0.896,0.025 0.894,0.064 0.895,0.087 0.894,0.091 0.895,0.077 0.894,0.047 0.895,0.007 0.894,-0.032 0.895,-0.065 0.895,-0.084 0.894,-0.087 0.895,-0.072 0.894,-0.046 0.895,-0.011 0.894,0.024 0.895,0.052 0.895,0.068 0.895,0.071 0.894,0.057 0.895,0.034 0.894,0.002 0.895,-0.029 0.894,-0.053 0.895,-0.066 0.894,-0.067 0.895,-0.055 0.895,-0.033 0.894,-0.004 0.895,0.022 0.894,0.044 0.895,0.056 0.894,0.055 0.895,0.044 0.895,0.024 0.895,-0.001 0.894,-0.026 0.895,-0.044 0.894,-0.055 0.895,-0.052 0.894,-0.042 0.895,-0.024 h 0.894 l 0.895,0.021 0.895,0.037 0.894,0.046 0.895,0.045 0.894,0.034 0.895,0.017 0.894,-0.004 0.895,-0.023 0.895,-0.037 0.895,-0.045 0.894,-0.043 0.895,-0.033 0.894,-0.017 0.895,0.003 0.894,0.019 0.895,0.033 0.894,0.039 0.895,0.036 0.895,0.027 0.894,0.012 0.895,-0.006 0.894,-0.021 0.895,-0.032 0.894,-0.038 0.895,-0.035 0.895,-0.025 0.895,-0.013 0.894,0.004 0.895,0.019 0.894,0.029 0.895,0.032 0.894,0.03 0.895,0.022 0.894,0.008 0.895,-0.006 0.895,-0.02 0.894,-0.028 0.895,-0.032 0.894,-0.029 0.895,-0.021 0.894,-0.008 0.895,0.005 0.895,0.017 0.895,0.026 0.894,0.028 0.895,0.025 0.894,0.017 0.895,0.005 0.894,-0.006 0.895,-0.018 0.894,-0.025 0.895,-0.028 0.895,-0.024 0.894,-0.016 0.895,-0.006 0.894,0.006 0.895,0.016 0.894,0.023 0.895,0.024 0.895,0.021 0.895,0.013 0.894,0.004 0.895,-0.007 0.894,-0.017 0.895,-0.023 0.894,-0.023 0.895,-0.02 0.894,-0.013 0.895,-0.004 0.895,0.007 0.894,0.015 0.895,0.02 0.894,0.021 0.895,0.018 0.894,0.011 0.895,0.001 0.895,-0.008 0.895,-0.015 0.894,-0.02 0.895,-0.02 0.894,-0.017 0.895,-0.011 0.894,-0.002 0.895,0.007 0.894,0.014 0.895,0.018 0.895,0.019 0.894,0.015 0.895,0.008 0.894,0.001 0.895,-0.008 0.894,-0.015 0.895,-0.017 0.895,-0.018 0.895,-0.014 0.894,-0.009 h 0.895 l 0.894,0.007 0.895,0.013 0.894,0.017 0.895,0.016 0.894,0.012 0.895,0.007 0.895,-0.001 0.894,-0.008 0.895,-0.013 0.894,-0.016 0.895,-0.016 0.894,-0.012 0.895,-0.006 h 0.895 l 0.895,0.008 0.894,0.012 0.895,0.015 0.894,0.014 0.895,0.01 0.894,0.005 0.895,-10e-4 0.894,-0.008 0.895,-0.012 0.895,-0.015 0.894,-0.013 0.895,-0.011 0.894,-0.005 0.895,0.002 0.895,0.007 0.894,0.011 0.895,0.014 0.895,0.012 0.894,0.009 0.895,0.004 0.894,-0.002 0.895,-0.008 0.894,-0.011 0.895,-0.013 0.895,-0.012 0.894,-0.009 0.895,-0.004 0.894,0.002 0.895,0.007 0.894,0.011 0.895,0.012 0.895,0.011 0.894,0.008 0.895,0.003 0.895,-0.003 0.894,-0.008 0.895,-0.01 0.894,-0.013 0.895,-0.01 0.894,-0.007 0.895,-0.003" /><path
       transform="matrix(1.3333333,0,0,-1.3333333,0,510)"
       inkscape:connector-curvature="0"
       id="path100"
       style="fill:none;stroke:#4dbeee;stroke-width:1.97000003;stroke-linecap:butt;stroke-linejoin:round;stroke-miterlimit:10;stroke-dasharray:none;stroke-opacity:1"
       d="m 19.505146,107.32288 0.8941,0.008 0.8946,0.023 0.8953,0.033 0.8945,0.037 0.8945,0.035 0.8946,0.025 0.8945,0.009 0.8948,-0.007 0.894,-0.024 0.895,-0.035 0.895,-0.039 0.894,-0.034 0.895,-0.024 0.894,-0.007 0.895,0.012 0.894,0.029 0.895,0.041 0.894,0.046 0.895,0.04 0.895,0.027 0.894,0.009 0.895,-0.012 0.894,-0.03 0.895,-0.043 0.895,-0.046 0.894,-0.041 0.895,-0.026 0.895,-0.005 0.894,0.018 0.895,0.038 0.894,0.051 0.895,0.055 0.894,0.047 0.895,0.031 0.894,0.008 0.895,-0.018 0.895,-0.039 0.895,-0.054 0.894,-0.057 0.895,-0.047 0.894,-0.029 0.895,-0.003 0.894,0.026 0.895,0.051 0.895,0.064 0.894,0.068 0.895,0.058 0.894,0.035 0.895,0.006 0.894,-0.026 0.895,-0.052 0.894,-0.069 0.895,-0.07 0.895,-0.057 0.895,-0.032 0.894,0.002 0.895,0.037 0.894,0.067 0.895,0.085 0.894,0.087 0.895,0.07 0.895,0.042 0.894,0.002 0.895,-0.037 0.894,-0.071 0.895,-0.089 0.894,-0.09 0.895,-0.071 0.894,-0.036 0.895,0.01 0.895,0.055 0.895,0.093 0.894,0.113 0.895,0.114 0.894,0.091 0.895,0.05 0.894,-0.003 0.895,-0.055 0.895,-0.099 0.894,-0.121 0.895,-0.118 0.894,-0.091 0.895,-0.04 0.894,0.021 0.895,0.084 0.894,0.134 0.895,0.16 0.895,0.157 0.895,0.121 0.894004,0.063 0.895,-0.012 0.894,-0.084 0.895,-0.142 0.894,-0.172 0.895,-0.164 0.895,-0.12 0.894,-0.047 0.895,0.044 0.894,0.134 0.895,0.204 0.894,0.239 0.895,0.23 0.894,0.175 0.895,0.085 0.895,-0.026 0.895,-0.135 0.894,-0.22 0.895,-0.259 0.894,-0.245 0.895,-0.171 0.894,-0.054 0.895,0.09 0.895,0.231 0.894,0.341 0.895,0.393 0.894,0.375 0.895,0.282 0.894,0.132 0.895,-0.053 0.894,-0.233 0.895,-0.374 0.895,-0.437 0.895,-0.405 0.894,-0.274 0.895,-0.061 0.894,0.199 0.895,0.458 0.894,0.661 0.895,0.762 0.895,0.731 0.894,0.558 0.895,0.266 0.894,-0.095 0.895,-0.458 0.894,-0.746 0.895,-0.884 0.894,-0.82 0.895,-0.538 0.895,-0.057 0.895,0.552 0.894,1.19 0.895,1.732 0.894,2.058 0.895,2.065 0.894,1.702 0.895,0.986 0.895,0.004 0.894,-1.081 0.895,-2.045 0.894,-2.637 0.895,-2.601 0.894,-1.73 0.895,0.106 0.894,2.923 0.896,6.608 0.894,10.912 0.895,15.471 0.894,19.835 0.895,23.521 0.894,26.06 0.895,27.071 0.894,26.291 0.895,23.633 0.895,19.192 0.894,13.25 0.895,6.248 0.894,-1.261 0.895,-8.667 0.894,-15.374 0.895,-20.856 0.895,-24.726 0.895,-26.759 0.894,-26.923 0.895,-25.367 0.894,-22.397 0.895,-18.432 0.894,-13.949 0.895,-9.429 0.894,-5.296 0.895,-1.88 0.895,0.617 0.894,2.123 0.895,2.697 0.894,2.497 0.895,1.753 0.894,0.721 0.895,-0.353 0.895,-1.26 0.895,-1.865 0.894,-2.102 0.895,-1.98 0.894,-1.57 0.895,-0.982 0.894,-0.34 0.895,0.236 0.894,0.655 0.895,0.867 0.895,0.858 0.894,0.663 0.895,0.342 0.894,-0.029 0.895,-0.375 0.894,-0.631 0.895,-0.756 0.895,-0.742 0.895,-0.603 0.894,-0.375 0.895,-0.11 0.894,0.139 0.895,0.329 0.894,0.427 0.895,0.425 0.894,0.334 0.895,0.176 0.895,-0.01 0.894,-0.187 0.895,-0.322 0.894,-0.389 0.895,-0.384 0.894,-0.309 0.895,-0.186 0.895,-0.04 0.895,0.096 0.894,0.203 0.895,0.256 0.894,0.251 0.895,0.196 0.894,0.1 0.895,-0.011 0.895,-0.119 0.894,-0.198 0.895,-0.238 0.894,-0.232 0.895,-0.184 0.894,-0.105 0.895,-0.013 0.894,0.074 0.895,0.139 0.895,0.171 0.895,0.165 0.894,0.126 0.895,0.061 0.894,-0.015 0.895,-0.084 0.894,-0.136 0.895,-0.161 0.895,-0.155 0.894,-0.119 0.895,-0.064 h 0.894 l 0.895,0.059 0.894,0.102 0.895,0.123 0.894,0.116 0.895,0.086 0.895,0.038 0.895,-0.015 0.894,-0.065 0.895,-0.101 0.894,-0.117 0.895,-0.109 0.894,-0.082 0.895,-0.04 0.895,0.007 0.894,0.049 0.895,0.079 0.894,0.092 0.895,0.085 0.894,0.06 0.895,0.025 0.894,-0.016 0.895,-0.053 0.895,-0.077 0.895,-0.088 0.894,-0.081 0.895,-0.058 0.894,-0.026 0.895,0.01 0.894,0.041 0.895,0.064 0.895,0.071 0.894,0.065 0.895,0.044 0.894,0.015 0.895,-0.016 0.894,-0.043 0.895,-0.063 0.894,-0.068 0.895,-0.062 0.895,-0.042 0.895,-0.017 0.894,0.012 0.895,0.036 0.894,0.052 0.895,0.057 0.894,0.05 0.895,0.033 0.895,0.009 0.894,-0.016 0.895,-0.037 0.894,-0.051 0.895,-0.055 0.894,-0.048 0.895,-0.032 0.894,-0.01 0.896,0.013 0.894,0.031 0.895,0.044 0.894,0.046 0.895,0.04 0.894,0.024 0.895,0.006 0.894,-0.016 0.895,-0.032 0.895,-0.043 0.894,-0.045 0.895,-0.038 0.894,-0.024 0.895,-0.006 0.894,0.013 0.895,0.028 0.895,0.037 0.895,0.039 0.894,0.031 0.895,0.019 0.894,0.002 0.895,-0.015 0.894,-0.029 0.895,-0.036 0.894,-0.037 0.895,-0.03 0.895,-0.018 0.894,-0.003 0.895,0.013 0.894,0.024 0.895,0.033 0.894,0.031 0.895,0.026 0.895,0.014 h 0.895 l 0.894,-0.014 0.895,-0.026 0.894,-0.031 0.895,-0.031 0.894,-0.024 0.895,-0.014 0.894,-10e-4 0.895,0.013 0.895,0.023 0.894,0.027 0.895,0.027 0.894,0.021 0.895,0.01 0.894,-0.001 0.895,-0.014 0.895,-0.023 0.895,-0.026 0.894,-0.027 0.895,-0.02 0.894,-0.01 0.895,10e-4 0.894,0.013 0.895,0.02 0.894,0.024 0.895,0.023 0.895,0.017 0.894,0.008 0.895,-0.003 0.894,-0.013 0.895,-0.021 0.894,-0.023 0.895,-0.023 0.895,-0.016 0.895,-0.008 0.894,0.003 0.895,0.012 0.894,0.018 0.895,0.022 0.894,0.019 0.895,0.014 0.894,0.006 0.895,-0.004 0.895,-0.013 0.894,-0.018 0.895,-0.021 0.894,-0.019 0.895,-0.013 0.894,-0.006 0.895,0.003 0.895,0.012 0.895,0.017 0.894,0.019 0.895,0.016 0.894,0.012 0.895,0.003 0.894,-0.004 0.895,-0.012 0.894,-0.017 0.895,-0.018 0.895,-0.016 0.894,-0.011 0.895,-0.004 0.894,0.004 0.895,0.011 0.894,0.016 0.895,0.016 0.895,0.014 0.895,0.01 0.894,0.002 0.895,-0.005 0.894,-0.011 0.895,-0.015 0.894,-0.017 0.895,-0.013 0.894,-0.01 0.895,-0.002 0.895,0.005 0.894,0.01 0.895,0.014 0.894,0.015 0.895,0.013 0.894,0.007 0.895,10e-4 0.895,-0.005 0.895,-0.011 0.894,-0.013 0.895,-0.015 0.894,-0.012 0.895,-0.008 0.894,-0.001 0.895,0.005 0.894,0.011 0.895,0.012 0.895,0.013 0.894,0.011 0.895,0.006 0.894,10e-4 0.895,-0.006 0.894,-0.01 0.895,-0.013 0.895,-0.013 0.895,-0.01 0.894,-0.006 0.895,-0.001 0.894,0.006 0.895,0.01 0.894,0.011 0.895,0.012 0.894,0.009 0.895,0.005 h 0.895 l 0.894,-0.006 0.895,-0.009 0.894,-0.012 0.895,-0.012 0.894,-0.009 0.895,-0.005 0.895,0.001 0.895,0.005 0.894,0.01 0.895,0.01 0.894,0.011 0.895,0.008 0.894,0.003 0.895,-0.001 0.894,-0.005 0.895,-0.009 0.895,-0.011 0.894,-0.01 0.895,-0.008 0.894,-0.004 0.895,0.001 0.895,0.006 0.894,0.009 0.895,0.009 0.895,0.01 0.894,0.006 0.895,0.003 0.894,-10e-4 0.895,-0.006 0.894,-0.009 0.895,-0.01 0.895,-0.009 0.894,-0.006 0.895,-0.003 0.894,0.002 0.895,0.005 0.894,0.008 0.895,0.009 0.895,0.009 0.894,0.005 0.895,0.003 0.895,-0.002 0.894,-0.006 0.895,-0.008 0.894,-0.009 0.895,-0.008 0.894,-0.006 0.895,-0.002" /><path
       transform="matrix(1.3333333,0,0,-1.3333333,0,510)"
       inkscape:connector-curvature="0"
       id="path102"
       style="fill:none;stroke:#a2142f;stroke-width:1.97000003;stroke-linecap:butt;stroke-linejoin:round;stroke-miterlimit:10;stroke-dasharray:none;stroke-opacity:1"
       d="m 19.505146,107.32288 0.8941,0.014 0.8946,0.041 0.8953,0.06 0.8945,0.069 0.8945,0.063 0.8946,0.046 0.8945,0.018 0.8948,-0.012 0.894,-0.043 0.895,-0.063 0.895,-0.071 0.894,-0.065 0.895,-0.044 0.894,-0.013 0.895,0.023 0.894,0.056 0.895,0.08 0.894,0.087 0.895,0.08 0.895,0.055 0.894,0.019 0.895,-0.021 0.894,-0.058 0.895,-0.084 0.895,-0.092 0.894,-0.081 0.895,-0.052 0.895,-0.01 0.894,0.036 0.895,0.079 0.894,0.108 0.895,0.116 0.894,0.103 0.895,0.069 0.894,0.02 0.895,-0.035 0.895,-0.082 0.895,-0.114 0.894,-0.122 0.895,-0.106 0.894,-0.063 0.895,-0.005 0.894,0.058 0.895,0.116 0.895,0.152 0.894,0.162 0.895,0.139 0.894,0.09 0.895,0.021 0.894,-0.056 0.895,-0.121 0.894,-0.163 0.895,-0.172 0.895,-0.143 0.895,-0.08 0.894,0.006 0.895,0.097 0.894,0.178 0.895,0.23 0.894,0.239 0.895,0.203 0.895,0.127 0.894,0.021 0.895,-0.092 0.894,-0.189 0.895,-0.249 0.894,-0.257 0.895,-0.209 0.894,-0.107 0.895,0.029 0.895,0.174 0.895,0.3 0.894,0.38 0.895,0.392 0.894,0.329 0.895,0.2 0.894,0.026 0.895,-0.161 0.895,-0.322 0.894,-0.421 0.895,-0.431 0.894,-0.34 0.895,-0.158 0.894,0.088 0.895,0.353 0.894,0.587 0.895,0.735 0.895,0.76 0.895,0.647 0.894004,0.4 0.895,0.06 0.894,-0.312 0.895,-0.64 0.894,-0.849 0.895,-0.873 0.895,-0.682 0.894,-0.278 0.895,0.288 0.894,0.929 0.895,1.526 0.894,1.956 0.895,2.105 0.894,1.899 0.895,1.324 0.895,0.436 0.895,-0.63 0.894,-1.673 0.895,-2.453 0.894,-2.707 0.895,-2.205 0.894,-0.78 0.895,1.634 0.895,4.98 0.894,9.065 0.895,13.568 0.894,18.071 0.895,22.098 0.894,25.169 0.895,26.855 0.894,26.844 0.895,24.967 0.895,21.244 0.895,15.884 0.894,9.261 0.895,1.89 0.894,-5.633 0.895,-12.7 0.894,-18.749 0.895,-23.328 0.895,-26.141 0.894,-27.077 0.895,-26.208 0.894,-23.781 0.895,-20.175 0.894,-15.849 0.895,-11.288 0.894,-6.947 0.895,-3.2 0.895,-0.304 0.895,1.615 0.894,2.563 0.895,2.66 0.894,2.114 0.895,1.169 0.894,0.085 0.895,-0.913 0.895,-1.655 0.894,-2.049 0.895,-2.071 0.894,-1.77 0.895,-1.241 0.894,-0.606 0.895,0.011 0.894,0.504 0.896,0.806 0.894,0.886 0.895,0.764 0.894,0.487 0.895,0.126 0.894,-0.238 0.895,-0.539 0.894,-0.721 0.895,-0.765 0.895,-0.674 0.894,-0.477 0.895,-0.221 0.894,0.04 0.895,0.259 0.894,0.398 0.895,0.438 0.895,0.382 0.895,0.248 0.894,0.068 0.895,-0.117 0.894,-0.273 0.895,-0.369 0.894,-0.395 0.895,-0.347 0.894,-0.242 0.895,-0.102 0.895,0.042 0.894,0.163 0.895,0.241 0.894,0.26 0.895,0.225 0.894,0.144 0.895,0.035 0.895,-0.075 0.895,-0.17 0.894,-0.227 0.895,-0.24 0.894,-0.208 0.895,-0.141 0.894,-0.052 0.895,0.039 0.894,0.116 0.895,0.162 0.895,0.172 0.894,0.146 0.895,0.09 0.894,0.018 0.895,-0.057 0.894,-0.118 0.895,-0.155 0.895,-0.16 0.895,-0.137 0.894,-0.089 0.895,-0.027 0.894,0.036 0.895,0.087 0.894,0.117 0.895,0.122 0.894,0.101 0.895,0.059 0.895,0.008 0.894,-0.046 0.895,-0.088 0.894,-0.112 0.895,-0.116 0.894,-0.095 0.895,-0.058 0.895,-0.014 0.895,0.033 0.894,0.068 0.895,0.089 0.894,0.091 0.895,0.072 0.894,0.041 h 0.895 l 0.895,-0.038 0.894,-0.069 0.895,-0.085 0.894,-0.086 0.895,-0.069 0.894,-0.041 0.895,-0.005 0.894,0.03 0.895,0.056 0.895,0.07 0.895,0.069 0.894,0.054 0.895,0.028 0.894,-0.003 0.895,-0.033 0.894,-0.056 0.895,-0.068 0.895,-0.066 0.894,-0.051 0.895,-0.028 h 0.894 l 0.895,0.026 0.894,0.047 0.895,0.056 0.894,0.055 0.895,0.041 0.895,0.019 0.895,-0.005 0.894,-0.029 0.895,-0.047 0.894,-0.054 0.895,-0.053 0.894,-0.039 0.895,-0.02 0.895,0.004 0.894,0.024 0.895,0.04 0.894,0.046 0.895,0.044 0.894,0.031 0.895,0.014 0.894,-0.007 0.895,-0.026 0.895,-0.04 0.895,-0.045 0.894,-0.041 0.895,-0.031 0.894,-0.014 0.895,0.006 0.894,0.022 0.895,0.034 0.895,0.039 0.894,0.035 0.895,0.025 0.894,0.009 0.895,-0.008 0.894,-0.023 0.895,-0.034 0.894,-0.038 0.895,-0.034 0.895,-0.024 0.895,-0.009 0.894,0.007 0.895,0.02 0.894,0.03 0.895,0.033 0.894,0.029 0.895,0.019 0.895,0.006 0.894,-0.009 0.895,-0.021 0.894,-0.03 0.895,-0.031 0.894,-0.028 0.895,-0.019 0.894,-0.006 0.896,0.007 0.894,0.019 0.895,0.027 0.894,0.027 0.895,0.024 0.894,0.016 0.895,0.003 0.894,-0.009 0.895,-0.019 0.895,-0.026 0.894,-0.027 0.895,-0.024 0.894,-0.014 0.895,-0.004 0.894,0.008 0.895,0.018 0.895,0.023 0.895,0.024 0.894,0.02 0.895,0.012 0.894,0.001 0.895,-0.009 0.894,-0.018 0.895,-0.022 0.894,-0.024 0.895,-0.019 0.895,-0.012 0.894,-0.002 0.895,0.009 0.894,0.016 0.895,0.02 0.894,0.021 0.895,0.017 0.895,0.009 0.895,0.001 0.894,-0.01 0.895,-0.016 0.894,-0.02 0.895,-0.021 0.894,-0.016 0.895,-0.009 h 0.894 l 0.895,0.008 0.895,0.015 0.894,0.019 0.895,0.018 0.894,0.014 0.895,0.007 0.894,-0.001 0.895,-0.009 0.895,-0.015 0.895,-0.019 0.894,-0.017 0.895,-0.013 0.894,-0.007 h 0.895 l 0.894,0.009 0.895,0.014 0.894,0.016 0.895,0.016 0.895,0.012 0.894,0.005 0.895,-0.002 0.894,-0.009 0.895,-0.014 0.894,-0.016 0.895,-0.015 0.895,-0.011 0.895,-0.006 0.894,0.002 0.895,0.008 0.894,0.013 0.895,0.015 0.894,0.014 0.895,0.01 0.894,0.004 0.895,-0.003 0.895,-0.008 0.894,-0.014 0.895,-0.014 0.894,-0.013 0.895,-0.01 0.894,-0.004 0.895,0.002 0.895,0.009 0.895,0.012 0.894,0.013 0.895,0.012 0.894,0.009 0.895,0.002 0.894,-0.003 0.895,-0.008 0.894,-0.012 0.895,-0.014 0.895,-0.011 0.894,-0.008 0.895,-0.003 0.894,0.003 0.895,0.008 0.894,0.011 0.895,0.012 0.895,0.011 0.895,0.007 0.894,0.002 0.895,-0.004 0.894,-0.008 0.895,-0.011 0.894,-0.012 0.895,-0.01 0.894,-0.007 0.895,-0.002 0.895,0.003 0.894,0.008 0.895,0.01 0.894,0.012 0.895,0.009 0.894,0.005 0.895,0.001 0.895,-0.003 0.895,-0.008 0.894,-0.011 0.895,-0.01 0.894,-0.009 0.895,-0.006 0.894,-0.001 0.895,0.004 0.894,0.008 0.895,0.009 0.895,0.01 0.894,0.008 0.895,0.005 h 0.894 l 0.895,-0.004 0.894,-0.008 0.895,-0.009 0.895,-0.01 0.895,-0.008 0.894,-0.004 0.895,-0.001 0.894,0.004 0.895,0.008 0.894,0.008 0.895,0.01 0.894,0.007 0.895,0.003 h 0.895 l 0.894,-0.004 0.895,-0.007 0.894,-0.01 0.895,-0.008 0.894,-0.007 0.895,-0.004 0.895,0.001 0.895,0.004 0.894,0.007 0.895,0.008 0.894,0.008 0.895,0.007 0.894,0.003 0.895,-10e-4 0.894,-0.005 0.895,-0.007 0.895,-0.008 0.894,-0.008 0.895,-0.006 0.894,-0.003 0.895,0.001 0.895,0.004 0.894,0.007 0.895,0.008 0.895,0.007 0.894,0.005 0.895,0.003 0.894,-10e-4 0.895,-0.005 0.894,-0.007 0.895,-0.007 0.895,-0.008 0.894,-0.005 0.895,-0.002 0.894,0.001 0.895,0.005 0.894,0.006 0.895,0.007 0.895,0.007 0.894,0.004 0.895,0.002 0.895,-10e-4 0.894,-0.005 0.895,-0.007 0.894,-0.006 0.895,-0.007 0.894,-0.004 0.895,-0.002" /></g></svg>