<?xml version="1.0" encoding="UTF-8" standalone="no"?>
<!-- Created with Inkscape (http://www.inkscape.org/) -->

<svg
   xmlns:dc="http://purl.org/dc/elements/1.1/"
   xmlns:cc="http://creativecommons.org/ns#"
   xmlns:rdf="http://www.w3.org/1999/02/22-rdf-syntax-ns#"
   xmlns:svg="http://www.w3.org/2000/svg"
   xmlns="http://www.w3.org/2000/svg"
   xmlns:sodipodi="http://sodipodi.sourceforge.net/DTD/sodipodi-0.dtd"
   xmlns:inkscape="http://www.inkscape.org/namespaces/inkscape"
   version="1.1"
   id="svg2"
   xml:space="preserve"
   width="650"
   height="530"
   viewBox="0 0 650 530"
   sodipodi:docname="ofdm_psd.svg"
   inkscape:version="0.92.4 5da689c313, 2019-01-14"><metadata
     id="metadata8"><rdf:RDF><cc:Work
         rdf:about=""><dc:format>image/svg+xml</dc:format><dc:type
           rdf:resource="http://purl.org/dc/dcmitype/StillImage" /><dc:title></dc:title></cc:Work></rdf:RDF></metadata><defs
     id="defs6"><clipPath
       clipPathUnits="userSpaceOnUse"
       id="clipPath24"><path
         d="M 180,1800 H 5940 V 6120 H 180 Z"
         id="path22"
         inkscape:connector-curvature="0" /></clipPath></defs><sodipodi:namedview
     pagecolor="#ffffff"
     bordercolor="#666666"
     borderopacity="1"
     objecttolerance="10"
     gridtolerance="10"
     guidetolerance="10"
     inkscape:pageopacity="0"
     inkscape:pageshadow="2"
     inkscape:window-width="1920"
     inkscape:window-height="1051"
     id="namedview4"
     showgrid="false"
     inkscape:pagecheckerboard="true"
     inkscape:zoom="1.5434422"
     inkscape:cx="414.26096"
     inkscape:cy="293.72617"
     inkscape:window-x="0"
     inkscape:window-y="29"
     inkscape:window-maximized="1"
     inkscape:current-layer="g10" /><g
     id="g10"
     inkscape:groupmode="layer"
     inkscape:label="ofdm_psd"
     transform="matrix(1.3333333,0,0,-1.3333333,0,530)"><path
       inkscape:connector-curvature="0"
       id="path30"
       style="fill:none;stroke:#d9d9d9;stroke-width:0.5;stroke-linecap:butt;stroke-linejoin:miter;stroke-miterlimit:10;stroke-dasharray:16, 0;stroke-dashoffset:0;stroke-opacity:1"
       d="M 120.61075,22.733108 V 374.81311" /><path
       inkscape:connector-curvature="0"
       id="path32"
       style="fill:none;stroke:#d9d9d9;stroke-width:0.5;stroke-linecap:butt;stroke-linejoin:miter;stroke-miterlimit:10;stroke-dasharray:16, 0;stroke-dashoffset:0;stroke-opacity:1"
       d="M 244.61075,22.733108 V 374.81311" /><path
       inkscape:connector-curvature="0"
       id="path34"
       style="fill:none;stroke:#d9d9d9;stroke-width:0.5;stroke-linecap:butt;stroke-linejoin:miter;stroke-miterlimit:10;stroke-dasharray:16, 0;stroke-dashoffset:0;stroke-opacity:1"
       d="M 368.61075,22.733108 V 374.81311" /><path
       inkscape:connector-curvature="0"
       id="path48"
       style="fill:none;stroke:#d9d9d9;stroke-width:0.5;stroke-linecap:butt;stroke-linejoin:miter;stroke-miterlimit:10;stroke-dasharray:16, 0;stroke-dashoffset:0;stroke-opacity:1"
       d="M 21.410849,111.44611 H 467.81075" /><path
       inkscape:connector-curvature="0"
       id="path50"
       style="fill:none;stroke:#d9d9d9;stroke-width:0.5;stroke-linecap:butt;stroke-linejoin:miter;stroke-miterlimit:10;stroke-dasharray:16, 0;stroke-dashoffset:0;stroke-opacity:1"
       d="M 21.410849,222.33811 H 467.81075" /><path
       inkscape:connector-curvature="0"
       id="path52"
       style="fill:none;stroke:#d9d9d9;stroke-width:0.5;stroke-linecap:butt;stroke-linejoin:miter;stroke-miterlimit:10;stroke-dasharray:16, 0;stroke-dashoffset:0;stroke-opacity:1"
       d="M 21.410849,333.22911 H 467.81075" /><g
       id="g1035"
       transform="translate(-71.469251,-204.78689)"><path
         d="m 192.08,227.52 v 4.465"
         style="fill:none;stroke:#262626;stroke-width:0.5;stroke-linecap:butt;stroke-linejoin:miter;stroke-miterlimit:10;stroke-dasharray:none;stroke-opacity:1"
         id="path36"
         inkscape:connector-curvature="0" /><path
         d="m 316.08,227.52 v 4.465"
         style="fill:none;stroke:#262626;stroke-width:0.5;stroke-linecap:butt;stroke-linejoin:miter;stroke-miterlimit:10;stroke-dasharray:none;stroke-opacity:1"
         id="path38"
         inkscape:connector-curvature="0" /><path
         d="m 440.08,227.52 v 4.465"
         style="fill:none;stroke:#262626;stroke-width:0.5;stroke-linecap:butt;stroke-linejoin:miter;stroke-miterlimit:10;stroke-dasharray:none;stroke-opacity:1"
         id="path40"
         inkscape:connector-curvature="0" /><path
         d="M 92.8801,227.52 H 539.28"
         style="fill:none;stroke:#262626;stroke-width:0.5;stroke-linecap:square;stroke-linejoin:miter;stroke-miterlimit:10;stroke-dasharray:16, 0;stroke-dashoffset:0;stroke-opacity:1"
         id="path70"
         inkscape:connector-curvature="0" /></g><g
       id="g1051"
       transform="translate(-71.469251,-204.78689)"><path
         d="M 92.8801,316.233 H 97.348"
         style="fill:none;stroke:#262626;stroke-width:0.5;stroke-linecap:butt;stroke-linejoin:miter;stroke-miterlimit:10;stroke-dasharray:none;stroke-opacity:1"
         id="path54"
         inkscape:connector-curvature="0" /><path
         d="M 92.8801,427.125 H 97.348"
         style="fill:none;stroke:#262626;stroke-width:0.5;stroke-linecap:butt;stroke-linejoin:miter;stroke-miterlimit:10;stroke-dasharray:none;stroke-opacity:1"
         id="path56"
         inkscape:connector-curvature="0" /><path
         d="M 92.8801,538.016 H 97.348"
         style="fill:none;stroke:#262626;stroke-width:0.5;stroke-linecap:butt;stroke-linejoin:miter;stroke-miterlimit:10;stroke-dasharray:none;stroke-opacity:1"
         id="path58"
         inkscape:connector-curvature="0" /><path
         d="M 92.8801,227.52 V 579.6"
         style="fill:none;stroke:#262626;stroke-width:0.5;stroke-linecap:square;stroke-linejoin:miter;stroke-miterlimit:10;stroke-dasharray:16, 0;stroke-dashoffset:0;stroke-opacity:1"
         id="path72"
         inkscape:connector-curvature="0" /></g><text
       transform="scale(1,-1)"
       style="font-variant:normal;font-weight:normal;font-size:11px;font-family:Helvetica;-inkscape-font-specification:Helvetica;writing-mode:lr-tb;fill:#262626;fill-opacity:1;fill-rule:nonzero;stroke:none"
       id="text78"
       x="218.61073"
       y="-6.9751925"><tspan
         x="218.61073 225.61076 229.61076 235.61076 241.61079 247.61079 253.61079 259.61081 265.61081"
         y="-6.9751925"
         sodipodi:role="line"
         id="tspan76">Frequency</tspan></text>
<text
       y="13.647868"
       x="140.1001"
       transform="matrix(0,1,1,0,0,0)"
       style="font-variant:normal;font-weight:normal;font-size:11px;font-family:Helvetica;-inkscape-font-specification:Helvetica;writing-mode:lr-tb;fill:#262626;fill-opacity:1;fill-rule:nonzero;stroke:none"
       id="text82"><tspan
         y="13.647868"
         x="140.1001"
         sodipodi:role="line"
         id="tspan80">Power Spectral Density</tspan></text>
<path
       inkscape:connector-curvature="0"
       id="path90"
       style="fill:none;stroke:#0072bd;stroke-width:1.97000003;stroke-linecap:butt;stroke-linejoin:round;stroke-miterlimit:10;stroke-dasharray:none;stroke-opacity:1"
       d="m 21.410849,111.44611 0.8941,0.003 0.8946,0.007 0.8953,0.01 0.8945,0.013 0.8945,0.01 0.8946,0.008 0.8945,0.003 0.8948,-0.003 0.894,-0.008 0.895,-0.011 0.895,-0.012 0.894,-0.011 0.895,-0.007 0.894,-0.002 0.895,0.004 0.894,0.009 0.895,0.012 0.894,0.013 0.895,0.011 0.895,0.008 0.894,0.002 0.895,-0.004 0.894,-0.009 0.895,-0.012 0.895,-0.014 0.894,-0.011 0.895,-0.007 0.895,-0.002 0.894,0.005 0.895,0.011 0.894,0.013 0.895,0.015 0.894,0.012 0.895,0.008 0.894,0.001 0.895,-0.005 0.895,-0.01 0.895,-0.014 0.894,-0.015 0.895,-0.012 0.894,-0.008 h 0.895 l 0.894,0.006 0.895,0.012 0.895,0.016 0.894,0.016 0.895,0.013 0.894,0.008 0.895,0.001 0.894,-0.007 0.895,-0.012 0.894,-0.016 0.895,-0.017 0.895,-0.013 0.895,-0.007 h 0.894 l 0.895,0.009 0.894,0.014 0.895,0.018 0.894,0.017 0.895,0.015 0.895,0.008 0.894,-0.001 0.895,-0.008 0.894,-0.015 0.895,-0.019 0.894,-0.018 0.895,-0.014 0.894,-0.007 0.895,0.002 0.895,0.011 0.895,0.017 0.894,0.02 0.895,0.02 0.894,0.015 0.895,0.008 0.894,-10e-4 0.895,-0.011 0.895,-0.018 0.894,-0.021 0.895,-0.02 0.894,-0.015 0.895,-0.007 0.894,0.004 0.895,0.013 0.894,0.02 0.895,0.023 0.895001,0.023 0.895,0.017 0.894,0.007 0.895,-0.004 0.894,-0.013 0.895,-0.021 0.894,-0.024 0.895,-0.023 0.895,-0.016 0.894,-0.006 0.895,0.006 0.894,0.016 0.895,0.024 0.894,0.028 0.895,0.025 0.894,0.018 0.895,0.006 0.895,-0.005 0.895,-0.017 0.894,-0.025 0.895,-0.028 0.894,-0.026 0.895,-0.017 0.894,-0.005 0.895,0.008 0.895,0.021 0.894,0.029 0.895,0.032 0.894,0.028 0.895,0.02 0.894,0.006 0.895,-0.008 0.894,-0.022 0.895,-0.03 0.895,-0.032 0.895,-0.029 0.894,-0.019 0.895,-0.004 0.894,0.013 0.895,0.025 0.894,0.035 0.895,0.038 0.895,0.032 0.894,0.021 0.895,0.006 0.894,-0.012 0.895,-0.027 0.894,-0.036 0.895,-0.039 0.894,-0.033 0.895,-0.019 0.895,-0.003 0.895,0.017 0.894,0.033 0.895,0.043 0.894,0.045 0.895,0.037 0.894,0.023 0.895,0.004 0.895,-0.017 0.894,-0.034 0.895,-0.045 0.894,-0.046 0.895,-0.037 0.894,-0.021 h 0.895 l 0.894,0.024 0.896,0.042 0.894,0.052 0.895,0.055 0.894,0.044 0.895,0.026 0.894,0.001 0.895,-0.024 0.894,-0.044 0.895,-0.055 0.895,-0.056 0.894,-0.044 0.895,-0.022 0.894,0.004 0.895,0.033 0.894,0.055 0.895,0.067 0.895,0.066 0.895,0.053 0.894,0.029 0.895,-0.002 0.894,-0.034 0.895,-0.057 0.894,-0.071 0.895,-0.068 0.894,-0.052 0.895,-0.024 0.895,0.011 0.894,0.046 0.895,0.072 0.894,0.087 0.895,0.084 0.894,0.065 0.895,0.032 0.895,-0.007 0.895,-0.047 0.894,-0.077 0.895,-0.091 0.894,-0.087 0.895,-0.064 0.894,-0.025 0.895,0.021 0.894,0.066 0.895,0.1 0.895,0.116 0.894,0.11 0.895,0.082 0.894,0.037 0.895,-0.016 0.894,-0.067 0.895,-0.106 0.895,-0.123 0.895,-0.114 0.894,-0.08 0.895,-0.026 0.894,0.038 0.895,0.098 0.894,0.143 0.895,0.162 0.894,0.15 0.895,0.109 0.895,0.045 0.894,-0.03 0.895,-0.101 0.894,-0.153 0.895,-0.173 0.894,-0.157 0.895,-0.104 0.895,-0.025 0.895,0.068 0.894,0.154 0.895,0.216 0.894,0.241 0.895,0.22 0.894,0.156 0.895,0.058 0.895,-0.054 0.894,-0.16 0.895,-0.234 0.894,-0.261 0.895,-0.231 0.894,-0.146 0.895,-0.019 0.894,0.126 0.895,0.262 0.895,0.36 0.895,0.396 0.894,0.359 0.895,0.25 0.894,0.087 0.895,-0.1 0.894,-0.274 0.895,-0.397 0.895,-0.439 0.894,-0.381 0.895,-0.228 0.894,0.002 0.895,0.266 0.894,0.515 0.895,0.698 0.894,0.767 0.895,0.7 0.895,0.496 0.895,0.18 0.894,-0.189 0.895,-0.54 0.894,-0.797 0.895,-0.888 0.894,-0.77 0.895,-0.434 0.895,0.085 0.894,0.714 0.895,1.34 0.894,1.839 0.895,2.091 0.894,2.01 0.895,1.554 0.894,0.761 0.895,-0.266 0.895,-1.343 0.895,-2.239 0.894,-2.695 0.895,-2.469 0.894,-1.364 0.895,0.721 0.894,3.771 0.895,7.638 0.895,12.044 0.894,16.599 0.895,20.839 0.894,24.28 0.895,26.469 0.894,27.05 0.895,25.802 0.894,22.682 0.895,17.832 0.895,11.58 0.895,4.394 0.894,-3.146 0.895,-10.432 0.894,-16.877 0.895,-21.986 0.894,-25.411 0.895,-26.972 0.895,-26.686 0.894,-24.743 0.895,-21.481 0.894,-17.34 0.895,-12.805 0.894,-8.344 0.895,-4.365 0.894,-1.164 0.896,1.086 0.894,2.349 0.895,2.711 0.894,2.353 0.895,1.512 0.894,0.447 0.895,-0.602 0.894,-1.444 0.895,-1.959 0.895,-2.103 0.894,-1.901 0.895,-1.435 0.894,-0.821 0.895,-0.186 0.894,0.359 0.895,0.728 0.895,0.884 0.895,0.825 0.894,0.592 0.895,0.251 0.894,-0.121 0.895,-0.45 0.894,-0.674 0.895,-0.766 0.894,-0.718 0.895,-0.552 0.895,-0.31 0.894,-0.045 0.895,0.194 0.894,0.362 0.895,0.436 0.894,0.41 0.895,0.299 0.895,0.131 0.895,-0.057 0.894,-0.226 0.895,-0.344 0.894,-0.395 0.895,-0.371 0.894,-0.282 0.895,-0.151 0.894,-0.004 0.895,0.127 0.895,0.221 0.894,0.26 0.895,0.243 0.894,0.174 0.895,0.073 0.894,-0.039 0.895,-0.142 0.895,-0.212 0.895,-0.241 0.894,-0.224 0.895,-0.166 0.894,-0.083 0.895,0.01 0.894,0.093 0.895,0.15 0.894,0.173 0.895,0.158 0.895,0.112 0.894,0.042 0.895,-0.032 0.894,-0.1 0.895,-0.146 0.894,-0.162 0.895,-0.148 0.895,-0.107 0.895,-0.048 0.894,0.015 0.895,0.072 0.894,0.11 0.895,0.124 0.894,0.11 0.895,0.075 0.894,0.025 0.895,-0.028 0.895,-0.076 0.894,-0.107 0.895,-0.117 0.894,-0.104 0.895,-0.072 0.894,-0.029 0.895,0.018 0.895,0.058 0.895,0.085 0.894,0.091 0.895,0.081 0.894,0.052 0.895,0.015 0.894,-0.026 0.895,-0.06 0.894,-0.082 0.895,-0.088 0.895,-0.076 0.894,-0.051 0.895,-0.017 0.894,0.018 0.895,0.049 0.894,0.067 0.895,0.071 0.895,0.06 0.895,0.038 0.894,0.007 0.895,-0.023 0.894,-0.05 0.895,-0.065 0.894,-0.068 0.895,-0.057 0.894,-0.037 0.895,-0.01 0.895,0.018 0.894,0.041 0.895,0.055 0.894,0.056 0.895,0.047 0.894,0.028 0.895,0.002 0.895,-0.021 0.895,-0.042 0.894,-0.053 0.895,-0.054 0.894,-0.044 0.895,-0.027 0.894,-0.005 0.895,0.018 0.894,0.035 0.895,0.046 0.895,0.045 0.894,0.037 0.895,0.02 h 0.894 l 0.895,-0.021 0.894,-0.036 0.895,-0.044 0.895,-0.043 0.895,-0.035 0.894,-0.02 0.895,-0.001 0.894,0.017 0.895,0.031 0.894,0.038 0.895,0.037 0.894,0.029 0.895,0.015 0.895,-0.003 0.894,-0.018 0.895,-0.031 0.894,-0.038 0.895,-0.035 0.894,-0.028 0.895,-0.015 0.895,0.002 0.895,0.016 0.894,0.027 0.895,0.033 0.894,0.031 0.895,0.023 0.894,0.01 0.895,-0.003 0.894,-0.018 0.895,-0.027 0.895,-0.032 0.894,-0.03 0.895,-0.022 0.894,-0.011 0.895,0.003 0.895,0.016 0.894,0.024 0.895,0.028 0.895,0.026 0.894,0.019 0.895,0.007 0.894,-0.004 0.895,-0.017 0.894,-0.024 0.895,-0.027 0.895,-0.026 0.894,-0.017 0.895,-0.008 0.894,0.004 0.895,0.015 0.894,0.021 0.895,0.025 0.895,0.022 0.894,0.015 0.895,0.005 0.895,-0.006 0.894,-0.015 0.895,-0.022 0.894,-0.023 0.895,-0.022 0.894,-0.014 0.895,-0.005" /><path
       inkscape:connector-curvature="0"
       id="path92"
       style="fill:none;stroke:#d95319;stroke-width:1.97000003;stroke-linecap:butt;stroke-linejoin:round;stroke-miterlimit:10;stroke-dasharray:none;stroke-opacity:1"
       d="m 21.410849,111.44611 0.8941,0.003 0.8946,0.008 0.8953,0.012 0.8945,0.013 0.8945,0.012 0.8946,0.008 0.8945,0.003 0.8948,-0.003 0.894,-0.008 0.895,-0.012 0.895,-0.014 0.894,-0.012 0.895,-0.008 0.894,-0.002 0.895,0.004 0.894,0.01 0.895,0.013 0.894,0.015 0.895,0.013 0.895,0.008 0.894,0.003 0.895,-0.005 0.894,-0.009 0.895,-0.014 0.895,-0.015 0.894,-0.013 0.895,-0.008 0.895,-0.002 0.894,0.006 0.895,0.011 0.894,0.016 0.895,0.016 0.894,0.014 0.895,0.009 0.894,0.001 0.895,-0.005 0.895,-0.012 0.895,-0.016 0.894,-0.017 0.895,-0.013 0.894,-0.009 h 0.895 l 0.894,0.007 0.895,0.013 0.895,0.018 0.894,0.019 0.895,0.014 0.894,0.009 0.895,0.001 0.894,-0.007 0.895,-0.015 0.894,-0.018 0.895,-0.018 0.895,-0.015 0.895,-0.008 h 0.894 l 0.895,0.01 0.894,0.016 0.895,0.02 0.894,0.02 0.895,0.017 0.895,0.009 0.894,-10e-4 0.895,-0.009 0.894,-0.017 0.895,-0.021 0.894,-0.021 0.895,-0.016 0.894,-0.008 0.895,0.002 0.895,0.012 0.895,0.02 0.894,0.023 0.895,0.023 0.894,0.018 0.895,0.008 0.894,-0.002 0.895,-0.012 0.895,-0.02 0.894,-0.024 0.895,-0.023 0.894,-0.017 0.895,-0.008 0.894,0.004 0.895,0.015 0.894,0.023 0.895,0.028 0.895001,0.026 0.895,0.019 0.894,0.008 0.895,-0.003 0.894,-0.016 0.895,-0.025 0.894,-0.027 0.895,-0.026 0.895,-0.019 0.894,-0.007 0.895,0.006 0.894,0.019 0.895,0.029 0.894,0.031 0.895,0.03 0.894,0.021 0.895,0.008 0.895,-0.006 0.895,-0.02 0.894,-0.029 0.895,-0.033 0.894,-0.03 0.895,-0.02 0.894,-0.006 0.895,0.01 0.895,0.024 0.894,0.034 0.895,0.038 0.894,0.034 0.895,0.023 0.894,0.007 0.895,-0.009 0.894,-0.025 0.895,-0.036 0.895,-0.039 0.895,-0.034 0.894,-0.022 0.895,-0.004 0.894,0.014 0.895,0.031 0.894,0.042 0.895,0.045 0.895,0.039 0.894,0.025 0.895,0.007 0.894,-0.014 0.895,-0.032 0.894,-0.044 0.895,-0.047 0.894,-0.039 0.895,-0.024 0.895,-0.002 0.895,0.02 0.894,0.04 0.895,0.052 0.894,0.054 0.895,0.047 0.894,0.029 0.895,0.004 0.895,-0.02 0.894,-0.042 0.895,-0.054 0.894,-0.056 0.895,-0.047 0.894,-0.026 0.895,10e-4 0.894,0.029 0.896,0.052 0.894,0.066 0.895,0.068 0.894,0.055 0.895,0.033 0.894,0.002 0.895,-0.029 0.894,-0.055 0.895,-0.069 0.895,-0.07 0.894,-0.055 0.895,-0.029 0.894,0.006 0.895,0.041 0.894,0.07 0.895,0.086 0.895,0.085 0.895,0.069 0.894,0.037 0.895,-0.002 0.894,-0.042 0.895,-0.073 0.894,-0.09 0.895,-0.089 0.894,-0.068 0.895,-0.031 0.895,0.015 0.894,0.06 0.895,0.096 0.894,0.115 0.895,0.112 0.894,0.087 0.895,0.044 0.895,-0.009 0.895,-0.061 0.894,-0.101 0.895,-0.122 0.894,-0.117 0.895,-0.086 0.894,-0.034 0.895,0.029 0.894,0.09 0.895,0.138 0.895,0.161 0.894,0.154 0.895,0.116 0.894,0.055 0.895,-0.019 0.894,-0.092 0.895,-0.148 0.895,-0.172 0.895,-0.161 0.894,-0.113 0.895,-0.038 0.894,0.055 0.895,0.143 0.894,0.21 0.895,0.24 0.894,0.226 0.895,0.167 0.895,0.073 0.894,-0.039 0.895,-0.146 0.894,-0.226 0.895,-0.261 0.894,-0.239 0.895,-0.161 0.895,-0.038 0.895,0.106 0.894,0.245 0.895,0.35 0.894,0.395 0.895,0.368 0.894,0.269 0.895,0.112 0.895,-0.074 0.894,-0.252 0.895,-0.384 0.894,-0.439 0.895,-0.395 0.894,-0.254 0.895,-0.034 0.894,0.229 0.895,0.484 0.895,0.678 0.895,0.766 0.894,0.718 0.895,0.53 0.894,0.229 0.895,-0.136 0.894,-0.496 0.895,-0.77 0.895,-0.887 0.894,-0.8 0.895,-0.493 0.894,0.006 0.895,0.623 0.894,1.257 0.895,1.782 0.894,2.075 0.895,2.043 0.895,1.64 0.895,0.888 0.894,-0.116 0.895,-1.198 0.894,-2.135 0.895,-2.667 0.894,-2.549 0.895,-1.575 0.895,0.371 0.894,3.294 0.895,7.061 0.894,11.414 0.895,15.974 0.894,20.287 0.895,23.867 0.894,26.254 0.895,27.076 0.895,26.088 0.895,23.224 0.894,18.599 0.895,12.515 0.894,5.428 0.895,-2.1 0.894,-9.457 0.895,-16.052 0.895,-21.372 0.894,-25.044 0.895,-26.868 0.894,-26.831 0.895,-25.101 0.894,-21.997 0.895,-17.95 0.894,-13.441 0.895,-8.943 0.895,-4.877 0.895,-1.554 0.894,0.833 0.895,2.231 0.894,2.709 0.895,2.437 0.894,1.648 0.895,0.599 0.895,-0.465 0.894,-1.344 0.895,-1.91 0.894,-2.105 0.895,-1.947 0.894,-1.511 0.895,-0.911 0.894,-0.271 0.896,0.292 0.894,0.69 0.895,0.875 0.894,0.845 0.895,0.632 0.894,0.302 0.895,-0.07 0.894,-0.409 0.895,-0.651 0.895,-0.762 0.894,-0.732 0.895,-0.581 0.894,-0.346 0.895,-0.081 0.894,0.164 0.895,0.344 0.895,0.432 0.895,0.42 0.894,0.318 0.895,0.156 0.894,-0.031 0.895,-0.205 0.894,-0.332 0.895,-0.392 0.894,-0.379 0.895,-0.297 0.895,-0.17 0.894,-0.025 0.895,0.111 0.894,0.21 0.895,0.258 0.894,0.249 0.895,0.186 0.895,0.089 0.895,-0.025 0.894,-0.128 0.895,-0.205 0.894,-0.24 0.895,-0.228 0.894,-0.177 0.895,-0.095 0.894,-0.003 0.895,0.083 0.895,0.144 0.894,0.172 0.895,0.163 0.894,0.119 0.895,0.053 0.894,-0.022 0.895,-0.092 0.895,-0.141 0.895,-0.161 0.894,-0.152 0.895,-0.114 0.894,-0.057 0.895,0.007 0.894,0.065 0.895,0.106 0.894,0.123 0.895,0.113 0.895,0.081 0.894,0.033 0.895,-0.021 0.894,-0.07 0.895,-0.104 0.894,-0.116 0.895,-0.107 0.895,-0.078 0.895,-0.036 0.894,0.012 0.895,0.053 0.894,0.082 0.895,0.092 0.894,0.083 0.895,0.057 0.894,0.02 0.895,-0.02 0.895,-0.056 0.894,-0.08 0.895,-0.088 0.894,-0.078 0.895,-0.056 0.894,-0.022 0.895,0.014 0.895,0.045 0.895,0.065 0.894,0.071 0.895,0.063 0.894,0.041 0.895,0.012 0.894,-0.019 0.895,-0.046 0.894,-0.064 0.895,-0.069 0.895,-0.059 0.894,-0.04 0.895,-0.014 0.894,0.015 0.895,0.038 0.894,0.053 0.895,0.057 0.895,0.049 0.895,0.03 0.894,0.006 0.895,-0.018 0.894,-0.039 0.895,-0.052 0.894,-0.055 0.895,-0.046 0.894,-0.03 0.895,-0.008 0.895,0.015 0.894,0.034 0.895,0.044 0.894,0.046 0.895,0.038 0.894,0.023 0.895,0.003 0.895,-0.018 0.895,-0.034 0.894,-0.043 0.895,-0.045 0.894,-0.036 0.895,-0.022 0.894,-0.004 0.895,0.015 0.894,0.029 0.895,0.037 0.895,0.039 0.894,0.03 0.895,0.017 h 0.894 l 0.895,-0.017 0.894,-0.03 0.895,-0.036 0.895,-0.037 0.895,-0.029 0.894,-0.017 h 0.895 l 0.894,0.014 0.895,0.026 0.894,0.032 0.895,0.032 0.894,0.024 0.895,0.013 0.895,-0.002 0.894,-0.016 0.895,-0.026 0.894,-0.031 0.895,-0.031 0.894,-0.023 0.895,-0.013 0.895,0.001 0.895,0.014 0.894,0.023 0.895,0.028 0.894,0.027 0.895,0.02 0.894,0.009 0.895,-0.003 0.894,-0.015 0.895,-0.024 0.895,-0.027 0.894,-0.025 0.895,-0.019 0.894,-0.01 0.895,0.003 0.895,0.014 0.894,0.021 0.895,0.023 0.895,0.023 0.894,0.016 0.895,0.007 0.894,-0.004 0.895,-0.014 0.894,-0.021 0.895,-0.024 0.895,-0.022 0.894,-0.015 0.895,-0.007 0.894,0.004 0.895,0.013 0.894,0.019 0.895,0.021 0.895,0.019 0.894,0.013 0.895,0.005 0.895,-0.005 0.894,-0.013 0.895,-0.019 0.894,-0.021 0.895,-0.019 0.894,-0.013 0.895,-0.004" /><path
       inkscape:connector-curvature="0"
       id="path94"
       style="fill:none;stroke:#edb120;stroke-width:1.97000003;stroke-linecap:butt;stroke-linejoin:round;stroke-miterlimit:10;stroke-dasharray:none;stroke-opacity:1"
       d="m 21.410849,111.44611 0.8941,0.003 0.8946,0.009 0.8953,0.013 0.8945,0.015 0.8945,0.013 0.8946,0.009 0.8945,0.004 0.8948,-0.004 0.894,-0.009 0.895,-0.014 0.895,-0.014 0.894,-0.013 0.895,-0.009 0.894,-0.003 0.895,0.005 0.894,0.011 0.895,0.014 0.894,0.017 0.895,0.014 0.895,0.01 0.894,0.003 0.895,-0.005 0.894,-0.011 0.895,-0.016 0.895,-0.017 0.894,-0.014 0.895,-0.009 0.895,-0.002 0.894,0.006 0.895,0.013 0.894,0.018 0.895,0.018 0.894,0.016 0.895,0.009 0.894,0.002 0.895,-0.006 0.895,-0.014 0.895,-0.017 0.894,-0.019 0.895,-0.015 0.894,-0.01 h 0.895 l 0.894,0.008 0.895,0.015 0.895,0.02 0.894,0.021 0.895,0.017 0.894,0.01 0.895,10e-4 0.894,-0.009 0.895,-0.016 0.894,-0.02 0.895,-0.021 0.895,-0.017 0.895,-0.009 0.894,0.001 0.895,0.01 0.894,0.019 0.895,0.023 0.894,0.023 0.895,0.019 0.895,0.01 0.894,-0.001 0.895,-0.01 0.894,-0.02 0.895,-0.023 0.894,-0.024 0.895,-0.018 0.894,-0.01 0.895,0.003 0.895,0.014 0.895,0.022 0.894,0.027 0.895,0.026 0.894,0.02 0.895,0.01 0.894,-0.001 0.895,-0.014 0.895,-0.024 0.894,-0.027 0.895,-0.027 0.894,-0.02 0.895,-0.009 0.894,0.005 0.895,0.017 0.894,0.027 0.895,0.032 0.895001,0.03 0.895,0.023 0.894,0.009 0.895,-0.003 0.894,-0.019 0.895,-0.028 0.894,-0.033 0.895,-0.03 0.895,-0.022 0.894,-0.008 0.895,0.008 0.894,0.022 0.895,0.033 0.894,0.037 0.895,0.035 0.894,0.025 0.895,0.01 0.895,-0.007 0.895,-0.023 0.894,-0.035 0.895,-0.039 0.894,-0.035 0.895,-0.024 0.894,-0.007 0.895,0.012 0.895,0.028 0.894,0.041 0.895,0.045 0.894,0.041 0.895,0.028 0.894,0.009 0.895,-0.011 0.894,-0.03 0.895,-0.042 0.895,-0.047 0.895,-0.041 0.894,-0.027 0.895,-0.005 0.894,0.017 0.895,0.038 0.894,0.05 0.895,0.056 0.895,0.047 0.894,0.032 0.895,0.008 0.894,-0.017 0.895,-0.039 0.894,-0.053 0.895,-0.057 0.894,-0.048 0.895,-0.03 0.895,-0.003 0.895,0.025 0.894,0.05 0.895,0.065 0.894,0.068 0.895,0.057 0.894,0.037 0.895,0.006 0.895,-0.024 0.894,-0.052 0.895,-0.069 0.894,-0.07 0.895,-0.058 0.894,-0.033 0.895,0.001 0.894,0.036 0.896,0.067 0.894,0.085 0.895,0.086 0.894,0.072 0.895,0.042 0.894,0.004 0.895,-0.037 0.894,-0.069 0.895,-0.089 0.895,-0.091 0.894,-0.072 0.895,-0.036 0.894,0.008 0.895,0.054 0.894,0.092 0.895,0.113 0.895,0.114 0.895,0.092 0.894,0.051 0.895,-0.001 0.894,-0.054 0.895,-0.097 0.894,-0.121 0.895,-0.119 0.894,-0.092 0.895,-0.042 0.895,0.02 0.894,0.082 0.895,0.133 0.894,0.159 0.895,0.157 0.894,0.124 0.895,0.064 0.895,-0.009 0.895,-0.083 0.894,-0.141 0.895,-0.171 0.894,-0.165 0.895,-0.122 0.894,-0.049 0.895,0.042 0.894,0.131 0.895,0.202 0.895,0.239 0.894,0.231 0.895,0.178 0.894,0.087 0.895,-0.023 0.894,-0.132 0.895,-0.218 0.895,-0.259 0.895,-0.246 0.894,-0.174 0.895,-0.058 0.894,0.086 0.895,0.228 0.894,0.338 0.895,0.393 0.894,0.376 0.895,0.286 0.895,0.137 0.894,-0.048 0.895,-0.229 0.894,-0.37 0.895,-0.436 0.894,-0.408 0.895,-0.279 0.895,-0.068 0.895,0.192 0.894,0.451 0.895,0.657 0.894,0.761 0.895,0.733 0.894,0.565 0.895,0.276 0.895,-0.085 0.894,-0.449 0.895,-0.739 0.894,-0.883 0.895,-0.825 0.894,-0.548 0.895,-0.074 0.894,0.535 0.895,1.173 0.895,1.72 0.895,2.052 0.894,2.069 0.895,1.718 0.894,1.01 0.895,0.034 0.894,-1.051 0.895,-2.023 0.895,-2.628 0.894,-2.612 0.895,-1.767 0.894,0.041 0.895,2.833 0.894,6.496 0.895,10.787 0.894,15.344 0.895,19.721 0.895,23.431 0.895,26.01 0.894,27.066 0.895,26.338 0.894,23.731 0.895,19.338 0.894,13.432 0.895,6.452 0.895,-1.051 0.894,-8.469 0.895,-15.201 0.894,-20.725 0.895,-24.642 0.894,-26.728 0.895,-26.943 0.894,-25.431 0.895,-22.495 0.895,-18.551 0.895,-14.077 0.894,-9.551 0.895,-5.403 0.894,-1.962 0.895,0.561 0.894,2.094 0.895,2.693 0.895,2.511 0.894,1.778 0.895,0.751 0.894,-0.324 0.895,-1.238 0.894,-1.853 0.895,-2.1 0.894,-1.989 0.895,-1.584 0.895,-0.999 0.895,-0.358 0.894,0.222 0.895,0.647 0.894,0.863 0.895,0.861 0.894,0.671 0.895,0.352 0.895,-0.019 0.894,-0.367 0.895,-0.625 0.894,-0.755 0.895,-0.744 0.894,-0.608 0.895,-0.382 0.894,-0.118 0.896,0.133 0.894,0.324 0.895,0.426 0.894,0.427 0.895,0.337 0.894,0.182 0.895,-0.005 0.894,-0.183 0.895,-0.318 0.895,-0.389 0.894,-0.384 0.895,-0.312 0.894,-0.19 0.895,-0.045 0.894,0.093 0.895,0.2 0.895,0.255 0.895,0.253 0.894,0.197 0.895,0.104 0.894,-0.008 0.895,-0.116 0.894,-0.196 0.895,-0.238 0.894,-0.233 0.895,-0.186 0.895,-0.107 0.894,-0.016 0.895,0.072 0.894,0.137 0.895,0.171 0.894,0.166 0.895,0.127 0.895,0.063 0.895,-0.012 0.894,-0.083 0.895,-0.135 0.894,-0.161 0.895,-0.155 0.894,-0.12 0.895,-0.066 0.894,-0.002 0.895,0.058 0.895,0.101 0.894,0.122 0.895,0.117 0.894,0.087 0.895,0.04 0.894,-0.015 0.895,-0.063 0.895,-0.1 0.895,-0.116 0.894,-0.11 0.895,-0.083 0.894,-0.041 0.895,0.005 0.894,0.048 0.895,0.078 0.894,0.092 0.895,0.086 0.895,0.061 0.894,0.026 0.895,-0.015 0.894,-0.052 0.895,-0.077 0.894,-0.088 0.895,-0.081 0.895,-0.059 0.895,-0.027 0.894,0.009 0.895,0.041 0.894,0.063 0.895,0.071 0.894,0.065 0.895,0.045 0.894,0.016 0.895,-0.015 0.895,-0.043 0.894,-0.062 0.895,-0.069 0.894,-0.061 0.895,-0.044 0.894,-0.017 0.895,0.011 0.895,0.035 0.895,0.053 0.894,0.056 0.895,0.051 0.894,0.033 0.895,0.01 0.894,-0.015 0.895,-0.037 0.894,-0.051 0.895,-0.055 0.895,-0.048 0.894,-0.032 0.895,-0.011 0.894,0.012 0.895,0.031 0.894,0.043 0.895,0.047 0.895,0.04 0.895,0.025 0.894,0.006 0.895,-0.015 0.894,-0.032 0.895,-0.043 0.894,-0.045 0.895,-0.038 0.894,-0.024 0.895,-0.007 0.895,0.013 0.894,0.027 0.895,0.037 0.894,0.039 0.895,0.031 0.894,0.019 0.895,0.003 0.895,-0.014 0.895,-0.029 0.894,-0.036 0.895,-0.037 0.894,-0.031 0.895,-0.018 0.894,-0.003 0.895,0.012 0.894,0.025 0.895,0.032 0.895,0.032 0.894,0.026 0.895,0.014 h 0.894 l 0.895,-0.014 0.894,-0.025 0.895,-0.031 0.895,-0.031 0.895,-0.025 0.894,-0.014 0.895,-0.001 0.894,0.013 0.895,0.022 0.894,0.027 0.895,0.028 0.894,0.021 0.895,0.01 0.895,-0.001 0.894,-0.013 0.895,-0.023 0.894,-0.027 0.895,-0.026 0.894,-0.02 0.895,-0.011 0.895,0.001 0.895,0.012 0.894,0.02 0.895,0.025 0.894,0.022 0.895,0.018 0.894,0.008 0.895,-0.003 0.894,-0.013 0.895,-0.02 0.895,-0.024 0.894,-0.022 0.895,-0.017 0.894,-0.008 0.895,0.003 0.895,0.011 0.894,0.019 0.895,0.021 0.895,0.02 0.894,0.014 0.895,0.006 0.894,-0.004 0.895,-0.012 0.894,-0.019 0.895,-0.021 0.895,-0.019 0.894,-0.013 0.895,-0.006 0.894,0.003 0.895,0.012 0.894,0.016 0.895,0.019 0.895,0.017 0.894,0.012 0.895,0.003 0.895,-0.003 0.894,-0.012 0.895,-0.017 0.894,-0.018 0.895,-0.017 0.894,-0.011 0.895,-0.004" /><path
       inkscape:connector-curvature="0"
       id="path96"
       style="fill:none;stroke:#7e2f8e;stroke-width:1.97000003;stroke-linecap:butt;stroke-linejoin:round;stroke-miterlimit:10;stroke-dasharray:none;stroke-opacity:1"
       d="m 21.410849,111.44611 0.8941,0.004 0.8946,0.01 0.8953,0.014 0.8945,0.016 0.8945,0.015 0.8946,0.011 0.8945,0.004 0.8948,-0.004 0.894,-0.011 0.895,-0.015 0.895,-0.016 0.894,-0.015 0.895,-0.01 0.894,-0.003 0.895,0.005 0.894,0.012 0.895,0.017 0.894,0.019 0.895,0.016 0.895,0.01 0.894,0.003 0.895,-0.004 0.894,-0.013 0.895,-0.018 0.895,-0.018 0.894,-0.016 0.895,-0.011 0.895,-0.002 0.894,0.007 0.895,0.015 0.894,0.019 0.895,0.021 0.894,0.018 0.895,0.011 0.894,0.002 0.895,-0.007 0.895,-0.015 0.895,-0.02 0.894,-0.021 0.895,-0.018 0.894,-0.01 0.895,-0.001 0.894,0.009 0.895,0.018 0.895,0.023 0.894,0.023 0.895,0.02 0.894,0.011 0.895,0.001 0.894,-0.009 0.895,-0.018 0.894,-0.024 0.895,-0.024 0.895,-0.019 0.895,-0.011 0.894,0.001 0.895,0.012 0.894,0.022 0.895,0.026 0.894,0.027 0.895,0.021 0.895,0.012 0.894,-0.001 0.895,-0.012 0.894,-0.022 0.895,-0.028 0.894,-0.027 0.895,-0.021 0.894,-0.01 0.895,0.002 0.895,0.016 0.895,0.026 0.894,0.032 0.895,0.03 0.894,0.024 0.895,0.012 0.894,-0.002 0.895,-0.017 0.895,-0.026 0.894,-0.033 0.895,-0.031 0.894,-0.023 0.895,-0.011 0.894,0.006 0.895,0.02 0.894,0.032 0.895,0.038 0.895001,0.035 0.895,0.027 0.894,0.012 0.895,-0.005 0.894,-0.022 0.895,-0.033 0.894,-0.038 0.895,-0.036 0.895,-0.026 0.894,-0.01 0.895,0.009 0.894,0.027 0.895,0.039 0.894,0.045 0.895,0.042 0.894,0.03 0.895,0.012 0.895,-0.008 0.895,-0.028 0.894,-0.041 0.895,-0.047 0.894,-0.042 0.895,-0.029 0.894,-0.009 0.895,0.014 0.895,0.035 0.894,0.05 0.895,0.055 0.894,0.05 0.895,0.034 0.894,0.011 0.895,-0.013 0.894,-0.036 0.895,-0.052 0.895,-0.057 0.895,-0.051 0.894,-0.032 0.895,-0.007 0.894,0.021 0.895,0.047 0.894,0.063 0.895,0.069 0.895,0.06 0.894,0.039 0.895,0.011 0.894,-0.021 0.895,-0.048 0.894,-0.066 0.895,-0.072 0.894,-0.061 0.895,-0.036 0.895,-0.004 0.895,0.032 0.894,0.063 0.895,0.083 0.894,0.087 0.895,0.075 0.894,0.047 0.895,0.009 0.895,-0.031 0.894,-0.066 0.895,-0.088 0.894,-0.091 0.895,-0.075 0.894,-0.043 0.895,0.002 0.894,0.048 0.896,0.087 0.894,0.112 0.895,0.115 0.894,0.096 0.895,0.058 0.894,0.006 0.895,-0.047 0.894,-0.092 0.895,-0.119 0.895,-0.121 0.894,-0.096 0.895,-0.05 0.894,0.011 0.895,0.073 0.894,0.127 0.895,0.158 0.895,0.159 0.895,0.13 0.894,0.073 0.895,0.002 0.894,-0.074 0.895,-0.134 0.894,-0.169 0.895,-0.168 0.894,-0.13 0.895,-0.06 0.895,0.028 0.894,0.12 0.895,0.194 0.894,0.236 0.895,0.235 0.894,0.188 0.895,0.101 0.895,-0.007 0.895,-0.118 0.894,-0.208 0.895,-0.256 0.894,-0.251 0.895,-0.188 0.894,-0.076 0.895,0.066 0.894,0.208 0.895,0.326 0.895,0.389 0.894,0.383 0.895,0.304 0.894,0.159 0.895,-0.021 0.894,-0.205 0.895,-0.354 0.895,-0.433 0.895,-0.418 0.894,-0.302 0.895,-0.101 0.894,0.155 0.895,0.417 0.894,0.632 0.895,0.754 0.894,0.746 0.895,0.596 0.895,0.322 0.894,-0.033 0.895,-0.401 0.894,-0.706 0.895,-0.874 0.894,-0.846 0.895,-0.6 0.895,-0.148 0.895,0.445 0.894,1.087 0.895,1.654 0.894,2.023 0.895,2.088 0.894,1.789 0.895,1.128 0.895,0.18 0.894,-0.902 0.895,-1.904 0.894,-2.575 0.895,-2.66 0.894,-1.94 0.895,-0.269 0.894,2.388 0.895,5.943 0.895,10.166 0.895,14.712 0.894,19.141 0.895,22.974 0.894,25.734 0.895,27.022 0.894,26.551 0.895,24.205 0.895,20.046 0.894,14.328 0.895,7.466 h 0.894 l 0.895,-7.466 0.894,-14.328 0.895,-20.046 0.894,-24.205 0.895,-26.551 0.895,-27.022 0.895,-25.734 0.894,-22.974 0.895,-19.141 0.894,-14.712 0.895,-10.166 0.894,-5.943 0.895,-2.388 0.895,0.269 0.894,1.94 0.895,2.66 0.894,2.575 0.895,1.904 0.894,0.902 0.895,-0.18 0.894,-1.128 0.895,-1.789 0.895,-2.088 0.895,-2.023 0.894,-1.654 0.895,-1.087 0.894,-0.445 0.895,0.148 0.894,0.6 0.895,0.846 0.895,0.874 0.894,0.706 0.895,0.401 0.894,0.033 0.895,-0.322 0.894,-0.596 0.895,-0.746 0.894,-0.754 0.895,-0.632 0.895,-0.417 0.895,-0.155 0.894,0.101 0.895,0.302 0.894,0.418 0.895,0.433 0.894,0.354 0.895,0.205 0.895,0.021 0.894,-0.159 0.895,-0.304 0.894,-0.383 0.895,-0.389 0.894,-0.326 0.895,-0.208 0.894,-0.066 0.896,0.076 0.894,0.188 0.895,0.251 0.894,0.256 0.895,0.208 0.894,0.118 0.895,0.007 0.894,-0.101 0.895,-0.188 0.895,-0.235 0.894,-0.236 0.895,-0.194 0.894,-0.12 0.895,-0.028 0.894,0.06 0.895,0.13 0.895,0.168 0.895,0.169 0.894,0.134 0.895,0.074 0.894,-0.002 0.895,-0.073 0.894,-0.13 0.895,-0.159 0.894,-0.158 0.895,-0.127 0.895,-0.073 0.894,-0.011 0.895,0.05 0.894,0.096 0.895,0.121 0.894,0.119 0.895,0.092 0.895,0.047 0.895,-0.006 0.894,-0.058 0.895,-0.096 0.894,-0.115 0.895,-0.112 0.894,-0.087 0.895,-0.048 0.894,-0.002 0.895,0.043 0.895,0.075 0.894,0.091 0.895,0.088 0.894,0.066 0.895,0.031 0.894,-0.009 0.895,-0.047 0.895,-0.075 0.895,-0.087 0.894,-0.083 0.895,-0.063 0.894,-0.032 0.895,0.004 0.894,0.036 0.895,0.061 0.894,0.072 0.895,0.066 0.895,0.048 0.894,0.021 0.895,-0.011 0.894,-0.039 0.895,-0.06 0.894,-0.069 0.895,-0.063 0.895,-0.047 0.895,-0.021 0.894,0.007 0.895,0.032 0.894,0.051 0.895,0.057 0.894,0.052 0.895,0.036 0.894,0.013 0.895,-0.011 0.895,-0.034 0.894,-0.05 0.895,-0.055 0.894,-0.05 0.895,-0.035 0.894,-0.014 0.895,0.009 0.895,0.029 0.895,0.042 0.894,0.047 0.895,0.041 0.894,0.028 0.895,0.008 0.894,-0.012 0.895,-0.03 0.894,-0.042 0.895,-0.045 0.895,-0.039 0.894,-0.027 0.895,-0.009 0.894,0.01 0.895,0.026 0.894,0.036 0.895,0.038 0.895,0.033 0.895,0.022 0.894,0.005 0.895,-0.012 0.894,-0.027 0.895,-0.035 0.894,-0.038 0.895,-0.032 0.894,-0.02 0.895,-0.006 0.895,0.011 0.894,0.023 0.895,0.031 0.894,0.033 0.895,0.026 0.894,0.017 0.895,0.002 0.895,-0.012 0.895,-0.024 0.894,-0.03 0.895,-0.032 0.894,-0.026 0.895,-0.016 0.894,-0.002 0.895,0.01 0.894,0.021 0.895,0.027 0.895,0.028 0.894,0.022 0.895,0.012 0.894,0.001 0.895,-0.012 0.894,-0.021 0.895,-0.027 0.895,-0.026 0.895,-0.022 0.894,-0.012 0.895,-0.001 0.894,0.011 0.895,0.019 0.894,0.024 0.895,0.024 0.894,0.018 0.895,0.009 0.895,-0.001 0.894,-0.011 0.895,-0.02 0.894,-0.023 0.895,-0.023 0.894,-0.018 0.895,-0.009 0.895,0.001 0.895,0.01 0.894,0.018 0.895,0.021 0.894,0.02 0.895,0.015 0.894,0.007 0.895,-0.002 0.894,-0.011 0.895,-0.018 0.895,-0.021 0.894,-0.019 0.895,-0.015 0.894,-0.007 0.895,0.002 0.895,0.011 0.894,0.016 0.895,0.018 0.895,0.018 0.894,0.013 0.895,0.004 0.894,-0.003 0.895,-0.01 0.894,-0.016 0.895,-0.019 0.895,-0.017 0.894,-0.012 0.895,-0.005 0.894,0.003 0.895,0.01 0.894,0.015 0.895,0.016 0.895,0.015 0.894,0.011 0.895,0.004 0.895,-0.004 0.894,-0.011 0.895,-0.015 0.894,-0.016 0.895,-0.014 0.894,-0.01 0.895,-0.004" /><path
       inkscape:connector-curvature="0"
       id="path98"
       style="fill:none;stroke:#77ac30;stroke-width:1.97000003;stroke-linecap:butt;stroke-linejoin:round;stroke-miterlimit:10;stroke-dasharray:none;stroke-opacity:1"
       d="m 21.410849,111.44611 0.8941,0.004 0.8946,0.011 0.8953,0.017 0.8945,0.018 0.8945,0.017 0.8946,0.012 0.8945,0.003 0.8948,-0.003 0.894,-0.012 0.895,-0.017 0.895,-0.019 0.894,-0.016 0.895,-0.012 0.894,-0.003 0.895,0.006 0.894,0.013 0.895,0.019 0.894,0.021 0.895,0.019 0.895,0.012 0.894,0.004 0.895,-0.006 0.894,-0.014 0.895,-0.02 0.895,-0.021 0.894,-0.019 0.895,-0.011 0.895,-0.003 0.894,0.008 0.895,0.017 0.894,0.022 0.895,0.024 0.894,0.02 0.895,0.013 0.894,0.003 0.895,-0.008 0.895,-0.018 0.895,-0.022 0.894,-0.025 0.895,-0.02 0.894,-0.012 0.895,-0.001 0.894,0.011 0.895,0.02 0.895,0.026 0.894,0.027 0.895,0.023 0.894,0.013 0.895,0.001 0.894,-0.01 0.895,-0.021 0.894,-0.028 0.895,-0.027 0.895,-0.022 0.895,-0.013 0.894,0.001 0.895,0.014 0.894,0.025 0.895,0.031 0.894,0.031 0.895,0.025 0.895,0.014 h 0.894 l 0.895,-0.014 0.894,-0.026 0.895,-0.032 0.894,-0.032 0.895,-0.025 0.894,-0.012 0.895,0.003 0.895,0.018 0.895,0.031 0.894,0.037 0.895,0.036 0.894,0.029 0.895,0.014 0.894,-0.003 0.895,-0.019 0.895,-0.031 0.894,-0.039 0.895,-0.037 0.894,-0.027 0.895,-0.013 0.894,0.007 0.895,0.024 0.894,0.038 0.895,0.045 0.895001,0.043 0.895,0.032 0.894,0.015 0.895,-0.006 0.894,-0.025 0.895,-0.04 0.894,-0.047 0.895,-0.043 0.895,-0.031 0.894,-0.012 0.895,0.011 0.894,0.032 0.895,0.048 0.894,0.055 0.895,0.051 0.894,0.037 0.895,0.015 0.895,-0.01 0.895,-0.033 0.894,-0.051 0.895,-0.056 0.894,-0.053 0.895,-0.035 0.894,-0.011 0.895,0.017 0.895,0.044 0.894,0.061 0.895,0.069 0.894,0.062 0.895,0.043 0.894,0.015 0.895,-0.016 0.894,-0.045 0.895,-0.065 0.895,-0.071 0.895,-0.063 0.894,-0.041 0.895,-0.009 0.894,0.027 0.895,0.059 0.894,0.081 0.895,0.088 0.895,0.077 0.894,0.052 0.895,0.015 0.894,-0.026 0.895,-0.061 0.894,-0.086 0.895,-0.092 0.894,-0.078 0.895,-0.048 0.895,-0.005 0.895,0.041 0.894,0.083 0.895,0.11 0.894,0.116 0.895,0.1 0.894,0.063 0.895,0.015 0.895,-0.04 0.894,-0.087 0.895,-0.117 0.894,-0.122 0.895,-0.101 0.894,-0.058 0.895,0.002 0.894,0.066 0.896,0.12 0.894,0.155 0.895,0.161 0.894,0.135 0.895,0.083 0.894,0.012 0.895,-0.063 0.894,-0.127 0.895,-0.166 0.895,-0.171 0.894,-0.137 0.895,-0.072 0.894,0.016 0.895,0.107 0.894,0.186 0.895,0.233 0.895,0.238 0.895,0.196 0.894,0.116 0.895,0.008 0.894,-0.104 0.895,-0.197 0.894,-0.253 0.895,-0.255 0.894,-0.2 0.895,-0.093 0.895,0.045 0.894,0.19 0.895,0.312 0.894,0.384 0.895,0.389 0.894,0.318 0.895,0.183 0.895,0.005 0.895,-0.182 0.894,-0.337 0.895,-0.427 0.894,-0.426 0.895,-0.324 0.894,-0.133 0.895,0.118 0.894,0.382 0.895,0.608 0.895,0.744 0.894,0.755 0.895,0.625 0.894,0.367 0.895,0.019 0.894,-0.352 0.895,-0.671 0.895,-0.861 0.895,-0.863 0.894,-0.647 0.895,-0.222 0.894,0.358 0.895,0.999 0.894,1.584 0.895,1.989 0.894,2.1 0.895,1.853 0.895,1.238 0.894,0.324 0.895,-0.751 0.894,-1.778 0.895,-2.511 0.894,-2.693 0.895,-2.094 0.895,-0.561 0.895,1.962 0.894,5.403 0.895,9.551 0.894,14.077 0.895,18.551 0.894,22.495 0.895,25.431 0.895,26.943 0.894,26.728 0.895,24.642 0.894,20.725 0.895,15.201 0.894,8.469 0.895,1.051 0.894,-6.452 0.895,-13.432 0.895,-19.338 0.895,-23.731 0.894,-26.338 0.895,-27.066 0.894,-26.01 0.895,-23.431 0.894,-19.721 0.895,-15.344 0.895,-10.787 0.894,-6.496 0.895,-2.833 0.894,-0.041 0.895,1.767 0.894,2.612 0.895,2.628 0.894,2.023 0.895,1.051 0.895,-0.034 0.895,-1.01 0.894,-1.718 0.895,-2.069 0.894,-2.052 0.895,-1.72 0.894,-1.173 0.895,-0.535 0.895,0.074 0.894,0.548 0.895,0.825 0.894,0.883 0.895,0.739 0.894,0.449 0.895,0.085 0.894,-0.276 0.895,-0.565 0.895,-0.733 0.895,-0.761 0.894,-0.657 0.895,-0.451 0.894,-0.192 0.895,0.068 0.894,0.279 0.895,0.408 0.895,0.436 0.894,0.37 0.895,0.229 0.894,0.048 0.895,-0.137 0.894,-0.286 0.895,-0.376 0.894,-0.393 0.895,-0.338 0.895,-0.228 0.895,-0.086 0.894,0.058 0.895,0.174 0.894,0.246 0.895,0.259 0.894,0.218 0.895,0.132 0.895,0.023 0.894,-0.087 0.895,-0.178 0.894,-0.231 0.895,-0.239 0.894,-0.202 0.895,-0.131 0.894,-0.042 0.896,0.049 0.894,0.122 0.895,0.165 0.894,0.171 0.895,0.141 0.894,0.083 0.895,0.009 0.894,-0.064 0.895,-0.124 0.895,-0.157 0.894,-0.159 0.895,-0.133 0.894,-0.082 0.895,-0.02 0.894,0.042 0.895,0.092 0.895,0.119 0.895,0.121 0.894,0.097 0.895,0.054 0.894,0.001 0.895,-0.051 0.894,-0.092 0.895,-0.114 0.894,-0.113 0.895,-0.092 0.895,-0.054 0.894,-0.008 0.895,0.036 0.894,0.072 0.895,0.091 0.894,0.089 0.895,0.069 0.895,0.037 0.895,-0.004 0.894,-0.042 0.895,-0.072 0.894,-0.086 0.895,-0.085 0.894,-0.067 0.895,-0.036 0.894,-0.001 0.895,0.033 0.895,0.058 0.894,0.07 0.895,0.069 0.894,0.052 0.895,0.024 0.894,-0.006 0.895,-0.037 0.895,-0.057 0.895,-0.068 0.894,-0.065 0.895,-0.05 0.894,-0.025 0.895,0.003 0.894,0.03 0.895,0.048 0.894,0.057 0.895,0.053 0.895,0.039 0.894,0.017 0.895,-0.008 0.894,-0.032 0.895,-0.047 0.894,-0.056 0.895,-0.05 0.895,-0.038 0.895,-0.017 0.894,0.005 0.895,0.027 0.894,0.041 0.895,0.047 0.894,0.042 0.895,0.03 0.894,0.011 0.895,-0.009 0.895,-0.028 0.894,-0.041 0.895,-0.045 0.894,-0.041 0.895,-0.028 0.894,-0.012 0.895,0.007 0.895,0.024 0.895,0.035 0.894,0.039 0.895,0.035 0.894,0.023 0.895,0.007 0.894,-0.01 0.895,-0.025 0.894,-0.035 0.895,-0.037 0.895,-0.033 0.894,-0.022 0.895,-0.008 0.894,0.008 0.895,0.022 0.894,0.03 0.895,0.033 0.895,0.028 0.895,0.019 0.894,0.003 0.895,-0.009 0.894,-0.023 0.895,-0.03 0.894,-0.032 0.895,-0.027 0.894,-0.017 0.895,-0.005 0.895,0.009 0.894,0.02 0.895,0.027 0.894,0.027 0.895,0.024 0.894,0.014 0.895,0.001 0.895,-0.01 0.895,-0.02 0.894,-0.026 0.895,-0.027 0.894,-0.022 0.895,-0.014 0.894,-0.003 0.895,0.01 0.894,0.018 0.895,0.024 0.895,0.023 0.894,0.02 0.895,0.01 0.894,0.001 0.895,-0.01 0.894,-0.019 0.895,-0.023 0.895,-0.023 0.895,-0.019 0.894,-0.01 0.895,-0.001 0.894,0.009 0.895,0.017 0.894,0.021 0.895,0.02 0.894,0.016 0.895,0.009 0.895,-10e-4 0.894,-0.01 0.895,-0.017 0.894,-0.021 0.895,-0.02 0.894,-0.015 0.895,-0.008 h 0.895 l 0.895,0.01 0.894,0.015 0.895,0.019 0.894,0.017 0.895,0.014 0.894,0.006 0.895,-0.002 0.894,-0.009 0.895,-0.016 0.895,-0.018 0.894,-0.018 0.895,-0.013 0.894,-0.006 0.895,0.002 0.895,0.009 0.894,0.014 0.895,0.017 0.895,0.016 0.894,0.011 0.895,0.005 0.894,-0.003 0.895,-0.01 0.894,-0.014 0.895,-0.017 0.895,-0.014 0.894,-0.011 0.895,-0.005 0.894,0.003 0.895,0.009 0.894,0.013 0.895,0.014 0.895,0.014 0.894,0.009 0.895,0.004 0.895,-0.004 0.894,-0.009 0.895,-0.013 0.894,-0.015 0.895,-0.013 0.894,-0.009 0.895,-0.003" /><path
       inkscape:connector-curvature="0"
       id="path100"
       style="fill:none;stroke:#4dbeee;stroke-width:1.97000003;stroke-linecap:butt;stroke-linejoin:round;stroke-miterlimit:10;stroke-dasharray:none;stroke-opacity:1"
       d="m 21.410849,111.44611 0.8941,0.004 0.8946,0.013 0.8953,0.019 0.8945,0.021 0.8945,0.019 0.8946,0.013 0.8945,0.005 0.8948,-0.005 0.894,-0.013 0.895,-0.019 0.895,-0.021 0.894,-0.019 0.895,-0.013 0.894,-0.004 0.895,0.007 0.894,0.015 0.895,0.022 0.894,0.024 0.895,0.021 0.895,0.014 0.894,0.004 0.895,-0.007 0.894,-0.016 0.895,-0.023 0.895,-0.023 0.894,-0.021 0.895,-0.014 0.895,-0.003 0.894,0.01 0.895,0.019 0.894,0.025 0.895,0.027 0.894,0.024 0.895,0.015 0.894,0.003 0.895,-0.009 0.895,-0.02 0.895,-0.027 0.894,-0.028 0.895,-0.023 0.894,-0.014 0.895,-0.001 0.894,0.013 0.895,0.023 0.895,0.031 0.894,0.031 0.895,0.026 0.894,0.016 0.895,0.002 0.894,-0.013 0.895,-0.024 0.894,-0.032 0.895,-0.032 0.895,-0.026 0.895,-0.014 h 0.894 l 0.895,0.017 0.894,0.029 0.895,0.037 0.894,0.036 0.895,0.03 0.895,0.017 h 0.894 l 0.895,-0.017 0.894,-0.03 0.895,-0.039 0.894,-0.037 0.895,-0.029 0.894,-0.015 0.895,0.004 0.895,0.022 0.895,0.036 0.894,0.045 0.895,0.043 0.894,0.034 0.895,0.018 0.894,-0.003 0.895,-0.023 0.895,-0.038 0.894,-0.046 0.895,-0.044 0.894,-0.034 0.895,-0.015 0.894,0.008 0.895,0.03 0.894,0.046 0.895,0.055 0.895001,0.052 0.895,0.039 0.894,0.018 0.895,-0.006 0.894,-0.03 0.895,-0.049 0.894,-0.057 0.895,-0.053 0.895,-0.038 0.894,-0.015 0.895,0.014 0.894,0.04 0.895,0.059 0.894,0.069 0.895,0.064 0.894,0.046 0.895,0.019 0.895,-0.012 0.895,-0.041 0.894,-0.063 0.895,-0.071 0.894,-0.065 0.895,-0.045 0.894,-0.014 0.895,0.022 0.895,0.056 0.894,0.078 0.895,0.088 0.894,0.08 0.895,0.056 0.894,0.02 0.895,-0.02 0.894,-0.057 0.895,-0.083 0.895,-0.092 0.895,-0.082 0.894,-0.053 0.895,-0.012 0.894,0.036 0.895,0.078 0.894,0.107 0.895,0.116 0.895,0.104 0.894,0.07 0.895,0.021 0.894,-0.033 0.895,-0.081 0.894,-0.113 0.895,-0.123 0.894,-0.106 0.895,-0.065 0.895,-0.007 0.895,0.057 0.894,0.114 0.895,0.152 0.894,0.161 0.895,0.141 0.894,0.092 0.895,0.022 0.895,-0.053 0.894,-0.119 0.895,-0.163 0.894,-0.172 0.895,-0.144 0.894,-0.083 0.895,0.003 0.894,0.095 0.896,0.177 0.894,0.228 0.895,0.24 0.894,0.205 0.895,0.128 0.894,0.025 0.895,-0.089 0.894,-0.186 0.895,-0.249 0.895,-0.258 0.894,-0.21 0.895,-0.111 0.894,0.025 0.895,0.17 0.894,0.297 0.895,0.379 0.895,0.392 0.895,0.332 0.894,0.205 0.895,0.031 0.894,-0.156 0.895,-0.318 0.894,-0.42 0.895,-0.432 0.894,-0.344 0.895,-0.164 0.895,0.081 0.894,0.346 0.895,0.581 0.894,0.732 0.895,0.762 0.894,0.651 0.895,0.409 0.895,0.07 0.895,-0.302 0.894,-0.632 0.895,-0.845 0.894,-0.875 0.895,-0.69 0.894,-0.292 0.895,0.271 0.894,0.911 0.895,1.511 0.895,1.947 0.894,2.105 0.895,1.91 0.894,1.344 0.895,0.465 0.894,-0.599 0.895,-1.648 0.895,-2.437 0.895,-2.709 0.894,-2.231 0.895,-0.833 0.894,1.554 0.895,4.877 0.894,8.943 0.895,13.441 0.894,17.95 0.895,21.997 0.895,25.101 0.894,26.831 0.895,26.868 0.894,25.044 0.895,21.372 0.894,16.052 0.895,9.457 0.895,2.1 0.895,-5.428 0.894,-12.515 0.895,-18.599 0.894,-23.224 0.895,-26.088 0.894,-27.076 0.895,-26.254 0.895,-23.867 0.894,-20.287 0.895,-15.974 0.894,-11.414 0.895,-7.061 0.894,-3.294 0.895,-0.371 0.894,1.575 0.895,2.549 0.895,2.667 0.895,2.135 0.894,1.198 0.895,0.116 0.894,-0.888 0.895,-1.64 0.894,-2.043 0.895,-2.075 0.895,-1.782 0.894,-1.257 0.895,-0.623 0.894,-0.006 0.895,0.493 0.894,0.8 0.895,0.887 0.894,0.77 0.895,0.496 0.895,0.136 0.895,-0.229 0.894,-0.53 0.895,-0.718 0.894,-0.766 0.895,-0.678 0.894,-0.484 0.895,-0.229 0.895,0.034 0.894,0.254 0.895,0.395 0.894,0.439 0.895,0.384 0.894,0.252 0.895,0.074 0.894,-0.112 0.895,-0.269 0.895,-0.368 0.895,-0.395 0.894,-0.35 0.895,-0.245 0.894,-0.106 0.895,0.038 0.894,0.161 0.895,0.239 0.895,0.261 0.894,0.226 0.895,0.146 0.894,0.039 0.895,-0.073 0.894,-0.167 0.895,-0.226 0.894,-0.24 0.895,-0.21 0.895,-0.143 0.895,-0.055 0.894,0.038 0.895,0.113 0.894,0.161 0.895,0.172 0.894,0.148 0.895,0.092 0.895,0.019 0.894,-0.055 0.895,-0.116 0.894,-0.154 0.895,-0.161 0.894,-0.138 0.895,-0.09 0.894,-0.029 0.896,0.034 0.894,0.086 0.895,0.117 0.894,0.122 0.895,0.101 0.894,0.061 0.895,0.009 0.894,-0.044 0.895,-0.087 0.895,-0.112 0.894,-0.115 0.895,-0.096 0.894,-0.06 0.895,-0.015 0.894,0.031 0.895,0.068 0.895,0.089 0.895,0.09 0.894,0.073 0.895,0.042 0.894,0.002 0.895,-0.037 0.894,-0.069 0.895,-0.085 0.894,-0.086 0.895,-0.07 0.895,-0.041 0.894,-0.006 0.895,0.029 0.894,0.055 0.895,0.07 0.894,0.069 0.895,0.055 0.895,0.029 0.895,-0.002 0.894,-0.033 0.895,-0.055 0.894,-0.068 0.895,-0.066 0.894,-0.052 0.895,-0.029 0.894,-10e-4 0.895,0.026 0.895,0.047 0.894,0.056 0.895,0.054 0.894,0.042 0.895,0.02 0.894,-0.004 0.895,-0.029 0.895,-0.047 0.895,-0.054 0.894,-0.052 0.895,-0.04 0.894,-0.02 0.895,0.002 0.894,0.024 0.895,0.039 0.894,0.047 0.895,0.044 0.895,0.032 0.894,0.014 0.895,-0.007 0.894,-0.025 0.895,-0.039 0.894,-0.045 0.895,-0.042 0.895,-0.031 0.895,-0.014 0.894,0.004 0.895,0.022 0.894,0.034 0.895,0.039 0.894,0.036 0.895,0.025 0.894,0.009 0.895,-0.007 0.895,-0.023 0.894,-0.034 0.895,-0.038 0.894,-0.034 0.895,-0.024 0.894,-0.01 0.895,0.006 0.895,0.02 0.895,0.03 0.894,0.033 0.895,0.029 0.894,0.02 0.895,0.006 0.894,-0.008 0.895,-0.021 0.894,-0.03 0.895,-0.031 0.895,-0.029 0.894,-0.019 0.895,-0.006 0.894,0.007 0.895,0.019 0.894,0.026 0.895,0.027 0.895,0.025 0.895,0.016 0.894,0.003 0.895,-0.008 0.894,-0.019 0.895,-0.026 0.894,-0.028 0.895,-0.023 0.894,-0.015 0.895,-0.004 0.895,0.008 0.894,0.017 0.895,0.023 0.894,0.024 0.895,0.02 0.894,0.012 0.895,0.002 0.895,-0.008 0.895,-0.018 0.894,-0.023 0.895,-0.023 0.894,-0.02 0.895,-0.012 0.894,-0.002 0.895,0.008 0.894,0.016 0.895,0.021 0.895,0.021 0.894,0.017 0.895,0.009 0.894,10e-4 0.895,-0.009 0.894,-0.017 0.895,-0.02 0.895,-0.02 0.895,-0.016 0.894,-0.01 h 0.895 l 0.894,0.008 0.895,0.015 0.894,0.018 0.895,0.018 0.894,0.015 0.895,0.007 0.895,-0.001 0.894,-0.009 0.895,-0.014 0.894,-0.019 0.895,-0.018 0.894,-0.013 0.895,-0.007 h 0.895 l 0.895,0.009 0.894,0.013 0.895,0.017 0.894,0.016 0.895,0.012 0.894,0.005 0.895,-0.001 0.894,-0.009 0.895,-0.014 0.895,-0.016 0.894,-0.016 0.895,-0.011 0.894,-0.006 0.895,0.002 0.895,0.008 0.894,0.013 0.895,0.015 0.895,0.014 0.894,0.009 0.895,0.005 0.894,-0.003 0.895,-0.008 0.894,-0.013 0.895,-0.015 0.895,-0.013 0.894,-0.01 0.895,-0.004 0.894,0.002 0.895,0.008 0.894,0.012 0.895,0.014 0.895,0.012 0.894,0.008 0.895,0.003 0.895,-0.003 0.894,-0.008 0.895,-0.012 0.894,-0.013 0.895,-0.012 0.894,-0.008 0.895,-0.003" /><path
       inkscape:connector-curvature="0"
       id="path102"
       style="fill:none;stroke:#a2142f;stroke-width:1.97000003;stroke-linecap:butt;stroke-linejoin:round;stroke-miterlimit:10;stroke-dasharray:none;stroke-opacity:1"
       d="m 21.410849,111.44611 0.8941,0.005 0.8946,0.014 0.8953,0.022 0.8945,0.023 0.8945,0.022 0.8946,0.015 0.8945,0.006 0.8948,-0.005 0.894,-0.015 0.895,-0.022 0.895,-0.025 0.894,-0.021 0.895,-0.015 0.894,-0.004 0.895,0.008 0.894,0.017 0.895,0.026 0.894,0.027 0.895,0.024 0.895,0.017 0.894,0.004 0.895,-0.007 0.894,-0.019 0.895,-0.026 0.895,-0.028 0.894,-0.024 0.895,-0.016 0.895,-0.003 0.894,0.011 0.895,0.022 0.894,0.03 0.895,0.032 0.894,0.027 0.895,0.018 0.894,0.003 0.895,-0.01 0.895,-0.023 0.895,-0.031 0.894,-0.033 0.895,-0.027 0.894,-0.016 0.895,-0.002 0.894,0.015 0.895,0.028 0.895,0.035 0.894,0.038 0.895,0.031 0.894,0.018 0.895,0.003 0.894,-0.015 0.895,-0.029 0.894,-0.037 0.895,-0.038 0.895,-0.031 0.895,-0.017 0.894,0.001 0.895,0.02 0.894,0.035 0.895,0.043 0.894,0.044 0.895,0.036 0.895,0.021 h 0.894 l 0.895,-0.02 0.894,-0.037 0.895,-0.045 0.894,-0.046 0.895,-0.035 0.894,-0.018 0.895,0.005 0.895,0.027 0.895,0.044 0.894,0.054 0.895,0.053 0.894,0.042 0.895,0.021 0.894,-0.002 0.895,-0.028 0.895,-0.047 0.894,-0.056 0.895,-0.055 0.894,-0.041 0.895,-0.018 0.894,0.01 0.895,0.037 0.894,0.057 0.895,0.068 0.895001,0.065 0.895,0.05 0.894,0.023 0.895,-0.007 0.894,-0.038 0.895,-0.06 0.894,-0.071 0.895,-0.067 0.895,-0.049 0.894,-0.018 0.895,0.017 0.894,0.051 0.895,0.076 0.894,0.088 0.895,0.082 0.894,0.06 0.895,0.026 0.895,-0.015 0.895,-0.052 0.894,-0.081 0.895,-0.091 0.894,-0.085 0.895,-0.058 0.894,-0.018 0.895,0.029 0.895,0.072 0.894,0.104 0.895,0.117 0.894,0.107 0.895,0.076 0.894,0.028 0.895,-0.025 0.894,-0.075 0.895,-0.11 0.895,-0.124 0.895,-0.11 0.894,-0.072 0.895,-0.015 0.894,0.048 0.895,0.107 0.894,0.148 0.895,0.162 0.895,0.146 0.894,0.1 0.895,0.032 0.894,-0.042 0.895,-0.112 0.894,-0.158 0.895,-0.173 0.894,-0.15 0.895,-0.093 0.895,-0.01 0.895,0.083 0.894,0.166 0.895,0.224 0.894,0.241 0.895,0.212 0.894,0.142 0.895,0.039 0.895,-0.073 0.894,-0.174 0.895,-0.243 0.894,-0.26 0.895,-0.221 0.894,-0.127 0.895,0.004 0.894,0.151 0.896,0.282 0.894,0.371 0.895,0.395 0.894,0.344 0.895,0.226 0.894,0.057 0.895,-0.131 0.894,-0.299 0.895,-0.41 0.895,-0.436 0.894,-0.362 0.895,-0.194 0.894,0.045 0.895,0.31 0.894,0.552 0.895,0.718 0.895,0.766 0.895,0.674 0.894,0.45 0.895,0.121 0.894,-0.251 0.895,-0.592 0.894,-0.825 0.895,-0.884 0.894,-0.728 0.895,-0.359 0.895,0.186 0.894,0.821 0.895,1.435 0.894,1.901 0.895,2.103 0.894,1.959 0.895,1.444 0.895,0.602 0.895,-0.447 0.894,-1.512 0.895,-2.353 0.894,-2.711 0.895,-2.349 0.894,-1.086 0.895,1.164 0.894,4.365 0.895,8.344 0.895,12.805 0.894,17.34 0.895,21.481 0.894,24.743 0.895,26.686 0.894,26.972 0.895,25.411 0.895,21.986 0.895,16.877 0.894,10.432 0.895,3.146 0.894,-4.394 0.895,-11.58 0.894,-17.832 0.895,-22.682 0.894,-25.802 0.895,-27.05 0.895,-26.469 0.894,-24.28 0.895,-20.839 0.894,-16.599 0.895,-12.044 0.894,-7.638 0.895,-3.771 0.895,-0.721 0.895,1.364 0.894,2.469 0.895,2.695 0.894,2.239 0.895,1.343 0.894,0.266 0.895,-0.761 0.895,-1.554 0.894,-2.01 0.895,-2.091 0.894,-1.839 0.895,-1.34 0.894,-0.714 0.895,-0.085 0.894,0.434 0.895,0.77 0.895,0.888 0.895,0.797 0.894,0.54 0.895,0.189 0.894,-0.18 0.895,-0.496 0.894,-0.7 0.895,-0.767 0.895,-0.698 0.894,-0.515 0.895,-0.266 0.894,-0.002 0.895,0.228 0.894,0.381 0.895,0.439 0.894,0.397 0.895,0.274 0.895,0.1 0.895,-0.087 0.894,-0.25 0.895,-0.359 0.894,-0.396 0.895,-0.36 0.894,-0.262 0.895,-0.126 0.895,0.019 0.894,0.146 0.895,0.231 0.894,0.261 0.895,0.234 0.894,0.16 0.895,0.054 0.894,-0.058 0.895,-0.156 0.895,-0.22 0.895,-0.241 0.894,-0.216 0.895,-0.154 0.894,-0.068 0.895,0.025 0.894,0.104 0.895,0.157 0.895,0.173 0.894,0.153 0.895,0.101 0.894,0.03 0.895,-0.045 0.894,-0.109 0.895,-0.15 0.894,-0.162 0.895,-0.143 0.895,-0.098 0.895,-0.038 0.894,0.026 0.895,0.08 0.894,0.114 0.895,0.123 0.894,0.106 0.895,0.067 0.895,0.016 0.894,-0.037 0.895,-0.082 0.894,-0.11 0.895,-0.116 0.894,-0.1 0.895,-0.066 0.894,-0.021 0.896,0.025 0.894,0.064 0.895,0.087 0.894,0.091 0.895,0.077 0.894,0.047 0.895,0.007 0.894,-0.032 0.895,-0.065 0.895,-0.084 0.894,-0.087 0.895,-0.072 0.894,-0.046 0.895,-0.011 0.894,0.024 0.895,0.052 0.895,0.068 0.895,0.071 0.894,0.057 0.895,0.034 0.894,0.002 0.895,-0.029 0.894,-0.053 0.895,-0.066 0.894,-0.067 0.895,-0.055 0.895,-0.033 0.894,-0.004 0.895,0.022 0.894,0.044 0.895,0.056 0.894,0.055 0.895,0.044 0.895,0.024 0.895,-0.001 0.894,-0.026 0.895,-0.044 0.894,-0.055 0.895,-0.052 0.894,-0.042 0.895,-0.024 h 0.894 l 0.895,0.021 0.895,0.037 0.894,0.046 0.895,0.045 0.894,0.034 0.895,0.017 0.894,-0.004 0.895,-0.023 0.895,-0.037 0.895,-0.045 0.894,-0.043 0.895,-0.033 0.894,-0.017 0.895,0.003 0.894,0.019 0.895,0.033 0.894,0.039 0.895,0.036 0.895,0.027 0.894,0.012 0.895,-0.006 0.894,-0.021 0.895,-0.032 0.894,-0.038 0.895,-0.035 0.895,-0.025 0.895,-0.013 0.894,0.004 0.895,0.019 0.894,0.029 0.895,0.032 0.894,0.03 0.895,0.022 0.894,0.008 0.895,-0.006 0.895,-0.02 0.894,-0.028 0.895,-0.032 0.894,-0.029 0.895,-0.021 0.894,-0.008 0.895,0.005 0.895,0.017 0.895,0.026 0.894,0.028 0.895,0.025 0.894,0.017 0.895,0.005 0.894,-0.006 0.895,-0.018 0.894,-0.025 0.895,-0.028 0.895,-0.024 0.894,-0.016 0.895,-0.006 0.894,0.006 0.895,0.016 0.894,0.023 0.895,0.024 0.895,0.021 0.895,0.013 0.894,0.004 0.895,-0.007 0.894,-0.017 0.895,-0.023 0.894,-0.023 0.895,-0.02 0.894,-0.013 0.895,-0.004 0.895,0.007 0.894,0.015 0.895,0.02 0.894,0.021 0.895,0.018 0.894,0.011 0.895,10e-4 0.895,-0.008 0.895,-0.015 0.894,-0.02 0.895,-0.02 0.894,-0.017 0.895,-0.011 0.894,-0.002 0.895,0.007 0.894,0.014 0.895,0.018 0.895,0.019 0.894,0.015 0.895,0.008 0.894,0.001 0.895,-0.008 0.894,-0.015 0.895,-0.017 0.895,-0.018 0.895,-0.014 0.894,-0.009 h 0.895 l 0.894,0.007 0.895,0.013 0.894,0.017 0.895,0.016 0.894,0.012 0.895,0.007 0.895,-0.001 0.894,-0.008 0.895,-0.013 0.894,-0.016 0.895,-0.016 0.894,-0.012 0.895,-0.006 h 0.895 l 0.895,0.008 0.894,0.012 0.895,0.015 0.894,0.014 0.895,0.01 0.894,0.005 0.895,-0.001 0.894,-0.008 0.895,-0.012 0.895,-0.015 0.894,-0.013 0.895,-0.011 0.894,-0.005 0.895,0.002 0.895,0.007 0.894,0.011 0.895,0.014 0.895,0.012 0.894,0.009 0.895,0.004 0.894,-0.002 0.895,-0.008 0.894,-0.011 0.895,-0.013 0.895,-0.012 0.894,-0.009 0.895,-0.004 0.894,0.002 0.895,0.007 0.894,0.011 0.895,0.012 0.895,0.011 0.894,0.008 0.895,0.003 0.895,-0.003 0.894,-0.008 0.895,-0.01 0.894,-0.013 0.895,-0.01 0.894,-0.007 0.895,-0.003" /><g
       id="g1045"
       transform="matrix(1,0,0,-1,-71.469251,602.33311)"><path
         inkscape:connector-curvature="0"
         id="path1037"
         style="fill:none;stroke:#262626;stroke-width:0.5;stroke-linecap:butt;stroke-linejoin:miter;stroke-miterlimit:10;stroke-dasharray:none;stroke-opacity:1"
         d="m 192.08,227.52 v 4.465" /><path
         inkscape:connector-curvature="0"
         id="path1039"
         style="fill:none;stroke:#262626;stroke-width:0.5;stroke-linecap:butt;stroke-linejoin:miter;stroke-miterlimit:10;stroke-dasharray:none;stroke-opacity:1"
         d="m 316.08,227.52 v 4.465" /><path
         inkscape:connector-curvature="0"
         id="path1041"
         style="fill:none;stroke:#262626;stroke-width:0.5;stroke-linecap:butt;stroke-linejoin:miter;stroke-miterlimit:10;stroke-dasharray:none;stroke-opacity:1"
         d="m 440.08,227.52 v 4.465" /><path
         inkscape:connector-curvature="0"
         id="path1043"
         style="fill:none;stroke:#262626;stroke-width:0.5;stroke-linecap:square;stroke-linejoin:miter;stroke-miterlimit:10;stroke-dasharray:16, 0;stroke-dashoffset:0;stroke-opacity:1"
         d="M 92.8801,227.52 H 539.28" /></g><g
       id="g1061"
       transform="matrix(-1,0,0,1,560.69085,-204.78689)"><path
         inkscape:connector-curvature="0"
         id="path1053"
         style="fill:none;stroke:#262626;stroke-width:0.5;stroke-linecap:butt;stroke-linejoin:miter;stroke-miterlimit:10;stroke-dasharray:none;stroke-opacity:1"
         d="M 92.8801,316.233 H 97.348" /><path
         inkscape:connector-curvature="0"
         id="path1055"
         style="fill:none;stroke:#262626;stroke-width:0.5;stroke-linecap:butt;stroke-linejoin:miter;stroke-miterlimit:10;stroke-dasharray:none;stroke-opacity:1"
         d="M 92.8801,427.125 H 97.348" /><path
         inkscape:connector-curvature="0"
         id="path1057"
         style="fill:none;stroke:#262626;stroke-width:0.5;stroke-linecap:butt;stroke-linejoin:miter;stroke-miterlimit:10;stroke-dasharray:none;stroke-opacity:1"
         d="M 92.8801,538.016 H 97.348" /><path
         inkscape:connector-curvature="0"
         id="path1059"
         style="fill:none;stroke:#262626;stroke-width:0.5;stroke-linecap:square;stroke-linejoin:miter;stroke-miterlimit:10;stroke-dasharray:16, 0;stroke-dashoffset:0;stroke-opacity:1"
         d="M 92.8801,227.52 V 579.6" /></g></g></svg>