<?xml version="1.0" encoding="UTF-8" standalone="no"?>
<!-- Created with Inkscape (http://www.inkscape.org/) -->

<svg
   xmlns:dc="http://purl.org/dc/elements/1.1/"
   xmlns:cc="http://creativecommons.org/ns#"
   xmlns:rdf="http://www.w3.org/1999/02/22-rdf-syntax-ns#"
   xmlns:svg="http://www.w3.org/2000/svg"
   xmlns="http://www.w3.org/2000/svg"
   xmlns:sodipodi="http://sodipodi.sourceforge.net/DTD/sodipodi-0.dtd"
   xmlns:inkscape="http://www.inkscape.org/namespaces/inkscape"
   version="1.1"
   id="svg2"
   xml:space="preserve"
   width="660"
   height="530"
   viewBox="0 0 660 530"
   sodipodi:docname="ofdm_spectrm.svg"
   inkscape:version="0.92.4 5da689c313, 2019-01-14"><metadata
     id="metadata8"><rdf:RDF><cc:Work
         rdf:about=""><dc:format>image/svg+xml</dc:format><dc:type
           rdf:resource="http://purl.org/dc/dcmitype/StillImage" /><dc:title></dc:title></cc:Work></rdf:RDF></metadata><defs
     id="defs6"><clipPath
       clipPathUnits="userSpaceOnUse"
       id="clipPath24"><path
         d="M 180,1800 H 5940 V 6120 H 180 Z"
         id="path22"
         inkscape:connector-curvature="0" /></clipPath></defs><sodipodi:namedview
     pagecolor="#ffffff"
     bordercolor="#666666"
     borderopacity="1"
     objecttolerance="10"
     gridtolerance="10"
     guidetolerance="10"
     inkscape:pageopacity="0"
     inkscape:pageshadow="2"
     inkscape:window-width="1920"
     inkscape:window-height="1051"
     id="namedview4"
     showgrid="false"
     inkscape:pagecheckerboard="true"
     inkscape:zoom="1.0913785"
     inkscape:cx="390.8971"
     inkscape:cy="318.77531"
     inkscape:window-x="0"
     inkscape:window-y="29"
     inkscape:window-maximized="1"
     inkscape:current-layer="g10" /><g
     id="g10"
     inkscape:groupmode="layer"
     inkscape:label="ofdm_spctrm"
     transform="matrix(1.3333333,0,0,-1.3333333,0,530)"><g
       id="g1243"><path
         d="M 64.108384,25.481925 V 377.56192"
         style="fill:none;stroke:#d9d9d9;stroke-width:0.5;stroke-linecap:butt;stroke-linejoin:miter;stroke-miterlimit:10;stroke-dasharray:16, 0;stroke-dashoffset:0;stroke-opacity:1"
         id="path30"
         inkscape:connector-curvature="0" /><path
         d="M 157.10838,25.481925 V 377.56192"
         style="fill:none;stroke:#d9d9d9;stroke-width:0.5;stroke-linecap:butt;stroke-linejoin:miter;stroke-miterlimit:10;stroke-dasharray:16, 0;stroke-dashoffset:0;stroke-opacity:1"
         id="path32"
         inkscape:connector-curvature="0" /><path
         d="M 250.10838,25.481925 V 377.56192"
         style="fill:none;stroke:#d9d9d9;stroke-width:0.5;stroke-linecap:butt;stroke-linejoin:miter;stroke-miterlimit:10;stroke-dasharray:16, 0;stroke-dashoffset:0;stroke-opacity:1"
         id="path34"
         inkscape:connector-curvature="0" /><path
         d="M 343.10838,25.481925 V 377.56192"
         style="fill:none;stroke:#d9d9d9;stroke-width:0.5;stroke-linecap:butt;stroke-linejoin:miter;stroke-miterlimit:10;stroke-dasharray:16, 0;stroke-dashoffset:0;stroke-opacity:1"
         id="path36"
         inkscape:connector-curvature="0" /><path
         d="M 436.10838,25.481925 V 377.56192"
         style="fill:none;stroke:#d9d9d9;stroke-width:0.5;stroke-linecap:butt;stroke-linejoin:miter;stroke-miterlimit:10;stroke-dasharray:16, 0;stroke-dashoffset:0;stroke-opacity:1"
         id="path38"
         inkscape:connector-curvature="0" /><path
         d="M 26.908484,48.196925 H 473.30838"
         style="fill:none;stroke:#d9d9d9;stroke-width:0.5;stroke-linecap:butt;stroke-linejoin:miter;stroke-miterlimit:10;stroke-dasharray:16, 0;stroke-dashoffset:0;stroke-opacity:1"
         id="path56"
         inkscape:connector-curvature="0" /><path
         d="M 26.908484,93.626925 H 473.30838"
         style="fill:none;stroke:#d9d9d9;stroke-width:0.5;stroke-linecap:butt;stroke-linejoin:miter;stroke-miterlimit:10;stroke-dasharray:16, 0;stroke-dashoffset:0;stroke-opacity:1"
         id="path58"
         inkscape:connector-curvature="0" /><path
         d="M 26.908484,139.05592 H 473.30838"
         style="fill:none;stroke:#d9d9d9;stroke-width:0.5;stroke-linecap:butt;stroke-linejoin:miter;stroke-miterlimit:10;stroke-dasharray:16, 0;stroke-dashoffset:0;stroke-opacity:1"
         id="path60"
         inkscape:connector-curvature="0" /><path
         d="M 26.908484,184.48592 H 473.30838"
         style="fill:none;stroke:#d9d9d9;stroke-width:0.5;stroke-linecap:butt;stroke-linejoin:miter;stroke-miterlimit:10;stroke-dasharray:16, 0;stroke-dashoffset:0;stroke-opacity:1"
         id="path62"
         inkscape:connector-curvature="0" /><path
         d="M 26.908484,229.91592 H 473.30838"
         style="fill:none;stroke:#d9d9d9;stroke-width:0.5;stroke-linecap:butt;stroke-linejoin:miter;stroke-miterlimit:10;stroke-dasharray:16, 0;stroke-dashoffset:0;stroke-opacity:1"
         id="path64"
         inkscape:connector-curvature="0" /><path
         d="M 26.908484,275.34492 H 473.30838"
         style="fill:none;stroke:#d9d9d9;stroke-width:0.5;stroke-linecap:butt;stroke-linejoin:miter;stroke-miterlimit:10;stroke-dasharray:16, 0;stroke-dashoffset:0;stroke-opacity:1"
         id="path66"
         inkscape:connector-curvature="0" /><path
         d="M 26.908484,320.77492 H 473.30838"
         style="fill:none;stroke:#d9d9d9;stroke-width:0.5;stroke-linecap:butt;stroke-linejoin:miter;stroke-miterlimit:10;stroke-dasharray:16, 0;stroke-dashoffset:0;stroke-opacity:1"
         id="path68"
         inkscape:connector-curvature="0" /><path
         d="M 26.908484,366.20492 H 473.30838"
         style="fill:none;stroke:#d9d9d9;stroke-width:0.5;stroke-linecap:butt;stroke-linejoin:miter;stroke-miterlimit:10;stroke-dasharray:16, 0;stroke-dashoffset:0;stroke-opacity:1"
         id="path70"
         inkscape:connector-curvature="0" /></g><g
       id="g1173"
       transform="translate(-65.971616,-202.03808)"><path
         d="m 130.08,227.52 v 4.465"
         style="fill:none;stroke:#262626;stroke-width:0.5;stroke-linecap:butt;stroke-linejoin:miter;stroke-miterlimit:10;stroke-dasharray:none;stroke-opacity:1"
         id="path40"
         inkscape:connector-curvature="0" /><path
         d="m 223.08,227.52 v 4.465"
         style="fill:none;stroke:#262626;stroke-width:0.5;stroke-linecap:butt;stroke-linejoin:miter;stroke-miterlimit:10;stroke-dasharray:none;stroke-opacity:1"
         id="path42"
         inkscape:connector-curvature="0" /><path
         d="m 316.08,227.52 v 4.465"
         style="fill:none;stroke:#262626;stroke-width:0.5;stroke-linecap:butt;stroke-linejoin:miter;stroke-miterlimit:10;stroke-dasharray:none;stroke-opacity:1"
         id="path44"
         inkscape:connector-curvature="0" /><path
         d="m 409.08,227.52 v 4.465"
         style="fill:none;stroke:#262626;stroke-width:0.5;stroke-linecap:butt;stroke-linejoin:miter;stroke-miterlimit:10;stroke-dasharray:none;stroke-opacity:1"
         id="path46"
         inkscape:connector-curvature="0" /><path
         d="m 502.08,227.52 v 4.465"
         style="fill:none;stroke:#262626;stroke-width:0.5;stroke-linecap:butt;stroke-linejoin:miter;stroke-miterlimit:10;stroke-dasharray:none;stroke-opacity:1"
         id="path48"
         inkscape:connector-curvature="0" /><path
         d="M 92.8801,227.52 H 539.28"
         style="fill:none;stroke:#262626;stroke-width:0.5;stroke-linecap:square;stroke-linejoin:miter;stroke-miterlimit:10;stroke-dasharray:16, 0;stroke-dashoffset:0;stroke-opacity:1"
         id="path108"
         inkscape:connector-curvature="0" /></g><g
       id="g1145"
       transform="translate(-65.971616,-202.03808)"><path
         d="M 92.8801,250.235 H 97.348"
         style="fill:none;stroke:#262626;stroke-width:0.5;stroke-linecap:butt;stroke-linejoin:miter;stroke-miterlimit:10;stroke-dasharray:none;stroke-opacity:1"
         id="path72"
         inkscape:connector-curvature="0" /><path
         d="M 92.8801,295.665 H 97.348"
         style="fill:none;stroke:#262626;stroke-width:0.5;stroke-linecap:butt;stroke-linejoin:miter;stroke-miterlimit:10;stroke-dasharray:none;stroke-opacity:1"
         id="path74"
         inkscape:connector-curvature="0" /><path
         d="M 92.8801,341.094 H 97.348"
         style="fill:none;stroke:#262626;stroke-width:0.5;stroke-linecap:butt;stroke-linejoin:miter;stroke-miterlimit:10;stroke-dasharray:none;stroke-opacity:1"
         id="path76"
         inkscape:connector-curvature="0" /><path
         d="M 92.8801,386.524 H 97.348"
         style="fill:none;stroke:#262626;stroke-width:0.5;stroke-linecap:butt;stroke-linejoin:miter;stroke-miterlimit:10;stroke-dasharray:none;stroke-opacity:1"
         id="path78"
         inkscape:connector-curvature="0" /><path
         d="M 92.8801,431.954 H 97.348"
         style="fill:none;stroke:#262626;stroke-width:0.5;stroke-linecap:butt;stroke-linejoin:miter;stroke-miterlimit:10;stroke-dasharray:none;stroke-opacity:1"
         id="path80"
         inkscape:connector-curvature="0" /><path
         d="M 92.8801,477.383 H 97.348"
         style="fill:none;stroke:#262626;stroke-width:0.5;stroke-linecap:butt;stroke-linejoin:miter;stroke-miterlimit:10;stroke-dasharray:none;stroke-opacity:1"
         id="path82"
         inkscape:connector-curvature="0" /><path
         d="M 92.8801,522.813 H 97.348"
         style="fill:none;stroke:#262626;stroke-width:0.5;stroke-linecap:butt;stroke-linejoin:miter;stroke-miterlimit:10;stroke-dasharray:none;stroke-opacity:1"
         id="path84"
         inkscape:connector-curvature="0" /><path
         d="M 92.8801,568.243 H 97.348"
         style="fill:none;stroke:#262626;stroke-width:0.5;stroke-linecap:butt;stroke-linejoin:miter;stroke-miterlimit:10;stroke-dasharray:none;stroke-opacity:1"
         id="path86"
         inkscape:connector-curvature="0" /><path
         d="M 92.8801,227.52 V 579.6"
         style="fill:none;stroke:#262626;stroke-width:0.5;stroke-linecap:square;stroke-linejoin:miter;stroke-miterlimit:10;stroke-dasharray:16, 0;stroke-dashoffset:0;stroke-opacity:1"
         id="path110"
         inkscape:connector-curvature="0" /></g><g
       id="g1226"><path
         d="m 26.908484,93.626925 0.8941,-0.683 0.8946,-0.67 0.8953,-0.645 0.8945,-0.602 0.8945,-0.546 0.8946,-0.478 0.8945,-0.398 0.8948,-0.309 0.894,-0.211 0.895,-0.109 0.895,-0.004 0.894,0.103 0.895,0.208 0.894,0.308 0.895,0.403 0.894,0.488 0.895,0.563 0.894,0.625 0.895,0.675 0.895,0.708 0.894,0.725 0.895,0.727 0.894,0.711 0.895,0.68 0.895,0.632 0.894,0.57 0.895,0.494 0.895,0.408 0.894,0.309 0.895,0.205 0.894,0.094 0.895,-0.019 0.894,-0.133 0.895,-0.244 0.894,-0.35 0.895,-0.45 0.895,-0.539 0.895,-0.617 0.894,-0.682 0.895,-0.73 0.894,-0.764 0.895,-0.779 0.894,-0.777 0.895,-0.757 0.895,-0.72 0.894,-0.666 0.895,-0.597 0.894,-0.512 0.895,-0.417 0.894,-0.311 0.895,-0.196 0.894,-0.078 0.895,0.045 0.895,0.167 0.895,0.285 0.894,0.398 0.895,0.504 0.894,0.597 0.895,0.679 0.894,0.745 0.895,0.795 0.895,0.827 0.894,0.84 0.895,0.834 0.894,0.81 0.895,0.766 0.894,0.705 0.895,0.627 0.894,0.533 0.895,0.429 0.895,0.311 0.895,0.188 0.894,0.057 0.895,-0.074 0.894,-0.205 0.895,-0.333 0.894,-0.454 0.895,-0.565 0.895,-0.665 0.894,-0.75 0.895,-0.819 0.893996,-0.869 0.895,-0.9 0.894,-0.911 0.895,-0.901 0.894,-0.87 0.895,-0.819 0.895,-0.75 0.895,-0.661 0.894,-0.558 0.895,-0.442 0.894,-0.313 0.895,-0.176 0.894,-0.036 0.895,0.109 0.895,0.25 0.894,0.389 0.895,0.518 0.894,0.638 0.895,0.743 0.894,0.833 0.895,0.905 0.894,0.956 0.895,0.986 0.895,0.994 0.895,0.978 0.894,0.942 0.895,0.881 0.894,0.803 0.895,0.703 0.894,0.587 0.895,0.456995 0.895,0.314 0.894,0.165 0.895,0.008 0.894,-0.148 0.895,-0.305 0.894,-0.453995 0.895,-0.594 0.894,-0.724 0.895,-0.836 0.895,-0.932 0.895,-1.006 0.894,-1.06 0.895,-1.088 0.894,-1.092 0.895,-1.072 0.894,-1.026 0.895,-0.957 0.895,-0.866 0.894,-0.753 0.895,-0.622 0.894,-0.475 0.895,-0.318 0.894,-0.149 0.895,0.023 0.894,0.197 0.895,0.368 0.895,0.533 0.895,0.686 0.894,0.827 0.895,0.949 0.894,1.051 0.895,1.13 0.894,1.185 0.895,1.212 0.895,1.212 0.894,1.185 0.895,1.131 0.894,1.049 0.895,0.943 0.894,0.813995 0.895,0.665 0.894,0.5 0.896,0.32 0.894,0.132 0.895,-0.061 0.894,-0.256 0.895,-0.445 0.894,-0.629 0.895,-0.799995 0.894,-0.953 0.895,-1.088 0.895,-1.199 0.894,-1.284 0.895,-1.339 0.894,-1.367 0.895,-1.362 0.894,-1.327 0.895,-1.261 0.895,-1.164 0.895,-1.041 0.894,-0.892 0.895,-0.721 0.894,-0.531 0.895,-0.326 0.894,-0.112 0.895,0.109 0.894,0.328 0.895,0.544 0.895,0.75 0.894,0.942 0.895,1.114 0.894,1.263 0.895,1.387 0.894,1.479 0.895,1.539 0.895,1.564 0.895,1.555 0.894,1.51 0.895,1.43 0.894,1.314995 0.895,1.169 0.894,0.994 0.895,0.795 0.894,0.573 0.895,0.336 0.895,0.087 0.894,-0.167 0.895,-0.421 0.894,-0.669 0.895,-0.907 0.894,-1.127 0.895,-1.324 0.895,-1.494995 0.895,-1.634 0.894,-1.738 0.895,-1.803 0.894,-1.829 0.895,-1.814 0.894,-1.756 0.895,-1.657 0.894,-1.52 0.895,-1.345 0.895,-1.136 0.894,-0.898 0.895,-0.636 0.894,-0.353 0.895,-0.059 0.894,0.243 0.895,0.544 0.895,0.838 0.895,1.118 0.894,1.379 0.895,1.612 0.894,1.813 0.895,1.976 0.894,2.097 0.895,2.173 0.895,2.201 0.894,2.179 0.895,2.106995 0.894,1.984 0.895,1.816 0.894,1.601 0.895,1.346 0.894,1.054 0.895,0.733 0.895,0.388 0.895,0.027 0.894,-0.343 0.895,-0.713 0.894,-1.075 0.895,-1.42 0.894,-1.742 0.895,-2.03 0.895,-2.279 0.894,-2.482995 0.895,-2.633 0.894,-2.729 0.895,-2.764 0.894,-2.737 0.895,-2.647 0.894,-2.495 0.895,-2.281 0.895,-2.012 0.895,-1.688 0.894,-1.317 0.895,-0.907 0.894,-0.464 h 0.895 l 0.894,0.477 0.895,0.959 0.895,1.432 0.894,1.886 0.895,2.311 0.894,2.697 0.895,3.033 0.894,3.31 0.895,3.522 0.894,3.662 0.895,3.721 0.895,3.698995 0.895,3.594 0.894,3.402 0.895,3.128 0.894,2.772 0.895,2.343 0.894,1.843 0.895,1.284 0.895,0.674 0.894,0.024 0.895,-0.649 0.894,-1.338 0.895,-2.025 0.894,-2.696 0.895,-3.334 0.894,-3.928 0.895,-4.459 0.895,-4.917995 0.895,-5.287 0.894,-5.558 0.895,-5.719 0.894,-5.762 0.895,-5.68 0.894,-5.469 0.895,-5.125 0.895,-4.651 0.894,-4.046 0.895,-3.32 0.894,-2.473 0.895,-1.521 0.894,-0.472 0.895,0.659 0.894,1.856 0.896,3.101 0.894,4.379 0.895,5.667 0.894,6.946 0.895,8.194 0.894,9.393 0.895,10.52 0.894,11.557995 0.895,12.485 0.895,13.287 0.894,13.946 0.895,14.45 0.894,14.787 0.895,14.949 0.894,14.929 0.895,14.722 0.895,14.331 0.895,13.755 0.894,13 0.895,12.075 0.894,10.989 0.895,9.757 0.894,8.394 0.895,6.918 0.894,5.346 0.895,3.703 0.895,2.01 0.894,0.288 0.895,-1.438 0.894,-3.143 0.895,-4.806 0.894,-6.403 0.895,-7.913 0.895,-9.317 0.895,-10.594 0.894,-11.73 0.895,-12.71 0.894,-13.523 0.895,-14.159 0.894,-14.612 0.895,-14.881 0.894,-14.963 0.895,-14.861 0.895,-14.581 0.894,-14.133 0.895,-13.523 0.894,-12.767 0.895,-11.878995 0.894,-10.878 0.895,-9.777 0.895,-8.601 0.895,-7.366 0.894,-6.095 0.895,-4.808 0.894,-3.525 0.895,-2.267 0.894,-1.05 0.895,0.103 0.894,1.181 0.895,2.167 0.895,3.05 0.894,3.818 0.895,4.463 0.894,4.982 0.895,5.369 0.894,5.624 0.895,5.749 0.895,5.747 0.895,5.624 0.894,5.389 0.895,5.050995 0.894,4.622 0.895,4.112 0.894,3.538 0.895,2.913 0.894,2.25 0.895,1.568 0.895,0.879 0.894,0.198 0.895,-0.462 0.894,-1.085 0.895,-1.663 0.894,-2.184 0.895,-2.637 0.895,-3.018 0.895,-3.32 0.894,-3.539 0.895,-3.673 0.894,-3.723995 0.895,-3.69 0.894,-3.577 0.895,-3.388 0.894,-3.133 0.895,-2.814 0.895,-2.445 0.894,-2.031 0.895,-1.586 0.894,-1.119 0.895,-0.637 0.894,-0.159 0.895,0.312 0.895,0.763 0.895,1.184 0.894,1.569 0.895,1.91 0.894,2.197 0.895,2.43 0.894,2.604 0.895,2.713 0.894,2.763 0.895,2.747 0.895,2.672 0.894,2.539 0.895,2.351995 0.894,2.118 0.895,1.842 0.894,1.53 0.895,1.192 0.895,0.835 0.895,0.467 0.894,0.096 0.895,-0.269 0.894,-0.62 0.895,-0.951 0.894,-1.253 0.895,-1.52 0.895,-1.749 0.894,-1.933 0.895,-2.070995 0.894,-2.161 0.895,-2.199 0.894,-2.187 0.895,-2.128 0.894,-2.022 0.895,-1.871 0.895,-1.683 0.895,-1.46 0.894,-1.207 0.895,-0.934 0.894,-0.643 0.895,-0.343 0.894,-0.042 0.895,0.256 0.894,0.543 0.895,0.813 0.895,1.06 0.894,1.279 0.895,1.466 0.894,1.615 0.895,1.728 0.894,1.799 0.895,1.829 0.895,1.816 0.895,1.764 0.894,1.673 0.895,1.545 0.894,1.383995 0.895,1.195 0.894,0.983 0.895,0.75 0.894,0.505 0.895,0.252 0.895,-0.003 0.894,-0.254 0.895,-0.495 0.894,-0.724 0.895,-0.93 0.895,-1.114 0.894,-1.269995 0.895,-1.395 0.895,-1.486 0.894,-1.544 0.895,-1.566 0.894,-1.552 0.895,-1.502 0.894,-1.421 0.895,-1.307 0.895,-1.167 0.894,-1.002 0.895,-0.815 0.894,-0.615 0.895,-0.401 0.894,-0.181 0.895,0.038 0.895,0.256 0.894,0.464 0.895,0.659 0.895,0.838 0.894,0.993 0.895,1.127 0.894,1.232 0.895,1.308 0.894,1.354 0.895,1.369"
         style="fill:none;stroke:#0072bd;stroke-width:1.46000004;stroke-linecap:butt;stroke-linejoin:round;stroke-miterlimit:10;stroke-dasharray:none;stroke-opacity:1"
         id="path128"
         inkscape:connector-curvature="0" /><path
         d="m 26.908484,93.626925 0.8941,-0.781 0.8946,-0.767 0.8953,-0.738 0.8945,-0.69 0.8945,-0.627 0.8946,-0.55 0.8945,-0.458 0.8948,-0.356 0.894,-0.245 0.895,-0.127 0.895,-0.007 0.894,0.117 0.895,0.236 0.894,0.352 0.895,0.461 0.894,0.559 0.895,0.647 0.894,0.72 0.895,0.776 0.895,0.816 0.894,0.837 0.895,0.839 0.894,0.822 0.895,0.787 0.895,0.732 0.894,0.661 0.895,0.574 0.895,0.474 0.894,0.361 0.895,0.24 0.894,0.112 0.895,-0.019 0.894,-0.151 0.895,-0.28 0.894,-0.405 0.895,-0.52 0.895,-0.625 0.895,-0.716 0.894,-0.792 0.895,-0.851 0.894,-0.889 0.895,-0.909 0.894,-0.908 0.895,-0.885 0.895,-0.843 0.894,-0.781 0.895,-0.7 0.894,-0.603 0.895,-0.492 0.894,-0.367 0.895,-0.235 0.894,-0.094 0.895,0.048 0.895,0.192 0.895,0.332 0.894,0.465 0.895,0.589 0.894,0.702 0.895,0.797 0.894,0.878 0.895,0.937 0.895,0.976 0.894,0.993 0.895,0.988 0.894,0.959 0.895,0.91 0.894,0.837 0.895,0.747 0.894,0.637 0.895,0.513 0.895,0.374995 0.895,0.228 0.894,0.074 0.895,-0.083 0.894,-0.241 0.895,-0.391995 0.894,-0.537 0.895,-0.672 0.895,-0.791 0.894,-0.894 0.895,-0.979 0.893996,-1.04 0.895,-1.079 0.894,-1.093 0.895,-1.084 0.894,-1.048 0.895,-0.989 0.895,-0.905 0.895,-0.803 0.894,-0.678 0.895,-0.539 0.894,-0.384 0.895,-0.22 0.894,-0.05 0.895,0.125 0.895,0.297 0.894,0.465 0.895,0.624 0.894,0.77 0.895,0.901 0.894,1.011 0.895,1.1 0.894,1.165 0.895,1.204 0.895,1.216 0.895,1.2 0.894,1.156 0.895,1.086 0.894,0.99 0.895,0.869995 0.894,0.73 0.895,0.571 0.895,0.396 0.894,0.212 0.895,0.02 0.894,-0.175 0.895,-0.368 0.894,-0.554 0.895,-0.73 0.894,-0.891995 0.895,-1.034 0.895,-1.156 0.895,-1.251 0.894,-1.32 0.895,-1.359 0.894,-1.368 0.895,-1.346 0.894,-1.292 0.895,-1.208 0.895,-1.095 0.894,-0.957 0.895,-0.795 0.894,-0.612 0.895,-0.413 0.894,-0.202 0.895,0.017 0.894,0.237 0.895,0.455 0.895,0.665 0.895,0.864 0.894,1.045 0.895,1.204 0.894,1.339 0.895,1.444 0.894,1.518 0.895,1.558 0.895,1.564 0.894,1.533 0.895,1.467 0.894,1.366995 0.895,1.233 0.894,1.071 0.895,0.881 0.894,0.668 0.896,0.436 0.894,0.192 0.895,-0.061 0.894,-0.315 0.895,-0.568 0.894,-0.81 0.895,-1.038 0.894,-1.244 0.895,-1.427995 0.895,-1.58 0.894,-1.699 0.895,-1.78 0.894,-1.824 0.895,-1.825 0.894,-1.785 0.895,-1.704 0.895,-1.581 0.895,-1.423 0.894,-1.226 0.895,-1.001 0.894,-0.747 0.895,-0.473 0.894,-0.183 0.895,0.117 0.894,0.419 0.895,0.716 0.895,1.004 0.894,1.274 0.895,1.518 0.894,1.733 0.895,1.913 0.894,2.053 0.895,2.147 0.895,2.195 0.895,2.194 0.894,2.143 0.895,2.040995 0.894,1.892 0.895,1.695 0.894,1.457 0.895,1.18 0.894,0.871 0.895,0.534 0.895,0.178 0.894,-0.188 0.895,-0.559 0.894,-0.926 0.895,-1.279 0.894,-1.611 0.895,-1.914 0.895,-2.181 0.895,-2.403995 0.894,-2.577 0.895,-2.696 0.894,-2.757 0.895,-2.756 0.894,-2.692 0.895,-2.566 0.894,-2.377 0.895,-2.131 0.895,-1.828 0.894,-1.478 0.895,-1.082 0.894,-0.652 0.895,-0.196 0.894,0.278 0.895,0.759 0.895,1.236 0.895,1.7 0.894,2.138 0.895,2.541 0.894,2.9 0.895,3.202 0.894,3.443 0.895,3.612 0.895,3.707 0.894,3.717995 0.895,3.648 0.894,3.492 0.895,3.252 0.894,2.931 0.895,2.53 0.894,2.059 0.895,1.523 0.895,0.933 0.895,0.3 0.894,-0.366 0.895,-1.051 0.894,-1.74 0.895,-2.419 0.894,-3.073 0.895,-3.687 0.895,-4.246 0.894,-4.737 0.895,-5.143995 0.894,-5.458 0.895,-5.666 0.894,-5.759 0.895,-5.73 0.894,-5.572 0.895,-5.285 0.895,-4.864 0.895,-4.314 0.894,-3.637 0.895,-2.839 0.894,-1.93 0.895,-0.92 0.894,0.178 0.895,1.35 0.895,2.578 0.894,3.845 0.895,5.129 0.894,6.415 0.895,7.679 0.894,8.902 0.895,10.06 0.894,11.137995 0.895,12.113 0.895,12.969 0.895,13.69 0.894,14.259 0.895,14.668 0.894,14.904 0.895,14.959 0.894,14.831 0.895,14.516 0.895,14.017 0.894,13.336 0.895,12.48 0.894,11.46 0.895,10.288 0.894,8.977 0.895,7.545 0.894,6.012 0.895,4.395 0.895,2.72 0.895,1.007 0.894,-0.72 0.895,-2.436 0.894,-4.12 0.895,-5.747 0.894,-7.296 0.895,-8.746 0.895,-10.078 0.894,-11.276 0.895,-12.321 0.894,-13.205 0.895,-13.916 0.894,-14.446 0.895,-14.791 0.894,-14.951 0.896,-14.925 0.894,-14.72 0.895,-14.34 0.894,-13.794 0.895,-13.1 0.894,-12.264 0.895,-11.307995 0.894,-10.246 0.895,-9.099 0.895,-7.886 0.894,-6.628 0.895,-5.346 0.894,-4.057 0.895,-2.787 0.894,-1.551 0.895,-0.369 0.895,0.742 0.895,1.769 0.894,2.696 0.895,3.511 0.894,4.21 0.895,4.782 0.894,5.223 0.895,5.534 0.894,5.713 0.895,5.762 0.895,5.69 0.894,5.5 0.895,5.203995 0.894,4.811 0.895,4.333 0.894,3.784 0.895,3.179 0.895,2.53 0.895,1.854 0.894,1.165 0.895,0.48 0.894,-0.19 0.895,-0.831 0.894,-1.429 0.895,-1.974 0.894,-2.456 0.895,-2.869 0.895,-3.204 0.894,-3.458 0.895,-3.628 0.894,-3.711995 0.895,-3.714 0.894,-3.634 0.895,-3.476 0.895,-3.247 0.895,-2.954 0.894,-2.604 0.895,-2.208 0.894,-1.775 0.895,-1.315 0.894,-0.839 0.895,-0.358 0.894,0.118 0.895,0.578 0.895,1.013 0.894,1.414 0.895,1.773 0.894,2.084 0.895,2.34 0.894,2.539 0.895,2.675 0.895,2.75 0.895,2.761 0.894,2.71 0.895,2.602 0.894,2.435995 0.895,2.221 0.894,1.961 0.895,1.664 0.894,1.336 0.895,0.986 0.895,0.621 0.894,0.25 0.895,-0.119 0.894,-0.476 0.895,-0.816 0.894,-1.13 0.895,-1.413 0.895,-1.659 0.895,-1.862 0.894,-2.02 0.895,-2.128995 0.894,-2.189 0.895,-2.199 0.894,-2.158 0.895,-2.071 0.894,-1.94 0.895,-1.765 0.895,-1.557 0.894,-1.315 0.895,-1.051 0.894,-0.765 0.895,-0.469 0.894,-0.167 0.895,0.133 0.895,0.425 0.895,0.703 0.894,0.96 0.895,1.192 0.894,1.392 0.895,1.557 0.894,1.686 0.895,1.775 0.894,1.821 0.895,1.827 0.895,1.79 0.894,1.716 0.895,1.602 0.894,1.454995 0.895,1.277 0.894,1.074 0.895,0.848 0.895,0.609 0.895,0.358 0.894,0.103 0.895,-0.15 0.894,-0.397 0.895,-0.63 0.894,-0.846 0.895,-1.041 0.895,-1.209 0.894,-1.345995 0.895,-1.453 0.894,-1.524 0.895,-1.561 0.894,-1.562 0.895,-1.527 0.894,-1.459 0.895,-1.358 0.895,-1.229 0.895,-1.073 0.894,-0.895 0.895,-0.7 0.894,-0.491 0.895,-0.273 0.894,-0.053 0.895,0.166 0.894,0.378 0.895,0.58 0.895,0.766 0.894,0.931 0.895,1.074 0.894,1.191 0.895,1.281 0.894,1.338 0.895,1.366 0.895,1.364 0.895,1.328 0.894,1.265 0.895,1.173 0.894,1.056 0.895,0.916995 0.894,0.758 0.895,0.585 0.894,0.398 0.895,0.208 0.895,0.012 0.894,-0.179 0.895,-0.367 0.894,-0.542 0.895,-0.705 0.895,-0.847995 0.894,-0.972 0.895,-1.071 0.895,-1.147 0.894,-1.194 0.895,-1.216 0.894,-1.207 0.895,-1.173 0.894,-1.113 0.895,-1.028 0.895,-0.92 0.894,-0.793 0.895,-0.649 0.894,-0.492 0.895,-0.326 0.894,-0.154 0.895,0.021 0.895,0.191 0.894,0.358 0.895,0.514 0.895,0.656 0.894,0.783 0.895,0.89 0.894,0.977 0.895,1.04 0.894,1.079 0.895,1.094"
         style="fill:none;stroke:#edb120;stroke-width:1.46000004;stroke-linecap:butt;stroke-linejoin:round;stroke-miterlimit:10;stroke-dasharray:none;stroke-opacity:1"
         id="path132"
         inkscape:connector-curvature="0" /><path
         d="m 26.908484,93.626925 0.8941,0.84 0.8946,0.827 0.8953,0.795 0.8945,0.746 0.8945,0.677 0.8946,0.594 0.8945,0.495 0.8948,0.385 0.894,0.267 0.895,0.139 0.895,0.008 0.894,-0.124 0.895,-0.253 0.894,-0.379 0.895,-0.497 0.894,-0.604 0.895,-0.699 0.894,-0.778 0.895,-0.84 0.895,-0.883 0.894,-0.906 0.895,-0.91 0.894,-0.892 0.895,-0.853 0.895,-0.795 0.894,-0.719 0.895,-0.624 0.895,-0.516 0.894,-0.395 0.895,-0.262 0.894,-0.124 0.895,0.018 0.894,0.162 0.895,0.303 0.894,0.439 0.895,0.564 0.895,0.679 0.895,0.779 0.894,0.862 0.895,0.927 0.894,0.969 0.895,0.992 0.894,0.99 0.895,0.968 0.895,0.921 0.894,0.854 0.895,0.768 0.894,0.661 0.895,0.54 0.894,0.404995 0.895,0.259 0.894,0.106 0.895,-0.05 0.895,-0.208 0.895,-0.360995 0.894,-0.508 0.895,-0.644 0.894,-0.768 0.895,-0.874 0.894,-0.963 0.895,-1.029 0.895,-1.073 0.894,-1.093 0.895,-1.087 0.894,-1.058 0.895,-1.002 0.894,-0.926 0.895,-0.825 0.894,-0.706 0.895,-0.569 0.895,-0.417 0.895,-0.255 0.894,-0.086 0.895,0.089 0.894,0.261 0.895,0.431 0.894,0.592 0.895,0.741 0.895,0.874 0.894,0.99 0.895,1.084 0.893996,1.153 0.895,1.198 0.894,1.216 0.895,1.205 0.894,1.168 0.895,1.103 0.895,1.012 0.895,0.896995 0.894,0.761 0.895,0.605 0.894,0.433 0.895,0.251 0.894,0.06 0.895,-0.134 0.895,-0.328 0.894,-0.516 0.895,-0.694 0.894,-0.858995 0.895,-1.007 0.894,-1.132 0.895,-1.233 0.894,-1.309 0.895,-1.354 0.895,-1.368 0.895,-1.353 0.894,-1.305 0.895,-1.228 0.894,-1.122 0.895,-0.987 0.894,-0.83 0.895,-0.652 0.895,-0.455 0.894,-0.247 0.895,-0.03 0.894,0.191 0.895,0.41 0.894,0.622 0.895,0.824 0.894,1.009 0.895,1.173 0.895,1.313 0.895,1.425 0.894,1.505 0.895,1.553 0.894,1.566 0.895,1.542 0.894,1.483 0.895,1.391 0.895,1.263995 0.894,1.107 0.895,0.922 0.894,0.714 0.895,0.486 0.894,0.243 0.895,-0.007 0.894,-0.263 0.895,-0.515 0.895,-0.76 0.895,-0.992 0.894,-1.204 0.895,-1.391995 0.894,-1.551 0.895,-1.677 0.894,-1.766 0.895,-1.818 0.895,-1.828 0.894,-1.797 0.895,-1.724 0.894,-1.611 0.895,-1.458 0.894,-1.27 0.895,-1.051 0.894,-0.801 0.896,-0.532 0.894,-0.244 0.895,0.054 0.894,0.356 0.895,0.655 0.894,0.945 0.895,1.219 0.894,1.47 0.895,1.691 0.895,1.879 0.894,2.027 0.895,2.131 0.894,2.189 0.895,2.199 0.894,2.157 0.895,2.066995 0.895,1.927 0.895,1.739 0.894,1.511 0.895,1.24 0.894,0.937 0.895,0.606 0.894,0.254 0.895,-0.111 0.894,-0.482 0.895,-0.85 0.895,-1.207 0.894,-1.544 0.895,-1.854 0.894,-2.129 0.895,-2.360995 0.894,-2.545 0.895,-2.677 0.895,-2.749 0.895,-2.761 0.894,-2.711 0.895,-2.597 0.894,-2.421 0.895,-2.187 0.894,-1.896 0.895,-1.554 0.894,-1.168 0.895,-0.744 0.895,-0.293 0.894,0.178 0.895,0.659 0.894,1.137 0.895,1.606 0.894,2.049 0.895,2.461 0.895,2.829 0.895,3.144 0.894,3.398 0.895,3.583 0.894,3.694 0.895,3.721995 0.894,3.67 0.895,3.532 0.894,3.309 0.895,3.003 0.895,2.62 0.894,2.163 0.895,1.64 0.894,1.06 0.895,0.434 0.894,-0.225 0.895,-0.907 0.895,-1.597 0.895,-2.279 0.894,-2.939 0.895,-3.563 0.894,-4.136 0.895,-4.64 0.894,-5.066995 0.895,-5.401 0.895,-5.632 0.894,-5.75 0.895,-5.746 0.894,-5.615 0.895,-5.356 0.894,-4.963 0.895,-4.439 0.894,-3.788 0.895,-3.015 0.895,-2.128 0.895,-1.138 0.894,-0.057 0.895,1.1 0.894,2.318 0.895,3.579 0.894,4.862 0.895,6.148 0.895,7.418 0.894,8.651 0.895,9.825 0.894,10.921 0.895,11.918995 0.894,12.802 0.895,13.551 0.894,14.154 0.895,14.597 0.895,14.869 0.895,14.963 0.894,14.873 0.895,14.598 0.894,14.135 0.895,13.492 0.894,12.673 0.895,11.686 0.895,10.543 0.894,9.261 0.895,7.853 0.894,6.338 0.895,4.738 0.894,3.073 0.895,1.365 0.894,-0.36 0.895,-2.08 0.895,-3.773 0.895,-5.414 0.894,-6.981 0.895,-8.453 0.894,-9.811 0.895,-11.038 0.894,-12.117 0.895,-13.035 0.895,-13.782 0.894,-14.351 0.895,-14.734 0.894,-14.933 0.895,-14.946 0.894,-14.777 0.895,-14.432 0.894,-13.922 0.895,-13.256 0.895,-12.449 0.895,-11.515995 0.894,-10.475 0.895,-9.345 0.894,-8.143 0.895,-6.893 0.894,-5.613 0.895,-4.325 0.895,-3.049 0.894,-1.805 0.895,-0.61 0.894,0.517 0.895,1.562 0.894,2.512 0.895,3.351 0.894,4.075 0.896,4.673 0.894,5.142 0.895,5.48 0.894,5.686 0.895,5.763 0.894,5.714 0.895,5.549 0.894,5.274 0.895,4.899995 0.895,4.439 0.894,3.904 0.895,3.309 0.894,2.667 0.895,1.997 0.894,1.31 0.895,0.621 0.895,-0.053 0.895,-0.7 0.894,-1.308 0.895,-1.865 0.894,-2.362 0.895,-2.789 0.894,-3.141 0.895,-3.411 0.894,-3.6 0.895,-3.701995 0.895,-3.721 0.894,-3.656 0.895,-3.515 0.894,-3.3 0.895,-3.02 0.894,-2.682 0.895,-2.294 0.895,-1.868 0.895,-1.412 0.894,-0.939 0.895,-0.458 0.894,0.019 0.895,0.484 0.894,0.925 0.895,1.334 0.894,1.702 0.895,2.024 0.895,2.292 0.894,2.501 0.895,2.653 0.894,2.739 0.895,2.764 0.894,2.726 0.895,2.628 0.895,2.474995 0.895,2.27 0.894,2.019 0.895,1.728 0.894,1.407 0.895,1.06 0.894,0.697 0.895,0.328 0.894,-0.042 0.895,-0.403 0.895,-0.747 0.894,-1.067 0.895,-1.357 0.894,-1.611 0.895,-1.823 0.894,-1.991 0.895,-2.110995 0.895,-2.18 0.895,-2.201 0.894,-2.171 0.895,-2.093 0.894,-1.97 0.895,-1.806 0.894,-1.602 0.895,-1.368 0.894,-1.108 0.895,-0.826 0.895,-0.531 0.894,-0.23 0.895,0.071 0.894,0.365 0.895,0.647 0.894,0.909 0.895,1.145 0.895,1.353 0.895,1.526 0.894,1.663 0.895,1.759 0.894,1.815 0.895,1.828 0.894,1.802 0.895,1.734 0.894,1.629 0.895,1.487995 0.895,1.317 0.894,1.118 0.895,0.897 0.894,0.66 0.895,0.411 0.894,0.156 0.895,-0.098 0.895,-0.346 0.895,-0.583 0.894,-0.803 0.895,-1.002 0.894,-1.176 0.895,-1.320995 0.894,-1.433 0.895,-1.513 0.894,-1.556 0.895,-1.564 0.895,-1.537 0.894,-1.476 0.895,-1.382 0.894,-1.258 0.895,-1.107 0.894,-0.935 0.895,-0.741 0.895,-0.535 0.895,-0.319 0.894,-0.099 0.895,0.12 0.894,0.336 0.895,0.538 0.894,0.729 0.895,0.898 0.895,1.047 0.894,1.169 0.895,1.264 0.894,1.329 0.895,1.363 0.894,1.366 0.895,1.339 0.894,1.28 0.895,1.195 0.895,1.082 0.895,0.948 0.894,0.791995 0.895,0.622 0.894,0.438 0.895,0.248 0.894,0.053 0.895,-0.14 0.894,-0.329 0.895,-0.507 0.895,-0.672 0.894,-0.818995 0.895,-0.948 0.894,-1.053 0.895,-1.133 0.894,-1.187 0.895,-1.213 0.895,-1.212 0.895,-1.182 0.894,-1.128 0.895,-1.047 0.894,-0.944 0.895,-0.821 0.894,-0.681 0.895,-0.526 0.894,-0.36 0.895,-0.19 0.895,-0.016 0.894,0.157 0.895,0.323 0.894,0.482 0.895,0.628 0.895,0.758 0.894,0.87 0.895,0.96 0.895,1.029 0.894,1.073 0.895,1.093 0.894,1.087 0.895,1.058 0.894,1.003 0.895,0.929 0.895,0.832 0.894,0.718 0.895,0.589 0.894,0.447995 0.895,0.298 0.894,0.142 0.895,-0.015 0.895,-0.171 0.894,-0.320995 0.895,-0.462 0.895,-0.593 0.894,-0.707 0.895,-0.806 0.894,-0.884 0.895,-0.944 0.894,-0.98 0.895,-0.993"
         style="fill:none;stroke:#7e2f8e;stroke-width:1.46000004;stroke-linecap:butt;stroke-linejoin:round;stroke-miterlimit:10;stroke-dasharray:none;stroke-opacity:1"
         id="path134"
         inkscape:connector-curvature="0" /><path
         d="m 26.908484,93.626925 0.8941,-0.911 0.8946,-0.897 0.8953,-0.863 0.8945,-0.809 0.8945,-0.736 0.8946,-0.646 0.8945,-0.539 0.8948,-0.421 0.894,-0.291 0.895,-0.153 0.895,-0.011 0.894,0.132 0.895,0.274 0.894,0.411 0.895,0.539 0.894,0.656 0.895,0.76 0.894,0.846 0.895,0.914 0.895,0.963 0.894,0.989 0.895,0.992 0.894,0.974 0.895,0.933 0.895,0.87 0.894,0.787 0.895,0.685 0.895,0.566 0.894,0.433995 0.895,0.29 0.894,0.139 0.895,-0.018 0.894,-0.174 0.895,-0.329995 0.894,-0.478 0.895,-0.617 0.895,-0.743 0.895,-0.854 0.894,-0.946 0.895,-1.017 0.894,-1.066 0.895,-1.091 0.894,-1.09 0.895,-1.066 0.895,-1.016 0.894,-0.944 0.895,-0.847 0.894,-0.733 0.895,-0.598 0.894,-0.451 0.895,-0.289 0.894,-0.121 0.895,0.052 0.895,0.226 0.895,0.396 0.894,0.559 0.895,0.711 0.894,0.848 0.895,0.967 0.894,1.066 0.895,1.142 0.895,1.19 0.894,1.215 0.895,1.209 0.894,1.178 0.895,1.119 0.894,1.033 0.895,0.923 0.894,0.789995 0.895,0.639 0.895,0.471 0.895,0.29 0.894,0.1 0.895,-0.094 0.894,-0.288 0.895,-0.477 0.894,-0.658 0.895,-0.826995 0.895,-0.977 0.894,-1.108 0.895,-1.215 0.893996,-1.295 0.895,-1.346 0.894,-1.368 0.895,-1.359 0.894,-1.318 0.895,-1.246 0.895,-1.146 0.895,-1.018 0.894,-0.865 0.895,-0.69 0.894,-0.498 0.895,-0.291 0.894,-0.075 0.895,0.145 0.895,0.365 0.894,0.579 0.895,0.783 0.894,0.972 0.895,1.14 0.894,1.287 0.895,1.403 0.894,1.492 0.895,1.545 0.895,1.566 0.895,1.55 0.894,1.499 0.895,1.413 0.894,1.292995 0.895,1.141 0.894,0.963 0.895,0.759 0.895,0.535 0.894,0.295 0.895,0.046 0.894,-0.21 0.895,-0.463 0.894,-0.711 0.895,-0.945 0.894,-1.161 0.895,-1.354995 0.895,-1.52 0.895,-1.653 0.894,-1.752 0.895,-1.811 0.894,-1.829 0.895,-1.807 0.894,-1.742 0.895,-1.638 0.895,-1.493 0.894,-1.312 0.895,-1.098 0.894,-0.856 0.895,-0.59 0.894,-0.304 0.895,-0.009 0.894,0.293 0.895,0.594 0.895,0.885 0.895,1.164 0.894,1.419 0.895,1.648 0.894,1.843 0.895,1.999 0.894,2.113 0.895,2.181 0.895,2.201 0.894,2.171 0.895,2.088995 0.894,1.96 0.895,1.783 0.894,1.561 0.895,1.299 0.894,1.003 0.896,0.677 0.894,0.329 0.895,-0.034 0.894,-0.405 0.895,-0.774 0.894,-1.134 0.895,-1.476 0.894,-1.792 0.895,-2.075 0.895,-2.315995 0.894,-2.511 0.895,-2.654 0.894,-2.739 0.895,-2.764 0.894,-2.726 0.895,-2.626 0.895,-2.464 0.895,-2.24 0.894,-1.961 0.895,-1.629 0.894,-1.251 0.895,-0.835 0.894,-0.39 0.895,0.079 0.894,0.559 0.895,1.039 0.895,1.508 0.894,1.96 0.895,2.378 0.894,2.757 0.895,3.083 0.894,3.351 0.895,3.55 0.895,3.677 0.895,3.722995 0.894,3.688 0.895,3.568 0.894,3.362 0.895,3.074 0.894,2.706 0.895,2.263 0.894,1.754 0.895,1.185 0.895,0.568 0.894,-0.085 0.895,-0.765 0.894,-1.452 0.895,-2.139 0.894,-2.804 0.895,-3.437 0.895,-4.021 0.895,-4.541 0.894,-4.985995 0.895,-5.34 0.894,-5.592 0.895,-5.735 0.894,-5.757 0.895,-5.654 0.894,-5.42 0.895,-5.056 0.895,-4.559 0.894,-3.934 0.895,-3.186 0.894,-2.321 0.895,-1.353 0.894,-0.289 0.895,0.855 0.895,2.06 0.895,3.313 0.894,4.593 0.895,5.881 0.894,7.157 0.895,8.398 0.894,9.586 0.895,10.7 0.895,11.719995 0.894,12.628 0.895,13.407 0.894,14.041 0.895,14.519 0.894,14.827 0.895,14.958 0.894,14.907 0.895,14.67 0.895,14.247 0.895,13.641 0.894,12.858 0.895,11.905 0.894,10.793 0.895,9.539 0.894,8.155 0.895,6.662 0.895,5.077 0.894,3.424 0.895,1.724 h 0.894 l 0.895,-1.724 0.894,-3.424 0.895,-5.077 0.894,-6.662 0.895,-8.155 0.895,-9.539 0.895,-10.793 0.894,-11.905 0.895,-12.858 0.894,-13.641 0.895,-14.247 0.894,-14.67 0.895,-14.907 0.895,-14.958 0.894,-14.827 0.895,-14.519 0.894,-14.041 0.895,-13.407 0.894,-12.628 0.895,-11.719995 0.894,-10.7 0.895,-9.586 0.895,-8.398 0.895,-7.157 0.894,-5.881 0.895,-4.593 0.894,-3.313 0.895,-2.06 0.894,-0.855 0.895,0.289 0.895,1.353 0.894,2.321 0.895,3.186 0.894,3.934 0.895,4.559 0.894,5.056 0.895,5.42 0.894,5.654 0.895,5.757 0.895,5.735 0.895,5.592 0.894,5.34 0.895,4.985995 0.894,4.541 0.895,4.021 0.894,3.437 0.895,2.804 0.895,2.139 0.894,1.452 0.895,0.765 0.894,0.085 0.895,-0.568 0.894,-1.185 0.895,-1.754 0.894,-2.263 0.896,-2.706 0.894,-3.074 0.895,-3.362 0.894,-3.568 0.895,-3.688 0.894,-3.722995 0.895,-3.677 0.894,-3.55 0.895,-3.351 0.895,-3.083 0.894,-2.757 0.895,-2.378 0.894,-1.96 0.895,-1.508 0.894,-1.039 0.895,-0.559 0.895,-0.079 0.895,0.39 0.894,0.835 0.895,1.251 0.894,1.629 0.895,1.961 0.894,2.24 0.895,2.464 0.894,2.626 0.895,2.726 0.895,2.764 0.894,2.739 0.895,2.654 0.894,2.511 0.895,2.315995 0.894,2.075 0.895,1.792 0.895,1.476 0.895,1.134 0.894,0.774 0.895,0.405 0.894,0.034 0.895,-0.329 0.894,-0.677 0.895,-1.003 0.894,-1.299 0.895,-1.561 0.895,-1.783 0.894,-1.96 0.895,-2.088995 0.894,-2.171 0.895,-2.201 0.894,-2.181 0.895,-2.113 0.895,-1.999 0.895,-1.843 0.894,-1.648 0.895,-1.419 0.894,-1.164 0.895,-0.885 0.894,-0.594 0.895,-0.293 0.894,0.009 0.895,0.304 0.895,0.59 0.894,0.856 0.895,1.098 0.894,1.312 0.895,1.493 0.894,1.638 0.895,1.742 0.895,1.807 0.895,1.829 0.894,1.811 0.895,1.752 0.894,1.653 0.895,1.52 0.894,1.354995 0.895,1.161 0.894,0.945 0.895,0.711 0.895,0.463 0.894,0.21 0.895,-0.046 0.894,-0.295 0.895,-0.535 0.894,-0.759 0.895,-0.963 0.895,-1.141 0.895,-1.292995 0.894,-1.413 0.895,-1.499 0.894,-1.55 0.895,-1.566 0.894,-1.545 0.895,-1.492 0.894,-1.403 0.895,-1.287 0.895,-1.14 0.894,-0.972 0.895,-0.783 0.894,-0.579 0.895,-0.365 0.894,-0.145 0.895,0.075 0.895,0.291 0.895,0.498 0.894,0.69 0.895,0.865 0.894,1.018 0.895,1.146 0.894,1.246 0.895,1.318 0.894,1.359 0.895,1.368 0.895,1.346 0.894,1.295 0.895,1.215 0.894,1.108 0.895,0.977 0.894,0.826995 0.895,0.658 0.895,0.477 0.895,0.288 0.894,0.094 0.895,-0.1 0.894,-0.29 0.895,-0.471 0.894,-0.639 0.895,-0.789995 0.895,-0.923 0.894,-1.033 0.895,-1.119 0.894,-1.178 0.895,-1.209 0.894,-1.215 0.895,-1.19 0.894,-1.142 0.895,-1.066 0.895,-0.967 0.895,-0.848 0.894,-0.711 0.895,-0.559 0.894,-0.396 0.895,-0.226 0.894,-0.052 0.895,0.121 0.894,0.289 0.895,0.451 0.895,0.598 0.894,0.733 0.895,0.847 0.894,0.944 0.895,1.016 0.894,1.066 0.895,1.09 0.895,1.091 0.895,1.066 0.894,1.017 0.895,0.946 0.894,0.854 0.895,0.743 0.894,0.617 0.895,0.478 0.894,0.329995 0.895,0.174 0.895,0.018 0.894,-0.139 0.895,-0.29 0.894,-0.433995 0.895,-0.566 0.895,-0.685 0.894,-0.787 0.895,-0.87 0.895,-0.933 0.894,-0.974 0.895,-0.992 0.894,-0.989 0.895,-0.963 0.894,-0.914 0.895,-0.846 0.895,-0.76 0.894,-0.656 0.895,-0.539 0.894,-0.411 0.895,-0.274 0.894,-0.132 0.895,0.011 0.895,0.153 0.894,0.291 0.895,0.421 0.895,0.539 0.894,0.646 0.895,0.736 0.894,0.809 0.895,0.863 0.894,0.897 0.895,0.911"
         style="fill:none;stroke:#77ac30;stroke-width:1.46000004;stroke-linecap:butt;stroke-linejoin:round;stroke-miterlimit:10;stroke-dasharray:none;stroke-opacity:1"
         id="path136"
         inkscape:connector-curvature="0" /><path
         d="m 26.908484,93.626925 0.8941,0.993 0.8946,0.98 0.8953,0.944 0.8945,0.884 0.8945,0.806 0.8946,0.707 0.8945,0.593 0.8948,0.462 0.894,0.320995 0.895,0.171 0.895,0.015 0.894,-0.142 0.895,-0.298 0.894,-0.447995 0.895,-0.589 0.894,-0.718 0.895,-0.832 0.894,-0.929 0.895,-1.003 0.895,-1.058 0.894,-1.087 0.895,-1.093 0.894,-1.073 0.895,-1.029 0.895,-0.96 0.894,-0.87 0.895,-0.758 0.895,-0.628 0.894,-0.482 0.895,-0.323 0.894,-0.157 0.895,0.016 0.894,0.19 0.895,0.36 0.894,0.526 0.895,0.681 0.895,0.821 0.895,0.944 0.894,1.047 0.895,1.128 0.894,1.182 0.895,1.212 0.894,1.213 0.895,1.187 0.895,1.133 0.894,1.053 0.895,0.948 0.894,0.818995 0.895,0.672 0.894,0.507 0.895,0.329 0.894,0.14 0.895,-0.053 0.895,-0.248 0.895,-0.438 0.894,-0.622 0.895,-0.791995 0.894,-0.948 0.895,-1.082 0.894,-1.195 0.895,-1.28 0.895,-1.339 0.894,-1.366 0.895,-1.363 0.894,-1.329 0.895,-1.264 0.894,-1.169 0.895,-1.047 0.894,-0.898 0.895,-0.729 0.895,-0.538 0.895,-0.336 0.894,-0.12 0.895,0.099 0.894,0.319 0.895,0.535 0.894,0.741 0.895,0.935 0.895,1.107 0.894,1.258 0.895,1.382 0.893996,1.476 0.895,1.537 0.894,1.564 0.895,1.556 0.894,1.513 0.895,1.433 0.895,1.320995 0.895,1.176 0.894,1.002 0.895,0.803 0.894,0.583 0.895,0.346 0.894,0.098 0.895,-0.156 0.895,-0.411 0.894,-0.66 0.895,-0.897 0.894,-1.118 0.895,-1.317 0.894,-1.487995 0.895,-1.629 0.894,-1.734 0.895,-1.802 0.895,-1.828 0.895,-1.815 0.894,-1.759 0.895,-1.663 0.894,-1.526 0.895,-1.353 0.894,-1.145 0.895,-0.909 0.895,-0.647 0.894,-0.365 0.895,-0.071 0.894,0.23 0.895,0.531 0.894,0.826 0.895,1.108 0.894,1.368 0.895,1.602 0.895,1.806 0.895,1.97 0.894,2.093 0.895,2.171 0.894,2.201 0.895,2.18 0.894,2.110995 0.895,1.991 0.895,1.823 0.894,1.611 0.895,1.357 0.894,1.067 0.895,0.747 0.894,0.403 0.895,0.042 0.894,-0.328 0.895,-0.697 0.895,-1.06 0.895,-1.407 0.894,-1.728 0.895,-2.019 0.894,-2.27 0.895,-2.474995 0.894,-2.628 0.895,-2.726 0.895,-2.764 0.894,-2.739 0.895,-2.653 0.894,-2.501 0.895,-2.292 0.894,-2.024 0.895,-1.702 0.894,-1.334 0.896,-0.925 0.894,-0.484 0.895,-0.019 0.894,0.458 0.895,0.939 0.894,1.412 0.895,1.868 0.894,2.294 0.895,2.682 0.895,3.02 0.894,3.3 0.895,3.515 0.894,3.656 0.895,3.721 0.894,3.701995 0.895,3.6 0.895,3.411 0.895,3.141 0.894,2.789 0.895,2.362 0.894,1.865 0.895,1.308 0.894,0.7 0.895,0.053 0.894,-0.621 0.895,-1.31 0.895,-1.997 0.894,-2.667 0.895,-3.309 0.894,-3.904 0.895,-4.439 0.894,-4.899995 0.895,-5.274 0.895,-5.549 0.895,-5.714 0.894,-5.763 0.895,-5.686 0.894,-5.48 0.895,-5.142 0.894,-4.673 0.895,-4.075 0.894,-3.351 0.895,-2.512 0.895,-1.562 0.894,-0.517 0.895,0.61 0.894,1.805 0.895,3.049 0.894,4.325 0.895,5.613 0.895,6.893 0.895,8.143 0.894,9.345 0.895,10.475 0.894,11.515995 0.895,12.449 0.894,13.256 0.895,13.922 0.894,14.432 0.895,14.777 0.895,14.946 0.894,14.933 0.895,14.734 0.894,14.351 0.895,13.782 0.894,13.035 0.895,12.117 0.895,11.038 0.895,9.811 0.894,8.453 0.895,6.981 0.894,5.414 0.895,3.773 0.894,2.08 0.895,0.36 0.895,-1.365 0.894,-3.073 0.895,-4.738 0.894,-6.338 0.895,-7.853 0.894,-9.261 0.895,-10.543 0.894,-11.686 0.895,-12.673 0.895,-13.492 0.895,-14.135 0.894,-14.598 0.895,-14.873 0.894,-14.963 0.895,-14.869 0.894,-14.597 0.895,-14.154 0.895,-13.551 0.894,-12.802 0.895,-11.918995 0.894,-10.921 0.895,-9.825 0.894,-8.651 0.895,-7.418 0.894,-6.148 0.895,-4.862 0.895,-3.579 0.895,-2.318 0.894,-1.1 0.895,0.057 0.894,1.138 0.895,2.128 0.894,3.015 0.895,3.788 0.895,4.439 0.894,4.963 0.895,5.356 0.894,5.615 0.895,5.746 0.894,5.75 0.895,5.632 0.894,5.401 0.895,5.066995 0.895,4.64 0.895,4.136 0.894,3.563 0.895,2.939 0.894,2.279 0.895,1.597 0.894,0.907 0.895,0.225 0.895,-0.434 0.894,-1.06 0.895,-1.64 0.894,-2.163 0.895,-2.62 0.894,-3.003 0.895,-3.309 0.894,-3.532 0.895,-3.67 0.895,-3.721995 0.895,-3.694 0.894,-3.583 0.895,-3.398 0.894,-3.144 0.895,-2.829 0.894,-2.461 0.895,-2.049 0.895,-1.606 0.894,-1.137 0.895,-0.659 0.894,-0.178 0.895,0.293 0.894,0.744 0.895,1.168 0.894,1.554 0.896,1.896 0.894,2.187 0.895,2.421 0.894,2.597 0.895,2.711 0.894,2.761 0.895,2.749 0.894,2.677 0.895,2.545 0.895,2.360995 0.894,2.129 0.895,1.854 0.894,1.544 0.895,1.207 0.894,0.85 0.895,0.482 0.895,0.111 0.895,-0.254 0.894,-0.606 0.895,-0.937 0.894,-1.24 0.895,-1.511 0.894,-1.739 0.895,-1.927 0.894,-2.066995 0.895,-2.157 0.895,-2.199 0.894,-2.189 0.895,-2.131 0.894,-2.027 0.895,-1.879 0.894,-1.691 0.895,-1.47 0.895,-1.219 0.895,-0.945 0.894,-0.655 0.895,-0.356 0.894,-0.054 0.895,0.244 0.894,0.532 0.895,0.801 0.894,1.051 0.895,1.27 0.895,1.458 0.894,1.611 0.895,1.724 0.894,1.797 0.895,1.828 0.894,1.818 0.895,1.766 0.895,1.677 0.895,1.551 0.894,1.391995 0.895,1.204 0.894,0.992 0.895,0.76 0.894,0.515 0.895,0.263 0.894,0.007 0.895,-0.243 0.895,-0.486 0.894,-0.714 0.895,-0.922 0.894,-1.107 0.895,-1.263995 0.894,-1.391 0.895,-1.483 0.895,-1.542 0.895,-1.566 0.894,-1.553 0.895,-1.505 0.894,-1.425 0.895,-1.313 0.894,-1.173 0.895,-1.009 0.894,-0.824 0.895,-0.622 0.895,-0.41 0.894,-0.191 0.895,0.03 0.894,0.247 0.895,0.455 0.894,0.652 0.895,0.83 0.895,0.987 0.895,1.122 0.894,1.228 0.895,1.305 0.894,1.353 0.895,1.368 0.894,1.354 0.895,1.309 0.894,1.233 0.895,1.132 0.895,1.007 0.894,0.858995 0.895,0.694 0.894,0.516 0.895,0.328 0.894,0.134 0.895,-0.06 0.895,-0.251 0.895,-0.433 0.894,-0.605 0.895,-0.761 0.894,-0.896995 0.895,-1.012 0.894,-1.103 0.895,-1.168 0.894,-1.205 0.895,-1.216 0.895,-1.198 0.894,-1.153 0.895,-1.084 0.894,-0.99 0.895,-0.874 0.894,-0.741 0.895,-0.592 0.895,-0.431 0.895,-0.261 0.894,-0.089 0.895,0.086 0.894,0.255 0.895,0.417 0.894,0.569 0.895,0.706 0.895,0.825 0.894,0.926 0.895,1.002 0.894,1.058 0.895,1.087 0.894,1.093 0.895,1.073 0.894,1.029 0.895,0.963 0.895,0.874 0.895,0.768 0.894,0.644 0.895,0.508 0.894,0.360995 0.895,0.208 0.894,0.05 0.895,-0.106 0.894,-0.259 0.895,-0.404995 0.895,-0.54 0.894,-0.661 0.895,-0.768 0.894,-0.854 0.895,-0.921 0.894,-0.968 0.895,-0.99 0.895,-0.992 0.895,-0.969 0.894,-0.927 0.895,-0.862 0.894,-0.779 0.895,-0.679 0.894,-0.564 0.895,-0.439 0.894,-0.303 0.895,-0.162 0.895,-0.018 0.894,0.124 0.895,0.262 0.894,0.395 0.895,0.516 0.895,0.624 0.894,0.719 0.895,0.795 0.895,0.853 0.894,0.892 0.895,0.91 0.894,0.906 0.895,0.883 0.894,0.84 0.895,0.778 0.895,0.699 0.894,0.604 0.895,0.497 0.894,0.379 0.895,0.253 0.894,0.124 0.895,-0.008 0.895,-0.139 0.894,-0.267 0.895,-0.385 0.895,-0.495 0.894,-0.594 0.895,-0.677 0.894,-0.746 0.895,-0.795 0.894,-0.827 0.895,-0.84"
         style="fill:none;stroke:#4dbeee;stroke-width:1.46000004;stroke-linecap:butt;stroke-linejoin:round;stroke-miterlimit:10;stroke-dasharray:none;stroke-opacity:1"
         id="path138"
         inkscape:connector-curvature="0" /><path
         d="m 26.908484,93.626925 0.8941,-1.094 0.8946,-1.079 0.8953,-1.04 0.8945,-0.977 0.8945,-0.89 0.8946,-0.783 0.8945,-0.656 0.8948,-0.514 0.894,-0.358 0.895,-0.191 0.895,-0.021 0.894,0.154 0.895,0.326 0.894,0.492 0.895,0.649 0.894,0.793 0.895,0.92 0.894,1.028 0.895,1.113 0.895,1.173 0.894,1.207 0.895,1.216 0.894,1.194 0.895,1.147 0.895,1.071 0.894,0.972 0.895,0.847995 0.895,0.705 0.894,0.542 0.895,0.367 0.894,0.179 0.895,-0.012 0.894,-0.208 0.895,-0.398 0.894,-0.585 0.895,-0.758 0.895,-0.916995 0.895,-1.056 0.894,-1.173 0.895,-1.265 0.894,-1.328 0.895,-1.364 0.894,-1.366 0.895,-1.338 0.895,-1.281 0.894,-1.191 0.895,-1.074 0.894,-0.931 0.895,-0.766 0.894,-0.58 0.895,-0.378 0.894,-0.166 0.895,0.053 0.895,0.273 0.895,0.491 0.894,0.7 0.895,0.895 0.894,1.073 0.895,1.229 0.894,1.358 0.895,1.459 0.895,1.527 0.894,1.562 0.895,1.561 0.894,1.524 0.895,1.453 0.894,1.345995 0.895,1.209 0.894,1.041 0.895,0.846 0.895,0.63 0.895,0.397 0.894,0.15 0.895,-0.103 0.894,-0.358 0.895,-0.609 0.894,-0.848 0.895,-1.074 0.895,-1.277 0.894,-1.454995 0.895,-1.602 0.893996,-1.716 0.895,-1.79 0.894,-1.827 0.895,-1.821 0.894,-1.775 0.895,-1.686 0.895,-1.557 0.895,-1.392 0.894,-1.192 0.895,-0.96 0.894,-0.703 0.895,-0.425 0.894,-0.133 0.895,0.167 0.895,0.469 0.894,0.765 0.895,1.051 0.894,1.315 0.895,1.557 0.894,1.765 0.895,1.94 0.894,2.071 0.895,2.158 0.895,2.199 0.895,2.189 0.894,2.128995 0.895,2.02 0.894,1.862 0.895,1.659 0.894,1.413 0.895,1.13 0.895,0.816 0.894,0.476 0.895,0.119 0.894,-0.25 0.895,-0.621 0.894,-0.986 0.895,-1.336 0.894,-1.664 0.895,-1.961 0.895,-2.221 0.895,-2.435995 0.894,-2.602 0.895,-2.71 0.894,-2.761 0.895,-2.75 0.894,-2.675 0.895,-2.539 0.895,-2.34 0.894,-2.084 0.895,-1.773 0.894,-1.414 0.895,-1.013 0.894,-0.578 0.895,-0.118 0.894,0.358 0.895,0.839 0.895,1.315 0.895,1.775 0.894,2.208 0.895,2.604 0.894,2.954 0.895,3.247 0.894,3.476 0.895,3.634 0.895,3.714 0.894,3.711995 0.895,3.628 0.894,3.458 0.895,3.204 0.894,2.869 0.895,2.456 0.894,1.974 0.896,1.429 0.894,0.831 0.895,0.19 0.894,-0.48 0.895,-1.165 0.894,-1.854 0.895,-2.53 0.894,-3.179 0.895,-3.784 0.895,-4.333 0.894,-4.811 0.895,-5.203995 0.894,-5.5 0.895,-5.69 0.894,-5.762 0.895,-5.713 0.895,-5.534 0.895,-5.223 0.894,-4.782 0.895,-4.21 0.894,-3.511 0.895,-2.696 0.894,-1.769 0.895,-0.742 0.894,0.369 0.895,1.551 0.895,2.787 0.894,4.057 0.895,5.346 0.894,6.628 0.895,7.886 0.894,9.099 0.895,10.246 0.895,11.307995 0.895,12.264 0.894,13.1 0.895,13.794 0.894,14.34 0.895,14.72 0.894,14.925 0.895,14.951 0.894,14.791 0.895,14.446 0.895,13.916 0.894,13.205 0.895,12.321 0.894,11.276 0.895,10.078 0.894,8.746 0.895,7.296 0.895,5.747 0.895,4.12 0.894,2.436 0.895,0.72 0.894,-1.007 0.895,-2.72 0.894,-4.395 0.895,-6.012 0.894,-7.545 0.895,-8.977 0.895,-10.288 0.894,-11.46 0.895,-12.48 0.894,-13.336 0.895,-14.017 0.894,-14.516 0.895,-14.831 0.895,-14.959 0.895,-14.904 0.894,-14.668 0.895,-14.259 0.894,-13.69 0.895,-12.969 0.894,-12.113 0.895,-11.137995 0.895,-10.06 0.894,-8.902 0.895,-7.679 0.894,-6.415 0.895,-5.129 0.894,-3.845 0.895,-2.578 0.894,-1.35 0.895,-0.178 0.895,0.92 0.895,1.93 0.894,2.839 0.895,3.637 0.894,4.314 0.895,4.864 0.894,5.285 0.895,5.572 0.895,5.73 0.894,5.759 0.895,5.666 0.894,5.458 0.895,5.143995 0.894,4.737 0.895,4.246 0.894,3.687 0.895,3.073 0.895,2.419 0.895,1.74 0.894,1.051 0.895,0.366 0.894,-0.3 0.895,-0.933 0.894,-1.523 0.895,-2.059 0.895,-2.53 0.894,-2.931 0.895,-3.252 0.894,-3.492 0.895,-3.648 0.894,-3.717995 0.895,-3.707 0.894,-3.612 0.895,-3.443 0.895,-3.202 0.895,-2.9 0.894,-2.541 0.895,-2.138 0.894,-1.7 0.895,-1.236 0.894,-0.759 0.895,-0.278 0.895,0.196 0.894,0.652 0.895,1.082 0.894,1.478 0.895,1.828 0.894,2.131 0.895,2.377 0.894,2.566 0.895,2.692 0.895,2.756 0.895,2.757 0.894,2.696 0.895,2.577 0.894,2.403995 0.895,2.181 0.894,1.914 0.895,1.611 0.895,1.279 0.894,0.926 0.895,0.559 0.894,0.188 0.895,-0.178 0.894,-0.534 0.895,-0.871 0.894,-1.18 0.896,-1.457 0.894,-1.695 0.895,-1.892 0.894,-2.040995 0.895,-2.143 0.894,-2.194 0.895,-2.195 0.894,-2.147 0.895,-2.053 0.895,-1.913 0.894,-1.733 0.895,-1.518 0.894,-1.274 0.895,-1.004 0.894,-0.716 0.895,-0.419 0.895,-0.117 0.895,0.183 0.894,0.473 0.895,0.747 0.894,1.001 0.895,1.226 0.894,1.423 0.895,1.581 0.894,1.704 0.895,1.785 0.895,1.825 0.894,1.824 0.895,1.78 0.894,1.699 0.895,1.58 0.894,1.427995 0.895,1.244 0.895,1.038 0.895,0.81 0.894,0.568 0.895,0.315 0.894,0.061 0.895,-0.192 0.894,-0.436 0.895,-0.668 0.894,-0.881 0.895,-1.071 0.895,-1.233 0.894,-1.366995 0.895,-1.467 0.894,-1.533 0.895,-1.564 0.894,-1.558 0.895,-1.518 0.895,-1.444 0.895,-1.339 0.894,-1.204 0.895,-1.045 0.894,-0.864 0.895,-0.665 0.894,-0.455 0.895,-0.237 0.894,-0.017 0.895,0.202 0.895,0.413 0.894,0.612 0.895,0.795 0.894,0.957 0.895,1.095 0.894,1.208 0.895,1.292 0.895,1.346 0.895,1.368 0.894,1.359 0.895,1.32 0.894,1.251 0.895,1.156 0.894,1.034 0.895,0.891995 0.894,0.73 0.895,0.554 0.895,0.368 0.894,0.175 0.895,-0.02 0.894,-0.212 0.895,-0.396 0.894,-0.571 0.895,-0.73 0.895,-0.869995 0.895,-0.99 0.894,-1.086 0.895,-1.156 0.894,-1.2 0.895,-1.216 0.894,-1.204 0.895,-1.165 0.894,-1.1 0.895,-1.011 0.895,-0.901 0.894,-0.77 0.895,-0.624 0.894,-0.465 0.895,-0.297 0.894,-0.125 0.895,0.05 0.895,0.22 0.895,0.384 0.894,0.539 0.895,0.678 0.894,0.803 0.895,0.905 0.894,0.989 0.895,1.048 0.894,1.084 0.895,1.093 0.895,1.079 0.894,1.04 0.895,0.979 0.894,0.894 0.895,0.791 0.894,0.672 0.895,0.537 0.895,0.391995 0.895,0.241 0.894,0.083 0.895,-0.074 0.894,-0.228 0.895,-0.374995 0.894,-0.513 0.895,-0.637 0.895,-0.747 0.894,-0.837 0.895,-0.91 0.894,-0.959 0.895,-0.988 0.894,-0.993 0.895,-0.976 0.894,-0.937 0.895,-0.878 0.895,-0.797 0.895,-0.702 0.894,-0.589 0.895,-0.465 0.894,-0.332 0.895,-0.192 0.894,-0.048 0.895,0.094 0.894,0.235 0.895,0.367 0.895,0.492 0.894,0.603 0.895,0.7 0.894,0.781 0.895,0.843 0.894,0.885 0.895,0.908 0.895,0.909 0.895,0.889 0.894,0.851 0.895,0.792 0.894,0.716 0.895,0.625 0.894,0.52 0.895,0.405 0.894,0.28 0.895,0.151 0.895,0.019 0.894,-0.112 0.895,-0.24 0.894,-0.361 0.895,-0.474 0.895,-0.574 0.894,-0.661 0.895,-0.732 0.895,-0.787 0.894,-0.822 0.895,-0.839 0.894,-0.837 0.895,-0.816 0.894,-0.776 0.895,-0.72 0.895,-0.647 0.894,-0.559 0.895,-0.461 0.894,-0.352 0.895,-0.236 0.894,-0.117 0.895,0.007 0.895,0.127 0.894,0.245 0.895,0.356 0.895,0.458 0.894,0.55 0.895,0.627 0.894,0.69 0.895,0.738 0.894,0.767 0.895,0.781"
         style="fill:none;stroke:#a2142f;stroke-width:1.46000004;stroke-linecap:butt;stroke-linejoin:round;stroke-miterlimit:10;stroke-dasharray:none;stroke-opacity:1"
         id="path140"
         inkscape:connector-curvature="0" /><path
         d="m 26.908484,93.626925 0.8941,1.215 0.8946,1.202 0.8953,1.158 0.8945,1.09 0.8945,0.994 0.8946,0.875995 0.8945,0.736 0.8948,0.577 0.894,0.404 0.895,0.22 0.895,0.028 0.894,-0.167 0.895,-0.36 0.894,-0.546 0.895,-0.723 0.894,-0.885995 0.895,-1.028 0.894,-1.151 0.895,-1.248 0.895,-1.318 0.894,-1.358 0.895,-1.368 0.894,-1.347 0.895,-1.295 0.895,-1.212 0.894,-1.101 0.895,-0.963 0.895,-0.802 0.894,-0.62 0.895,-0.422 0.894,-0.21 0.895,0.006 0.894,0.228 0.895,0.446 0.894,0.657 0.895,0.856 0.895,1.038 0.895,1.198 0.894,1.334 0.895,1.44 0.894,1.516 0.895,1.557 0.894,1.564 0.895,1.535 0.895,1.471 0.894,1.370995 0.895,1.24 0.894,1.078 0.895,0.889 0.894,0.677 0.895,0.446 0.894,0.203 0.895,-0.05 0.895,-0.305 0.895,-0.558 0.894,-0.799 0.895,-1.029 0.894,-1.237 0.895,-1.419995 0.894,-1.574 0.895,-1.695 0.895,-1.778 0.894,-1.823 0.895,-1.825 0.894,-1.788 0.895,-1.708 0.894,-1.587 0.895,-1.43 0.894,-1.235 0.895,-1.011 0.895,-0.758 0.895,-0.485 0.894,-0.195 0.895,0.104 0.894,0.406 0.895,0.705 0.894,0.992 0.895,1.262 0.895,1.509 0.894,1.725 0.895,1.906 0.893996,2.048 0.895,2.144 0.894,2.194 0.895,2.195 0.894,2.146 0.895,2.046995 0.895,1.899 0.895,1.704 0.894,1.468 0.895,1.192 0.894,0.884 0.895,0.548 0.894,0.194 0.895,-0.173 0.895,-0.543 0.894,-0.911 0.895,-1.265 0.894,-1.598 0.895,-1.902 0.894,-2.171 0.895,-2.394995 0.894,-2.571 0.895,-2.692 0.895,-2.756 0.895,-2.757 0.894,-2.696 0.895,-2.572 0.894,-2.387 0.895,-2.142 0.894,-1.842 0.895,-1.493 0.895,-1.099 0.894,-0.671 0.895,-0.216 0.894,0.259 0.895,0.739 0.894,1.216 0.895,1.681 0.894,2.121 0.895,2.525 0.895,2.886 0.895,3.191 0.894,3.434 0.895,3.606 0.894,3.704 0.895,3.719995 0.894,3.653 0.895,3.5 0.895,3.264 0.894,2.945 0.895,2.548 0.894,2.08 0.895,1.547 0.894,0.959 0.895,0.327 0.894,-0.339 0.895,-1.022 0.895,-1.711 0.895,-2.391 0.894,-3.046 0.895,-3.662 0.894,-4.225 0.895,-4.718 0.894,-5.128995 0.895,-5.447 0.895,-5.659 0.894,-5.758 0.895,-5.733 0.894,-5.582 0.895,-5.299 0.894,-4.884 0.895,-4.34 0.894,-3.667 0.896,-2.875 0.894,-1.97 0.895,-0.964 0.894,0.131 0.895,1.3 0.894,2.526 0.895,3.791 0.894,5.076 0.895,6.362 0.895,7.627 0.894,8.851 0.895,10.014 0.894,11.093995 0.895,12.075 0.894,12.936 0.895,13.663 0.895,14.239 0.895,14.654 0.894,14.897 0.895,14.961 0.894,14.84 0.895,14.533 0.894,14.042 0.895,13.367 0.894,12.519 0.895,11.506 0.895,10.34 0.894,9.034 0.895,7.607 0.894,6.077 0.895,4.464 0.894,2.791 0.895,1.078 0.895,-0.647 0.895,-2.365 0.894,-4.051 0.895,-5.681 0.894,-7.233 0.895,-8.688 0.894,-10.026 0.895,-11.228 0.894,-12.281 0.895,-13.172 0.895,-13.889 0.894,-14.428 0.895,-14.78 0.894,-14.948 0.895,-14.93 0.894,-14.732 0.895,-14.359 0.895,-13.821 0.895,-13.131 0.894,-12.302 0.895,-11.348995 0.894,-10.293 0.895,-9.148 0.894,-7.938 0.895,-6.681 0.894,-5.398 0.895,-4.111 0.895,-2.839 0.894,-1.602 0.895,-0.418 0.894,0.698 0.895,1.728 0.894,2.659 0.895,3.481 0.895,4.183 0.895,4.76 0.894,5.208 0.895,5.523 0.894,5.708 0.895,5.763 0.894,5.695 0.895,5.51 0.895,5.217995 0.894,4.829 0.895,4.355 0.894,3.808 0.895,3.205 0.894,2.557 0.895,1.883 0.894,1.194 0.895,0.508 0.895,-0.162 0.895,-0.805 0.894,-1.405 0.895,-1.952 0.894,-2.438 0.895,-2.853 0.894,-3.191 0.895,-3.45 0.895,-3.622 0.894,-3.710995 0.895,-3.715 0.894,-3.639 0.895,-3.484 0.894,-3.258 0.895,-2.967 0.894,-2.62 0.895,-2.226 0.895,-1.793 0.895,-1.335 0.894,-0.859 0.895,-0.378 0.894,0.099 0.895,0.559 0.894,0.995 0.895,1.398 0.895,1.759 0.894,2.072 0.895,2.331 0.894,2.532 0.895,2.671 0.894,2.748 0.895,2.761 0.894,2.714 0.895,2.607 0.895,2.443995 0.895,2.231 0.894,1.973 0.895,1.677 0.894,1.35 0.895,1.001 0.894,0.636 0.895,0.266 0.895,-0.103 0.894,-0.462 0.895,-0.802 0.894,-1.118 0.895,-1.402 0.894,-1.649 0.895,-1.855 0.894,-2.014 0.895,-2.125995 0.895,-2.187 0.895,-2.199 0.894,-2.161 0.895,-2.076 0.894,-1.946 0.895,-1.774 0.894,-1.565 0.895,-1.327 0.895,-1.061 0.894,-0.778 0.895,-0.482 0.894,-0.179 0.895,0.121 0.894,0.413 0.895,0.692 0.894,0.95 0.896,1.182 0.894,1.384 0.895,1.552 0.894,1.681 0.895,1.772 0.894,1.819 0.895,1.828 0.894,1.793 0.895,1.719 0.895,1.608 0.894,1.460995 0.895,1.286 0.894,1.082 0.895,0.859 0.894,0.619 0.895,0.369 0.895,0.113 0.895,-0.14 0.894,-0.386 0.895,-0.621 0.894,-0.838 0.895,-1.033 0.894,-1.202 0.895,-1.341995 0.894,-1.448 0.895,-1.523 0.895,-1.56 0.894,-1.562 0.895,-1.53 0.894,-1.462 0.895,-1.363 0.894,-1.235 0.895,-1.08 0.895,-0.903 0.895,-0.708 0.894,-0.5 0.895,-0.282 0.894,-0.062 0.895,0.157 0.894,0.369 0.895,0.572 0.894,0.758 0.895,0.925 0.895,1.069 0.894,1.187 0.895,1.277 0.894,1.336 0.895,1.367 0.894,1.363 0.895,1.331 0.895,1.268 0.895,1.177 0.894,1.062 0.895,0.922995 0.894,0.765 0.895,0.592 0.894,0.407 0.895,0.215 0.894,0.021 0.895,-0.172 0.895,-0.359 0.894,-0.535 0.895,-0.698 0.894,-0.842995 0.895,-0.967 0.894,-1.068 0.895,-1.144 0.895,-1.193 0.895,-1.215 0.894,-1.208 0.895,-1.176 0.894,-1.115 0.895,-1.032 0.894,-0.925 0.895,-0.799 0.894,-0.655 0.895,-0.499 0.895,-0.333 0.894,-0.161 0.895,0.013 0.894,0.185 0.895,0.351 0.894,0.508 0.895,0.65 0.895,0.778 0.895,0.886 0.894,0.974 0.895,1.037 0.894,1.078 0.895,1.094 0.894,1.084 0.895,1.05 0.894,0.993 0.895,0.914 0.895,0.814 0.894,0.698 0.895,0.566 0.894,0.422995 0.895,0.272 0.894,0.116 0.895,-0.041 0.895,-0.196 0.895,-0.344995 0.894,-0.485 0.895,-0.613 0.894,-0.725 0.895,-0.82 0.894,-0.896 0.895,-0.951 0.894,-0.984 0.895,-0.994 0.895,-0.981 0.894,-0.947 0.895,-0.892 0.894,-0.816 0.895,-0.722 0.894,-0.614 0.895,-0.492 0.895,-0.36 0.895,-0.221 0.894,-0.079 0.895,0.065 0.894,0.206 0.895,0.34 0.894,0.467 0.895,0.581 0.895,0.681 0.894,0.765 0.895,0.832 0.894,0.878 0.895,0.905 0.894,0.91 0.895,0.895 0.894,0.861 0.895,0.805 0.895,0.734 0.895,0.645 0.894,0.543 0.895,0.429 0.894,0.308 0.895,0.178 0.894,0.046 0.895,-0.085 0.894,-0.214 0.895,-0.337 0.895,-0.451 0.894,-0.554 0.895,-0.644 0.894,-0.719 0.895,-0.777 0.894,-0.816 0.895,-0.837 0.895,-0.839 0.895,-0.822 0.894,-0.786 0.895,-0.733 0.894,-0.663 0.895,-0.578 0.894,-0.483 0.895,-0.375 0.894,-0.261 0.895,-0.142 0.895,-0.019 0.894,0.103 0.895,0.221 0.894,0.333 0.895,0.438 0.895,0.531 0.894,0.612 0.895,0.679 0.895,0.729 0.894,0.763 0.895,0.779 0.894,0.777 0.895,0.758 0.894,0.722 0.895,0.669 0.895,0.602 0.894,0.522 0.895,0.429 0.894,0.329 0.895,0.221 0.894,0.109 0.895,-0.004 0.895,-0.118 0.894,-0.227 0.895,-0.331 0.895,-0.425 0.894,-0.512 0.895,-0.584 0.894,-0.643 0.895,-0.688 0.894,-0.715 0.895,-0.728"
         style="fill:none;stroke:#0072bd;stroke-width:1.46000004;stroke-linecap:butt;stroke-linejoin:round;stroke-miterlimit:10;stroke-dasharray:none;stroke-opacity:1"
         id="path142"
         inkscape:connector-curvature="0" /><path
         d="m 26.908484,93.626925 0.8941,-1.369 0.8946,-1.354 0.8953,-1.308 0.8945,-1.232 0.8945,-1.127 0.8946,-0.993 0.8945,-0.838 0.8948,-0.659 0.894,-0.464 0.895,-0.256 0.895,-0.038 0.894,0.181 0.895,0.401 0.894,0.615 0.895,0.815 0.894,1.002 0.895,1.167 0.894,1.307 0.895,1.421 0.895,1.502 0.894,1.552 0.895,1.566 0.894,1.544 0.895,1.486 0.895,1.395 0.894,1.269995 0.895,1.114 0.895,0.93 0.894,0.724 0.895,0.495 0.894,0.254 0.895,0.003 0.894,-0.252 0.895,-0.505 0.894,-0.75 0.895,-0.983 0.895,-1.195 0.895,-1.383995 0.894,-1.545 0.895,-1.673 0.894,-1.764 0.895,-1.816 0.894,-1.829 0.895,-1.799 0.895,-1.728 0.894,-1.615 0.895,-1.466 0.894,-1.279 0.895,-1.06 0.894,-0.813 0.895,-0.543 0.894,-0.256 0.895,0.042 0.895,0.343 0.895,0.643 0.894,0.934 0.895,1.207 0.894,1.46 0.895,1.683 0.894,1.871 0.895,2.022 0.895,2.128 0.894,2.187 0.895,2.199 0.894,2.161 0.895,2.070995 0.894,1.933 0.895,1.749 0.894,1.52 0.895,1.253 0.895,0.951 0.895,0.62 0.894,0.269 0.895,-0.096 0.894,-0.467 0.895,-0.835 0.894,-1.192 0.895,-1.53 0.895,-1.842 0.894,-2.118 0.895,-2.351995 0.893996,-2.539 0.895,-2.672 0.894,-2.747 0.895,-2.763 0.894,-2.713 0.895,-2.604 0.895,-2.43 0.895,-2.197 0.894,-1.91 0.895,-1.569 0.894,-1.184 0.895,-0.763 0.894,-0.312 0.895,0.159 0.895,0.637 0.894,1.119 0.895,1.586 0.894,2.031 0.895,2.445 0.894,2.814 0.895,3.133 0.894,3.388 0.895,3.577 0.895,3.69 0.895,3.723995 0.894,3.673 0.895,3.539 0.894,3.32 0.895,3.018 0.894,2.637 0.895,2.184 0.895,1.663 0.894,1.085 0.895,0.462 0.894,-0.198 0.895,-0.879 0.894,-1.568 0.895,-2.25 0.894,-2.913 0.895,-3.538 0.895,-4.112 0.895,-4.622 0.894,-5.050995 0.895,-5.389 0.894,-5.624 0.895,-5.747 0.894,-5.749 0.895,-5.624 0.895,-5.369 0.894,-4.982 0.895,-4.463 0.894,-3.818 0.895,-3.05 0.894,-2.167 0.895,-1.181 0.894,-0.103 0.895,1.05 0.895,2.267 0.895,3.525 0.894,4.808 0.895,6.095 0.894,7.366 0.895,8.601 0.894,9.777 0.895,10.878 0.895,11.878995 0.894,12.767 0.895,13.523 0.894,14.133 0.895,14.581 0.894,14.861 0.895,14.963 0.894,14.881 0.896,14.612 0.894,14.159 0.895,13.523 0.894,12.71 0.895,11.73 0.894,10.594 0.895,9.317 0.894,7.913 0.895,6.403 0.895,4.806 0.894,3.143 0.895,1.438 0.894,-0.288 0.895,-2.01 0.894,-3.703 0.895,-5.346 0.895,-6.918 0.895,-8.394 0.894,-9.757 0.895,-10.989 0.894,-12.075 0.895,-13 0.894,-13.755 0.895,-14.331 0.894,-14.722 0.895,-14.929 0.895,-14.949 0.894,-14.787 0.895,-14.45 0.894,-13.946 0.895,-13.287 0.894,-12.485 0.895,-11.557995 0.895,-10.52 0.895,-9.393 0.894,-8.194 0.895,-6.946 0.894,-5.667 0.895,-4.379 0.894,-3.101 0.895,-1.856 0.894,-0.659 0.895,0.472 0.895,1.521 0.894,2.473 0.895,3.32 0.894,4.046 0.895,4.651 0.894,5.125 0.895,5.469 0.895,5.68 0.895,5.762 0.894,5.719 0.895,5.558 0.894,5.287 0.895,4.917995 0.894,4.459 0.895,3.928 0.894,3.334 0.895,2.696 0.895,2.025 0.894,1.338 0.895,0.649 0.894,-0.024 0.895,-0.674 0.894,-1.284 0.895,-1.843 0.895,-2.343 0.895,-2.772 0.894,-3.128 0.895,-3.402 0.894,-3.594 0.895,-3.698995 0.894,-3.721 0.895,-3.662 0.895,-3.522 0.894,-3.31 0.895,-3.033 0.894,-2.697 0.895,-2.311 0.894,-1.886 0.895,-1.432 0.894,-0.959 0.895,-0.477 h 0.895 l 0.895,0.464 0.894,0.907 0.895,1.317 0.894,1.688 0.895,2.012 0.894,2.281 0.895,2.495 0.895,2.647 0.894,2.737 0.895,2.764 0.894,2.729 0.895,2.633 0.894,2.482995 0.895,2.279 0.894,2.03 0.895,1.742 0.895,1.42 0.895,1.075 0.894,0.713 0.895,0.343 0.894,-0.027 0.895,-0.388 0.894,-0.733 0.895,-1.054 0.895,-1.346 0.894,-1.601 0.895,-1.816 0.894,-1.984 0.895,-2.106995 0.894,-2.179 0.895,-2.201 0.894,-2.173 0.895,-2.097 0.895,-1.976 0.895,-1.813 0.894,-1.612 0.895,-1.379 0.894,-1.118 0.895,-0.838 0.894,-0.544 0.895,-0.243 0.895,0.059 0.894,0.353 0.895,0.636 0.894,0.898 0.895,1.136 0.894,1.345 0.895,1.52 0.894,1.657 0.895,1.756 0.895,1.814 0.895,1.829 0.894,1.803 0.895,1.738 0.894,1.634 0.895,1.494995 0.894,1.324 0.895,1.127 0.895,0.907 0.894,0.669 0.895,0.421 0.894,0.167 0.895,-0.087 0.894,-0.336 0.895,-0.573 0.894,-0.795 0.896,-0.994 0.894,-1.169 0.895,-1.314995 0.894,-1.43 0.895,-1.51 0.894,-1.555 0.895,-1.564 0.894,-1.539 0.895,-1.479 0.895,-1.387 0.894,-1.263 0.895,-1.114 0.894,-0.942 0.895,-0.75 0.894,-0.544 0.895,-0.328 0.895,-0.109 0.895,0.112 0.894,0.326 0.895,0.531 0.894,0.721 0.895,0.892 0.894,1.041 0.895,1.164 0.894,1.261 0.895,1.327 0.895,1.362 0.894,1.367 0.895,1.339 0.894,1.284 0.895,1.199 0.894,1.088 0.895,0.953 0.895,0.799995 0.895,0.629 0.894,0.445 0.895,0.256 0.894,0.061 0.895,-0.132 0.894,-0.32 0.895,-0.5 0.894,-0.665 0.895,-0.813995 0.895,-0.943 0.894,-1.049 0.895,-1.131 0.894,-1.185 0.895,-1.212 0.894,-1.212 0.895,-1.185 0.895,-1.13 0.895,-1.051 0.894,-0.949 0.895,-0.827 0.894,-0.686 0.895,-0.533 0.894,-0.368 0.895,-0.197 0.894,-0.023 0.895,0.149 0.895,0.318 0.894,0.475 0.895,0.622 0.894,0.753 0.895,0.866 0.894,0.957 0.895,1.026 0.895,1.072 0.895,1.092 0.894,1.088 0.895,1.06 0.894,1.006 0.895,0.932 0.894,0.836 0.895,0.724 0.894,0.594 0.895,0.453995 0.895,0.305 0.894,0.148 0.895,-0.008 0.894,-0.165 0.895,-0.314 0.894,-0.456995 0.895,-0.587 0.895,-0.703 0.895,-0.803 0.894,-0.881 0.895,-0.942 0.894,-0.978 0.895,-0.994 0.894,-0.986 0.895,-0.956 0.894,-0.905 0.895,-0.833 0.895,-0.743 0.894,-0.638 0.895,-0.518 0.894,-0.389 0.895,-0.25 0.894,-0.109 0.895,0.036 0.895,0.176 0.895,0.313 0.894,0.442 0.895,0.558 0.894,0.661 0.895,0.75 0.894,0.819 0.895,0.87 0.894,0.901 0.895,0.911 0.895,0.9 0.894,0.869 0.895,0.819 0.894,0.75 0.895,0.665 0.894,0.565 0.895,0.454 0.895,0.333 0.895,0.205 0.894,0.074 0.895,-0.057 0.894,-0.188 0.895,-0.311 0.894,-0.429 0.895,-0.533 0.895,-0.627 0.894,-0.705 0.895,-0.766 0.894,-0.81 0.895,-0.834 0.894,-0.84 0.895,-0.827 0.894,-0.795 0.895,-0.745 0.895,-0.679 0.895,-0.597 0.894,-0.504 0.895,-0.398 0.894,-0.285 0.895,-0.167 0.894,-0.045 0.895,0.078 0.894,0.196 0.895,0.311 0.895,0.417 0.894,0.512 0.895,0.597 0.894,0.666 0.895,0.72 0.894,0.757 0.895,0.777 0.895,0.779 0.895,0.764 0.894,0.73 0.895,0.682 0.894,0.617 0.895,0.539 0.894,0.45 0.895,0.35 0.894,0.244 0.895,0.133 0.895,0.019 0.894,-0.094 0.895,-0.205 0.894,-0.309 0.895,-0.408 0.895,-0.494 0.894,-0.57 0.895,-0.632 0.895,-0.68 0.894,-0.711 0.895,-0.727 0.894,-0.725 0.895,-0.708 0.894,-0.675 0.895,-0.625 0.895,-0.563 0.894,-0.488 0.895,-0.403 0.894,-0.308 0.895,-0.208 0.894,-0.103 0.895,0.004 0.895,0.109 0.894,0.211 0.895,0.309 0.895,0.398 0.894,0.478 0.895,0.546 0.894,0.602 0.895,0.645 0.894,0.67 0.895,0.683"
         style="fill:none;stroke:#d95319;stroke-width:1.46000004;stroke-linecap:butt;stroke-linejoin:round;stroke-miterlimit:10;stroke-dasharray:none;stroke-opacity:1"
         id="path144"
         inkscape:connector-curvature="0" /></g><g
       id="g1165"
       transform="matrix(-1,0,0,1,566.18848,-202.03808)"><path
         inkscape:connector-curvature="0"
         id="path1147"
         style="fill:none;stroke:#262626;stroke-width:0.5;stroke-linecap:butt;stroke-linejoin:miter;stroke-miterlimit:10;stroke-dasharray:none;stroke-opacity:1"
         d="M 92.8801,250.235 H 97.348" /><path
         inkscape:connector-curvature="0"
         id="path1149"
         style="fill:none;stroke:#262626;stroke-width:0.5;stroke-linecap:butt;stroke-linejoin:miter;stroke-miterlimit:10;stroke-dasharray:none;stroke-opacity:1"
         d="M 92.8801,295.665 H 97.348" /><path
         inkscape:connector-curvature="0"
         id="path1151"
         style="fill:none;stroke:#262626;stroke-width:0.5;stroke-linecap:butt;stroke-linejoin:miter;stroke-miterlimit:10;stroke-dasharray:none;stroke-opacity:1"
         d="M 92.8801,341.094 H 97.348" /><path
         inkscape:connector-curvature="0"
         id="path1153"
         style="fill:none;stroke:#262626;stroke-width:0.5;stroke-linecap:butt;stroke-linejoin:miter;stroke-miterlimit:10;stroke-dasharray:none;stroke-opacity:1"
         d="M 92.8801,386.524 H 97.348" /><path
         inkscape:connector-curvature="0"
         id="path1155"
         style="fill:none;stroke:#262626;stroke-width:0.5;stroke-linecap:butt;stroke-linejoin:miter;stroke-miterlimit:10;stroke-dasharray:none;stroke-opacity:1"
         d="M 92.8801,431.954 H 97.348" /><path
         inkscape:connector-curvature="0"
         id="path1157"
         style="fill:none;stroke:#262626;stroke-width:0.5;stroke-linecap:butt;stroke-linejoin:miter;stroke-miterlimit:10;stroke-dasharray:none;stroke-opacity:1"
         d="M 92.8801,477.383 H 97.348" /><path
         inkscape:connector-curvature="0"
         id="path1159"
         style="fill:none;stroke:#262626;stroke-width:0.5;stroke-linecap:butt;stroke-linejoin:miter;stroke-miterlimit:10;stroke-dasharray:none;stroke-opacity:1"
         d="M 92.8801,522.813 H 97.348" /><path
         inkscape:connector-curvature="0"
         id="path1161"
         style="fill:none;stroke:#262626;stroke-width:0.5;stroke-linecap:butt;stroke-linejoin:miter;stroke-miterlimit:10;stroke-dasharray:none;stroke-opacity:1"
         d="M 92.8801,568.243 H 97.348" /><path
         inkscape:connector-curvature="0"
         id="path1163"
         style="fill:none;stroke:#262626;stroke-width:0.5;stroke-linecap:square;stroke-linejoin:miter;stroke-miterlimit:10;stroke-dasharray:16, 0;stroke-dashoffset:0;stroke-opacity:1"
         d="M 92.8801,227.52 V 579.6" /></g><g
       id="g1187"
       transform="matrix(1,0,0,-1,-65.971616,605.08192)"><path
         inkscape:connector-curvature="0"
         id="path1175"
         style="fill:none;stroke:#262626;stroke-width:0.5;stroke-linecap:butt;stroke-linejoin:miter;stroke-miterlimit:10;stroke-dasharray:none;stroke-opacity:1"
         d="m 130.08,227.52 v 4.465" /><path
         inkscape:connector-curvature="0"
         id="path1177"
         style="fill:none;stroke:#262626;stroke-width:0.5;stroke-linecap:butt;stroke-linejoin:miter;stroke-miterlimit:10;stroke-dasharray:none;stroke-opacity:1"
         d="m 223.08,227.52 v 4.465" /><path
         inkscape:connector-curvature="0"
         id="path1179"
         style="fill:none;stroke:#262626;stroke-width:0.5;stroke-linecap:butt;stroke-linejoin:miter;stroke-miterlimit:10;stroke-dasharray:none;stroke-opacity:1"
         d="m 316.08,227.52 v 4.465" /><path
         inkscape:connector-curvature="0"
         id="path1181"
         style="fill:none;stroke:#262626;stroke-width:0.5;stroke-linecap:butt;stroke-linejoin:miter;stroke-miterlimit:10;stroke-dasharray:none;stroke-opacity:1"
         d="m 409.08,227.52 v 4.465" /><path
         inkscape:connector-curvature="0"
         id="path1183"
         style="fill:none;stroke:#262626;stroke-width:0.5;stroke-linecap:butt;stroke-linejoin:miter;stroke-miterlimit:10;stroke-dasharray:none;stroke-opacity:1"
         d="m 502.08,227.52 v 4.465" /><path
         inkscape:connector-curvature="0"
         id="path1185"
         style="fill:none;stroke:#262626;stroke-width:0.5;stroke-linecap:square;stroke-linejoin:miter;stroke-miterlimit:10;stroke-dasharray:16, 0;stroke-dashoffset:0;stroke-opacity:1"
         d="M 92.8801,227.52 H 539.28" /></g></g><g
     inkscape:groupmode="layer"
     id="layer2"
     inkscape:label="Vector"><path
       transform="matrix(1.3333333,0,0,-1.3333333,0,530)"
       d="m 26.908484,93.626925 0.8941,0.728 0.8946,0.715 0.8953,0.688 0.8945,0.643 0.8945,0.584 0.8946,0.512 0.8945,0.425 0.8948,0.331 0.894,0.227 0.895,0.118 0.895,0.004 0.894,-0.109 0.895,-0.221 0.894,-0.329 0.895,-0.429 0.894,-0.522 0.895,-0.602 0.894,-0.669 0.895,-0.722 0.895,-0.758 0.894,-0.777 0.895,-0.779 0.894,-0.763 0.895,-0.729 0.895,-0.679 0.894,-0.612 0.895,-0.531 0.895,-0.438 0.894,-0.333 0.895,-0.221 0.894,-0.103 0.895,0.019 0.894,0.142 0.895,0.261 0.894,0.375 0.895,0.483 0.895,0.578 0.895,0.663 0.894,0.733 0.895,0.786 0.894,0.822 0.895,0.839 0.894,0.837 0.895,0.816 0.895,0.777 0.894,0.719 0.895,0.644 0.894,0.554 0.895,0.451 0.894,0.337 0.895,0.214 0.894,0.085 0.895,-0.046 0.895,-0.178 0.895,-0.308 0.894,-0.429 0.895,-0.543 0.894,-0.645 0.895,-0.734 0.894,-0.805 0.895,-0.861 0.895,-0.895 0.894,-0.91 0.895,-0.905 0.894,-0.878 0.895,-0.832 0.894,-0.765 0.895,-0.681 0.894,-0.581 0.895,-0.467 0.895,-0.34 0.895,-0.206 0.894,-0.065 0.895,0.079 0.894,0.221 0.895,0.36 0.894,0.492 0.895,0.614 0.895,0.722 0.894,0.816 0.895,0.892 0.893996,0.947 0.895,0.981 0.894,0.994 0.895,0.984 0.894,0.951 0.895,0.896 0.895,0.82 0.895,0.725 0.894,0.613 0.895,0.485 0.894,0.344995 0.895,0.196 0.894,0.041 0.895,-0.116 0.895,-0.272 0.894,-0.422995 0.895,-0.566 0.894,-0.698 0.895,-0.814 0.894,-0.914 0.895,-0.993 0.894,-1.05 0.895,-1.084 0.895,-1.094 0.895,-1.078 0.894,-1.037 0.895,-0.974 0.894,-0.886 0.895,-0.778 0.894,-0.65 0.895,-0.508 0.895,-0.351 0.894,-0.185 0.895,-0.013 0.894,0.161 0.895,0.333 0.894,0.499 0.895,0.655 0.894,0.799 0.895,0.925 0.895,1.032 0.895,1.115 0.894,1.176 0.895,1.208 0.894,1.215 0.895,1.193 0.894,1.144 0.895,1.068 0.895,0.967 0.894,0.842995 0.895,0.698 0.894,0.535 0.895,0.359 0.894,0.172 0.895,-0.021 0.894,-0.215 0.895,-0.407 0.895,-0.592 0.895,-0.765 0.894,-0.922995 0.895,-1.062 0.894,-1.177 0.895,-1.268 0.894,-1.331 0.895,-1.363 0.895,-1.367 0.894,-1.336 0.895,-1.277 0.894,-1.187 0.895,-1.069 0.894,-0.925 0.895,-0.758 0.894,-0.572 0.896,-0.369 0.894,-0.157 0.895,0.062 0.894,0.282 0.895,0.5 0.894,0.708 0.895,0.903 0.894,1.08 0.895,1.235 0.895,1.363 0.894,1.462 0.895,1.53 0.894,1.562 0.895,1.56 0.894,1.523 0.895,1.448 0.895,1.341995 0.895,1.202 0.894,1.033 0.895,0.838 0.894,0.621 0.895,0.386 0.894,0.14 0.895,-0.113 0.894,-0.369 0.895,-0.619 0.895,-0.859 0.894,-1.082 0.895,-1.286 0.894,-1.460995 0.895,-1.608 0.894,-1.719 0.895,-1.793 0.895,-1.828 0.895,-1.819 0.894,-1.772 0.895,-1.681 0.894,-1.552 0.895,-1.384 0.894,-1.182 0.895,-0.95 0.894,-0.692 0.895,-0.413 0.895,-0.121 0.894,0.179 0.895,0.482 0.894,0.778 0.895,1.061 0.894,1.327 0.895,1.565 0.895,1.774 0.895,1.946 0.894,2.076 0.895,2.161 0.894,2.199 0.895,2.187 0.894,2.125995 0.895,2.014 0.894,1.855 0.895,1.649 0.895,1.402 0.894,1.118 0.895,0.802 0.894,0.462 0.895,0.103 0.894,-0.266 0.895,-0.636 0.895,-1.001 0.895,-1.35 0.894,-1.677 0.895,-1.973 0.894,-2.231 0.895,-2.443995 0.894,-2.607 0.895,-2.714 0.895,-2.761 0.894,-2.748 0.895,-2.671 0.894,-2.532 0.895,-2.331 0.894,-2.072 0.895,-1.759 0.894,-1.398 0.895,-0.995 0.895,-0.559 0.895,-0.099 0.894,0.378 0.895,0.859 0.894,1.335 0.895,1.793 0.894,2.226 0.895,2.62 0.895,2.967 0.894,3.258 0.895,3.484 0.894,3.639 0.895,3.715 0.894,3.710995 0.895,3.622 0.894,3.45 0.895,3.191 0.895,2.853 0.895,2.438 0.894,1.952 0.895,1.405 0.894,0.805 0.895,0.162 0.894,-0.508 0.895,-1.194 0.895,-1.883 0.894,-2.557 0.895,-3.205 0.894,-3.808 0.895,-4.355 0.894,-4.829 0.895,-5.217995 0.894,-5.51 0.895,-5.695 0.895,-5.763 0.895,-5.708 0.894,-5.523 0.895,-5.208 0.894,-4.76 0.895,-4.183 0.894,-3.481 0.895,-2.659 0.895,-1.728 0.894,-0.698 0.895,0.418 0.894,1.602 0.895,2.839 0.894,4.111 0.895,5.398 0.894,6.681 0.895,7.938 0.895,9.148 0.895,10.293 0.894,11.348995 0.895,12.302 0.894,13.131 0.895,13.821 0.894,14.359 0.895,14.732 0.895,14.93 0.894,14.948 0.895,14.78 0.894,14.428 0.895,13.889 0.894,13.172 0.895,12.281 0.894,11.228 0.896,10.026 0.894,8.688 0.895,7.233 0.894,5.681 0.895,4.051 0.894,2.365 0.895,0.647 0.894,-1.078 0.895,-2.791 0.895,-4.464 0.894,-6.077 0.895,-7.607 0.894,-9.034 0.895,-10.34 0.894,-11.506 0.895,-12.519 0.895,-13.367 0.895,-14.042 0.894,-14.533 0.895,-14.84 0.894,-14.961 0.895,-14.897 0.894,-14.654 0.895,-14.239 0.894,-13.663 0.895,-12.936 0.895,-12.075 0.894,-11.093995 0.895,-10.014 0.894,-8.851 0.895,-7.627 0.894,-6.362 0.895,-5.076 0.895,-3.791 0.895,-2.526 0.894,-1.3 0.895,-0.131 0.894,0.964 0.895,1.97 0.894,2.875 0.895,3.667 0.894,4.34 0.895,4.884 0.895,5.299 0.894,5.582 0.895,5.733 0.894,5.758 0.895,5.659 0.894,5.447 0.895,5.128995 0.895,4.718 0.895,4.225 0.894,3.662 0.895,3.046 0.894,2.391 0.895,1.711 0.894,1.022 0.895,0.339 0.894,-0.327 0.895,-0.959 0.895,-1.547 0.894,-2.08 0.895,-2.548 0.894,-2.945 0.895,-3.264 0.894,-3.5 0.895,-3.653 0.895,-3.719995 0.895,-3.704 0.894,-3.606 0.895,-3.434 0.894,-3.191 0.895,-2.886 0.894,-2.525 0.895,-2.121 0.894,-1.681 0.895,-1.216 0.895,-0.739 0.894,-0.259 0.895,0.216 0.894,0.671 0.895,1.099 0.894,1.493 0.895,1.842 0.895,2.142 0.895,2.387 0.894,2.572 0.895,2.696 0.894,2.757 0.895,2.756 0.894,2.692 0.895,2.571 0.894,2.394995 0.895,2.171 0.895,1.902 0.894,1.598 0.895,1.265 0.894,0.911 0.895,0.543 0.894,0.173 0.895,-0.194 0.895,-0.548 0.895,-0.884 0.894,-1.192 0.895,-1.468 0.894,-1.704 0.895,-1.899 0.894,-2.046995 0.895,-2.146 0.894,-2.195 0.895,-2.194 0.895,-2.144 0.894,-2.048 0.895,-1.906 0.894,-1.725 0.895,-1.509 0.894,-1.262 0.895,-0.992 0.895,-0.705 0.895,-0.406 0.894,-0.104 0.895,0.195 0.894,0.485 0.895,0.758 0.894,1.011 0.895,1.235 0.895,1.43 0.894,1.587 0.895,1.708 0.894,1.788 0.895,1.825 0.894,1.823 0.895,1.778 0.894,1.695 0.895,1.574 0.895,1.419995 0.895,1.237 0.894,1.029 0.895,0.799 0.894,0.558 0.895,0.305 0.894,0.05 0.895,-0.203 0.894,-0.446 0.895,-0.677 0.895,-0.889 0.894,-1.078 0.895,-1.24 0.894,-1.370995 0.895,-1.471 0.894,-1.535 0.895,-1.564 0.895,-1.557 0.895,-1.516 0.894,-1.44 0.895,-1.334 0.894,-1.198 0.895,-1.038 0.894,-0.856 0.895,-0.657 0.894,-0.446 0.895,-0.228 0.895,-0.006 0.894,0.21 0.895,0.422 0.894,0.62 0.895,0.802 0.895,0.963 0.894,1.101 0.895,1.212 0.895,1.295 0.894,1.347 0.895,1.368 0.894,1.358 0.895,1.318 0.894,1.248 0.895,1.151 0.895,1.028 0.894,0.885995 0.895,0.723 0.894,0.546 0.895,0.36 0.894,0.167 0.895,-0.028 0.895,-0.22 0.894,-0.404 0.895,-0.577 0.895,-0.736 0.894,-0.875995 0.895,-0.994 0.894,-1.09 0.895,-1.158 0.894,-1.202 0.895,-1.215"
       style="fill:none;stroke:#d95319;stroke-width:1.46000004;stroke-linecap:butt;stroke-linejoin:round;stroke-miterlimit:10;stroke-dasharray:none;stroke-opacity:1"
       id="path130"
       inkscape:connector-curvature="0" /></g><g
     inkscape:groupmode="layer"
     id="layer1"
     inkscape:label="Text"><text
       transform="matrix(1.3333333,0,0,1.3333333,0,530)"
       style="font-variant:normal;font-weight:normal;font-size:11px;font-family:Helvetica;-inkscape-font-specification:Helvetica;writing-mode:lr-tb;fill:#262626;fill-opacity:1;fill-rule:nonzero;stroke:none"
       id="text116"
       x="224.79556"
       y="-6.2879901"><tspan
         sodipodi:role="line"
         id="tspan114"
         x="224.79556"
         y="-6.2879901">Frequency</tspan></text>
<text
       transform="matrix(0,-1.3333333,1.3333333,0,0,530)"
       style="font-variant:normal;font-weight:normal;font-size:11px;font-family:Helvetica;-inkscape-font-specification:Helvetica;writing-mode:lr-tb;fill:#262626;fill-opacity:1;fill-rule:nonzero;stroke:none"
       id="text120"
       x="153.15697"
       y="13.396685"><tspan
         sodipodi:role="line"
         id="tspan118"
         x="153.15697"
         y="13.396685">Power Spectral Density</tspan></text>
</g></svg>