<?xml version="1.0" encoding="UTF-8" standalone="no"?>
<!-- Created with Inkscape (http://www.inkscape.org/) -->

<svg
   xmlns:dc="http://purl.org/dc/elements/1.1/"
   xmlns:cc="http://creativecommons.org/ns#"
   xmlns:rdf="http://www.w3.org/1999/02/22-rdf-syntax-ns#"
   xmlns:svg="http://www.w3.org/2000/svg"
   xmlns="http://www.w3.org/2000/svg"
   xmlns:sodipodi="http://sodipodi.sourceforge.net/DTD/sodipodi-0.dtd"
   xmlns:inkscape="http://www.inkscape.org/namespaces/inkscape"
   version="1.1"
   id="svg2"
   xml:space="preserve"
   width="130mm"
   height="90mm"
   viewBox="0 0 491.3386 340.15747"
   sodipodi:docname="rayleigh.svg"
   inkscape:version="0.92.4 5da689c313, 2019-01-14"><metadata
     id="metadata8"><rdf:RDF><cc:Work
         rdf:about=""><dc:format>image/svg+xml</dc:format><dc:type
           rdf:resource="http://purl.org/dc/dcmitype/StillImage" /><dc:title></dc:title></cc:Work></rdf:RDF></metadata><defs
     id="defs6"><clipPath
       clipPathUnits="userSpaceOnUse"
       id="clipPath24"><path
         d="M 180,1800 H 5940 V 6120 H 180 Z"
         id="path22"
         inkscape:connector-curvature="0" /></clipPath></defs><sodipodi:namedview
     pagecolor="#ffffff"
     bordercolor="#666666"
     borderopacity="1"
     objecttolerance="10"
     gridtolerance="10"
     guidetolerance="10"
     inkscape:pageopacity="0"
     inkscape:pageshadow="2"
     inkscape:window-width="1920"
     inkscape:window-height="1051"
     id="namedview4"
     showgrid="false"
     inkscape:pagecheckerboard="true"
     inkscape:zoom="3.5757576"
     inkscape:cx="196.02542"
     inkscape:cy="205.64045"
     inkscape:window-x="0"
     inkscape:window-y="29"
     inkscape:window-maximized="1"
     inkscape:current-layer="g10"
     units="mm" /><g
     id="g10"
     inkscape:groupmode="layer"
     inkscape:label="rayleigh"
     transform="matrix(1.3333333,0,0,-1.3333333,0,340.15747)"><path
   inkscape:connector-curvature="0"
   id="path30"
   style="fill:none;stroke:#d9d9d9;stroke-width:0.30531523;stroke-linecap:butt;stroke-linejoin:miter;stroke-miterlimit:10;stroke-dasharray:9.77008769, 0;stroke-dashoffset:0;stroke-opacity:1"
   d="M 48.808025,23.45465 V 238.44543" /><path
   inkscape:connector-curvature="0"
   id="path32"
   style="fill:none;stroke:#d9d9d9;stroke-width:0.30531523;stroke-linecap:butt;stroke-linejoin:miter;stroke-miterlimit:10;stroke-dasharray:9.77008769, 0;stroke-dashoffset:0;stroke-opacity:1"
   d="M 116.95432,23.45465 V 238.44543" /><path
   inkscape:connector-curvature="0"
   id="path34"
   style="fill:none;stroke:#d9d9d9;stroke-width:0.30531523;stroke-linecap:butt;stroke-linejoin:miter;stroke-miterlimit:10;stroke-dasharray:9.77008769, 0;stroke-dashoffset:0;stroke-opacity:1"
   d="M 185.10069,23.45465 V 238.44543" /><path
   inkscape:connector-curvature="0"
   id="path36"
   style="fill:none;stroke:#d9d9d9;stroke-width:0.30531523;stroke-linecap:butt;stroke-linejoin:miter;stroke-miterlimit:10;stroke-dasharray:9.77008769, 0;stroke-dashoffset:0;stroke-opacity:1"
   d="M 253.24705,23.45465 V 238.44543" /><path
   inkscape:connector-curvature="0"
   id="path38"
   style="fill:none;stroke:#d9d9d9;stroke-width:0.30531523;stroke-linecap:butt;stroke-linejoin:miter;stroke-miterlimit:10;stroke-dasharray:9.77008769, 0;stroke-dashoffset:0;stroke-opacity:1"
   d="M 321.39341,23.45465 V 238.44543" /><path
   inkscape:connector-curvature="0"
   id="path40"
   style="fill:none;stroke:#262626;stroke-width:0.30531523;stroke-linecap:butt;stroke-linejoin:miter;stroke-miterlimit:10;stroke-dasharray:none;stroke-opacity:1"
   d="m 48.808025,23.45465 v 2.726471" /><path
   inkscape:connector-curvature="0"
   id="path42"
   style="fill:none;stroke:#262626;stroke-width:0.30531523;stroke-linecap:butt;stroke-linejoin:miter;stroke-miterlimit:10;stroke-dasharray:none;stroke-opacity:1"
   d="m 48.808025,238.44543 v -2.72645" /><path
   inkscape:connector-curvature="0"
   id="path44"
   style="fill:none;stroke:#262626;stroke-width:0.30531523;stroke-linecap:butt;stroke-linejoin:miter;stroke-miterlimit:10;stroke-dasharray:none;stroke-opacity:1"
   d="m 116.95432,23.45465 v 2.726471" /><path
   inkscape:connector-curvature="0"
   id="path46"
   style="fill:none;stroke:#262626;stroke-width:0.30531523;stroke-linecap:butt;stroke-linejoin:miter;stroke-miterlimit:10;stroke-dasharray:none;stroke-opacity:1"
   d="m 116.95432,238.44543 v -2.72645" /><path
   inkscape:connector-curvature="0"
   id="path48"
   style="fill:none;stroke:#262626;stroke-width:0.30531523;stroke-linecap:butt;stroke-linejoin:miter;stroke-miterlimit:10;stroke-dasharray:none;stroke-opacity:1"
   d="m 185.10069,23.45465 v 2.726471" /><path
   inkscape:connector-curvature="0"
   id="path50"
   style="fill:none;stroke:#262626;stroke-width:0.30531523;stroke-linecap:butt;stroke-linejoin:miter;stroke-miterlimit:10;stroke-dasharray:none;stroke-opacity:1"
   d="m 185.10069,238.44543 v -2.72645" /><path
   inkscape:connector-curvature="0"
   id="path52"
   style="fill:none;stroke:#262626;stroke-width:0.30531523;stroke-linecap:butt;stroke-linejoin:miter;stroke-miterlimit:10;stroke-dasharray:none;stroke-opacity:1"
   d="m 253.24705,23.45465 v 2.726471" /><path
   inkscape:connector-curvature="0"
   id="path54"
   style="fill:none;stroke:#262626;stroke-width:0.30531523;stroke-linecap:butt;stroke-linejoin:miter;stroke-miterlimit:10;stroke-dasharray:none;stroke-opacity:1"
   d="m 253.24705,238.44543 v -2.72645" /><path
   inkscape:connector-curvature="0"
   id="path56"
   style="fill:none;stroke:#262626;stroke-width:0.30531523;stroke-linecap:butt;stroke-linejoin:miter;stroke-miterlimit:10;stroke-dasharray:none;stroke-opacity:1"
   d="m 321.39341,23.45465 v 2.726471" /><path
   inkscape:connector-curvature="0"
   id="path58"
   style="fill:none;stroke:#262626;stroke-width:0.30531523;stroke-linecap:butt;stroke-linejoin:miter;stroke-miterlimit:10;stroke-dasharray:none;stroke-opacity:1"
   d="m 321.39341,238.44543 v -2.72645" /><path
   inkscape:connector-curvature="0"
   id="path66"
   style="fill:none;stroke:#d9d9d9;stroke-width:0.30531523;stroke-linecap:butt;stroke-linejoin:miter;stroke-miterlimit:10;stroke-dasharray:9.77008769, 0;stroke-dashoffset:0;stroke-opacity:1"
   d="M 48.808025,23.45465 H 321.39341" /><path
   inkscape:connector-curvature="0"
   id="path68"
   style="fill:none;stroke:#d9d9d9;stroke-width:0.30531523;stroke-linecap:butt;stroke-linejoin:miter;stroke-miterlimit:10;stroke-dasharray:9.77008769, 0;stroke-dashoffset:0;stroke-opacity:1"
   d="M 48.808025,66.452814 H 321.39341" /><path
   inkscape:connector-curvature="0"
   id="path70"
   style="fill:none;stroke:#d9d9d9;stroke-width:0.30531523;stroke-linecap:butt;stroke-linejoin:miter;stroke-miterlimit:10;stroke-dasharray:9.77008769, 0;stroke-dashoffset:0;stroke-opacity:1"
   d="M 48.808025,109.45097 H 321.39341" /><path
   inkscape:connector-curvature="0"
   id="path72"
   style="fill:none;stroke:#d9d9d9;stroke-width:0.30531523;stroke-linecap:butt;stroke-linejoin:miter;stroke-miterlimit:10;stroke-dasharray:9.77008769, 0;stroke-dashoffset:0;stroke-opacity:1"
   d="M 48.808025,152.44912 H 321.39341" /><path
   inkscape:connector-curvature="0"
   id="path74"
   style="fill:none;stroke:#d9d9d9;stroke-width:0.30531523;stroke-linecap:butt;stroke-linejoin:miter;stroke-miterlimit:10;stroke-dasharray:9.77008769, 0;stroke-dashoffset:0;stroke-opacity:1"
   d="M 48.808025,195.44728 H 321.39341" /><path
   inkscape:connector-curvature="0"
   id="path76"
   style="fill:none;stroke:#d9d9d9;stroke-width:0.30531523;stroke-linecap:butt;stroke-linejoin:miter;stroke-miterlimit:10;stroke-dasharray:9.77008769, 0;stroke-dashoffset:0;stroke-opacity:1"
   d="M 48.808025,238.44543 H 321.39341" /><path
   inkscape:connector-curvature="0"
   id="path78"
   style="fill:none;stroke:#262626;stroke-width:0.30531523;stroke-linecap:butt;stroke-linejoin:miter;stroke-miterlimit:10;stroke-dasharray:none;stroke-opacity:1"
   d="m 48.808025,23.45465 h 2.728236" /><path
   inkscape:connector-curvature="0"
   id="path80"
   style="fill:none;stroke:#262626;stroke-width:0.30531523;stroke-linecap:butt;stroke-linejoin:miter;stroke-miterlimit:10;stroke-dasharray:none;stroke-opacity:1"
   d="m 321.39341,23.45465 h -2.7283" /><path
   inkscape:connector-curvature="0"
   id="path82"
   style="fill:none;stroke:#262626;stroke-width:0.30531523;stroke-linecap:butt;stroke-linejoin:miter;stroke-miterlimit:10;stroke-dasharray:none;stroke-opacity:1"
   d="m 48.808025,66.452814 h 2.728236" /><path
   inkscape:connector-curvature="0"
   id="path84"
   style="fill:none;stroke:#262626;stroke-width:0.30531523;stroke-linecap:butt;stroke-linejoin:miter;stroke-miterlimit:10;stroke-dasharray:none;stroke-opacity:1"
   d="m 321.39341,66.452814 h -2.7283" /><path
   inkscape:connector-curvature="0"
   id="path86"
   style="fill:none;stroke:#262626;stroke-width:0.30531523;stroke-linecap:butt;stroke-linejoin:miter;stroke-miterlimit:10;stroke-dasharray:none;stroke-opacity:1"
   d="m 48.808025,109.45097 h 2.728236" /><path
   inkscape:connector-curvature="0"
   id="path88"
   style="fill:none;stroke:#262626;stroke-width:0.30531523;stroke-linecap:butt;stroke-linejoin:miter;stroke-miterlimit:10;stroke-dasharray:none;stroke-opacity:1"
   d="m 321.39341,109.45097 h -2.7283" /><path
   inkscape:connector-curvature="0"
   id="path90"
   style="fill:none;stroke:#262626;stroke-width:0.30531523;stroke-linecap:butt;stroke-linejoin:miter;stroke-miterlimit:10;stroke-dasharray:none;stroke-opacity:1"
   d="m 48.808025,152.44912 h 2.728236" /><path
   inkscape:connector-curvature="0"
   id="path92"
   style="fill:none;stroke:#262626;stroke-width:0.30531523;stroke-linecap:butt;stroke-linejoin:miter;stroke-miterlimit:10;stroke-dasharray:none;stroke-opacity:1"
   d="m 321.39341,152.44912 h -2.7283" /><path
   inkscape:connector-curvature="0"
   id="path94"
   style="fill:none;stroke:#262626;stroke-width:0.30531523;stroke-linecap:butt;stroke-linejoin:miter;stroke-miterlimit:10;stroke-dasharray:none;stroke-opacity:1"
   d="m 48.808025,195.44728 h 2.728236" /><path
   inkscape:connector-curvature="0"
   id="path96"
   style="fill:none;stroke:#262626;stroke-width:0.30531523;stroke-linecap:butt;stroke-linejoin:miter;stroke-miterlimit:10;stroke-dasharray:none;stroke-opacity:1"
   d="m 321.39341,195.44728 h -2.7283" /><path
   inkscape:connector-curvature="0"
   id="path98"
   style="fill:none;stroke:#262626;stroke-width:0.30531523;stroke-linecap:butt;stroke-linejoin:miter;stroke-miterlimit:10;stroke-dasharray:none;stroke-opacity:1"
   d="m 48.808025,238.44543 h 2.728236" /><path
   inkscape:connector-curvature="0"
   id="path100"
   style="fill:none;stroke:#262626;stroke-width:0.30531523;stroke-linecap:butt;stroke-linejoin:miter;stroke-miterlimit:10;stroke-dasharray:none;stroke-opacity:1"
   d="m 321.39341,238.44543 h -2.7283" /><path
   inkscape:connector-curvature="0"
   id="path118"
   style="fill:none;stroke:#262626;stroke-width:0.30531523;stroke-linecap:square;stroke-linejoin:miter;stroke-miterlimit:10;stroke-dasharray:9.77008769, 0;stroke-dashoffset:0;stroke-opacity:1"
   d="M 48.808025,23.45465 H 321.39341" /><path
   inkscape:connector-curvature="0"
   id="path120"
   style="fill:none;stroke:#262626;stroke-width:0.30531523;stroke-linecap:square;stroke-linejoin:miter;stroke-miterlimit:10;stroke-dasharray:9.77008769, 0;stroke-dashoffset:0;stroke-opacity:1"
   d="M 48.808025,238.44543 H 321.39341" /><path
   inkscape:connector-curvature="0"
   id="path122"
   style="fill:none;stroke:#262626;stroke-width:0.30525001;stroke-linecap:square;stroke-linejoin:miter;stroke-miterlimit:10;stroke-dasharray:9.76800069,0;stroke-dashoffset:0;stroke-opacity:1"
   d="M 48.808025,23.45465 V 238.44543" /><path
   inkscape:connector-curvature="0"
   id="path124"
   style="fill:none;stroke:#262626;stroke-width:0.30531523;stroke-linecap:square;stroke-linejoin:miter;stroke-miterlimit:10;stroke-dasharray:9.77008769, 0;stroke-dashoffset:0;stroke-opacity:1"
   d="M 321.39341,23.45465 V 238.44543" /><path
   inkscape:connector-curvature="0"
   id="path146"
   style="fill:none;stroke:#0072bd;stroke-width:0.91594571;stroke-linecap:butt;stroke-linejoin:round;stroke-miterlimit:10;stroke-dasharray:none;stroke-opacity:1"
   d="m 48.808025,23.45465 0.545965,1.723199 0.54627,1.723199 0.546697,1.721978 0.546209,1.721368 0.546209,1.720146 0.54627,1.718314 0.546209,1.716482 0.546392,1.71404 0.545904,1.711597 0.546514,1.707933 0.546515,1.705491 0.545903,1.701217 0.546515,1.697553 0.545903,1.693278 0.546514,1.688393 0.545904,1.684119 0.546514,1.678015 0.545904,1.673128 0.546514,1.667027 0.546515,1.660909 0.545903,1.654198 0.546515,1.647481 0.545903,1.640153 0.546514,1.633443 0.546515,1.624888 0.545903,1.61756 0.546513,1.609005 0.546514,1.599852 0.545904,1.591913 0.546514,1.58154 0.545904,1.572984 0.546514,1.562603 0.545904,1.552833 0.546514,1.542453 0.545904,1.532072 0.546514,1.521083 0.546514,1.50947 0.546514,1.49849 0.545904,1.48689 0.546514,1.47467 0.545904,1.46246 0.546514,1.45025 0.545904,1.43742 0.546514,1.4246 0.546514,1.41116 0.545904,1.39774 0.546514,1.38491 0.545904,1.370253 0.546514,1.35621 0.545904,1.34217 0.546514,1.32751 0.545904,1.31285 0.546514,1.2982 0.546514,1.28233 0.546515,1.26828 0.545903,1.25179 0.546515,1.23592 0.545903,1.22065 0.546515,1.20477 0.545903,1.18768 0.546515,1.1718 0.546514,1.15531 0.545903,1.13883 0.546515,1.12172 0.545903,1.10463 0.546515,1.08754 0.545903,1.07043 0.546515,1.05273 0.545903,1.03502 0.546515,1.01792 0.546514,0.9996 0.546514,0.9819 0.545904,0.96418 0.546514,0.94587 0.545904,0.92755 0.546514,0.90983 0.545904,0.89091 0.546514,0.87199 0.546514,0.85427 0.545904,0.83534 0.546514,0.81641 0.545904,0.7981 0.546514,0.77916 0.545904,0.76024 0.546514,0.74191 0.545904,0.72238 0.546514,0.70344 0.546514,0.68513 0.546514,0.66559 0.545904,0.64605 0.546514,0.62772 0.545904,0.6088 0.546514,0.58926 0.545904,0.57033 0.54651,0.55079 0.54652,0.53247 0.5459,0.51293 0.54652,0.49461 0.5459,0.47507 0.54651,0.45614 0.54591,0.43721 0.54651,0.41828 0.54591,0.39936 0.54651,0.38103 0.54651,0.3621 0.54652,0.34318 0.5459,0.32424 0.54652,0.30593 0.5459,0.28822 0.54651,0.26929 0.54591,0.25036 0.54651,0.23265 0.54652,0.21433 0.5459,0.19601 0.54651,0.17831 0.54591,0.16059 0.54651,0.14228 0.54591,0.12457 0.54651,0.10747 0.5459,0.0898 0.54652,0.0727 0.54651,0.0549 0.54652,0.0379 0.5459,0.0214 0.54652,0.004 0.5459,-0.0122 0.54651,-0.0293 0.54591,-0.0452 0.54651,-0.0623 0.54652,-0.0782 0.5459,-0.0934 0.54651,-0.10992 0.54591,-0.12579 0.54651,-0.14105 0.5459,-0.15693 0.54652,-0.17159 0.5459,-0.18685 0.54652,-0.20151 0.54651,-0.21617 0.54652,-0.23142 0.5459,-0.24487 0.54651,-0.26013 0.54591,-0.27356 0.54651,-0.28699 0.5459,-0.30105 0.54652,-0.31447 0.54651,-0.32791 0.54591,-0.34134 0.54651,-0.35356 0.54591,-0.36637 0.54651,-0.37921 0.5459,-0.39141 0.54652,-0.40363 0.5459,-0.41584 0.54713,-0.42683 0.5459,-0.43904 0.54651,-0.45003 0.54591,-0.46164 0.54651,-0.47202 0.54591,-0.48301 0.54651,-0.49339 0.5459,-0.50438 0.54652,-0.51354 0.54651,-0.52453 0.54591,-0.53369 0.54651,-0.54346 0.5459,-0.55201 0.54652,-0.56178 0.5459,-0.57094 0.54652,-0.57949 0.54651,-0.58743 0.54651,-0.59597 0.54591,-0.60453 0.54651,-0.61185 0.54591,-0.61979 0.54651,-0.62773 0.5459,-0.63444 0.54652,-0.64116 0.5459,-0.6491 0.54652,-0.6546 0.54651,-0.66192 0.5459,-0.66803 0.54652,-0.67353 0.5459,-0.67963 0.54652,-0.68574 0.5459,-0.69062 0.54651,-0.69612 0.54652,-0.70161 0.54651,-0.70589 0.54591,-0.71078 0.54651,-0.71504 0.5459,-0.71994 0.54652,-0.72359 0.5459,-0.72788 0.54652,-0.73092 0.5459,-0.7352 0.54651,-0.73825 0.54652,-0.74131 0.5459,-0.74436 0.54652,-0.74741 0.5459,-0.74985 0.54651,-0.7523 0.54591,-0.75474 0.54651,-0.75657 0.54652,-0.7584 0.54651,-0.76024 0.5459,-0.76206 0.54652,-0.76329 0.5459,-0.76512 0.54652,-0.76573 0.5459,-0.76634 0.54651,-0.76757 0.54652,-0.76817 0.5459,-0.76878 0.54652,-0.76879 0.5459,-0.76878 0.54651,-0.7694 0.54591,-0.76878 0.54651,-0.76878 0.54591,-0.76818 0.54651,-0.76756 0.54652,-0.76695 0.54651,-0.76634 0.5459,-0.76512 0.54652,-0.763293 0.5459,-0.76329 0.54652,-0.76145 0.5459,-0.75963 0.54651,-0.7584 0.54652,-0.75657 0.5459,-0.75474 0.54652,-0.7523 0.5459,-0.75107 0.54651,-0.74864 0.54591,-0.74619 0.54651,-0.74314 0.5459,-0.7413 0.54652,-0.73886 0.54651,-0.73581 0.54652,-0.73276 0.5459,-0.7297 0.54652,-0.72726 0.5459,-0.72421 0.54651,-0.72055 0.54591,-0.71749 0.54651,-0.71382 0.54652,-0.71078 0.5459,-0.707108 0.54651,-0.702835 0.54591,-0.699783 0.54651,-0.696118 0.54591,-0.691845 0.54651,-0.68818 0.5459,-0.684517 0.54652,-0.680242 0.54651,-0.675968 0.54652,-0.671694 0.5459,-0.667419 0.54651,-0.663145 0.54591,-0.65887 0.54651,-0.654596 0.54591,-0.650321 0.54651,-0.645437 0.54651,-0.641162 0.54591,-0.636277 0.54651,-0.631392 0.54591,-0.627117 0.54651,-0.622233 0.5459,-0.617347 0.54652,-0.613073 0.5459,-0.607577 0.54652,-0.603303 0.54651,-0.598418 0.54651,-0.592922 0.54591,-0.588038 0.54651,-0.583158 0.54591,-0.578261 0.54651,-0.573382 0.5459,-0.567886 0.54652,-0.563612 0.54651,-0.557512 0.54591,-0.553231 0.54651,-0.547736 0.5459,-0.542233 0.54652,-0.537972 0.5459,-0.531853 0.54652,-0.526974 0.5459,-0.522095 0.54651,-0.517198 0.54652,-0.511098 0.54651,-0.506829 0.54591,-0.501322 0.54651,-0.495832 0.5459,-0.491563 0.54652,-0.485452 0.5459,-0.480566 0.54652,-0.47507 0.54651,-0.470186 0.5459,-0.4653 0.54652,-0.460409 0.5459,-0.454309 0.54652,-0.450038 0.5459,-0.444539 0.54651,-0.439654 0.54591,-0.434164 0.54712,-0.429267 0.54591,-0.424999 0.54651,-0.418898 0.5459,-0.414612 0.54652,-0.409123 0.5459,-0.404237 0.54652,-0.399353 0.5459,-0.394467 0.54651,-0.389582 0.54652,-0.384697 0.5459,-0.379812 0.54652,-0.374928 0.5459,-0.370042 0.54652,-0.365767 0.5459,-0.360272 0.54651,-0.355998 0.54652,-0.351112 0.54651,-0.346839 0.54591,-0.341953 0.54651,-0.337068 0.5459,-0.332793 0.54652,-0.327909 0.5459,-0.323634 0.54652,-0.31936 0.5459,-0.314474 0.54651,-0.310811 0.54652,-0.305316 0.5459,-0.301651 0.54652,-0.297377 0.5459,-0.293103 0.54651,-0.288828 0.54591,-0.283943 0.54651,-0.28089 0.54652,-0.276005 0.54651,-0.272341 0.5459,-0.267456 0.54652,-0.264403 0.5459,-0.260129 0.54652,-0.255854 0.5459,-0.252191 0.54651,-0.248526 0.54591,-0.244252 0.54651,-0.240595 0.54652,-0.236924 0.5459,-0.233261 0.54651,-0.228987 0.54591,-0.225933 0.54651,-0.222263 0.54591,-0.218606 0.54651,-0.214942 0.54651,-0.211889 0.54652,-0.208225 0.5459,-0.204561 0.54652,-0.201508 0.5459,-0.197844 0.54651,-0.194792 0.54591,-0.191127 0.54651,-0.188074 0.54591,-0.185632 0.54651,-0.181968 0.54651,-0.178304 0.54591,-0.175861 0.54651,-0.172809 0.54591,-0.169755 0.54651,-0.166702 0.5459,-0.163649 0.54652,-0.160596 0.54651,-0.158153 0.54652,-0.155717 0.5459,-0.152041 0.54651,-0.149604 0.54591,-0.147162 0.54651,-0.14472 0.54591,-0.141055 0.54651,-0.139835 0.5459,-0.13617 0.54652,-0.134339 0.54651,-0.131286 0.54591,-0.129453 0.54651,-0.126401 0.5459,-0.124568 0.54652,-0.122127 0.5459,-0.119683 0.54652,-0.117852 0.54651,-0.114798 0.54651,-0.112967 0.54591,-0.111135 0.54651,-0.108692 0.54591,-0.10625 0.54651,-0.104417 0.5459,-0.102586 0.54652,-0.100144 0.5459,-0.09831 0.54652,-0.09709 0.54651,-0.09465 0.5459,-0.09282 0.54652,-0.09037 0.5459,-0.08915 0.54652,-0.08732 0.5459,-0.08549 0.54651,-0.08366 0.54652,-0.08183 0.54651,-0.0806 0.54591,-0.07877 0.54651,-0.07694 0.5459,-0.07511 0.54652,-0.07389 0.5459,-0.07267 0.54652,-0.07083 0.5459,-0.069 0.54651,-0.06779 0.54652,-0.06656 0.5459,-0.06473 0.54652,-0.06412 0.5459,-0.06228 0.54652,-0.06045 0.5459,-0.05984 0.54651,-0.05801 0.54652,-0.0574 0.54651,-0.05618 0.54591,-0.05374 0.54651,-0.05374 0.5459,-0.0519 0.54652,-0.05129 0.5459,-0.04946 0.54652,-0.04885 0.54651,-0.04763 0.5459,-0.04702 0.54652,-0.0458 0.5459,-0.04458 0.54652,-0.04335 0.5459,-0.04274 0.54651,-0.04152 0.54591,-0.0403 0.54651,-0.03969 0.54652,-0.03847 0.54651,-0.03786 0.5459,-0.03725 0.54652,-0.03603 0.5459,-0.03542 0.54652,-0.03419 0.5459,-0.03359 0.54651,-0.03297 0.54591,-0.03236 0.54651,-0.03114 0.54652,-0.03053 0.5459,-0.02992 0.54651,-0.02931 0.54591,-0.02809 0.54651,-0.02809 0.54591,-0.02687 0.54651,-0.02626 0.54651,-0.02565 0.54652,-0.02565 0.5459,-0.02443 0.54652,-0.02381 0.5459,-0.0232 0.54651,-0.02259 0.54591,-0.02198 0.54651,-0.02198 0.54652,-0.02076 0.5459,-0.02076 0.54651,-0.02015 0.54591,-0.01954 0.54651,-0.01893 0.54591,-0.01832 0.54651,-0.01893 0.54651,-0.0171 0.54591,-0.01771 0.54651,-0.01649 0.54652,-0.01649 0.5459,-0.01588 0.54651,-0.01527 0.54591,-0.01526 0.54651,-0.01466 0.54591,-0.01404 0.54651,-0.01404 0.54651,-0.01404 0.54591,-0.01282 0.54651,-0.01282 0.54591,-0.01282 0.54651,-0.01221 0.5459,-0.0116 0.54652,-0.0116 0.54651,-0.01099 0.54591,-0.01099 0.54651,-0.01099 0.54652,-0.01038 0.5459,-0.01038 0.54651,-0.0092 0.54591,-0.0098 0.54651,-0.0098 0.5459,-0.0085 0.54652,-0.0092" /><path
   inkscape:connector-curvature="0"
   id="path148"
   style="fill:none;stroke:#ff0000;stroke-width:0.61063045;stroke-linecap:butt;stroke-linejoin:round;stroke-miterlimit:10;stroke-dasharray:2.44252192, 2.44252192, 2.44252192, 2.44252192;stroke-dashoffset:0;stroke-opacity:1"
   d="M 48.808025,153.85296 H 116.95432" /><path
   inkscape:connector-curvature="0"
   id="path150"
   style="fill:none;stroke:#ff0000;stroke-width:0.61063045;stroke-linecap:butt;stroke-linejoin:round;stroke-miterlimit:10;stroke-dasharray:2.44252192, 2.44252192, 2.44252192, 2.44252192;stroke-dashoffset:0;stroke-opacity:1"
   d="M 116.95432,23.45465 V 153.85296" /><g
   id="g398"
   transform="matrix(0.61063048,0,0,0.61063048,2.2357983,-108.87929)"><text
   transform="scale(1,-1)"
   id="text348"
   y="-198.83899"
   x="73.830513"
   style="font-style:normal;font-variant:normal;font-weight:normal;font-stretch:normal;font-size:12px;line-height:1.25;font-family:sans-serif;-inkscape-font-specification:'sans-serif, Normal';font-variant-ligatures:normal;font-variant-caps:normal;font-variant-numeric:normal;font-feature-settings:normal;text-align:start;letter-spacing:0px;word-spacing:0px;writing-mode:lr-tb;text-anchor:start;fill:#000000;fill-opacity:1;stroke:none;stroke-width:0.75"
   xml:space="preserve"><tspan
     style="stroke-width:0.75"
     y="-198.83899"
     x="73.830513"
     id="tspan346"
     sodipodi:role="line">$0$</tspan></text>

<text
   transform="scale(1,-1)"
   id="text352"
   y="-198.83899"
   x="185.20552"
   style="font-style:normal;font-variant:normal;font-weight:normal;font-stretch:normal;font-size:12px;line-height:1.25;font-family:sans-serif;-inkscape-font-specification:'sans-serif, Normal';font-variant-ligatures:normal;font-variant-caps:normal;font-variant-numeric:normal;font-feature-settings:normal;text-align:start;letter-spacing:0px;word-spacing:0px;writing-mode:lr-tb;text-anchor:start;fill:#000000;fill-opacity:1;stroke:none;stroke-width:0.75"
   xml:space="preserve"><tspan
     style="stroke-width:0.75"
     y="-198.83899"
     x="185.20552"
     id="tspan350"
     sodipodi:role="line">$\sigma$</tspan></text>

<text
   transform="scale(1,-1)"
   id="text356"
   y="-198.83899"
   x="296.58051"
   style="font-style:normal;font-variant:normal;font-weight:normal;font-stretch:normal;font-size:12px;line-height:1.25;font-family:sans-serif;-inkscape-font-specification:'sans-serif, Normal';font-variant-ligatures:normal;font-variant-caps:normal;font-variant-numeric:normal;font-feature-settings:normal;text-align:start;letter-spacing:0px;word-spacing:0px;writing-mode:lr-tb;text-anchor:start;fill:#000000;fill-opacity:1;stroke:none;stroke-width:0.75"
   xml:space="preserve"><tspan
     style="stroke-width:0.75"
     y="-198.83899"
     x="296.58051"
     id="tspan354"
     sodipodi:role="line">$2\sigma$</tspan></text>

<text
   transform="scale(1,-1)"
   id="text360"
   y="-198.83899"
   x="407.95551"
   style="font-style:normal;font-variant:normal;font-weight:normal;font-stretch:normal;font-size:12px;line-height:1.25;font-family:sans-serif;-inkscape-font-specification:'sans-serif, Normal';font-variant-ligatures:normal;font-variant-caps:normal;font-variant-numeric:normal;font-feature-settings:normal;text-align:start;letter-spacing:0px;word-spacing:0px;writing-mode:lr-tb;text-anchor:start;fill:#000000;fill-opacity:1;stroke:none;stroke-width:0.75"
   xml:space="preserve"><tspan
     style="stroke-width:0.75"
     y="-198.83899"
     x="407.95551"
     id="tspan358"
     sodipodi:role="line">$3\sigma$</tspan></text>

<text
   transform="scale(1,-1)"
   id="text364"
   y="-198.83899"
   x="519.33051"
   style="font-style:normal;font-variant:normal;font-weight:normal;font-stretch:normal;font-size:12px;line-height:1.25;font-family:sans-serif;-inkscape-font-specification:'sans-serif, Normal';font-variant-ligatures:normal;font-variant-caps:normal;font-variant-numeric:normal;font-feature-settings:normal;text-align:start;letter-spacing:0px;word-spacing:0px;writing-mode:lr-tb;text-anchor:start;fill:#000000;fill-opacity:1;stroke:none;stroke-width:0.75"
   xml:space="preserve"><tspan
     style="stroke-width:0.75"
     y="-198.83899"
     x="519.33051"
     id="tspan362"
     sodipodi:role="line">$4\sigma$</tspan></text>

</g><text
   xml:space="preserve"
   style="font-style:normal;font-variant:normal;font-weight:normal;font-stretch:normal;font-size:7.32756567px;line-height:1.25;font-family:sans-serif;-inkscape-font-specification:'sans-serif, Normal';font-variant-ligatures:normal;font-variant-caps:normal;font-variant-numeric:normal;font-feature-settings:normal;text-align:start;letter-spacing:0px;word-spacing:0px;writing-mode:lr-tb;text-anchor:start;fill:#000000;fill-opacity:1;stroke:none;stroke-width:0.45797285"
   x="183.99821"
   y="-1.6996357"
   id="text402"
   transform="scale(1,-1)"><tspan
     sodipodi:role="line"
     id="tspan400"
     x="183.99821"
     y="-1.6996357"
     style="stroke-width:0.45797285">$z$</tspan></text>

<g
   id="g440"
   transform="matrix(0.61063048,0,0,0.61063048,1.4673351,-106.78183)"><text
   transform="scale(1,-1)"
   id="text406"
   y="-206.38985"
   x="40.271187"
   style="font-style:normal;font-variant:normal;font-weight:normal;font-stretch:normal;font-size:12px;line-height:1.25;font-family:sans-serif;-inkscape-font-specification:'sans-serif, Normal';font-variant-ligatures:normal;font-variant-caps:normal;font-variant-numeric:normal;font-feature-settings:normal;text-align:start;letter-spacing:0px;word-spacing:0px;writing-mode:lr-tb;text-anchor:start;fill:#000000;fill-opacity:1;stroke:none;stroke-width:0.75"
   xml:space="preserve"><tspan
     style="stroke-width:0.75"
     y="-206.38985"
     x="40.271187"
     id="tspan404"
     sodipodi:role="line">$0$</tspan></text>

<text
   xml:space="preserve"
   style="font-style:normal;font-variant:normal;font-weight:normal;font-stretch:normal;font-size:12px;line-height:1.25;font-family:sans-serif;-inkscape-font-specification:'sans-serif, Normal';font-variant-ligatures:normal;font-variant-caps:normal;font-variant-numeric:normal;font-feature-settings:normal;text-align:start;letter-spacing:0px;word-spacing:0px;writing-mode:lr-tb;text-anchor:start;fill:#000000;fill-opacity:1;stroke:none;stroke-width:0.75"
   x="40.271187"
   y="-277.28394"
   id="text410"
   transform="scale(1,-1)"><tspan
     sodipodi:role="line"
     id="tspan408"
     x="40.271187"
     y="-277.28394"
     style="stroke-width:0.75">$0.2$</tspan></text>

<text
   transform="scale(1,-1)"
   id="text414"
   y="-348.17798"
   x="40.271187"
   style="font-style:normal;font-variant:normal;font-weight:normal;font-stretch:normal;font-size:12px;line-height:1.25;font-family:sans-serif;-inkscape-font-specification:'sans-serif, Normal';font-variant-ligatures:normal;font-variant-caps:normal;font-variant-numeric:normal;font-feature-settings:normal;text-align:start;letter-spacing:0px;word-spacing:0px;writing-mode:lr-tb;text-anchor:start;fill:#000000;fill-opacity:1;stroke:none;stroke-width:0.75"
   xml:space="preserve"><tspan
     style="stroke-width:0.75"
     y="-348.17798"
     x="40.271187"
     id="tspan412"
     sodipodi:role="line">$0.4$</tspan></text>

<text
   xml:space="preserve"
   style="font-style:normal;font-variant:normal;font-weight:normal;font-stretch:normal;font-size:12px;line-height:1.25;font-family:sans-serif;-inkscape-font-specification:'sans-serif, Normal';font-variant-ligatures:normal;font-variant-caps:normal;font-variant-numeric:normal;font-feature-settings:normal;text-align:start;letter-spacing:0px;word-spacing:0px;writing-mode:lr-tb;text-anchor:start;fill:#000000;fill-opacity:1;stroke:none;stroke-width:0.75"
   x="40.271187"
   y="-419.07208"
   id="text418"
   transform="scale(1,-1)"><tspan
     sodipodi:role="line"
     id="tspan416"
     x="40.271187"
     y="-419.07208"
     style="stroke-width:0.75">$0.6$</tspan></text>

<text
   transform="scale(1,-1)"
   id="text422"
   y="-489.96616"
   x="40.271187"
   style="font-style:normal;font-variant:normal;font-weight:normal;font-stretch:normal;font-size:12px;line-height:1.25;font-family:sans-serif;-inkscape-font-specification:'sans-serif, Normal';font-variant-ligatures:normal;font-variant-caps:normal;font-variant-numeric:normal;font-feature-settings:normal;text-align:start;letter-spacing:0px;word-spacing:0px;writing-mode:lr-tb;text-anchor:start;fill:#000000;fill-opacity:1;stroke:none;stroke-width:0.75"
   xml:space="preserve"><tspan
     style="stroke-width:0.75"
     y="-489.96616"
     x="40.271187"
     id="tspan420"
     sodipodi:role="line">$0.8$</tspan></text>

<text
   xml:space="preserve"
   style="font-style:normal;font-variant:normal;font-weight:normal;font-stretch:normal;font-size:12px;line-height:1.25;font-family:sans-serif;-inkscape-font-specification:'sans-serif, Normal';font-variant-ligatures:normal;font-variant-caps:normal;font-variant-numeric:normal;font-feature-settings:normal;text-align:start;letter-spacing:0px;word-spacing:0px;writing-mode:lr-tb;text-anchor:start;fill:#000000;fill-opacity:1;stroke:none;stroke-width:0.75"
   x="40.271187"
   y="-560.86023"
   id="text426"
   transform="scale(1,-1)"><tspan
     sodipodi:role="line"
     id="tspan424"
     x="40.271187"
     y="-560.86023"
     style="stroke-width:0.75">$1$</tspan></text>

</g><text
   xml:space="preserve"
   style="font-style:normal;font-variant:normal;font-weight:normal;font-stretch:normal;font-size:7.32756567px;line-height:1.25;font-family:sans-serif;-inkscape-font-specification:'sans-serif, Normal';font-variant-ligatures:normal;font-variant-caps:normal;font-variant-numeric:normal;font-feature-settings:normal;text-align:start;letter-spacing:0px;word-spacing:0px;writing-mode:lr-tb;text-anchor:start;fill:#000000;fill-opacity:1;stroke:none;stroke-width:0.45797285"
   x="5.1338534"
   y="-123.61358"
   id="text444"
   transform="scale(1,-1)"><tspan
     sodipodi:role="line"
     id="tspan442"
     x="5.1338534"
     y="-123.61358"
     style="stroke-width:0.45797285">$p(z)$</tspan></text>

<text
   xml:space="preserve"
   style="font-style:normal;font-variant:normal;font-weight:normal;font-stretch:normal;font-size:7.3276px;line-height:1.25;font-family:sans-serif;-inkscape-font-specification:'sans-serif, Normal';font-variant-ligatures:normal;font-variant-caps:normal;font-variant-numeric:normal;font-feature-settings:normal;text-align:start;letter-spacing:0px;word-spacing:0px;writing-mode:lr-tb;text-anchor:start;fill:#000000;fill-opacity:1;stroke:none;stroke-width:0.75"
   x="96.483055"
   y="-189.81993"
   id="text105"
   transform="scale(1,-1)"><tspan
     sodipodi:role="line"
     id="tspan103"
     x="96.483055"
     y="-189.81993"
     style="font-style:normal;font-variant:normal;font-weight:normal;font-stretch:normal;font-size:7.3276px;font-family:sans-serif;-inkscape-font-specification:'sans-serif, Normal';font-variant-ligatures:normal;font-variant-caps:normal;font-variant-numeric:normal;font-feature-settings:normal;text-align:start;writing-mode:lr-tb;text-anchor:start;stroke-width:0.75">$\frac{1}{\sigma}\exp\left(-\frac{1}{2}\right)$</tspan></text>
<path
   style="fill:none;stroke:#000000;stroke-width:0.30525002;stroke-linecap:butt;stroke-linejoin:miter;stroke-miterlimit:4;stroke-dasharray:none;stroke-opacity:1"
   d="M 94.385599,180.5911 78.444917,155.42161"
   id="path912"
   inkscape:connector-curvature="0"
   sodipodi:nodetypes="cc" /></g></svg>