<?xml version="1.0" encoding="UTF-8" standalone="no"?>
<!-- Created with Inkscape (http://www.inkscape.org/) -->

<svg
   xmlns:dc="http://purl.org/dc/elements/1.1/"
   xmlns:cc="http://creativecommons.org/ns#"
   xmlns:rdf="http://www.w3.org/1999/02/22-rdf-syntax-ns#"
   xmlns:svg="http://www.w3.org/2000/svg"
   xmlns="http://www.w3.org/2000/svg"
   xmlns:sodipodi="http://sodipodi.sourceforge.net/DTD/sodipodi-0.dtd"
   xmlns:inkscape="http://www.inkscape.org/namespaces/inkscape"
   version="1.1"
   id="svg2"
   xml:space="preserve"
   width="130mm"
   height="90mm"
   viewBox="0 0 491.3386 340.15749"
   sodipodi:docname="rice.svg"
   inkscape:version="0.92.4 5da689c313, 2019-01-14"><metadata
     id="metadata8"><rdf:RDF><cc:Work
         rdf:about=""><dc:format>image/svg+xml</dc:format><dc:type
           rdf:resource="http://purl.org/dc/dcmitype/StillImage" /><dc:title></dc:title></cc:Work></rdf:RDF></metadata><defs
     id="defs6"><clipPath
       clipPathUnits="userSpaceOnUse"
       id="clipPath24"><path
         d="M 180,1800 H 5940 V 6120 H 180 Z"
         id="path22"
         inkscape:connector-curvature="0" /></clipPath></defs><sodipodi:namedview
     pagecolor="#ffffff"
     bordercolor="#666666"
     borderopacity="1"
     objecttolerance="10"
     gridtolerance="10"
     guidetolerance="10"
     inkscape:pageopacity="0"
     inkscape:pageshadow="2"
     inkscape:window-width="1920"
     inkscape:window-height="1051"
     id="namedview4"
     showgrid="false"
     inkscape:pagecheckerboard="true"
     inkscape:zoom="1.7878788"
     inkscape:cx="196.43485"
     inkscape:cy="110.38015"
     inkscape:window-x="0"
     inkscape:window-y="29"
     inkscape:window-maximized="1"
     inkscape:current-layer="g10"
     units="mm" /><g
     id="g10"
     inkscape:groupmode="layer"
     inkscape:label="ric_pd"
     transform="matrix(1.3333333,0,0,-1.3333333,0,340.15753)"><path
       inkscape:connector-curvature="0"
       id="path30"
       style="fill:none;stroke:#d9d9d9;stroke-width:0.30852047;stroke-linecap:butt;stroke-linejoin:miter;stroke-miterlimit:10;stroke-dasharray:9.87265484, 0;stroke-dashoffset:0;stroke-opacity:1"
       d="M 54.335579,30.908955 V 248.15672" /><path
       inkscape:connector-curvature="0"
       id="path32"
       style="fill:none;stroke:#d9d9d9;stroke-width:0.30852047;stroke-linecap:butt;stroke-linejoin:miter;stroke-miterlimit:10;stroke-dasharray:9.87265484, 0;stroke-dashoffset:0;stroke-opacity:1"
       d="M 123.19729,30.908955 V 248.15672" /><path
       inkscape:connector-curvature="0"
       id="path34"
       style="fill:none;stroke:#d9d9d9;stroke-width:0.30852047;stroke-linecap:butt;stroke-linejoin:miter;stroke-miterlimit:10;stroke-dasharray:9.87265484, 0;stroke-dashoffset:0;stroke-opacity:1"
       d="M 192.05905,30.908955 V 248.15672" /><path
       inkscape:connector-curvature="0"
       id="path36"
       style="fill:none;stroke:#d9d9d9;stroke-width:0.30852047;stroke-linecap:butt;stroke-linejoin:miter;stroke-miterlimit:10;stroke-dasharray:9.87265484, 0;stroke-dashoffset:0;stroke-opacity:1"
       d="M 260.92082,30.908955 V 248.15672" /><path
       inkscape:connector-curvature="0"
       id="path38"
       style="fill:none;stroke:#d9d9d9;stroke-width:0.30852047;stroke-linecap:butt;stroke-linejoin:miter;stroke-miterlimit:10;stroke-dasharray:9.87265484, 0;stroke-dashoffset:0;stroke-opacity:1"
       d="M 329.78259,30.908955 V 248.15672" /><path
       inkscape:connector-curvature="0"
       id="path40"
       style="fill:none;stroke:#262626;stroke-width:0.30852047;stroke-linecap:butt;stroke-linejoin:miter;stroke-miterlimit:10;stroke-dasharray:none;stroke-opacity:1"
       d="m 54.335579,30.908955 v 2.755088" /><path
       inkscape:connector-curvature="0"
       id="path42"
       style="fill:none;stroke:#262626;stroke-width:0.30852047;stroke-linecap:butt;stroke-linejoin:miter;stroke-miterlimit:10;stroke-dasharray:none;stroke-opacity:1"
       d="m 123.19729,30.908955 v 2.755088" /><path
       inkscape:connector-curvature="0"
       id="path44"
       style="fill:none;stroke:#262626;stroke-width:0.30852047;stroke-linecap:butt;stroke-linejoin:miter;stroke-miterlimit:10;stroke-dasharray:none;stroke-opacity:1"
       d="m 192.05905,30.908955 v 2.755088" /><path
       inkscape:connector-curvature="0"
       id="path46"
       style="fill:none;stroke:#262626;stroke-width:0.30852047;stroke-linecap:butt;stroke-linejoin:miter;stroke-miterlimit:10;stroke-dasharray:none;stroke-opacity:1"
       d="m 260.92082,30.908955 v 2.755088" /><path
       inkscape:connector-curvature="0"
       id="path48"
       style="fill:none;stroke:#262626;stroke-width:0.30852047;stroke-linecap:butt;stroke-linejoin:miter;stroke-miterlimit:10;stroke-dasharray:none;stroke-opacity:1"
       d="m 329.78259,30.908955 v 2.755088" /><path
       inkscape:connector-curvature="0"
       id="path56"
       style="fill:none;stroke:#d9d9d9;stroke-width:0.30852047;stroke-linecap:butt;stroke-linejoin:miter;stroke-miterlimit:10;stroke-dasharray:9.87265484, 0;stroke-dashoffset:0;stroke-opacity:1"
       d="M 54.335579,30.908955 H 329.78259" /><path
       inkscape:connector-curvature="0"
       id="path58"
       style="fill:none;stroke:#d9d9d9;stroke-width:0.30852047;stroke-linecap:butt;stroke-linejoin:miter;stroke-miterlimit:10;stroke-dasharray:9.87265484, 0;stroke-dashoffset:0;stroke-opacity:1"
       d="M 54.335579,67.116917 H 329.78259" /><path
       inkscape:connector-curvature="0"
       id="path60"
       style="fill:none;stroke:#d9d9d9;stroke-width:0.30852047;stroke-linecap:butt;stroke-linejoin:miter;stroke-miterlimit:10;stroke-dasharray:9.87265484, 0;stroke-dashoffset:0;stroke-opacity:1"
       d="M 54.335579,103.32488 H 329.78259" /><path
       inkscape:connector-curvature="0"
       id="path62"
       style="fill:none;stroke:#d9d9d9;stroke-width:0.30852047;stroke-linecap:butt;stroke-linejoin:miter;stroke-miterlimit:10;stroke-dasharray:9.87265484, 0;stroke-dashoffset:0;stroke-opacity:1"
       d="M 54.335579,139.53284 H 329.78259" /><path
       inkscape:connector-curvature="0"
       id="path64"
       style="fill:none;stroke:#d9d9d9;stroke-width:0.30852047;stroke-linecap:butt;stroke-linejoin:miter;stroke-miterlimit:10;stroke-dasharray:9.87265484, 0;stroke-dashoffset:0;stroke-opacity:1"
       d="M 54.335579,175.7408 H 329.78259" /><path
       inkscape:connector-curvature="0"
       id="path66"
       style="fill:none;stroke:#d9d9d9;stroke-width:0.30852047;stroke-linecap:butt;stroke-linejoin:miter;stroke-miterlimit:10;stroke-dasharray:9.87265484, 0;stroke-dashoffset:0;stroke-opacity:1"
       d="M 54.335579,211.94876 H 329.78259" /><path
       inkscape:connector-curvature="0"
       id="path68"
       style="fill:none;stroke:#d9d9d9;stroke-width:0.30852047;stroke-linecap:butt;stroke-linejoin:miter;stroke-miterlimit:10;stroke-dasharray:9.87265484, 0;stroke-dashoffset:0;stroke-opacity:1"
       d="M 54.335579,248.15672 H 329.78259" /><path
       inkscape:connector-curvature="0"
       id="path70"
       style="fill:none;stroke:#262626;stroke-width:0.30852047;stroke-linecap:butt;stroke-linejoin:miter;stroke-miterlimit:10;stroke-dasharray:none;stroke-opacity:1"
       d="m 54.335579,30.908955 h 2.756877" /><path
       inkscape:connector-curvature="0"
       id="path72"
       style="fill:none;stroke:#262626;stroke-width:0.30852047;stroke-linecap:butt;stroke-linejoin:miter;stroke-miterlimit:10;stroke-dasharray:none;stroke-opacity:1"
       d="m 54.335579,67.116917 h 2.756877" /><path
       inkscape:connector-curvature="0"
       id="path74"
       style="fill:none;stroke:#262626;stroke-width:0.30852047;stroke-linecap:butt;stroke-linejoin:miter;stroke-miterlimit:10;stroke-dasharray:none;stroke-opacity:1"
       d="m 54.335579,103.32488 h 2.756877" /><path
       inkscape:connector-curvature="0"
       id="path76"
       style="fill:none;stroke:#262626;stroke-width:0.30852047;stroke-linecap:butt;stroke-linejoin:miter;stroke-miterlimit:10;stroke-dasharray:none;stroke-opacity:1"
       d="m 54.335579,139.53284 h 2.756877" /><path
       inkscape:connector-curvature="0"
       id="path78"
       style="fill:none;stroke:#262626;stroke-width:0.30852047;stroke-linecap:butt;stroke-linejoin:miter;stroke-miterlimit:10;stroke-dasharray:none;stroke-opacity:1"
       d="m 54.335579,175.7408 h 2.756877" /><path
       inkscape:connector-curvature="0"
       id="path80"
       style="fill:none;stroke:#262626;stroke-width:0.30852047;stroke-linecap:butt;stroke-linejoin:miter;stroke-miterlimit:10;stroke-dasharray:none;stroke-opacity:1"
       d="m 54.335579,211.94876 h 2.756877" /><path
       inkscape:connector-curvature="0"
       id="path82"
       style="fill:none;stroke:#262626;stroke-width:0.30852047;stroke-linecap:butt;stroke-linejoin:miter;stroke-miterlimit:10;stroke-dasharray:none;stroke-opacity:1"
       d="m 54.335579,248.15672 h 2.756877" /><path
       inkscape:connector-curvature="0"
       id="path102"
       style="fill:none;stroke:#262626;stroke-width:0.30852047;stroke-linecap:square;stroke-linejoin:miter;stroke-miterlimit:10;stroke-dasharray:9.87265484, 0;stroke-dashoffset:0;stroke-opacity:1"
       d="M 54.335579,30.908955 H 329.78259" /><path
       inkscape:connector-curvature="0"
       id="path104"
       style="fill:none;stroke:#262626;stroke-width:0.30852047;stroke-linecap:square;stroke-linejoin:miter;stroke-miterlimit:10;stroke-dasharray:9.87265484, 0;stroke-dashoffset:0;stroke-opacity:1"
       d="M 54.335579,30.908955 V 248.15672" /><path
       inkscape:connector-curvature="0"
       id="path126"
       style="fill:none;stroke:#0072bd;stroke-width:0.92556137;stroke-linecap:butt;stroke-linejoin:round;stroke-miterlimit:10;stroke-dasharray:4.93632742, 4.93632742, 4.93632742, 4.93632742;stroke-dashoffset:0;stroke-opacity:1"
       d="m 54.335579,30.908955 0.551696,0.580635 0.552005,0.580636 0.552437,0.579401 0.551943,0.580019 0.551943,0.579401 0.552005,0.578785 0.551943,0.578167 0.552128,0.57755 0.551635,0.576317 0.552251,0.575699 0.552252,0.573848 0.551634,0.573231 0.552252,0.571997 0.551635,0.570146 0.552251,0.568912 0.551635,0.56706 0.552251,0.56521 0.551635,0.563358 0.552252,0.562125 0.552251,0.559039 0.551635,0.557188 0.552252,0.555336 0.551634,0.552252 0.552252,0.549784 0.552251,0.547315 0.551635,0.544847 0.552252,0.541762 0.552251,0.539294 0.551635,0.536208 0.552251,0.533124 0.551635,0.529421 0.552252,0.526336 0.551634,0.52325 0.552252,0.519549 0.551634,0.515846 0.552252,0.512144 0.552252,0.508442 0.552251,0.504739 0.551635,0.501037 0.552254,0.496718 0.551635,0.493016 0.552251,0.488079 0.551635,0.483761 0.552251,0.480674 0.552252,0.475122 0.551635,0.470802 0.552251,0.466483 0.551635,0.461547 0.552252,0.45661 0.551634,0.452291 0.552252,0.446738 0.551634,0.442418 0.552252,0.437482 0.552252,0.431929 0.552251,0.426992 0.551635,0.421439 0.552251,0.416503 0.551635,0.410949 0.552252,0.406013 0.551634,0.399842 0.552252,0.394906 0.552252,0.389353 0.551634,0.3838 0.552252,0.377629 0.551634,0.372075 0.552252,0.365906 0.551635,0.360352 0.552251,0.354798 0.551635,0.349245 0.552251,0.342458 0.552252,0.336904 0.552252,0.330734 0.551634,0.324564 0.552252,0.318393 0.551634,0.31284 0.552252,0.306052 0.551635,0.300499 0.552251,0.293711 0.552252,0.287542 0.551635,0.28137 0.552251,0.2752 0.551635,0.268413 0.552256,0.26286 0.55163,0.256072 0.55225,0.249284 0.55164,0.243731 0.55225,0.236944 0.55225,0.230773 0.55225,0.223986 0.55164,0.217816 0.55225,0.211645 0.55163,0.204857 0.55225,0.198687 0.55164,0.1919 0.55225,0.18573 0.55225,0.179558 0.55164,0.172155 0.55225,0.166601 0.55163,0.160431 0.55225,0.153643 0.55164,0.146855 0.55225,0.141303 0.55164,0.134515 0.55225,0.128344 0.55225,0.121557 0.55225,0.115387 0.55163,0.109833 0.55226,0.103046 0.55163,0.09688 0.55225,0.0907 0.55164,0.08453 0.55225,0.07836 0.55225,0.07219 0.55163,0.06602 0.55226,0.05985 0.55163,0.0543 0.55225,0.04751 0.55164,0.04196 0.55225,0.03641 0.55163,0.03023 0.55225,0.02468 0.55226,0.01789 0.55225,0.01296 0.55163,0.0074 0.55225,0.0012 0.55164,-0.0043 0.55225,-0.0099 0.55163,-0.01481 0.55226,-0.02098 0.55225,-0.02653 0.55163,-0.03147 0.55225,-0.03702 0.55164,-0.04258 0.55225,-0.04751 0.55163,-0.05245 0.55226,-0.058 0.55163,-0.06294 0.55225,-0.06788 0.55225,-0.07281 0.55226,-0.07775 0.55163,-0.08268 0.55225,-0.08762 0.55164,-0.09194 0.55225,-0.09688 0.55163,-0.101811 0.55225,-0.105514 0.55226,-0.110451 0.55163,-0.114769 0.55225,-0.119706 0.55164,-0.122791 0.55225,-0.127728 0.55163,-0.132047 0.55225,-0.135749 0.55164,-0.140068 0.55287,-0.143771 0.55163,-0.148089 0.55225,-0.151792 0.55164,-0.155495 0.55225,-0.158579 0.55163,-0.162899 0.55226,-0.166601 0.55163,-0.169686 0.55225,-0.172772 0.55225,-0.176474 0.55164,-0.179558 0.55225,-0.183262 0.55163,-0.186346 0.55226,-0.188814 0.55163,-0.192517 0.55225,-0.194985 0.55225,-0.19807 0.55226,-0.201156 0.55163,-0.203006 0.55225,-0.206092 0.55164,-0.209177 0.55225,-0.211028 0.55163,-0.214113 0.55225,-0.215964 0.55164,-0.218433 0.55225,-0.2209 0.55225,-0.222135 0.55164,-0.22522 0.55225,-0.227071 0.55163,-0.228922 0.55225,-0.230774 0.55164,-0.232624 0.55225,-0.234476 0.55225,-0.236326 0.55225,-0.238178 0.55164,-0.239412 0.55225,-0.240646 0.55164,-0.242497 0.55225,-0.243731 0.55163,-0.244965 0.55225,-0.246817 0.55164,-0.246816 0.55225,-0.249285 0.55225,-0.249284 0.55164,-0.251136 0.55225,-0.251753 0.55163,-0.252369 0.55225,-0.252987 0.55164,-0.254221 0.55225,-0.255455 0.55225,-0.255455 0.55225,-0.256072 0.55164,-0.256689 0.55225,-0.257306 0.55163,-0.257306 0.55226,-0.257923 0.55163,-0.25854 0.55225,-0.257923 0.55225,-0.259157 0.55164,-0.259158 0.55225,-0.25854 0.55163,-0.259157 0.55226,-0.25854 0.55163,-0.259157 0.55225,-0.259158 0.55164,-0.25854 0.55225,-0.25854 0.55225,-0.25854 0.55225,-0.257923 0.55164,-0.257923 0.55225,-0.257306 0.55163,-0.256689 0.55225,-0.256689 0.55164,-0.256072 0.55225,-0.255455 0.55225,-0.254838 0.55164,-0.254221 0.55225,-0.253604 0.55163,-0.25237 0.55225,-0.252369 0.55164,-0.251136 0.55225,-0.250519 0.55163,-0.249901 0.55226,-0.248668 0.55225,-0.24805 0.55225,-0.246816 0.55163,-0.245583 0.55226,-0.244965 0.55163,-0.243731 0.55225,-0.243114 0.55164,-0.241263 0.55225,-0.240646 0.55225,-0.239412 0.55163,-0.238178 0.55226,-0.236944 0.55163,-0.235709 0.55225,-0.234476 0.55164,-0.232624 0.55225,-0.232008 0.55163,-0.230773 0.55225,-0.228922 0.55226,-0.227688 0.55225,-0.226454 0.55163,-0.224603 0.55225,-0.223369 0.55164,-0.222135 0.55225,-0.220283 0.55164,-0.21905 0.55225,-0.217815 0.55225,-0.215348 0.55163,-0.21473 0.55225,-0.212262 0.55164,-0.211645 0.55225,-0.209794 0.55164,-0.207326 0.55225,-0.206708 0.55163,-0.204858 0.55225,-0.203006 0.55225,-0.201773 0.55226,-0.199921 0.55163,-0.197453 0.55225,-0.196836 0.55164,-0.194985 0.55225,-0.193134 0.55163,-0.191283 0.55226,-0.189431 0.55225,-0.187581 0.55163,-0.186346 0.55225,-0.184495 0.55164,-0.182644 0.55225,-0.18141 0.55163,-0.178942 0.55226,-0.177708 0.55163,-0.175857 0.55225,-0.174005 0.55225,-0.172772 0.55225,-0.170303 0.55164,-0.168452 0.55225,-0.167218 0.55164,-0.165367 0.55225,-0.164133 0.55163,-0.161665 0.55225,-0.159813 0.55226,-0.15858 0.55163,-0.156728 0.55225,-0.154878 0.55164,-0.153643 0.55225,-0.151175 0.55163,-0.149941 0.55225,-0.147473 0.55164,-0.146855 0.55287,-0.144388 0.55163,-0.143153 0.55225,-0.140686 0.55164,-0.140068 0.55225,-0.1376 0.55163,-0.136366 0.55226,-0.134515 0.55163,-0.133281 0.55225,-0.130813 0.55225,-0.129578 0.55164,-0.127728 0.55225,-0.126493 0.55163,-0.124642 0.55226,-0.123409 0.55163,-0.12094 0.55225,-0.120323 0.55225,-0.117854 0.55226,-0.116621 0.55163,-0.116004 0.55225,-0.113535 0.55164,-0.111685 0.55225,-0.11045 0.55163,-0.109216 0.55225,-0.107365 0.55164,-0.106131 0.55225,-0.10428 0.55225,-0.103046 0.55164,-0.101812 0.55225,-0.09996 0.55163,-0.09873 0.55225,-0.09749 0.55164,-0.09564 0.55225,-0.09441 0.55225,-0.09317 0.55225,-0.09132 0.55164,-0.09071 0.55225,-0.08885 0.55163,-0.08762 0.55226,-0.08577 0.55163,-0.08515 0.55225,-0.0833 0.55164,-0.08268 0.55225,-0.08145 0.55225,-0.0796 0.55164,-0.07836 0.55225,-0.07713 0.55163,-0.0759 0.55225,-0.07528 0.55164,-0.07343 0.55225,-0.07219 0.55225,-0.07158 0.55225,-0.07034 0.55164,-0.06849 0.55225,-0.06787 0.55163,-0.06664 0.55225,-0.06602 0.55164,-0.06417 0.55225,-0.06356 0.55164,-0.06232 0.55225,-0.06109 0.55225,-0.06047 0.55163,-0.05924 0.55226,-0.058 0.55163,-0.05677 0.55225,-0.05677 0.55164,-0.05492 0.55225,-0.0543 0.55225,-0.05307 0.55225,-0.05245 0.55164,-0.05121 0.55225,-0.0506 0.55163,-0.04936 0.55225,-0.04875 0.55164,-0.04751 0.55225,-0.04689 0.55163,-0.04628 0.55226,-0.04504 0.55225,-0.04443 0.55163,-0.04319 0.55225,-0.04319 0.55164,-0.04196 0.55225,-0.04072 0.55163,-0.04011 0.55226,-0.03949 0.55225,-0.03887 0.55225,-0.03826 0.55163,-0.03764 0.55226,-0.0364 0.55163,-0.03579 0.55225,-0.03517 0.55164,-0.03455 0.55225,-0.03394 0.55163,-0.03332 0.55225,-0.03209 0.55226,-0.03209 0.55163,-0.03147 0.55225,-0.03023 0.55164,-0.03024 0.55225,-0.029 0.55163,-0.029 0.55225,-0.02777 0.55226,-0.02838 0.55225,-0.02653 0.55163,-0.02653 0.55225,-0.02592 0.55164,-0.0253 0.55225,-0.0253 0.55163,-0.02468 0.55226,-0.02345 0.55163,-0.02283 0.55225,-0.02283 0.55225,-0.02283 0.55164,-0.0216 0.55225,-0.0216 0.55163,-0.02098 0.55226,-0.02098 0.55163,-0.01975 0.55225,-0.01975 0.55225,-0.01913 0.55226,-0.01851 0.55163,-0.01851 0.55225,-0.01789 0.55164,-0.01789 0.55225,-0.01728 0.55163,-0.01666 0.55225,-0.01666 0.55226,-0.01604 0.55163,-0.01543 0.55225,-0.01543 0.55164,-0.01481 0.55225,-0.01481 0.55163,-0.01419 0.55226,-0.01419 0.55163,-0.01357 0.55225,-0.01357 0.55225,-0.01296 0.55225,-0.01234 0.55164,-0.01296 0.55225,-0.01172 0.55164,-0.01234 0.55225,-0.01172 0.55163,-0.01111 0.55225,-0.01049 0.55164,-0.01111 0.55225,-0.01049 0.55225,-0.01049 0.55164,-0.0099 0.55225,-0.0099 0.55163,-0.0099 0.55225,-0.0093 0.55164,-0.0086 0.55225,-0.0093 0.55225,-0.0086 0.55225,-0.0086 0.55164,-0.008 0.55225,-0.008 0.55163,-0.008 0.55226,-0.008 0.55163,-0.0068 0.55225,-0.008 0.55225,-0.0068 0.55164,-0.0068 0.55225,-0.0068 0.55163,-0.0068 0.55226,-0.0062 0.55163,-0.0068 0.55225,-0.0056 0.55225,-0.0062 0.55164,-0.0056 0.55225,-0.0056 0.55225,-0.0056 0.55164,-0.0056 0.55225,-0.0056 0.55163,-0.0049 0.55225,-0.0049 0.55164,-0.0043 0.55225,-0.0049 0.55225,-0.0043 0.55164,-0.0049 0.55225,-0.0043 0.55163,-0.0037 0.55225,-0.0043 0.55164,-0.0043 0.55225,-0.0037 0.55225,-0.0037 0.55164,-0.0037 0.55225,-0.0037 0.55225,-0.0031 0.55163,-0.0037 0.55226,-0.0037 0.55163,-0.0025 0.55225,-0.0037 0.55164,-0.0031 0.55225,-0.0031" /><path
       inkscape:connector-curvature="0"
       id="path128"
       style="fill:none;stroke:#d95319;stroke-width:0.92556137;stroke-linecap:butt;stroke-linejoin:round;stroke-miterlimit:10;stroke-dasharray:none;stroke-opacity:1"
       d="m 54.335579,30.908955 0.551696,0.427609 0.552005,0.426375 0.552437,0.42761 0.551943,0.426992 0.551943,0.426992 0.552005,0.426993 0.551943,0.426992 0.552128,0.426992 0.551635,0.42761 0.552251,0.426992 0.552252,0.426992 0.551634,0.426993 0.552252,0.426993 0.551635,0.426992 0.552251,0.426992 0.551635,0.426993 0.552251,0.426992 0.551635,0.426375 0.552252,0.42761 0.552251,0.426375 0.551635,0.426992 0.552252,0.426376 0.551634,0.426992 0.552252,0.426375 0.552251,0.426375 0.551635,0.425759 0.552252,0.426375 0.552251,0.425758 0.551635,0.425758 0.552251,0.425142 0.551635,0.425141 0.552252,0.425141 0.551634,0.424524 0.552252,0.425141 0.551634,0.423907 0.552252,0.423291 0.552252,0.423907 0.552251,0.422673 0.551635,0.422673 0.552254,0.422056 0.551635,0.421439 0.552251,0.420822 0.551635,0.420822 0.552251,0.419587 0.552252,0.418971 0.551635,0.418971 0.552251,0.41712 0.551635,0.417119 0.552252,0.415886 0.551634,0.415268 0.552252,0.414035 0.551634,0.413417 0.552252,0.411567 0.552252,0.411566 0.552251,0.409715 0.551635,0.408481 0.552251,0.407247 0.551635,0.406013 0.552252,0.404779 0.551634,0.402928 0.552252,0.401693 0.552252,0.399843 0.551634,0.398608 0.552252,0.396141 0.551634,0.395523 0.552252,0.392438 0.551635,0.391204 0.552251,0.388736 0.551635,0.386884 0.552251,0.385034 0.552252,0.381948 0.552252,0.380714 0.551634,0.377629 0.552252,0.375161 0.551634,0.372693 0.552252,0.370225 0.551635,0.367139 0.552251,0.364671 0.552252,0.361586 0.551635,0.359118 0.552251,0.355415 0.551635,0.352948 0.552256,0.349245 0.55163,0.34616 0.55225,0.342458 0.55164,0.339372 0.55225,0.33567 0.55225,0.331968 0.55225,0.328883 0.55164,0.323947 0.55225,0.320861 0.55163,0.316542 0.55225,0.31284 0.55164,0.30852 0.55225,0.304201 0.55225,0.299882 0.55164,0.295563 0.55225,0.291243 0.55163,0.286307 0.55225,0.282605 0.55164,0.277051 0.55225,0.272115 0.55164,0.267796 0.55225,0.26286 0.55225,0.257306 0.55225,0.252369 0.55163,0.247434 0.55226,0.242497 0.55163,0.236327 0.55225,0.23139 0.55164,0.225837 0.55225,0.220901 0.55225,0.21473 0.55163,0.209177 0.55226,0.203623 0.55163,0.197453 0.55225,0.1919 0.55164,0.185729 0.55225,0.180176 0.55163,0.174006 0.55225,0.167835 0.55226,0.162282 0.55225,0.155494 0.55163,0.149324 0.55225,0.143153 0.55164,0.136984 0.55225,0.130812 0.55163,0.124025 0.55226,0.117855 0.55225,0.111685 0.55163,0.104897 0.55225,0.09811 0.55164,0.09256 0.55225,0.08515 0.55163,0.07898 0.55226,0.07158 0.55163,0.06602 0.55225,0.05924 0.55225,0.05245 0.55226,0.04566 0.55163,0.03887 0.55225,0.03209 0.55164,0.02592 0.55225,0.01913 0.55163,0.01296 0.55225,0.0056 0.55226,-6.17e-4 0.55163,-0.008 0.55225,-0.01357 0.55164,-0.02098 0.55225,-0.02715 0.55163,-0.03332 0.55225,-0.04072 0.55164,-0.0469 0.55287,-0.05307 0.55163,-0.05985 0.55225,-0.06664 0.55164,-0.07219 0.55225,-0.07898 0.55163,-0.08515 0.55226,-0.09132 0.55163,-0.09811 0.55225,-0.103663 0.55225,-0.109833 0.55164,-0.116004 0.55225,-0.122174 0.55163,-0.128345 0.55226,-0.133898 0.55163,-0.139451 0.55225,-0.145621 0.55225,-0.151176 0.55226,-0.157345 0.55163,-0.162282 0.55225,-0.167835 0.55164,-0.174005 0.55225,-0.178325 0.55163,-0.183878 0.55225,-0.189432 0.55164,-0.194985 0.55225,-0.199304 0.55225,-0.204241 0.55164,-0.209177 0.55225,-0.214113 0.55163,-0.219049 0.55225,-0.223369 0.55164,-0.227688 0.55225,-0.232625 0.55225,-0.236943 0.55225,-0.240646 0.55164,-0.244966 0.55225,-0.249284 0.55164,-0.252987 0.55225,-0.257306 0.55163,-0.260391 0.55225,-0.264711 0.55164,-0.267796 0.55225,-0.271498 0.55225,-0.2752 0.55164,-0.278285 0.55225,-0.280754 0.55163,-0.284456 0.55225,-0.287541 0.55164,-0.290009 0.55225,-0.293094 0.55225,-0.295563 0.55225,-0.298031 0.55164,-0.300499 0.55225,-0.302967 0.55163,-0.304818 0.55226,-0.307286 0.55163,-0.309138 0.55225,-0.310989 0.55225,-0.313456 0.55164,-0.314074 0.55225,-0.316542 0.55163,-0.317776 0.55226,-0.31901 0.55163,-0.320862 0.55225,-0.321478 0.55164,-0.322712 0.55225,-0.323947 0.55225,-0.324563 0.55225,-0.325798 0.55164,-0.325798 0.55225,-0.326414 0.55163,-0.327649 0.55225,-0.327649 0.55164,-0.328266 0.55225,-0.327648 0.55225,-0.328883 0.55164,-0.328266 0.55225,-0.328266 0.55163,-0.328265 0.55225,-0.327649 0.55164,-0.328266 0.55225,-0.327032 0.55163,-0.327031 0.55226,-0.326415 0.55225,-0.325181 0.55225,-0.32518 0.55163,-0.323947 0.55226,-0.323329 0.55163,-0.322095 0.55225,-0.321479 0.55164,-0.319627 0.55225,-0.31901 0.55225,-0.317776 0.55163,-0.316542 0.55226,-0.314691 0.55163,-0.313457 0.55225,-0.312223 0.55164,-0.310371 0.55225,-0.308521 0.55163,-0.307286 0.55225,-0.304818 0.55226,-0.304201 0.55225,-0.301116 0.55163,-0.299882 0.55225,-0.298031 0.55164,-0.294946 0.55225,-0.294328 0.55164,-0.291243 0.55225,-0.289393 0.55225,-0.286924 0.55163,-0.285073 0.55225,-0.282604 0.55164,-0.280137 0.55225,-0.277668 0.55164,-0.275818 0.55225,-0.273349 0.55163,-0.270264 0.55225,-0.268412 0.55225,-0.265328 0.55226,-0.263477 0.55163,-0.259774 0.55225,-0.257923 0.55164,-0.255455 0.55225,-0.252987 0.55163,-0.249901 0.55226,-0.246817 0.55225,-0.244348 0.55163,-0.242497 0.55225,-0.238795 0.55164,-0.236326 0.55225,-0.233242 0.55163,-0.230773 0.55226,-0.228305 0.55163,-0.22522 0.55225,-0.222752 0.55225,-0.219667 0.55225,-0.216581 0.55164,-0.214113 0.55225,-0.211028 0.55164,-0.20856 0.55225,-0.205475 0.55163,-0.203006 0.55225,-0.199921 0.55226,-0.196836 0.55163,-0.194368 0.55225,-0.1919 0.55164,-0.188814 0.55225,-0.186347 0.55163,-0.183261 0.55225,-0.180176 0.55164,-0.177708 0.55287,-0.175239 0.55163,-0.172155 0.55225,-0.169686 0.55164,-0.167218 0.55225,-0.164133 0.55163,-0.161665 0.55226,-0.158579 0.55163,-0.156729 0.55225,-0.153026 0.55225,-0.151792 0.55164,-0.14809 0.55225,-0.146238 0.55163,-0.143154 0.55226,-0.141302 0.55163,-0.138217 0.55225,-0.136366 0.55225,-0.133281 0.55226,-0.130813 0.55163,-0.128962 0.55225,-0.126493 0.55164,-0.124025 0.55225,-0.121558 0.55163,-0.119089 0.55225,-0.117238 0.55164,-0.114769 0.55225,-0.112302 0.55225,-0.11045 0.55164,-0.107982 0.55225,-0.105514 0.55163,-0.10428 0.55225,-0.101812 0.55164,-0.09996 0.55225,-0.09749 0.55225,-0.09564 0.55225,-0.09379 0.55164,-0.09132 0.55225,-0.08947 0.55163,-0.08824 0.55226,-0.08577 0.55163,-0.08392 0.55225,-0.08207 0.55164,-0.08083 0.55225,-0.07837 0.55225,-0.07713 0.55164,-0.07528 0.55225,-0.07343 0.55163,-0.07158 0.55225,-0.07034 0.55164,-0.06849 0.55225,-0.06664 0.55225,-0.06541 0.55225,-0.06417 0.55164,-0.06232 0.55225,-0.06047 0.55163,-0.05985 0.55225,-0.058 0.55164,-0.05677 0.55225,-0.05492 0.55164,-0.05368 0.55225,-0.05245 0.55225,-0.05121 0.55163,-0.04998 0.55226,-0.04875 0.55163,-0.04751 0.55225,-0.04628 0.55164,-0.04504 0.55225,-0.04381 0.55225,-0.04258 0.55225,-0.04196 0.55164,-0.04072 0.55225,-0.03949 0.55163,-0.03826 0.55225,-0.03764 0.55164,-0.03641 0.55225,-0.03579 0.55163,-0.03394 0.55226,-0.03332 0.55225,-0.03332 0.55163,-0.03147 0.55225,-0.03085 0.55164,-0.02962 0.55225,-0.02962 0.55163,-0.02838 0.55226,-0.02777 0.55225,-0.02653 0.55225,-0.02592 0.55163,-0.0253 0.55226,-0.02468 0.55163,-0.02407 0.55225,-0.02283 0.55164,-0.02283 0.55225,-0.0216 0.55163,-0.02098 0.55225,-0.02036 0.55226,-0.02036 0.55163,-0.01913 0.55225,-0.01913 0.55164,-0.01789 0.55225,-0.01789 0.55163,-0.01666 0.55225,-0.01666 0.55226,-0.01666 0.55225,-0.01543 0.55163,-0.01481 0.55225,-0.01481 0.55164,-0.01419 0.55225,-0.01357 0.55163,-0.01296 0.55226,-0.01357 0.55163,-0.01234 0.55225,-0.01172 0.55225,-0.01172 0.55164,-0.01111 0.55225,-0.01111 0.55163,-0.01111 0.55226,-0.0099 0.55163,-0.0099 0.55225,-0.0093 0.55225,-0.0099 0.55226,-0.0086 0.55163,-0.0086 0.55225,-0.008 0.55164,-0.0086 0.55225,-0.0074 0.55163,-0.0074 0.55225,-0.0074 0.55226,-0.0074 0.55163,-0.0062 0.55225,-0.0068 0.55164,-0.0062 0.55225,-0.0062 0.55163,-0.0062 0.55226,-0.0056 0.55163,-0.0056 0.55225,-0.0049 0.55225,-0.0056 0.55225,-0.0049 0.55164,-0.0049 0.55225,-0.0043 0.55164,-0.0043 0.55225,-0.0043 0.55163,-0.0037 0.55225,-0.0043 0.55164,-0.0037 0.55225,-0.0037 0.55225,-0.0037 0.55164,-0.0031 0.55225,-0.0037 0.55163,-0.0025 0.55225,-0.0031 0.55164,-0.0031 0.55225,-0.0031 0.55225,-0.0025 0.55225,-0.0025 0.55164,-0.0025 0.55225,-0.0025 0.55163,-0.0025 0.55226,-0.0019 0.55163,-0.0025 0.55225,-0.0019 0.55225,-0.0025 0.55164,-0.0019 0.55225,-0.0012 0.55163,-0.0025 0.55226,-0.0012 0.55163,-0.0019 0.55225,-0.0012 0.55225,-0.0019 0.55164,-0.0012 0.55225,-0.0012 0.55225,-0.0012 0.55164,-0.0019 0.55225,-6.17e-4 0.55163,-0.0019 0.55225,-6.17e-4 0.55164,-0.0012 0.55225,-0.0012 0.55225,-6.17e-4 0.55164,-0.0012 0.55225,-6.17e-4 0.55163,-0.0012 0.55225,-6.17e-4 0.55164,-6.17e-4 0.55225,-0.0012 0.55225,-6.17e-4 0.55164,-6.17e-4 0.55225,-6.17e-4 0.55225,-6.17e-4 0.55163,-6.17e-4 0.55226,-6.17e-4 0.55163,-6.17e-4 0.55225,-6.17e-4 h 0.55164 l 0.55225,-6.17e-4" /><path
       inkscape:connector-curvature="0"
       id="path130"
       style="fill:none;stroke:#edb120;stroke-width:0.92556137;stroke-linecap:butt;stroke-linejoin:round;stroke-miterlimit:10;stroke-dasharray:none;stroke-opacity:1"
       d="m 54.335579,30.908955 0.551696,0.05307 0.552005,0.05368 0.552437,0.05368 0.551943,0.05368 0.551943,0.05492 0.552005,0.05553 0.551943,0.05615 0.552128,0.05739 0.551635,0.05924 0.552251,0.05985 0.552252,0.0617 0.551634,0.06355 0.552252,0.06479 0.551635,0.06788 0.552251,0.06911 0.551635,0.07219 0.552251,0.07404 0.551635,0.07713 0.552252,0.0796 0.552251,0.0833 0.551635,0.08577 0.552252,0.08947 0.551634,0.09256 0.552252,0.09688 0.552251,0.09996 0.551635,0.104897 0.552252,0.108599 0.552251,0.112919 0.551635,0.117237 0.552251,0.122791 0.551635,0.126494 0.552252,0.132664 0.551634,0.1376 0.552252,0.143153 0.551634,0.14809 0.552252,0.15426 0.552252,0.160431 0.552251,0.166601 0.551635,0.172771 0.552254,0.178942 0.551635,0.186347 0.552251,0.192516 0.551635,0.199305 0.552251,0.207325 0.552252,0.214731 0.551635,0.221518 0.552251,0.230156 0.551635,0.236944 0.552252,0.245582 0.551634,0.253604 0.552252,0.262243 0.551634,0.27088 0.552252,0.27952 0.552252,0.288158 0.552251,0.296797 0.551635,0.306669 0.552251,0.315308 0.551635,0.324564 0.552252,0.334436 0.551634,0.343692 0.552252,0.353564 0.552252,0.363437 0.551634,0.37331 0.552252,0.383182 0.551634,0.393672 0.552252,0.403545 0.551635,0.414035 0.552251,0.424524 0.551635,0.434397 0.552251,0.444886 0.552252,0.455376 0.552252,0.465249 0.551634,0.476356 0.552252,0.486845 0.551634,0.496718 0.552252,0.507208 0.551635,0.518314 0.552251,0.52757 0.552252,0.538677 0.551635,0.548549 0.552251,0.558422 0.551635,0.568295 0.552256,0.579401 0.55163,0.587423 0.55225,0.597913 0.55164,0.607785 0.55225,0.616424 0.55225,0.62568 0.55225,0.634935 0.55164,0.643573 0.55225,0.651596 0.55163,0.660233 0.55225,0.668256 0.55164,0.67566 0.55225,0.683681 0.55225,0.690469 0.55164,0.697256 0.55225,0.704044 0.55163,0.710214 0.55225,0.715767 0.55164,0.721321 0.55225,0.726874 0.55164,0.731194 0.55225,0.735513 0.55225,0.739215 0.55225,0.7423 0.55163,0.746002 0.55226,0.748471 0.55163,0.750322 0.55225,0.751556 0.55164,0.753407 0.55225,0.753407 0.55225,0.754024 0.55163,0.753407 0.55226,0.752172 0.55163,0.750939 0.55225,0.749088 0.55164,0.746002 0.55225,0.743535 0.55163,0.739215 0.55225,0.734895 0.55226,0.730577 0.55225,0.725023 0.55163,0.71947 0.55225,0.712065 0.55164,0.705895 0.55225,0.697256 0.55163,0.689852 0.55226,0.679979 0.55225,0.67134 0.55163,0.660851 0.55225,0.650978 0.55164,0.639255 0.55225,0.628148 0.55163,0.615189 0.55226,0.602849 0.55163,0.589274 0.55225,0.5757 0.55225,0.561507 0.55226,0.546081 0.55163,0.531272 0.55225,0.515229 0.55164,0.49857 0.55225,0.481909 0.55163,0.464631 0.55225,0.447355 0.55226,0.428843 0.55163,0.410333 0.55225,0.391821 0.55164,0.372075 0.55225,0.352948 0.55163,0.332585 0.55225,0.312223 0.55164,0.29186 0.55287,0.270881 0.55163,0.249901 0.55225,0.228923 0.55164,0.206708 0.55225,0.18573 0.55163,0.162898 0.55226,0.141303 0.55163,0.119706 0.55225,0.09626 0.55225,0.07466 0.55164,0.05183 0.55225,0.02962 0.55163,0.0074 0.55226,-0.01604 0.55163,-0.03764 0.55225,-0.06047 0.55225,-0.08268 0.55226,-0.105514 0.55163,-0.12711 0.55225,-0.148707 0.55164,-0.170921 0.55225,-0.193133 0.55163,-0.213497 0.55225,-0.235709 0.55164,-0.256072 0.55225,-0.277052 0.55225,-0.297413 0.55164,-0.317776 0.55225,-0.337522 0.55163,-0.356649 0.55225,-0.376395 0.55164,-0.39429 0.55225,-0.413417 0.55225,-0.430695 0.55225,-0.448588 0.55164,-0.465249 0.55225,-0.482526 0.55164,-0.498569 0.55225,-0.513995 0.55163,-0.529422 0.55225,-0.54423 0.55164,-0.558422 0.55225,-0.571997 0.55225,-0.584954 0.55164,-0.597913 0.55225,-0.610254 0.55163,-0.62136 0.55225,-0.632467 0.55164,-0.642956 0.55225,-0.653447 0.55225,-0.662085 0.55225,-0.67134 0.55164,-0.679362 0.55225,-0.686767 0.55163,-0.694788 0.55226,-0.700958 0.55163,-0.706512 0.55225,-0.712065 0.55225,-0.717002 0.55164,-0.721938 0.55225,-0.725023 0.55163,-0.728725 0.55226,-0.731194 0.55163,-0.733044 0.55225,-0.734896 0.55164,-0.73613 0.55225,-0.736747 0.55225,-0.737364 0.55225,-0.73613 0.55164,-0.736129 0.55225,-0.734279 0.55163,-0.732428 0.55225,-0.730576 0.55164,-0.728108 0.55225,-0.724407 0.55225,-0.72132 0.55164,-0.717619 0.55225,-0.713299 0.55163,-0.708363 0.55225,-0.703427 0.55164,-0.697873 0.55225,-0.692937 0.55163,-0.68615 0.55226,-0.679979 0.55225,-0.673191 0.55225,-0.666405 0.55163,-0.659616 0.55226,-0.651596 0.55163,-0.64419 0.55225,-0.63617 0.55164,-0.628147 0.55225,-0.619509 0.55225,-0.611488 0.55163,-0.602232 0.55226,-0.593593 0.55163,-0.584955 0.55225,-0.575082 0.55164,-0.566444 0.55225,-0.556571 0.55163,-0.547315 0.55225,-0.537443 0.55226,-0.528187 0.55225,-0.518931 0.55163,-0.508442 0.55225,-0.498569 0.55164,-0.489313 0.55225,-0.478824 0.55164,-0.469568 0.55225,-0.459696 0.55225,-0.449205 0.55163,-0.439951 0.55225,-0.430077 0.55164,-0.420205 0.55225,-0.410332 0.55164,-0.401077 0.55225,-0.391204 0.55163,-0.381331 0.55225,-0.372693 0.55225,-0.36282 0.55226,-0.353564 0.55163,-0.344309 0.55225,-0.335053 0.55164,-0.327032 0.55225,-0.317159 0.55163,-0.308521 0.55226,-0.300498 0.55225,-0.291244 0.55163,-0.283222 0.55225,-0.2752 0.55164,-0.266562 0.55225,-0.259157 0.55163,-0.250518 0.55226,-0.243731 0.55163,-0.23571 0.55225,-0.228305 0.55225,-0.220901 0.55225,-0.214113 0.55164,-0.206709 0.55225,-0.199922 0.55164,-0.193751 0.55225,-0.186963 0.55163,-0.180176 0.55225,-0.174622 0.55226,-0.168453 0.55163,-0.161664 0.55225,-0.156729 0.55164,-0.151175 0.55225,-0.145004 0.55163,-0.140069 0.55225,-0.135132 0.55164,-0.129578 0.55287,-0.124643 0.55163,-0.120323 0.55225,-0.115386 0.55164,-0.111685 0.55225,-0.106131 0.55163,-0.102428 0.55226,-0.09873 0.55163,-0.09441 0.55225,-0.09009 0.55225,-0.087 0.55164,-0.0833 0.55225,-0.0796 0.55163,-0.07651 0.55226,-0.07343 0.55163,-0.06973 0.55225,-0.06726 0.55225,-0.06417 0.55226,-0.06109 0.55163,-0.05862 0.55225,-0.05615 0.55164,-0.05307 0.55225,-0.05121 0.55163,-0.04875 0.55225,-0.04628 0.55164,-0.04443 0.55225,-0.04196 0.55225,-0.04011 0.55164,-0.03826 0.55225,-0.03641 0.55163,-0.03517 0.55225,-0.03332 0.55164,-0.03147 0.55225,-0.02962 0.55225,-0.029 0.55225,-0.02653 0.55164,-0.02592 0.55225,-0.02468 0.55163,-0.02283 0.55226,-0.0216 0.55163,-0.02098 0.55225,-0.01975 0.55164,-0.01851 0.55225,-0.01789 0.55225,-0.01728 0.55164,-0.01543 0.55225,-0.01543 0.55163,-0.01419 0.55225,-0.01358 0.55164,-0.01234 0.55225,-0.01234 0.55225,-0.01172 0.55225,-0.0099 0.55164,-0.01049 0.55225,-0.0099 0.55163,-0.0086 0.55225,-0.0086 0.55164,-0.008 0.55225,-0.0074 0.55164,-0.0074 0.55225,-0.0068 0.55225,-0.0062 0.55163,-0.0062 0.55226,-0.0056 0.55163,-0.0049 0.55225,-0.0049 0.55164,-0.0049 0.55225,-0.0043 0.55225,-0.0043 0.55225,-0.0037 0.55164,-0.0037 0.55225,-0.0031 0.55163,-0.0037 0.55225,-0.0025 0.55164,-0.0031 0.55225,-0.0025 0.55163,-0.0025 0.55226,-0.0025 0.55225,-0.0019 0.55163,-0.0025 0.55225,-0.0019 0.55164,-0.0012 0.55225,-0.0019 0.55163,-0.0019 0.55226,-0.0012 0.55225,-0.0012 0.55225,-0.0012 0.55163,-0.0012 0.55226,-0.0012 0.55163,-0.0012 0.55225,-6.17e-4 0.55164,-6.17e-4 0.55225,-0.0012 0.55163,-6.18e-4 0.55225,-6.17e-4 0.55226,-6.17e-4 0.55163,-6.17e-4 0.55225,-6.17e-4 0.55164,-6.17e-4 0.55225,-6.17e-4 0.55163,-6.17e-4 0.55225,-6.17e-4 h 0.55226 l 0.55225,-6.17e-4 h 0.55163 0.55225 l 0.55164,-6.17e-4 0.55225,-6.17e-4 h 0.55163 l 0.55226,-6.17e-4 h 0.55163 0.55225 l 0.55225,-6.17e-4 h 0.55164 0.55225 0.55163 0.55226 0.55163 l 0.55225,-6.17e-4 h 0.55225 0.55226 l 0.55163,-6.17e-4 h 0.55225 0.55164 0.55225 0.55163 0.55225 0.55226 0.55163 0.55225 0.55164 0.55225 0.55163 0.55226 0.55163 0.55225 0.55225 0.55225 0.55164 0.55225 0.55164 0.55225 l 0.55163,-6.17e-4 h 0.55225 0.55164 0.55225 0.55225 0.55164 0.55225 0.55163 0.55225 0.55164 0.55225 0.55225 0.55225 0.55164 0.55225 0.55163 0.55226 0.55163 0.55225 0.55225 0.55164 0.55225 0.55163 0.55226 0.55163 0.55225 0.55225 0.55164 0.55225 0.55225 0.55164 0.55225 0.55163 0.55225 0.55164 0.55225 0.55225 0.55164 0.55225 0.55163 0.55225 0.55164 0.55225 0.55225 0.55164 0.55225 0.55225 0.55163 0.55226 0.55163 0.55225 0.55164 0.55225" /><path
       inkscape:connector-curvature="0"
       id="path132"
       style="fill:none;stroke:#7e2f8e;stroke-width:0.92556137;stroke-linecap:butt;stroke-linejoin:round;stroke-miterlimit:10;stroke-dasharray:none;stroke-opacity:1"
       d="m 54.335579,30.908955 h 11.040034 l 0.551635,6.17e-4 h 2.208389 0.551635 0.552252 0.552251 0.551635 0.552251 l 0.551635,6.17e-4 h 0.552252 l 0.551634,6.17e-4 h 0.552252 0.551634 l 0.552252,6.17e-4 0.552252,6.17e-4 0.552251,6.17e-4 0.551635,6.17e-4 0.552254,6.17e-4 0.551635,6.17e-4 0.552251,0.0012 0.551635,0.0012 0.552251,0.0012 0.552252,0.0012 0.551635,0.0012 0.552251,0.0025 0.551635,0.0019 0.552252,0.0025 0.551634,0.0031 0.552252,0.0031 0.551634,0.0037 0.552252,0.0043 0.552252,0.0049 0.552251,0.0056 0.551635,0.0062 0.552251,0.0068 0.551635,0.0086 0.552252,0.0086 0.551634,0.01049 0.552252,0.01111 0.552252,0.01296 0.551634,0.01481 0.552252,0.01666 0.551634,0.01789 0.552252,0.02098 0.551635,0.02283 0.552251,0.02592 0.551635,0.029 0.552251,0.03147 0.552252,0.03579 0.552252,0.04011 0.551634,0.04381 0.552252,0.04875 0.551634,0.0543 0.552252,0.05985 0.551635,0.06602 0.552251,0.07343 0.552252,0.08021 0.551635,0.08824 0.552251,0.09749 0.551635,0.106748 0.552256,0.117237 0.55163,0.128345 0.55225,0.140068 0.55164,0.153643 0.55225,0.167218 0.55225,0.182028 0.55225,0.198687 0.55164,0.215347 0.55225,0.233859 0.55163,0.253603 0.55225,0.273967 0.55164,0.296796 0.55225,0.320244 0.55225,0.345543 0.55164,0.372076 0.55225,0.399843 0.55163,0.429461 0.55225,0.460929 0.55164,0.493633 0.55225,0.528187 0.55164,0.564592 0.55225,0.602232 0.55225,0.641723 0.55225,0.682447 0.55163,0.726257 0.55226,0.770067 0.55163,0.816346 0.55225,0.863857 0.55164,0.91322 0.55225,0.963818 0.55225,1.01565 0.55163,1.069332 0.55226,1.124248 0.55163,1.179783 0.55225,1.23655 0.55164,1.294551 0.55225,1.352554 0.55163,1.411173 0.55225,1.471025 0.55226,1.530879 0.55225,1.590731 0.55163,1.649351 0.55225,1.709203 0.55164,1.767822 0.55225,1.825207 0.55163,1.881975 0.55226,1.937509 0.55225,1.991191 0.55163,2.043639 0.55225,2.093003 0.55164,2.140515 0.55225,2.185559 0.55163,2.226901 0.55226,2.266391 0.55163,2.300946 0.55225,2.333032 0.55225,2.360181 0.55226,2.383629 0.55163,2.401524 0.55225,2.416332 0.55164,2.424975 0.55225,2.42928 0.55163,2.42682 0.55225,2.42066 0.55226,2.40831 0.55163,2.38856 0.55225,2.36512 0.55164,2.33427 0.55225,2.29786 0.55163,2.25466 0.55225,2.20654 0.55164,2.15101 0.55287,2.09115 0.55163,2.02328 0.55225,1.95046 0.55164,1.8721 0.55225,1.78757 0.55163,1.6981 0.55226,1.60369 0.55163,1.50311 0.55225,1.39883 0.55225,1.29023 0.55164,1.1767 0.55225,1.06008 0.55163,0.94037 0.55226,0.81634 0.55163,0.69047 0.55225,0.56274 0.55225,0.43255 0.55226,0.30111 0.55163,0.16846 0.55225,0.0364 0.55164,-0.0975 0.55225,-0.23016 0.55163,-0.36158 0.55225,-0.4924 0.55164,-0.62198 0.55225,-0.74847 0.55225,-0.87311 0.55164,-0.99467 0.55225,-1.11314 0.55163,-1.22791 0.55225,-1.33837 0.55164,-1.44511 0.55225,-1.54692 0.55225,-1.64441 0.55225,-1.73636 0.55164,-1.82273 0.55225,-1.90419 0.55164,-1.98009 0.55225,-2.04919 0.55163,-2.11337 0.55225,-2.17136 0.55164,-2.22258 0.55225,-2.26886 0.55225,-2.30774 0.55164,-2.34105 0.55225,-2.36944 0.55163,-2.39041 0.55225,-2.40585 0.55164,-2.41633 0.55225,-2.42003 0.55225,-2.41942 0.55225,-2.413244 0.55164,-2.40214 0.55225,-2.38548 0.55163,-2.365118 0.55226,-2.340437 0.55163,-2.310818 0.55225,-2.278115 0.55225,-2.24171 0.55164,-2.200985 0.55225,-2.159026 0.55163,-2.113365 0.55226,-2.064619 0.55163,-2.014639 0.55225,-1.96219 0.55164,-1.908507 0.55225,-1.852357 0.55225,-1.796206 0.55225,-1.738205 0.55164,-1.680202 0.55225,-1.620967 0.55163,-1.562347 0.55225,-1.502495 0.55164,-1.443876 0.55225,-1.385257 0.55225,-1.327255 0.55164,-1.269253 0.55225,-1.211868 0.55163,-1.156952 0.55225,-1.102035 0.55164,-1.047736 0.55225,-0.995904 0.55163,-0.944689 0.55226,-0.89471 0.55225,-0.84658 0.55225,-0.799685 0.55163,-0.755258 0.55226,-0.710831 0.55163,-0.669489 0.55225,-0.629382 0.55164,-0.590508 0.55225,-0.553486 0.55225,-0.518314 0.55163,-0.484378 0.55226,-0.452291 0.55163,-0.422056 0.55225,-0.393055 0.55164,-0.365288 0.55225,-0.33999 0.55163,-0.315308 0.55225,-0.29186 0.55226,-0.270264 0.55225,-0.249902 0.55163,-0.230773 0.55225,-0.212879 0.55164,-0.195602 0.55225,-0.180176 0.55164,-0.165984 0.55225,-0.151792 0.55225,-0.138834 0.55163,-0.127728 0.55225,-0.116621 0.55164,-0.106131 0.55225,-0.09749 0.55164,-0.08824 0.55225,-0.08021 0.55163,-0.07281 0.55225,-0.06664 0.55225,-0.05985 0.55226,-0.0543 0.55163,-0.04936 0.55225,-0.04443 0.55164,-0.04011 0.55225,-0.03579 0.55163,-0.0327 0.55226,-0.02962 0.55225,-0.02592 0.55163,-0.02407 0.55225,-0.02098 0.55164,-0.01851 0.55225,-0.01728 0.55163,-0.01481 0.55226,-0.01357 0.55163,-0.01172 0.55225,-0.01049 0.55225,-0.0099 0.55225,-0.008 0.55164,-0.0074 0.55225,-0.0068 0.55164,-0.0056 0.55225,-0.0049 0.55163,-0.0049 0.55225,-0.0043 0.55226,-0.0031 0.55163,-0.0031 0.55225,-0.0025 0.55164,-0.0025 0.55225,-0.0019 0.55163,-0.0025 0.55225,-0.0012 0.55164,-0.0012 0.55287,-0.0012 0.55163,-0.0012 0.55225,-0.0012 0.55164,-6.17e-4 0.55225,-6.17e-4 0.55163,-6.17e-4 0.55226,-6.17e-4 0.55163,-6.17e-4 h 0.55225 l 0.55225,-6.17e-4 h 0.55164 0.55225 l 0.55163,-6.17e-4 0.55226,-6.17e-4 h 0.55163 0.55225 0.55225 0.55226 0.55163 0.55225 0.55164 0.55225 0.55163 0.55225 0.55164 l 0.55225,-6.17e-4 h 0.55225 0.55164 0.55225 0.55163 0.55225 0.55164 0.55225 0.55225 0.55225 0.55164 0.55225 0.55163 0.55226 0.55163 0.55225 0.55164 0.55225 0.55225 0.55164 0.55225 0.55163 0.55225 0.55164 0.55225 0.55225 0.55225 0.55164 0.55225 0.55163 0.55225 0.55164 0.55225 0.55164 0.55225 0.55225 0.55163 0.55226 0.55163 0.55225 0.55164 0.55225 0.55225 0.55225 0.55164 0.55225 0.55163 0.55225 0.55164 0.55225 0.55163 0.55226 0.55225 0.55163 0.55225 0.55164 0.55225 0.55163 0.55226 0.55225 0.55225 0.55163 0.55226 0.55163 0.55225 0.55164 0.55225 0.55163 0.55225 0.55226 0.55163 0.55225 0.55164 0.55225 0.55163 0.55225 0.55226 0.55225 0.55163 0.55225 0.55164 0.55225 0.55163 0.55226 0.55163 0.55225 0.55225 0.55164 0.55225 0.55163 0.55226 0.55163 0.55225 0.55225 0.55226 0.55163 0.55225 0.55164 0.55225 0.55163 0.55225 0.55226 0.55163 0.55225 0.55164 0.55225 0.55163 0.55226 0.55163 0.55225 0.55225 0.55225 0.55164 0.55225 0.55164 0.55225 0.55163 0.55225 0.55164 0.55225 0.55225 0.55164 0.55225 0.55163 0.55225 0.55164 0.55225 0.55225 0.55225 0.55164 0.55225 0.55163 0.55226 0.55163 0.55225 0.55225 0.55164 0.55225 0.55163 0.55226 0.55163 0.55225 0.55225 0.55164 0.55225 0.55225 0.55164 0.55225 0.55163 0.55225 0.55164 0.55225 0.55225 0.55164 0.55225 0.55163 0.55225 0.55164 0.55225 0.55225 0.55164 0.55225 0.55225 0.55163 0.55226 0.55163 0.55225 0.55164 0.55225" /><path
       inkscape:connector-curvature="0"
       id="path134"
       style="fill:none;stroke:#77ac30;stroke-width:0.92556137;stroke-linecap:butt;stroke-linejoin:round;stroke-miterlimit:10;stroke-dasharray:none;stroke-opacity:1"
       d="m 54.335579,30.908955 h 33.671864 l 0.552252,6.17e-4 h 2.207772 0.551635 0.552251 0.551635 l 0.552251,6.17e-4 0.552252,6.17e-4 h 0.552252 l 0.551634,6.17e-4 h 0.552252 l 0.551634,0.0012 0.552252,6.17e-4 0.551635,0.0012 0.552251,0.0012 0.552252,0.0012 0.551635,0.0025 0.552251,0.0019 0.551635,0.0031 0.552256,0.0031 0.55163,0.0043 0.55225,0.0049 0.55164,0.0056 0.55225,0.0074 0.55225,0.008 0.55225,0.01049 0.55164,0.01172 0.55225,0.01419 0.55163,0.01666 0.55225,0.01974 0.55164,0.02345 0.55225,0.02715 0.55225,0.0327 0.55164,0.03764 0.55225,0.04381 0.55163,0.0506 0.55225,0.05985 0.55164,0.06911 0.55225,0.0796 0.55164,0.09194 0.55225,0.106131 0.55225,0.121557 0.55225,0.139451 0.55163,0.159197 0.55226,0.18141 0.55163,0.206709 0.55225,0.234475 0.55164,0.265945 0.55225,0.299882 0.55225,0.337521 0.55163,0.380097 0.55226,0.425759 0.55163,0.476355 0.55225,0.53189 0.55164,0.591742 0.55225,0.657149 0.55163,0.728108 0.55225,0.804622 0.55226,0.886687 0.55225,0.974308 0.55163,1.069332 0.55225,1.169293 0.55164,1.27604 0.55225,1.388342 0.55163,1.508048 0.55226,1.632691 0.55225,1.762886 0.55163,1.898634 0.55225,2.039321 0.55164,2.185559 0.55225,2.334883 0.55163,2.487909 0.55226,2.64402 0.55163,2.801983 0.55225,2.960562 0.55225,3.119759 0.55226,3.277722 0.55163,3.433832 0.55225,3.586242 0.55164,3.734332 0.55225,3.876868 0.55163,4.012 0.55225,4.137877 0.55226,4.25449 0.55163,4.3594 0.55225,4.45133 0.55164,4.5297 0.55225,4.5914 0.55163,4.63768 0.55225,4.66483 0.55164,4.67347 0.55287,4.66236 0.55163,4.62966 0.55225,4.57535 0.55164,4.49947 0.55225,4.40135 0.55163,4.27979 0.55226,4.13541 0.55163,3.96943 0.55225,3.78122 0.55225,3.57082 0.55164,3.34004 0.55225,3.09014 0.55163,2.82173 0.55226,2.53481 0.55163,2.23368 0.55225,1.91838 0.55225,1.59135 0.55226,1.25383 0.55163,0.9089 0.55225,0.55781 0.55164,0.203 0.55225,-0.15241 0.55163,-0.50782 0.55225,-0.85892 0.55164,-1.20508 0.55225,-1.54322 0.55225,-1.87149 0.55164,-2.18864 0.55225,-2.49161 0.55163,-2.77977 0.55225,-3.05065 0.55164,-3.30302 0.55225,-3.53626 0.55225,-3.74853 0.55225,-3.9398 0.55164,-4.1095 0.55225,-4.25573 0.55164,-4.38037 0.55225,-4.48157 0.55163,-4.56055 0.55225,-4.61732 0.55164,-4.6531 0.55225,-4.6673 0.55225,-4.66174 0.55164,-4.63645 0.55225,-4.59325 0.55163,-4.53402 0.55225,-4.45812 0.55164,-4.36803 0.55225,-4.266219 0.55225,-4.150834 0.55225,-4.026192 0.55164,-3.893529 0.55225,-3.752225 0.55163,-3.604754 0.55226,-3.454195 0.55163,-3.2987 0.55225,-3.141356 0.55225,-2.983393 0.55164,-2.824813 0.55225,-2.666851 0.55163,-2.511357 0.55226,-2.35833 0.55163,-2.208389 0.55225,-2.062768 0.55164,-1.921466 0.55225,-1.785099 0.55225,-1.65367 0.55225,-1.529027 0.55164,-1.409322 0.55225,-1.295786 0.55163,-1.18842 0.55225,-1.087227 0.55164,-0.992201 0.55225,-0.902731 0.55225,-0.820665 0.55164,-0.7423 0.55225,-0.67134 0.55163,-0.604701 0.55225,-0.54423 0.55164,-0.487463 0.55225,-0.437482 0.55163,-0.389352 0.55226,-0.346777 0.55225,-0.308521 0.55225,-0.273349 0.55163,-0.24188 0.55226,-0.212879 0.55163,-0.187581 0.55225,-0.16475 0.55164,-0.144387 0.55225,-0.126494 0.55225,-0.109833 0.55163,-0.09564 0.55226,-0.08268 0.55163,-0.07219 0.55225,-0.06171 0.55164,-0.05368 0.55225,-0.04566 0.55163,-0.04011 0.55225,-0.03332 0.55226,-0.029 0.55225,-0.02468 0.55163,-0.02098 0.55225,-0.01728 0.55164,-0.01543 0.55225,-0.01234 0.55164,-0.01111 0.55225,-0.0086 0.55225,-0.0074 0.55163,-0.0068 0.55225,-0.0049 0.55164,-0.0043 0.55225,-0.0037 0.55164,-0.0031 0.55225,-0.0025 0.55163,-0.0019 0.55225,-0.0019 0.55225,-0.0012 0.55226,-0.0012 0.55163,-6.17e-4 0.55225,-0.0012 0.55164,-6.17e-4 0.55225,-6.17e-4 h 0.55163 l 0.55226,-6.17e-4 0.55225,-6.17e-4 h 0.55163 0.55225 0.55164 0.55225 0.55163 0.55226 0.55163 0.55225 l 0.55225,-6.17e-4 h 0.55225 0.55164 0.55225 0.55164 0.55225 0.55163 0.55225 0.55226 0.55163 0.55225 0.55164 0.55225 0.55163 0.55225 0.55164 0.55287 0.55163 0.55225 0.55164 0.55225 0.55163 0.55226 0.55163 0.55225 0.55225 0.55164 0.55225 0.55163 0.55226 0.55163 0.55225 0.55225 0.55226 0.55163 0.55225 0.55164 0.55225 0.55163 0.55225 0.55164 0.55225 0.55225 0.55164 0.55225 0.55163 0.55225 0.55164 0.55225 0.55225 0.55225 0.55164 0.55225 0.55163 0.55226 0.55163 0.55225 0.55164 0.55225 0.55225 0.55164 0.55225 0.55163 0.55225 0.55164 0.55225 0.55225 0.55225 0.55164 0.55225 0.55163 0.55225 0.55164 0.55225 0.55164 0.55225 0.55225 0.55163 0.55226 0.55163 0.55225 0.55164 0.55225 0.55225 0.55225 0.55164 0.55225 0.55163 0.55225 0.55164 0.55225 0.55163 0.55226 0.55225 0.55163 0.55225 0.55164 0.55225 0.55163 0.55226 0.55225 0.55225 0.55163 0.55226 0.55163 0.55225 0.55164 0.55225 0.55163 0.55225 0.55226 0.55163 0.55225 0.55164 0.55225 0.55163 0.55225 0.55226 0.55225 0.55163 0.55225 0.55164 0.55225 0.55163 0.55226 0.55163 0.55225 0.55225 0.55164 0.55225 0.55163 0.55226 0.55163 0.55225 0.55225 0.55226 0.55163 0.55225 0.55164 0.55225 0.55163 0.55225 0.55226 0.55163 0.55225 0.55164 0.55225 0.55163 0.55226 0.55163 0.55225 0.55225 0.55225 0.55164 0.55225 0.55164 0.55225 0.55163 0.55225 0.55164 0.55225 0.55225 0.55164 0.55225 0.55163 0.55225 0.55164 0.55225 0.55225 0.55225 0.55164 0.55225 0.55163 0.55226 0.55163 0.55225 0.55225 0.55164 0.55225 0.55163 0.55226 0.55163 0.55225 0.55225 0.55164 0.55225 0.55225 0.55164 0.55225 0.55163 0.55225 0.55164 0.55225 0.55225 0.55164 0.55225 0.55163 0.55225 0.55164 0.55225 0.55225 0.55164 0.55225 0.55225 0.55163 0.55226 0.55163 0.55225 0.55164 0.55225" /><g
       id="g1141"
       transform="matrix(0.61704093,0,0,0.61704093,-2.9752439,-95.761495)"><text
         transform="scale(1,-1)"
         id="text1113"
         y="-181.6398"
         x="88.093216"
         style="font-style:normal;font-variant:normal;font-weight:normal;font-stretch:normal;font-size:12px;line-height:1.25;font-family:sans-serif;-inkscape-font-specification:'sans-serif, Normal';font-variant-ligatures:normal;font-variant-caps:normal;font-variant-numeric:normal;font-feature-settings:normal;text-align:start;letter-spacing:0px;word-spacing:0px;writing-mode:lr-tb;text-anchor:start;fill:#000000;fill-opacity:1;stroke:none;stroke-width:0.75"
         xml:space="preserve"><tspan
           style="stroke-width:0.75"
           y="-181.6398"
           x="88.093216"
           id="tspan1111"
           sodipodi:role="line">$0$</tspan></text>
<text
         xml:space="preserve"
         style="font-style:normal;font-variant:normal;font-weight:normal;font-stretch:normal;font-size:12px;line-height:1.25;font-family:sans-serif;-inkscape-font-specification:'sans-serif, Normal';font-variant-ligatures:normal;font-variant-caps:normal;font-variant-numeric:normal;font-feature-settings:normal;text-align:start;letter-spacing:0px;word-spacing:0px;writing-mode:lr-tb;text-anchor:start;fill:#000000;fill-opacity:1;stroke:none;stroke-width:0.75"
         x="199.36336"
         y="-181.6398"
         id="text1117"
         transform="scale(1,-1)"><tspan
           sodipodi:role="line"
           id="tspan1115"
           x="199.36336"
           y="-181.6398"
           style="stroke-width:0.75">$1$</tspan></text>
<text
         transform="scale(1,-1)"
         id="text1121"
         y="-181.6398"
         x="310.63345"
         style="font-style:normal;font-variant:normal;font-weight:normal;font-stretch:normal;font-size:12px;line-height:1.25;font-family:sans-serif;-inkscape-font-specification:'sans-serif, Normal';font-variant-ligatures:normal;font-variant-caps:normal;font-variant-numeric:normal;font-feature-settings:normal;text-align:start;letter-spacing:0px;word-spacing:0px;writing-mode:lr-tb;text-anchor:start;fill:#000000;fill-opacity:1;stroke:none;stroke-width:0.75"
         xml:space="preserve"><tspan
           style="stroke-width:0.75"
           y="-181.6398"
           x="310.63345"
           id="tspan1119"
           sodipodi:role="line">$2$</tspan></text>
<text
         xml:space="preserve"
         style="font-style:normal;font-variant:normal;font-weight:normal;font-stretch:normal;font-size:12px;line-height:1.25;font-family:sans-serif;-inkscape-font-specification:'sans-serif, Normal';font-variant-ligatures:normal;font-variant-caps:normal;font-variant-numeric:normal;font-feature-settings:normal;text-align:start;letter-spacing:0px;word-spacing:0px;writing-mode:lr-tb;text-anchor:start;fill:#000000;fill-opacity:1;stroke:none;stroke-width:0.75"
         x="421.90356"
         y="-181.6398"
         id="text1125"
         transform="scale(1,-1)"><tspan
           sodipodi:role="line"
           id="tspan1123"
           x="421.90356"
           y="-181.6398"
           style="stroke-width:0.75">$3$</tspan></text>
<text
         transform="scale(1,-1)"
         id="text1129"
         y="-181.6398"
         x="533.17377"
         style="font-style:normal;font-variant:normal;font-weight:normal;font-stretch:normal;font-size:12px;line-height:1.25;font-family:sans-serif;-inkscape-font-specification:'sans-serif, Normal';font-variant-ligatures:normal;font-variant-caps:normal;font-variant-numeric:normal;font-feature-settings:normal;text-align:start;letter-spacing:0px;word-spacing:0px;writing-mode:lr-tb;text-anchor:start;fill:#000000;fill-opacity:1;stroke:none;stroke-width:0.75"
         xml:space="preserve"><tspan
           style="stroke-width:0.75"
           y="-181.6398"
           x="533.17377"
           id="tspan1127"
           sodipodi:role="line">$4$</tspan></text>
</g><text
       xml:space="preserve"
       style="font-style:normal;font-variant:normal;font-weight:normal;font-stretch:normal;font-size:7.40449095px;line-height:1.25;font-family:sans-serif;-inkscape-font-specification:'sans-serif, Normal';font-variant-ligatures:normal;font-variant-caps:normal;font-variant-numeric:normal;font-feature-settings:normal;text-align:start;letter-spacing:0px;word-spacing:0px;writing-mode:lr-tb;text-anchor:start;fill:#000000;fill-opacity:1;stroke:none;stroke-width:0.46278068"
       x="192.45157"
       y="-3.37553"
       id="text1145"
       transform="scale(1,-1)"><tspan
         sodipodi:role="line"
         id="tspan1143"
         x="192.45157"
         y="-3.37553"
         style="stroke-width:0.46278068">$z$</tspan></text>
<g
       id="g1189"
       transform="matrix(0.61704093,0,0,0.61704093,-2.9752439,-109.4802)"><text
         transform="scale(1,-1)"
         id="text1149"
         y="-221.91101"
         x="49.080513"
         style="font-style:normal;font-variant:normal;font-weight:normal;font-stretch:normal;font-size:12px;line-height:1.25;font-family:sans-serif;-inkscape-font-specification:'sans-serif, Normal';font-variant-ligatures:normal;font-variant-caps:normal;font-variant-numeric:normal;font-feature-settings:normal;text-align:start;letter-spacing:0px;word-spacing:0px;writing-mode:lr-tb;text-anchor:start;fill:#000000;fill-opacity:1;stroke:none;stroke-width:0.75"
         xml:space="preserve"><tspan
           style="stroke-width:0.75"
           y="-221.91101"
           x="49.080513"
           id="tspan1147"
           sodipodi:role="line">$0$</tspan></text>
<text
         xml:space="preserve"
         style="font-style:normal;font-variant:normal;font-weight:normal;font-stretch:normal;font-size:12px;line-height:1.25;font-family:sans-serif;-inkscape-font-specification:'sans-serif, Normal';font-variant-ligatures:normal;font-variant-caps:normal;font-variant-numeric:normal;font-feature-settings:normal;text-align:start;letter-spacing:0px;word-spacing:0px;writing-mode:lr-tb;text-anchor:start;fill:#000000;fill-opacity:1;stroke:none;stroke-width:0.75"
         x="45.264107"
         y="-280.77963"
         id="text1153"
         transform="scale(1,-1)"><tspan
           sodipodi:role="line"
           id="tspan1151"
           x="45.264107"
           y="-280.77963"
           style="stroke-width:0.75">$0.5$</tspan></text>
<text
         transform="scale(1,-1)"
         id="text1157"
         y="-339.64828"
         x="50.98872"
         style="font-style:normal;font-variant:normal;font-weight:normal;font-stretch:normal;font-size:12px;line-height:1.25;font-family:sans-serif;-inkscape-font-specification:'sans-serif, Normal';font-variant-ligatures:normal;font-variant-caps:normal;font-variant-numeric:normal;font-feature-settings:normal;text-align:start;letter-spacing:0px;word-spacing:0px;writing-mode:lr-tb;text-anchor:start;fill:#000000;fill-opacity:1;stroke:none;stroke-width:0.75"
         xml:space="preserve"><tspan
           style="stroke-width:0.75"
           y="-339.64828"
           x="50.98872"
           id="tspan1155"
           sodipodi:role="line">$1$</tspan></text>
<text
         xml:space="preserve"
         style="font-style:normal;font-variant:normal;font-weight:normal;font-stretch:normal;font-size:12px;line-height:1.25;font-family:sans-serif;-inkscape-font-specification:'sans-serif, Normal';font-variant-ligatures:normal;font-variant-caps:normal;font-variant-numeric:normal;font-feature-settings:normal;text-align:start;letter-spacing:0px;word-spacing:0px;writing-mode:lr-tb;text-anchor:start;fill:#000000;fill-opacity:1;stroke:none;stroke-width:0.75"
         x="47.172306"
         y="-398.51694"
         id="text1161"
         transform="scale(1,-1)"><tspan
           sodipodi:role="line"
           id="tspan1159"
           x="47.172306"
           y="-398.51694"
           style="stroke-width:0.75">$1.5$</tspan></text>
<text
         transform="scale(1,-1)"
         id="text1165"
         y="-457.38556"
         x="52.896919"
         style="font-style:normal;font-variant:normal;font-weight:normal;font-stretch:normal;font-size:12px;line-height:1.25;font-family:sans-serif;-inkscape-font-specification:'sans-serif, Normal';font-variant-ligatures:normal;font-variant-caps:normal;font-variant-numeric:normal;font-feature-settings:normal;text-align:start;letter-spacing:0px;word-spacing:0px;writing-mode:lr-tb;text-anchor:start;fill:#000000;fill-opacity:1;stroke:none;stroke-width:0.75"
         xml:space="preserve"><tspan
           style="stroke-width:0.75"
           y="-457.38556"
           x="52.896919"
           id="tspan1163"
           sodipodi:role="line">$2$</tspan></text>
<text
         xml:space="preserve"
         style="font-style:normal;font-variant:normal;font-weight:normal;font-stretch:normal;font-size:12px;line-height:1.25;font-family:sans-serif;-inkscape-font-specification:'sans-serif, Normal';font-variant-ligatures:normal;font-variant-caps:normal;font-variant-numeric:normal;font-feature-settings:normal;text-align:start;letter-spacing:0px;word-spacing:0px;writing-mode:lr-tb;text-anchor:start;fill:#000000;fill-opacity:1;stroke:none;stroke-width:0.75"
         x="49.080513"
         y="-516.25421"
         id="text1169"
         transform="scale(1,-1)"><tspan
           sodipodi:role="line"
           id="tspan1167"
           x="49.080513"
           y="-516.25421"
           style="stroke-width:0.75">$2.5$</tspan></text>
<text
         transform="scale(1,-1)"
         id="text1173"
         y="-575.12286"
         x="54.805122"
         style="font-style:normal;font-variant:normal;font-weight:normal;font-stretch:normal;font-size:12px;line-height:1.25;font-family:sans-serif;-inkscape-font-specification:'sans-serif, Normal';font-variant-ligatures:normal;font-variant-caps:normal;font-variant-numeric:normal;font-feature-settings:normal;text-align:start;letter-spacing:0px;word-spacing:0px;writing-mode:lr-tb;text-anchor:start;fill:#000000;fill-opacity:1;stroke:none;stroke-width:0.75"
         xml:space="preserve"><tspan
           style="stroke-width:0.75"
           y="-575.12286"
           x="54.805122"
           id="tspan1171"
           sodipodi:role="line">$3$</tspan></text>
</g><text
       xml:space="preserve"
       style="font-style:normal;font-variant:normal;font-weight:normal;font-stretch:normal;font-size:7.40449095px;line-height:1.25;font-family:sans-serif;-inkscape-font-specification:'sans-serif, Normal';font-variant-ligatures:normal;font-variant-caps:normal;font-variant-numeric:normal;font-feature-settings:normal;text-align:start;letter-spacing:0px;word-spacing:0px;writing-mode:lr-tb;text-anchor:start;fill:#000000;fill-opacity:1;stroke:none;stroke-width:0.46278068"
       x="5.078074"
       y="-133.21753"
       id="text1193"
       transform="scale(1,-1)"><tspan
         sodipodi:role="line"
         id="tspan1191"
         x="5.078074"
         y="-133.21753"
         style="stroke-width:0.46278068">$p(z)$</tspan></text>
<text
       xml:space="preserve"
       style="font-style:normal;font-variant:normal;font-weight:normal;font-stretch:normal;font-size:7.40449095px;line-height:1.25;font-family:sans-serif;-inkscape-font-specification:'sans-serif, Normal';font-variant-ligatures:normal;font-variant-caps:normal;font-variant-numeric:normal;font-feature-settings:normal;text-align:start;letter-spacing:0px;word-spacing:0px;writing-mode:lr-tb;text-anchor:start;fill:#000000;fill-opacity:1;stroke:none;stroke-width:0.46278068"
       x="192.13469"
       y="-77.576416"
       id="text1197"
       transform="scale(1,-1)"><tspan
         sodipodi:role="line"
         id="tspan1195"
         x="192.13469"
         y="-77.576416"
         style="stroke-width:0.46278068">$K = 0$ Rayleigh</tspan></text>
<text
       transform="scale(1,-1)"
       id="text1201"
       y="-91.120644"
       x="192.13469"
       style="font-style:normal;font-variant:normal;font-weight:normal;font-stretch:normal;font-size:7.40449095px;line-height:1.25;font-family:sans-serif;-inkscape-font-specification:'sans-serif, Normal';font-variant-ligatures:normal;font-variant-caps:normal;font-variant-numeric:normal;font-feature-settings:normal;text-align:start;letter-spacing:0px;word-spacing:0px;writing-mode:lr-tb;text-anchor:start;fill:#000000;fill-opacity:1;stroke:none;stroke-width:0.46278068"
       xml:space="preserve"><tspan
         style="stroke-width:0.46278068"
         y="-91.120644"
         x="192.13469"
         id="tspan1199"
         sodipodi:role="line">$K = 2$</tspan></text>
<text
       xml:space="preserve"
       style="font-style:normal;font-variant:normal;font-weight:normal;font-stretch:normal;font-size:7.40449095px;line-height:1.25;font-family:sans-serif;-inkscape-font-specification:'sans-serif, Normal';font-variant-ligatures:normal;font-variant-caps:normal;font-variant-numeric:normal;font-feature-settings:normal;text-align:start;letter-spacing:0px;word-spacing:0px;writing-mode:lr-tb;text-anchor:start;fill:#000000;fill-opacity:1;stroke:none;stroke-width:0.46278068"
       x="192.13469"
       y="-105.39698"
       id="text1205"
       transform="scale(1,-1)"><tspan
         sodipodi:role="line"
         id="tspan1203"
         x="192.13469"
         y="-105.39698"
         style="stroke-width:0.46278068">$K = 4$</tspan></text>
<text
       transform="scale(1,-1)"
       id="text1209"
       y="-120.7715"
       x="192.13469"
       style="font-style:normal;font-variant:normal;font-weight:normal;font-stretch:normal;font-size:7.40449095px;line-height:1.25;font-family:sans-serif;-inkscape-font-specification:'sans-serif, Normal';font-variant-ligatures:normal;font-variant-caps:normal;font-variant-numeric:normal;font-feature-settings:normal;text-align:start;letter-spacing:0px;word-spacing:0px;writing-mode:lr-tb;text-anchor:start;fill:#000000;fill-opacity:1;stroke:none;stroke-width:0.46278068"
       xml:space="preserve"><tspan
         style="stroke-width:0.46278068"
         y="-120.7715"
         x="192.13469"
         id="tspan1207"
         sodipodi:role="line">$K = 16$</tspan></text>
<text
       xml:space="preserve"
       style="font-style:normal;font-variant:normal;font-weight:normal;font-stretch:normal;font-size:7.40449095px;line-height:1.25;font-family:sans-serif;-inkscape-font-specification:'sans-serif, Normal';font-variant-ligatures:normal;font-variant-caps:normal;font-variant-numeric:normal;font-feature-settings:normal;text-align:start;letter-spacing:0px;word-spacing:0px;writing-mode:lr-tb;text-anchor:start;fill:#000000;fill-opacity:1;stroke:none;stroke-width:0.46278068"
       x="192.13469"
       y="-135.77995"
       id="text1213"
       transform="scale(1,-1)"><tspan
         sodipodi:role="line"
         id="tspan1211"
         x="192.13469"
         y="-135.77995"
         style="stroke-width:0.46278068">$K = 32$</tspan></text>
<path
       style="fill:none;stroke:#000000;stroke-width:0.30000001;stroke-linecap:butt;stroke-linejoin:miter;stroke-opacity:1;stroke-miterlimit:4;stroke-dasharray:none"
       d="M 189.61018,75.92801 167.16738,62.084787"
       id="path1234"
       inkscape:connector-curvature="0" /><path
       inkscape:connector-curvature="0"
       id="path1236"
       d="M 189.61018,91.239451 158.35806,71.942838"
       style="fill:none;stroke:#000000;stroke-width:0.30000001;stroke-linecap:butt;stroke-linejoin:miter;stroke-miterlimit:4;stroke-dasharray:none;stroke-opacity:1"
       sodipodi:nodetypes="cc" /><path
       style="fill:none;stroke:#000000;stroke-width:0.30000001;stroke-linecap:butt;stroke-linejoin:miter;stroke-miterlimit:4;stroke-dasharray:none;stroke-opacity:1"
       d="M 189.61018,106.1314 162.55297,88.932246"
       id="path1238"
       inkscape:connector-curvature="0"
       sodipodi:nodetypes="cc" /><path
       inkscape:connector-curvature="0"
       id="path1240"
       d="m 189.61018,121.2331 -24.54026,-2.30721"
       style="fill:none;stroke:#000000;stroke-width:0.30000001;stroke-linecap:butt;stroke-linejoin:miter;stroke-miterlimit:4;stroke-dasharray:none;stroke-opacity:1"
       sodipodi:nodetypes="cc" /><path
       style="fill:none;stroke:#000000;stroke-width:0.30000001;stroke-linecap:butt;stroke-linejoin:miter;stroke-miterlimit:4;stroke-dasharray:none;stroke-opacity:1"
       d="m 189.61018,136.75429 -29.7839,-3.98518"
       id="path1242"
       inkscape:connector-curvature="0"
       sodipodi:nodetypes="cc" /></g></svg>