<?xml version="1.0" encoding="UTF-8" standalone="no"?>
<!-- Created with Inkscape (http://www.inkscape.org/) -->

<svg
   xmlns:dc="http://purl.org/dc/elements/1.1/"
   xmlns:cc="http://creativecommons.org/ns#"
   xmlns:rdf="http://www.w3.org/1999/02/22-rdf-syntax-ns#"
   xmlns:svg="http://www.w3.org/2000/svg"
   xmlns="http://www.w3.org/2000/svg"
   xmlns:sodipodi="http://sodipodi.sourceforge.net/DTD/sodipodi-0.dtd"
   xmlns:inkscape="http://www.inkscape.org/namespaces/inkscape"
   version="1.1"
   id="svg2"
   xml:space="preserve"
   width="660"
   height="540"
   viewBox="0 0 660 540"
   sodipodi:docname="subcarrier.svg"
   inkscape:version="0.92.4 5da689c313, 2019-01-14"><metadata
     id="metadata8"><rdf:RDF><cc:Work
         rdf:about=""><dc:format>image/svg+xml</dc:format><dc:type
           rdf:resource="http://purl.org/dc/dcmitype/StillImage" /><dc:title></dc:title></cc:Work></rdf:RDF></metadata><defs
     id="defs6"><clipPath
       clipPathUnits="userSpaceOnUse"
       id="clipPath24"><path
         d="M 180,1800 H 5940 V 6120 H 180 Z"
         id="path22"
         inkscape:connector-curvature="0" /></clipPath></defs><sodipodi:namedview
     pagecolor="#ffffff"
     bordercolor="#666666"
     borderopacity="1"
     objecttolerance="10"
     gridtolerance="10"
     guidetolerance="10"
     inkscape:pageopacity="0"
     inkscape:pageshadow="2"
     inkscape:window-width="1920"
     inkscape:window-height="1051"
     id="namedview4"
     showgrid="false"
     inkscape:pagecheckerboard="true"
     inkscape:zoom="1.3343807"
     inkscape:cx="400.84082"
     inkscape:cy="262.18881"
     inkscape:window-x="0"
     inkscape:window-y="29"
     inkscape:window-maximized="1"
     inkscape:current-layer="g10" /><g
     id="g10"
     inkscape:groupmode="layer"
     inkscape:label="subcarrier"
     transform="matrix(1.3333333,0,0,-1.3333333,0,540)"><g
       id="g1278"><path
         d="M 102.1006,28.802311 V 380.88232"
         style="fill:none;stroke:#d9d9d9;stroke-width:0.5;stroke-linecap:butt;stroke-linejoin:miter;stroke-miterlimit:10;stroke-dasharray:16, 0;stroke-dashoffset:0;stroke-opacity:1"
         id="path32"
         inkscape:connector-curvature="0" /><path
         d="M 176.5006,28.802311 V 380.88232"
         style="fill:none;stroke:#d9d9d9;stroke-width:0.5;stroke-linecap:butt;stroke-linejoin:miter;stroke-miterlimit:10;stroke-dasharray:16, 0;stroke-dashoffset:0;stroke-opacity:1"
         id="path34"
         inkscape:connector-curvature="0" /><path
         d="M 250.9006,28.802311 V 380.88232"
         style="fill:none;stroke:#d9d9d9;stroke-width:0.5;stroke-linecap:butt;stroke-linejoin:miter;stroke-miterlimit:10;stroke-dasharray:16, 0;stroke-dashoffset:0;stroke-opacity:1"
         id="path36"
         inkscape:connector-curvature="0" /><path
         d="M 325.3006,28.802311 V 380.88232"
         style="fill:none;stroke:#d9d9d9;stroke-width:0.5;stroke-linecap:butt;stroke-linejoin:miter;stroke-miterlimit:10;stroke-dasharray:16, 0;stroke-dashoffset:0;stroke-opacity:1"
         id="path38"
         inkscape:connector-curvature="0" /><path
         d="M 399.7006,28.802311 V 380.88232"
         style="fill:none;stroke:#d9d9d9;stroke-width:0.5;stroke-linecap:butt;stroke-linejoin:miter;stroke-miterlimit:10;stroke-dasharray:16, 0;stroke-dashoffset:0;stroke-opacity:1"
         id="path40"
         inkscape:connector-curvature="0" /><path
         d="M 27.700698,53.950311 H 474.1006"
         style="fill:none;stroke:#d9d9d9;stroke-width:0.5;stroke-linecap:butt;stroke-linejoin:miter;stroke-miterlimit:10;stroke-dasharray:16, 0;stroke-dashoffset:0;stroke-opacity:1"
         id="path78"
         inkscape:connector-curvature="0" /><path
         d="M 27.700698,104.24832 H 474.1006"
         style="fill:none;stroke:#d9d9d9;stroke-width:0.5;stroke-linecap:butt;stroke-linejoin:miter;stroke-miterlimit:10;stroke-dasharray:16, 0;stroke-dashoffset:0;stroke-opacity:1"
         id="path80"
         inkscape:connector-curvature="0" /><path
         d="M 27.700698,154.54532 H 474.1006"
         style="fill:none;stroke:#d9d9d9;stroke-width:0.5;stroke-linecap:butt;stroke-linejoin:miter;stroke-miterlimit:10;stroke-dasharray:16, 0;stroke-dashoffset:0;stroke-opacity:1"
         id="path82"
         inkscape:connector-curvature="0" /><path
         d="M 27.700698,204.84232 H 474.1006"
         style="fill:none;stroke:#d9d9d9;stroke-width:0.5;stroke-linecap:butt;stroke-linejoin:miter;stroke-miterlimit:10;stroke-dasharray:16, 0;stroke-dashoffset:0;stroke-opacity:1"
         id="path84"
         inkscape:connector-curvature="0" /><path
         d="M 27.700698,255.13932 H 474.1006"
         style="fill:none;stroke:#d9d9d9;stroke-width:0.5;stroke-linecap:butt;stroke-linejoin:miter;stroke-miterlimit:10;stroke-dasharray:16, 0;stroke-dashoffset:0;stroke-opacity:1"
         id="path86"
         inkscape:connector-curvature="0" /><path
         d="M 27.700698,305.43632 H 474.1006"
         style="fill:none;stroke:#d9d9d9;stroke-width:0.5;stroke-linecap:butt;stroke-linejoin:miter;stroke-miterlimit:10;stroke-dasharray:16, 0;stroke-dashoffset:0;stroke-opacity:1"
         id="path88"
         inkscape:connector-curvature="0" /><path
         d="M 27.700698,355.73432 H 474.1006"
         style="fill:none;stroke:#d9d9d9;stroke-width:0.5;stroke-linecap:butt;stroke-linejoin:miter;stroke-miterlimit:10;stroke-dasharray:16, 0;stroke-dashoffset:0;stroke-opacity:1"
         id="path90"
         inkscape:connector-curvature="0" /></g><g
       id="g1232"><path
         d="m 27.700698,28.802311 v 4.465"
         style="fill:none;stroke:#262626;stroke-width:0.5;stroke-linecap:butt;stroke-linejoin:miter;stroke-miterlimit:10;stroke-dasharray:none;stroke-opacity:1"
         id="path44"
         inkscape:connector-curvature="0" /><path
         d="m 102.1006,28.802311 v 4.465"
         style="fill:none;stroke:#262626;stroke-width:0.5;stroke-linecap:butt;stroke-linejoin:miter;stroke-miterlimit:10;stroke-dasharray:none;stroke-opacity:1"
         id="path48"
         inkscape:connector-curvature="0" /><path
         d="m 176.5006,28.802311 v 4.465"
         style="fill:none;stroke:#262626;stroke-width:0.5;stroke-linecap:butt;stroke-linejoin:miter;stroke-miterlimit:10;stroke-dasharray:none;stroke-opacity:1"
         id="path52"
         inkscape:connector-curvature="0" /><path
         d="m 250.9006,28.802311 v 4.465"
         style="fill:none;stroke:#262626;stroke-width:0.5;stroke-linecap:butt;stroke-linejoin:miter;stroke-miterlimit:10;stroke-dasharray:none;stroke-opacity:1"
         id="path56"
         inkscape:connector-curvature="0" /><path
         d="m 325.3006,28.802311 v 4.465"
         style="fill:none;stroke:#262626;stroke-width:0.5;stroke-linecap:butt;stroke-linejoin:miter;stroke-miterlimit:10;stroke-dasharray:none;stroke-opacity:1"
         id="path60"
         inkscape:connector-curvature="0" /><path
         d="m 399.7006,28.802311 v 4.465"
         style="fill:none;stroke:#262626;stroke-width:0.5;stroke-linecap:butt;stroke-linejoin:miter;stroke-miterlimit:10;stroke-dasharray:none;stroke-opacity:1"
         id="path64"
         inkscape:connector-curvature="0" /><path
         d="m 474.1006,28.802311 v 4.465"
         style="fill:none;stroke:#262626;stroke-width:0.5;stroke-linecap:butt;stroke-linejoin:miter;stroke-miterlimit:10;stroke-dasharray:none;stroke-opacity:1"
         id="path68"
         inkscape:connector-curvature="0" /><path
         d="M 27.700698,28.802311 H 474.1006"
         style="fill:none;stroke:#262626;stroke-width:0.5;stroke-linecap:square;stroke-linejoin:miter;stroke-miterlimit:10;stroke-dasharray:16, 0;stroke-dashoffset:0;stroke-opacity:1"
         id="path138"
         inkscape:connector-curvature="0" /></g><g
       id="g1253"><path
         d="m 27.700698,380.88232 v -4.465"
         style="fill:none;stroke:#262626;stroke-width:0.5;stroke-linecap:butt;stroke-linejoin:miter;stroke-miterlimit:10;stroke-dasharray:none;stroke-opacity:1"
         id="path46"
         inkscape:connector-curvature="0" /><path
         d="m 102.1006,380.88232 v -4.465"
         style="fill:none;stroke:#262626;stroke-width:0.5;stroke-linecap:butt;stroke-linejoin:miter;stroke-miterlimit:10;stroke-dasharray:none;stroke-opacity:1"
         id="path50"
         inkscape:connector-curvature="0" /><path
         d="m 176.5006,380.88232 v -4.465"
         style="fill:none;stroke:#262626;stroke-width:0.5;stroke-linecap:butt;stroke-linejoin:miter;stroke-miterlimit:10;stroke-dasharray:none;stroke-opacity:1"
         id="path54"
         inkscape:connector-curvature="0" /><path
         d="m 250.9006,380.88232 v -4.465"
         style="fill:none;stroke:#262626;stroke-width:0.5;stroke-linecap:butt;stroke-linejoin:miter;stroke-miterlimit:10;stroke-dasharray:none;stroke-opacity:1"
         id="path58"
         inkscape:connector-curvature="0" /><path
         d="m 325.3006,380.88232 v -4.465"
         style="fill:none;stroke:#262626;stroke-width:0.5;stroke-linecap:butt;stroke-linejoin:miter;stroke-miterlimit:10;stroke-dasharray:none;stroke-opacity:1"
         id="path62"
         inkscape:connector-curvature="0" /><path
         d="m 399.7006,380.88232 v -4.465"
         style="fill:none;stroke:#262626;stroke-width:0.5;stroke-linecap:butt;stroke-linejoin:miter;stroke-miterlimit:10;stroke-dasharray:none;stroke-opacity:1"
         id="path66"
         inkscape:connector-curvature="0" /><path
         d="M 27.700698,380.88232 H 474.1006"
         style="fill:none;stroke:#262626;stroke-width:0.5;stroke-linecap:square;stroke-linejoin:miter;stroke-miterlimit:10;stroke-dasharray:16, 0;stroke-dashoffset:0;stroke-opacity:1"
         id="path140"
         inkscape:connector-curvature="0" /></g><g
       id="g1264"><path
         d="M 27.700698,28.802311 V 380.88232"
         style="fill:none;stroke:#d9d9d9;stroke-width:0.5;stroke-linecap:butt;stroke-linejoin:miter;stroke-miterlimit:10;stroke-dasharray:16, 0;stroke-dashoffset:0;stroke-opacity:1"
         id="path30"
         inkscape:connector-curvature="0" /><path
         d="m 27.700698,53.950311 h 4.4679"
         style="fill:none;stroke:#262626;stroke-width:0.5;stroke-linecap:butt;stroke-linejoin:miter;stroke-miterlimit:10;stroke-dasharray:none;stroke-opacity:1"
         id="path92"
         inkscape:connector-curvature="0" /><path
         d="m 27.700698,104.24832 h 4.4679"
         style="fill:none;stroke:#262626;stroke-width:0.5;stroke-linecap:butt;stroke-linejoin:miter;stroke-miterlimit:10;stroke-dasharray:none;stroke-opacity:1"
         id="path96"
         inkscape:connector-curvature="0" /><path
         d="m 27.700698,154.54532 h 4.4679"
         style="fill:none;stroke:#262626;stroke-width:0.5;stroke-linecap:butt;stroke-linejoin:miter;stroke-miterlimit:10;stroke-dasharray:none;stroke-opacity:1"
         id="path100"
         inkscape:connector-curvature="0" /><path
         d="m 27.700698,204.84232 h 4.4679"
         style="fill:none;stroke:#262626;stroke-width:0.5;stroke-linecap:butt;stroke-linejoin:miter;stroke-miterlimit:10;stroke-dasharray:none;stroke-opacity:1"
         id="path104"
         inkscape:connector-curvature="0" /><path
         d="m 27.700698,255.13932 h 4.4679"
         style="fill:none;stroke:#262626;stroke-width:0.5;stroke-linecap:butt;stroke-linejoin:miter;stroke-miterlimit:10;stroke-dasharray:none;stroke-opacity:1"
         id="path108"
         inkscape:connector-curvature="0" /><path
         d="m 27.700698,305.43632 h 4.4679"
         style="fill:none;stroke:#262626;stroke-width:0.5;stroke-linecap:butt;stroke-linejoin:miter;stroke-miterlimit:10;stroke-dasharray:none;stroke-opacity:1"
         id="path112"
         inkscape:connector-curvature="0" /><path
         d="m 27.700698,355.73432 h 4.4679"
         style="fill:none;stroke:#262626;stroke-width:0.5;stroke-linecap:butt;stroke-linejoin:miter;stroke-miterlimit:10;stroke-dasharray:none;stroke-opacity:1"
         id="path116"
         inkscape:connector-curvature="0" /><path
         d="M 27.700698,28.802311 V 380.88232"
         style="fill:none;stroke:#262626;stroke-width:0.5;stroke-linecap:square;stroke-linejoin:miter;stroke-miterlimit:10;stroke-dasharray:16, 0;stroke-dashoffset:0;stroke-opacity:1"
         id="path142"
         inkscape:connector-curvature="0" /></g><g
       id="g1244"><path
         d="M 474.1006,28.802311 V 380.88232"
         style="fill:none;stroke:#d9d9d9;stroke-width:0.5;stroke-linecap:butt;stroke-linejoin:miter;stroke-miterlimit:10;stroke-dasharray:16, 0;stroke-dashoffset:0;stroke-opacity:1"
         id="path42"
         inkscape:connector-curvature="0" /><path
         d="m 474.1006,380.88232 v -4.465"
         style="fill:none;stroke:#262626;stroke-width:0.5;stroke-linecap:butt;stroke-linejoin:miter;stroke-miterlimit:10;stroke-dasharray:none;stroke-opacity:1"
         id="path70"
         inkscape:connector-curvature="0" /><path
         d="m 474.1006,53.950311 h -4.468"
         style="fill:none;stroke:#262626;stroke-width:0.5;stroke-linecap:butt;stroke-linejoin:miter;stroke-miterlimit:10;stroke-dasharray:none;stroke-opacity:1"
         id="path94"
         inkscape:connector-curvature="0" /><path
         d="m 474.1006,104.24832 h -4.468"
         style="fill:none;stroke:#262626;stroke-width:0.5;stroke-linecap:butt;stroke-linejoin:miter;stroke-miterlimit:10;stroke-dasharray:none;stroke-opacity:1"
         id="path98"
         inkscape:connector-curvature="0" /><path
         d="m 474.1006,154.54532 h -4.468"
         style="fill:none;stroke:#262626;stroke-width:0.5;stroke-linecap:butt;stroke-linejoin:miter;stroke-miterlimit:10;stroke-dasharray:none;stroke-opacity:1"
         id="path102"
         inkscape:connector-curvature="0" /><path
         d="m 474.1006,204.84232 h -4.468"
         style="fill:none;stroke:#262626;stroke-width:0.5;stroke-linecap:butt;stroke-linejoin:miter;stroke-miterlimit:10;stroke-dasharray:none;stroke-opacity:1"
         id="path106"
         inkscape:connector-curvature="0" /><path
         d="m 474.1006,255.13932 h -4.468"
         style="fill:none;stroke:#262626;stroke-width:0.5;stroke-linecap:butt;stroke-linejoin:miter;stroke-miterlimit:10;stroke-dasharray:none;stroke-opacity:1"
         id="path110"
         inkscape:connector-curvature="0" /><path
         d="m 474.1006,305.43632 h -4.468"
         style="fill:none;stroke:#262626;stroke-width:0.5;stroke-linecap:butt;stroke-linejoin:miter;stroke-miterlimit:10;stroke-dasharray:none;stroke-opacity:1"
         id="path114"
         inkscape:connector-curvature="0" /><path
         d="m 474.1006,355.73432 h -4.468"
         style="fill:none;stroke:#262626;stroke-width:0.5;stroke-linecap:butt;stroke-linejoin:miter;stroke-miterlimit:10;stroke-dasharray:none;stroke-opacity:1"
         id="path118"
         inkscape:connector-curvature="0" /><path
         d="M 474.1006,28.802311 V 380.88232"
         style="fill:none;stroke:#262626;stroke-width:0.5;stroke-linecap:square;stroke-linejoin:miter;stroke-miterlimit:10;stroke-dasharray:16, 0;stroke-dashoffset:0;stroke-opacity:1"
         id="path144"
         inkscape:connector-curvature="0" /></g></g><g
     inkscape:groupmode="layer"
     id="layer2"
     inkscape:label="Vector"><path
       transform="matrix(1.3333333,0,0,-1.3333333,0,540)"
       inkscape:connector-curvature="0"
       id="path158"
       style="fill:none;stroke:#0072bd;stroke-width:2.25000006;stroke-linecap:butt;stroke-linejoin:round;stroke-miterlimit:10;stroke-dasharray:none;stroke-opacity:1"
       d="m 27.700698,104.24832 0.8941,-1.011 0.8946,-1.014 0.8953,-1.01 0.8945,-1.001 0.8945,-0.986005 0.8946,-0.965 0.8945,-0.939 0.8948,-0.907 0.894,-0.87 0.895,-0.827004 0.895,-0.779 0.894,-0.727 0.895,-0.67 0.894,-0.609 0.895,-0.543 0.894,-0.474 0.895,-0.402 0.894,-0.327 0.895,-0.249 0.895,-0.169 0.894,-0.088 0.895,-0.004 0.894,0.078 0.895,0.163 0.895,0.245 0.894,0.329 0.895,0.411 0.895,0.49 0.894,0.569 0.895,0.645 0.894,0.717 0.895,0.786 0.894,0.852 0.895,0.912004 0.894,0.97 0.895,1.021 0.895,1.066 0.895,1.108005 0.894,1.142 0.895,1.17 0.894,1.193 0.895,1.209 0.894,1.217 0.895,1.219 0.895,1.214 0.894,1.202 0.895,1.183 0.894,1.158 0.895,1.125 0.894,1.086 0.895,1.04 0.894,0.987 0.895,0.93 0.895,0.864 0.895,0.796 0.894,0.719 0.895,0.641 0.894,0.555 0.895,0.468 0.894,0.375 0.895,0.28 0.895,0.182 0.894,0.082 0.895,-0.019 0.894,-0.121 0.895,-0.224 0.894,-0.326 0.895,-0.429 0.894,-0.529 0.895,-0.628 0.895,-0.725 0.895,-0.817 0.894,-0.907 0.895,-0.993 0.894,-1.073 0.894997,-1.149 0.894,-1.22 0.895,-1.283 0.895,-1.34 0.894,-1.392 0.895005,-1.434 0.894,-1.47 0.895,-1.498 0.894,-1.517 0.895,-1.528 0.894,-1.531005 0.895,-1.525 0.895,-1.511 0.895,-1.486 0.894,-1.455004 0.895,-1.414 0.894,-1.365 0.895,-1.307 0.894,-1.241 0.895,-1.168 0.895,-1.086 0.894,-0.998 0.895,-0.902 0.894,-0.802 0.895,-0.693 0.894,-0.581 0.895,-0.462 0.894,-0.342 0.895,-0.215 0.895,-0.088 0.895,0.044 0.894,0.176 0.895,0.309 0.894,0.442 0.895,0.575 0.894,0.707 0.895,0.836 0.895,0.962 0.894,1.085 0.895,1.204 0.894,1.317 0.895,1.426 0.894,1.526 0.895,1.621 0.894,1.708 0.895,1.787004 0.895,1.856 0.895,1.916005 0.894,1.966 0.895,2.008 0.894,2.036 0.895,2.055 0.894,2.063 0.895,2.059 0.895,2.043 0.894,2.015 0.895,1.977 0.894,1.925 0.895,1.862 0.894,1.789 0.895,1.703 0.894,1.606 0.895,1.5 0.895,1.381 0.895,1.255 0.894,1.117 0.895,0.972 0.894,0.818 0.895,0.657 0.894,0.489 0.895,0.315 0.895,0.137 0.894,-0.048 0.895,-0.234 0.894,-0.422 0.895,-0.614 0.894,-0.804 0.895,-0.995 0.894,-1.184 0.896,-1.37 0.894,-1.553 0.895,-1.731 0.894,-1.904 0.895,-2.069 0.894,-2.227 0.895,-2.376 0.894,-2.515 0.895,-2.644 0.895,-2.762 0.894,-2.866 0.895,-2.957 0.894,-3.035 0.895,-3.099005 0.894,-3.145 0.895,-3.176004 0.895,-3.192 0.895,-3.189 0.894,-3.169 0.895,-3.133 0.894,-3.076 0.895,-3.002 0.894,-2.912 0.895,-2.801 0.894,-2.672 0.895,-2.526 0.895,-2.362 0.894,-2.18 0.895,-1.981 0.894,-1.765 0.895,-1.534 0.894,-1.287 0.895,-1.026 0.895,-0.751 0.895,-0.461 0.894,-0.162 0.895,0.151 0.894,0.472 0.895,0.801 0.894,1.14 0.895,1.484 0.894,1.834 0.895,2.187 0.895,2.542 0.894,2.9 0.895,3.256 0.894,3.61 0.895,3.962 0.894,4.309 0.895,4.65 0.895,4.984 0.895,5.308 0.894,5.622004 0.895,5.925005 0.894,6.214 0.895,6.49 0.894,6.75 0.895,6.992 0.894,7.218 0.895,7.425 0.895,7.61 0.894,7.775 0.895,7.92 0.894,8.039 0.895,8.138 0.894,8.21 0.895,8.26 0.895,8.284 0.895,8.282 0.894,8.255 0.895,8.203 0.894,8.124 0.895,8.02 0.894,7.89 0.895,7.735 0.895,7.554 0.894,7.35 0.895,7.12 0.894,6.868 0.895,6.593 0.894,6.295 0.895,5.978 0.894,5.64 0.895,5.282 0.895,4.909 0.895,4.516 0.894,4.11 0.895,3.689 0.894,3.256 0.895,2.812 0.894,2.358 0.895,1.896 0.895,1.428 0.894,0.955 0.895,0.478 h 0.894 l 0.895,-0.478 0.894,-0.955 0.895,-1.428 0.894,-1.896 0.895,-2.358 0.895,-2.812 0.895,-3.256 0.894,-3.689 0.895,-4.11 0.894,-4.516 0.895,-4.909 0.894,-5.282 0.895,-5.64 0.895,-5.978 0.894,-6.295 0.895,-6.593 0.894,-6.868 0.895,-7.12 0.894,-7.35 0.895,-7.554 0.894,-7.735 0.895,-7.89 0.895,-8.02 0.895,-8.124 0.894,-8.203 0.895,-8.255 0.894,-8.282 0.895,-8.284 0.894,-8.26 0.895,-8.21 0.895,-8.138 0.894,-8.039 0.895,-7.92 0.894,-7.775 0.895,-7.61 0.894,-7.425 0.895,-7.218 0.894,-6.992 0.895,-6.75 0.895,-6.49 0.895,-6.214 0.894,-5.925005 0.895,-5.622004 0.894,-5.308 0.895,-4.984 0.894,-4.65 0.895,-4.309 0.895,-3.962 0.894,-3.61 0.895,-3.256 0.894,-2.9 0.895,-2.542 0.894,-2.187 0.895,-1.834 0.894,-1.484 0.896,-1.14 0.894,-0.801 0.895,-0.472 0.894,-0.151 0.895,0.162 0.894,0.461 0.895,0.751 0.894,1.026 0.895,1.287 0.895,1.534 0.894,1.765 0.895,1.981 0.894,2.18 0.895,2.362 0.894,2.526 0.895,2.672 0.895,2.801 0.895,2.912 0.894,3.002 0.895,3.076 0.894,3.133 0.895,3.169 0.894,3.189 0.895,3.192 0.894,3.176004 0.895,3.145 0.895,3.099005 0.894,3.035 0.895,2.957 0.894,2.866 0.895,2.762 0.894,2.644 0.895,2.515 0.895,2.376 0.895,2.227 0.894,2.069 0.895,1.904 0.894,1.731 0.895,1.553 0.894,1.37 0.895,1.184 0.894,0.995 0.895,0.804 0.895,0.614 0.894,0.422 0.895,0.234 0.894,0.048 0.895,-0.137 0.894,-0.315 0.895,-0.489 0.895,-0.657 0.895,-0.818 0.894,-0.972 0.895,-1.117 0.894,-1.255 0.895,-1.381 0.894,-1.5 0.895,-1.606 0.894,-1.703 0.895,-1.789 0.895,-1.862 0.894,-1.925 0.895,-1.977 0.894,-2.015 0.895,-2.043 0.894,-2.059 0.895,-2.063 0.895,-2.055 0.895,-2.036 0.894,-2.008 0.895,-1.966 0.894,-1.916005 0.895,-1.856 0.894,-1.787004 0.895,-1.708 0.894,-1.621 0.895,-1.526 0.895,-1.426 0.894,-1.317 0.895,-1.204 0.894,-1.085 0.895,-0.962 0.894,-0.836 0.895,-0.707 0.895,-0.575 0.895,-0.442 0.894,-0.309 0.895,-0.176 0.894,-0.044 0.895,0.088 0.894,0.215 0.895,0.342 0.894,0.462 0.895,0.581 0.895,0.693 0.894,0.802 0.895,0.902 0.894,0.998 0.895,1.086 0.894,1.168 0.895,1.241 0.895,1.307 0.895,1.365 0.894,1.414 0.895,1.455004 0.894,1.486 0.895,1.511 0.894,1.525 0.895,1.531005 0.894,1.528 0.895,1.517 0.895,1.498 0.894,1.47 0.895,1.434 0.894,1.392 0.895,1.34 0.894,1.283 0.895,1.22 0.895,1.149 0.895,1.073 0.894,0.993 0.895,0.907 0.894,0.817 0.895,0.725 0.894,0.628 0.895,0.529 0.895,0.429 0.894,0.326 0.895,0.224 0.894,0.121 0.895,0.019 0.894,-0.082 0.895,-0.182 0.894,-0.28 0.895,-0.375 0.895,-0.468 0.895,-0.555 0.894,-0.641 0.895,-0.719 0.894,-0.796 0.895,-0.864 0.894,-0.93 0.895,-0.987 0.894,-1.04 0.895,-1.086 0.895,-1.125 0.894,-1.158 0.895,-1.183 0.894,-1.202 0.895,-1.214 0.894,-1.219 0.895,-1.217 0.895,-1.209 0.895,-1.193 0.894,-1.17 0.895,-1.142 0.894,-1.108005 0.895,-1.066 0.894,-1.021 0.895,-0.97 0.894,-0.912004 0.895,-0.852 0.895,-0.786 0.894,-0.717 0.895,-0.645 0.894,-0.569 0.895,-0.49 0.895,-0.411 0.894,-0.329 0.895,-0.245 0.895,-0.163 0.894,-0.078 0.895,0.004 0.894,0.088 0.895,0.169 0.894,0.249 0.895,0.327 0.895,0.402 0.894,0.474 0.895,0.543 0.894,0.609 0.895,0.67 0.894,0.727 0.895,0.779 0.895,0.827004 0.894,0.87 0.895,0.907 0.895,0.939 0.894,0.965 0.895,0.986005 0.894,1.001 0.895,1.01 0.894,1.014 0.895,1.011" /></g><g
     inkscape:groupmode="layer"
     id="layer1"
     inkscape:label="Text"><g
       style=""
       id="g152"
       transform="matrix(1.3333333,0,0,-1.3333333,-114.46139,794.35862)"><text
         id="text156"
         style="font-variant:normal;font-weight:normal;font-size:11px;font-family:Helvetica;-inkscape-font-specification:Helvetica;writing-mode:lr-tb;fill:#262626;fill-opacity:1;fill-rule:nonzero;stroke:none"
         transform="matrix(1,0,0,-1,313.58,200.018)"><tspan
           id="tspan154"
           y="0"
           x="0">Frequency</tspan></text>
</g><g
       style=""
       transform="matrix(0,-1.3333333,-1.3333333,0,285.59578,729.84738)"
       id="g370"><text
         transform="scale(1,-1)"
         style="font-variant:normal;font-weight:normal;font-size:11px;font-family:Helvetica;-inkscape-font-specification:Helvetica;writing-mode:lr-tb;fill:#262626;fill-opacity:1;fill-rule:nonzero;stroke:none"
         id="text368"
         x="279.40054"
         y="-200.01801"><tspan
           x="279.40054"
           y="-200.01801"
           id="tspan366">Power Spectral Density</tspan></text>
</g></g></svg>